<?xml version="1.0" encoding="UTF-8" standalone="no"?>
<!DOCTYPE svg PUBLIC "-//W3C//DTD SVG 1.1//EN" "http://www.w3.org/Graphics/SVG/1.1/DTD/svg11.dtd">
<svg width="100%" height="100%" viewBox="0 0 866 578" version="1.1" xmlns="http://www.w3.org/2000/svg" xmlns:xlink="http://www.w3.org/1999/xlink" xml:space="preserve" xmlns:serif="http://www.serif.com/" style="fill-rule:evenodd;clip-rule:evenodd;stroke-linejoin:round;stroke-miterlimit:2;">
    <g transform="matrix(0.567109,0,0,0.577778,2.54168e-14,0)">
        <path d="M1526.31,110L1526.31,890C1526.31,950.711 1476.09,1000 1414.24,1000L112.069,1000C50.217,1000 0,950.711 0,890L0,110C0,49.289 50.217,0 112.069,0L1414.24,0C1476.09,0 1526.31,49.289 1526.31,110Z" style="fill:rgb(0,36,125);"/>
        <clipPath id="_clip1">
            <path d="M1526.31,110L1526.31,890C1526.31,950.711 1476.09,1000 1414.24,1000L112.069,1000C50.217,1000 0,950.711 0,890L0,110C0,49.289 50.217,0 112.069,0L1414.24,0C1476.09,0 1526.31,49.289 1526.31,110Z"/>
        </clipPath>
        <g clip-path="url(#_clip1)">
            <g transform="matrix(1.76333,0,0,1.73077,-4.48182e-14,0)">
                <g transform="matrix(22.2222,0,0,22.2222,9.2945e-05,-111.111)">
                    <path d="M9.495,26.023L8.273,27.152L8.394,25.492L6.749,25.241L8.122,24.301L7.293,22.858L8.884,23.346L9.495,21.797L10.107,23.346L11.698,22.858L10.868,24.301L12.242,25.241L10.597,25.492L10.718,27.152L9.495,26.023ZM28.985,9.562L28.186,10.3L28.265,9.214L27.188,9.05L28.087,8.435L27.545,7.491L28.585,7.81L28.985,6.797L29.386,7.81L30.427,7.491L29.884,8.435L30.782,9.05L29.706,9.214L29.785,10.3L28.985,9.562ZM24.985,15.562L24.186,16.301L24.265,15.215L23.188,15.051L24.087,14.435L23.545,13.491L24.585,13.81L24.985,12.797L25.386,13.81L26.427,13.491L25.884,14.435L26.782,15.051L25.706,15.215L25.785,16.301L24.985,15.562ZM33.985,13.562L33.186,14.301L33.265,13.215L32.188,13.051L33.087,12.435L32.545,11.491L33.585,11.81L33.985,10.797L34.386,11.81L35.427,11.491L34.884,12.435L35.782,13.051L34.706,13.215L34.785,14.301L33.985,13.562ZM28.985,27.562L28.186,28.301L28.265,27.215L27.188,27.051L28.087,26.435L27.545,25.491L28.585,25.81L28.985,24.797L29.386,25.81L30.427,25.491L29.884,26.435L30.782,27.051L29.706,27.215L29.785,28.301L28.985,27.562ZM32.035,16L32.329,16.596L32.986,16.691L32.511,17.154L32.623,17.809L32.035,17.5L31.447,17.809L31.559,17.154L31.084,16.691L31.741,16.596L32.035,16Z" style="fill:white;fill-rule:nonzero;"/>
                </g>
                <g transform="matrix(22.7785,0,0,22.2222,9.2945e-05,-111.111)">
                    <path d="M19,5L16.669,5L12,8.269L12,5L7,5L7,7.569L2.342,4.307C1.741,4.397 1.208,4.653 0.709,5L6.426,9L4.69,9L0.133,5.806C0.023,5.935 0.226,6.284 0.133,6.425L3.813,9L0,9L0,14L3.885,14L0,16.766L0,18L3.332,18L7,15.432L7,18L12,18L12,14.731L16.668,18L19,18L19,15.971L16.185,14L19,14L19,9L16.186,9L19,7.029L19,5Z" style="fill:rgb(238,238,238);fill-rule:nonzero;"/>
                </g>
                <g transform="matrix(22.7785,0,0,22.2222,9.2945e-05,-111.111)">
                    <path d="M11,5L8,5L8,10L0,10L0,13L8,13L8,18L11,18L11,13L19,13L19,10L11,10L11,5Z" style="fill:rgb(207,27,43);fill-rule:nonzero;"/>
                </g>
                <g transform="matrix(22.7785,0,0,22.2222,9.2945e-05,-111.111)">
                    <path d="M19,5L17.539,5L12,8.879L12,9L13.571,9L19,5.198L19,5ZM0.709,5C0.473,5.284 0.357,5.502 0.133,5.806L4.69,9L6.425,9L0.709,5ZM6.437,14L0.734,18L2.461,18L7,14.822L7,14L6.437,14ZM19,17.802L19,16.582L15.313,14L13.57,14L19,17.802Z" style="fill:rgb(207,27,43);fill-rule:nonzero;"/>
                </g>
            </g>
        </g>
    </g>
</svg>
