<?xml version="1.0" encoding="UTF-8" standalone="no"?>
<!DOCTYPE svg PUBLIC "-//W3C//DTD SVG 1.1//EN" "http://www.w3.org/Graphics/SVG/1.1/DTD/svg11.dtd">
<svg width="100%" height="100%" viewBox="0 0 602 915" version="1.1" xmlns="http://www.w3.org/2000/svg" xmlns:xlink="http://www.w3.org/1999/xlink" xml:space="preserve" xmlns:serif="http://www.serif.com/" style="fill-rule:evenodd;clip-rule:evenodd;stroke-linejoin:round;stroke-miterlimit:2;">
    <g transform="matrix(1,0,0,1,27.2657,20.4483)">
        <circle cx="273.5" cy="273.5" r="273.5" style="fill:white;"/>
    </g>
    <g transform="matrix(0.782602,0,0,0.782602,59.8874,48.5881)">
        <circle cx="307.792" cy="311.17" r="266.792"/>
        <clipPath id="_clip1">
            <circle cx="307.792" cy="311.17" r="266.792"/>
        </clipPath>
        <g clip-path="url(#_clip1)">
            <g transform="matrix(0.692632,0,0,0.692632,-61.6121,-58.2341)">
                <g transform="matrix(29.6296,0,0,29.6296,0,0)">
                    <path d="M32,5L4,5C3.795,5 3.593,5.015 3.396,5.045L3.392,6.799L0.662,6.795C0.229,7.449 -0.001,8.216 0,9L0,27C0,29.194 1.806,31 4,31L32,31C34.194,31 36,29.194 36,27L36,9C36,6.806 34.194,5 32,5Z" style="fill:rgb(0,36,125);fill-rule:nonzero;"/>
                    <clipPath id="_clip2">
                        <path d="M32,5L4,5C3.795,5 3.593,5.015 3.396,5.045L3.392,6.799L0.662,6.795C0.229,7.449 -0.001,8.216 0,9L0,27C0,29.194 1.806,31 4,31L32,31C34.194,31 36,29.194 36,27L36,9C36,6.806 34.194,5 32,5Z" clip-rule="nonzero"/>
                    </clipPath>
                    <g clip-path="url(#_clip2)">
                        <g transform="matrix(-0.0406272,-0.0806994,0.0713478,-0.0317597,24.9266,86.5026)">
                            <ellipse cx="722" cy="319" rx="159" ry="196" style="fill:url(#_Radial3);"/>
                        </g>
                    </g>
                </g>
                <g transform="matrix(29.6296,0,0,29.6296,0,0)">
                    <path d="M12.128,23.938L10.906,25.067L11.027,23.407L9.382,23.156L10.755,22.216L9.926,20.773L11.517,21.261L12.128,19.712L12.74,21.261L14.331,20.773L13.501,22.216L14.875,23.156L13.23,23.407L13.351,25.067L12.128,23.938ZM25.865,11.647L25.066,12.385L25.145,11.299L24.068,11.135L24.967,10.52L24.425,9.576L25.465,9.895L25.865,8.882L26.266,9.895L27.307,9.576L26.764,10.52L27.662,11.135L26.586,11.299L26.665,12.385L25.865,11.647ZM22.386,18.169L21.587,18.908L21.666,17.822L20.589,17.658L21.488,17.042L20.946,16.098L21.986,16.417L22.386,15.404L22.787,16.417L23.828,16.098L23.285,17.042L24.183,17.658L23.107,17.822L23.186,18.908L22.386,18.169ZM22.737,28.083L21.938,28.822L22.017,27.736L20.94,27.572L21.839,26.956L21.297,26.012L22.337,26.331L22.737,25.318L23.138,26.331L24.179,26.012L23.636,26.956L24.534,27.572L23.458,27.736L23.537,28.822L22.737,28.083ZM28.915,17.043L29.209,17.639L29.866,17.734L29.391,18.197L29.503,18.852L28.915,18.543L28.327,18.852L28.439,18.197L27.964,17.734L28.621,17.639L28.915,17.043Z" style="fill:white;fill-rule:nonzero;"/>
                </g>
                <g transform="matrix(29.6296,0,0,29.6296,0,0)">
                    <path d="M19,18L19,5L4,5C3.68,5 3.396,5.045 3.396,5.045L3.392,6.799L0.662,6.795C0.662,6.795 0.62,6.854 0.535,7C0.184,7.608 -0.001,8.298 0,9L0,18L19,18Z" style="fill:rgb(0,36,125);fill-rule:nonzero;"/>
                </g>
                <g transform="matrix(29.6296,0,0,29.6296,0,0)">
                    <path d="M19,5L16.669,5L12,8.269L12,5L7,5L7,7.569L3.396,5.045C2.795,5.135 2.223,5.362 1.724,5.71L6.426,9L4.69,9L0.967,6.391C0.857,6.519 0.755,6.654 0.662,6.795L3.813,9L0,9L0,14L3.885,14L0,16.766L0,18L3.332,18L7,15.432L7,18L12,18L12,14.731L16.668,18L19,18L19,15.971L16.185,14L19,14L19,9L16.186,9L19,7.029L19,5Z" style="fill:rgb(238,238,238);fill-rule:nonzero;"/>
                </g>
                <g transform="matrix(29.6296,0,0,29.6296,0,0)">
                    <path d="M11,5L8,5L8,10L0,10L0,13L8,13L8,18L11,18L11,13L19,13L19,10L11,10L11,5Z" style="fill:rgb(207,27,43);fill-rule:nonzero;"/>
                </g>
                <g transform="matrix(29.6296,0,0,29.6296,0,0)">
                    <path d="M19,5L17.539,5L12,8.879L12,9L13.571,9L19,5.198L19,5ZM1.724,5.71C1.444,5.904 1.19,6.133 0.967,6.391L4.69,9L6.425,9L1.724,5.71ZM6.437,14L0.734,18L2.461,18L7,14.822L7,14L6.437,14ZM19,17.802L19,16.582L15.313,14L13.57,14L19,17.802Z" style="fill:rgb(207,27,43);fill-rule:nonzero;"/>
                </g>
            </g>
        </g>
    </g>
    <g transform="matrix(1.42168,0,0,1.42168,0,155.996)">
        <g id="path1" transform="matrix(0.177776,0,0,-0.177776,0,533.331)">
            <path d="M1190.02,724.773C532.789,724.773 0,562.527 0,362.395C0,162.246 532.789,0 1190.02,0C1847.25,0 2380.04,162.246 2380.04,362.395C2380.04,562.539 1847.25,724.773 1190.02,724.773ZM1785.23,258.691C1626.88,210.469 1415.5,183.895 1190.02,183.895C964.547,183.895 753.168,210.461 594.809,258.691C432.355,308.164 374.707,366.223 374.707,400.906C374.707,435.598 432.355,493.652 594.809,543.125C753.168,591.348 964.547,617.898 1190.02,617.898L1190.11,617.898C1415.54,617.898 1626.91,591.348 1785.25,543.125C1947.69,493.652 2005.32,435.598 2005.32,400.906C2005.32,366.223 1947.68,308.164 1785.23,258.691" style="fill-rule:nonzero;"/>
            <clipPath id="_clip4">
                <path d="M1190.02,724.773C532.789,724.773 0,562.527 0,362.395C0,162.246 532.789,0 1190.02,0C1847.25,0 2380.04,162.246 2380.04,362.395C2380.04,562.539 1847.25,724.773 1190.02,724.773ZM1785.23,258.691C1626.88,210.469 1415.5,183.895 1190.02,183.895C964.547,183.895 753.168,210.461 594.809,258.691C432.355,308.164 374.707,366.223 374.707,400.906C374.707,435.598 432.355,493.652 594.809,543.125C753.168,591.348 964.547,617.898 1190.02,617.898L1190.11,617.898C1415.54,617.898 1626.91,591.348 1785.25,543.125C1947.69,493.652 2005.32,435.598 2005.32,400.906C2005.32,366.223 1947.68,308.164 1785.23,258.691" clip-rule="nonzero"/>
            </clipPath>
            <g clip-path="url(#_clip4)">
                <g transform="matrix(-3.05635,6.07094,7.21737,3.21273,1176.75,-4968.91)">
                    <ellipse cx="722" cy="319" rx="159" ry="196" style="fill:url(#_Radial5);"/>
                </g>
            </g>
        </g>
        <g id="path2" transform="matrix(0.218837,0,0,-0.218837,-49.0155,546.783)">
            <path d="M1193.73,3000C1705.95,3000 2121.17,2584.79 2121.17,2072.57C2121.17,1984.55 2108.63,1899.51 2085.73,1818.83C2071.61,1769.17 2056.19,1719.84 2031.86,1675.25C1841.67,1327.06 1193.73,327.629 1193.73,327.629C1193.73,327.629 545.816,1327.04 355.625,1675.23C331.281,1719.82 315.844,1769.16 301.75,1818.83C278.828,1899.51 266.293,1984.55 266.293,2072.57C266.293,2584.79 681.535,3000 1193.73,3000ZM1190.72,2842.5C758.832,2842.5 408.197,2491.87 408.197,2059.98C408.197,1628.1 758.832,1277.46 1190.72,1277.46C1622.6,1277.46 1973.24,1628.1 1973.24,2059.98C1973.24,2491.87 1622.6,2842.5 1190.72,2842.5Z"/>
            <clipPath id="_clip6">
                <path d="M1193.73,3000C1705.95,3000 2121.17,2584.79 2121.17,2072.57C2121.17,1984.55 2108.63,1899.51 2085.73,1818.83C2071.61,1769.17 2056.19,1719.84 2031.86,1675.25C1841.67,1327.06 1193.73,327.629 1193.73,327.629C1193.73,327.629 545.816,1327.04 355.625,1675.23C331.281,1719.82 315.844,1769.16 301.75,1818.83C278.828,1899.51 266.293,1984.55 266.293,2072.57C266.293,2584.79 681.535,3000 1193.73,3000ZM1190.72,2842.5C758.832,2842.5 408.197,2491.87 408.197,2059.98C408.197,1628.1 758.832,1277.46 1190.72,1277.46C1622.6,1277.46 1973.24,1628.1 1973.24,2059.98C1973.24,2491.87 1622.6,2842.5 1190.72,2842.5Z"/>
            </clipPath>
            <g clip-path="url(#_clip6)">
                <g transform="matrix(-5.03707,10.0053,5.86316,2.60992,2939.37,-6204.7)">
                    <ellipse cx="722" cy="319" rx="159" ry="196" style="fill:url(#_Radial7);"/>
                </g>
            </g>
        </g>
    </g>
    <defs>
        <radialGradient id="_Radial3" cx="0" cy="0" r="1" gradientUnits="userSpaceOnUse" gradientTransform="matrix(318,0,0,392,563,319)"><stop offset="0" style="stop-color:rgb(27,35,150);stop-opacity:1"/><stop offset="0.45" style="stop-color:rgb(41,58,172);stop-opacity:1"/><stop offset="1" style="stop-color:rgb(74,116,226);stop-opacity:1"/></radialGradient>
        <radialGradient id="_Radial5" cx="0" cy="0" r="1" gradientUnits="userSpaceOnUse" gradientTransform="matrix(318,0,0,392,563,319)"><stop offset="0" style="stop-color:rgb(27,35,150);stop-opacity:1"/><stop offset="1" style="stop-color:rgb(74,116,226);stop-opacity:1"/></radialGradient>
        <radialGradient id="_Radial7" cx="0" cy="0" r="1" gradientUnits="userSpaceOnUse" gradientTransform="matrix(318,0,0,392,563,319)"><stop offset="0" style="stop-color:rgb(7,0,117);stop-opacity:1"/><stop offset="1" style="stop-color:rgb(91,146,255);stop-opacity:1"/></radialGradient>
    </defs>
</svg>
