<?xml version="1.0" encoding="UTF-8" standalone="no"?>
<!DOCTYPE svg PUBLIC "-//W3C//DTD SVG 1.1//EN" "http://www.w3.org/Graphics/SVG/1.1/DTD/svg11.dtd">
<svg width="100%" height="100%" viewBox="0 0 800 800" version="1.1" xmlns="http://www.w3.org/2000/svg" xmlns:xlink="http://www.w3.org/1999/xlink" xml:space="preserve" xmlns:serif="http://www.serif.com/" style="fill-rule:evenodd;clip-rule:evenodd;stroke-linejoin:round;stroke-miterlimit:2;">
    <g transform="matrix(38.0952,0,0,38.0952,-57.1429,-76.1905)">
        <path d="M5,9C5,5.134 8.134,2 12,2C15.866,2 19,5.134 19,9C19,11.025 18.331,13.236 17.15,14.956C16.108,16.476 14.607,17.687 12.75,17.948L12.75,18.25C12.75,18.664 13.086,19 13.5,19L16.75,19C17.993,19 19,20.007 19,21.25L19,22.25C19,22.664 18.664,23 18.25,23C17.836,23 17.5,22.664 17.5,22.25L17.5,21.25C17.5,20.836 17.164,20.5 16.75,20.5L13.5,20.5C12.257,20.5 11.25,19.493 11.25,18.25L11.25,17.948C9.393,17.687 7.892,16.476 6.85,14.956C5.67,13.236 5,11.025 5,9ZM12.92,5.106C12.517,5.011 12.113,5.261 12.018,5.665C11.923,6.068 12.173,6.472 12.576,6.566C13.492,6.782 14.215,7.504 14.432,8.419C14.528,8.822 14.932,9.071 15.335,8.975C15.738,8.879 15.987,8.475 15.892,8.072C15.543,6.605 14.388,5.452 12.92,5.106Z" style="fill-rule:nonzero;"/>
    </g>
</svg>
