<?xml version="1.0" encoding="UTF-8" standalone="no"?>
<!DOCTYPE svg PUBLIC "-//W3C//DTD SVG 1.1//EN" "http://www.w3.org/Graphics/SVG/1.1/DTD/svg11.dtd">
<svg width="100%" height="100%" viewBox="0 0 800 800" version="1.1" xmlns="http://www.w3.org/2000/svg" xmlns:xlink="http://www.w3.org/1999/xlink" xml:space="preserve" xmlns:serif="http://www.serif.com/" style="fill-rule:evenodd;clip-rule:evenodd;stroke-linejoin:round;stroke-miterlimit:2;">
    <g transform="matrix(40,0,0,40,-80.0044,-80)">
        <path d="M15.5,2C15.5,2 15.5,2 15.5,2C17.42,2 19,3.58 19,5.5C19,5.723 18.979,5.945 18.937,6.163L18.922,6.229C20.755,6.84 21.999,8.567 21.999,10.5C21.999,12.315 20.901,13.96 19.225,14.657L18.139,21.164C18.059,21.644 17.64,22 17.153,22L6.847,22C6.36,22 5.941,21.644 5.861,21.164L4.832,14.994C3.253,14.904 2.002,13.581 2.002,11.999C2.002,10.73 2.807,9.592 4.003,9.17C4.003,9.17 4,9 4,8.999C4,5.708 6.708,2.999 10,2.999C10.891,2.999 11.77,3.198 12.575,3.58C13.22,2.594 14.322,1.999 15.5,2ZM11,15L9,15L9,20L11,20L11,15ZM15,15L13,15L13,20L15,20L15,15ZM17.5,13C18.871,13 20,11.871 20,10.5C20,9.129 18.871,8 17.5,8C17.172,8 16.847,8.065 16.544,8.19L16.369,8.271C15.416,8.762 14.228,8.404 13.706,7.467L13.636,7.33C12.985,5.912 11.56,4.999 10,5C7.858,5 6.109,6.684 6.005,8.767L6,8.964L6.003,9.134C6.017,9.935 5.549,10.671 4.817,10.997L4.667,11.056C4.269,11.198 4.002,11.577 4.002,11.999C4.002,12.547 4.452,12.998 5,13L17.5,13Z" style="fill:rgb(64,64,64);fill-rule:nonzero;"/>
    </g>
</svg>
