<?xml version="1.0" encoding="UTF-8" standalone="no"?>
<!DOCTYPE svg PUBLIC "-//W3C//DTD SVG 1.1//EN" "http://www.w3.org/Graphics/SVG/1.1/DTD/svg11.dtd">
<svg width="100%" height="100%" viewBox="0 0 285 342" version="1.1" xmlns="http://www.w3.org/2000/svg" xmlns:xlink="http://www.w3.org/1999/xlink" xml:space="preserve" xmlns:serif="http://www.serif.com/" style="fill-rule:evenodd;clip-rule:evenodd;stroke-linejoin:round;stroke-miterlimit:2;">
    <path d="M35.8,107.59L62,107.59C62.65,117.05 63.29,126.47 64,137.24L125.07,137.24C125.53,128.24 125.99,119.24 126.52,108.77L156.36,108.77C156.86,117.48 157.36,126.92 158.01,137.44L219.64,137.44L219.64,108.54L251.5,108.54C247.8,129.07 255.26,143.71 271.84,157.54C288.25,171.2 285.66,194.22 281.22,212.97C276.22,234.21 244.6,238.43 227.55,221.35C217.07,210.87 207.67,199.35 196.41,186.69C187.06,197.31 179.02,206.55 170.87,215.69C150.87,238.18 131.97,237.93 111.8,215C104.08,206.22 96.31,197.48 86.97,186.92C77.18,197.83 68.18,207.82 59.21,217.83C48.93,229.34 36.94,235.85 21.06,230C4.55,223.87 -0.26,211.86 0,194.66C0.34,173.41 7.53,158.09 24,143.92C31.76,137.27 31.66,121.51 35.8,107.59Z" style="fill:rgb(64,64,64);fill-rule:nonzero;stroke:rgb(64,64,64);stroke-width:1px;"/>
    <path d="M1.82,341.15L1.82,256.49C36.01,272.06 63.57,262.41 86.24,236.18C134.53,273.61 156.93,273.64 197.32,235.37C220.13,261.67 248.07,272.37 282.82,256.68L282.82,341.15L1.82,341.15Z" style="fill:rgb(64,64,64);fill-rule:nonzero;stroke:rgb(64,64,64);stroke-width:1px;"/>
    <path d="M50.86,0.21C59.4,16.85 68.57,33.21 76.29,50.21C82.51,63.91 77.49,75.96 66.17,84.77C54.66,93.77 41.79,94.1 29.93,85.57C17.56,76.68 12.27,64.19 18.93,49.68C26.66,32.79 35.86,16.55 44.43,0L50.86,0.21Z" style="fill:rgb(64,64,64);fill-rule:nonzero;stroke:rgb(64,64,64);stroke-width:1px;"/>
    <path d="M145,0.22C153.54,16.87 162.71,33.22 170.43,50.22C176.66,64 171.61,76 160.27,84.81C148.75,93.75 135.88,94.1 124.03,85.55C111.67,76.64 106.42,64.14 113.03,49.64C120.83,32.75 130,16.52 138.6,0L145,0.22Z" style="fill:rgb(64,64,64);fill-rule:nonzero;stroke:rgb(64,64,64);stroke-width:1px;"/>
    <path d="M239.18,0.24C247.72,16.9 256.9,33.24 264.6,50.3C270.8,64 265.73,76.05 254.39,84.83C242.86,93.75 229.99,94.09 218.14,85.54C205.8,76.62 200.56,64.11 207.22,49.61C214.98,32.73 224.22,16.51 232.75,0L239.18,0.24Z" style="fill:rgb(64,64,64);fill-rule:nonzero;stroke:rgb(64,64,64);stroke-width:1px;"/>
</svg>
