<svg id="Layer_1" data-name="Layer 1" xmlns="http://www.w3.org/2000/svg" viewBox="0 0 284.64 341.15"><defs><style>.cls-1{fill:#404040;}</style></defs><path class="cls-1" d="M35.8,107.59H62c.65,9.46,1.29,18.88,2,29.65h61.07c.46-9,.92-18,1.45-28.47h29.84c.5,8.71,1,18.15,1.65,28.67h61.63v-28.9h31.86c-3.7,20.53,3.76,35.17,20.34,49,16.41,13.66,13.82,36.68,9.38,55.43-5,21.24-36.62,25.46-53.67,8.38-10.48-10.48-19.88-22-31.14-34.66-9.35,10.62-17.39,19.86-25.54,29-20,22.49-38.9,22.24-59.07-.69-7.72-8.78-15.49-17.52-24.83-28.08-9.79,10.91-18.79,20.9-27.76,30.91C48.93,229.34,36.94,235.85,21.06,230,4.55,223.87-.26,211.86,0,194.66c.34-21.25,7.53-36.57,24-50.74C31.76,137.27,31.66,121.51,35.8,107.59Z"/><path class="cls-1" d="M1.82,341.15V256.49c34.19,15.57,61.75,5.92,84.42-20.31,48.29,37.43,70.69,37.46,111.08-.81,22.81,26.3,50.75,37,85.5,21.31v84.47Z"/><path class="cls-1" d="M50.86.21c8.54,16.64,17.71,33,25.43,50,6.22,13.7,1.2,25.75-10.12,34.56-11.51,9-24.38,9.33-36.24.8-12.37-8.89-17.66-21.38-11-35.89C26.66,32.79,35.86,16.55,44.43,0Z"/><path class="cls-1" d="M145,.22c8.54,16.65,17.71,33,25.43,50C176.66,64,171.61,76,160.27,84.81c-11.52,8.94-24.39,9.29-36.24.74-12.36-8.91-17.61-21.41-11-35.91C120.83,32.75,130,16.52,138.6,0Z"/><path class="cls-1" d="M239.18.24c8.54,16.66,17.72,33,25.42,50.06,6.2,13.7,1.13,25.75-10.21,34.53-11.53,8.92-24.4,9.26-36.25.71-12.34-8.92-17.58-21.43-10.92-35.93,7.76-16.88,17-33.1,25.53-49.61Z"/></svg>