<?xml version="1.0" encoding="UTF-8" standalone="no"?>
<!DOCTYPE svg PUBLIC "-//W3C//DTD SVG 1.1//EN" "http://www.w3.org/Graphics/SVG/1.1/DTD/svg11.dtd">
<svg width="100%" height="100%" viewBox="0 0 1200 800" version="1.1" xmlns="http://www.w3.org/2000/svg" xmlns:xlink="http://www.w3.org/1999/xlink" xml:space="preserve" xmlns:serif="http://www.serif.com/" style="fill-rule:evenodd;clip-rule:evenodd;stroke-linejoin:round;stroke-miterlimit:2;">
    <g transform="matrix(0.125,0,0,0.166667,0,0)">
        <rect x="0" y="0" width="9600" height="4800" style="fill:rgb(255,0,0);fill-rule:nonzero;"/>
    </g>
    <g transform="matrix(0.125,0,0,0.125,0,100)">
        <path d="M2400,-800L7200,-800L7200,5600L2400,5600L2400,-800ZM4890,4430L4845,3567C4844.93,3565.54 4844.9,3564.08 4844.9,3562.63C4844.9,3510.51 4887.78,3467.63 4939.9,3467.63C4945.3,3467.63 4950.68,3468.09 4956,3469L5815,3620L5699,3300C5689.38,3273.96 5697.45,3244.5 5719,3227L6660,2465L6448,2366C6418.52,2352.07 6403.85,2317.99 6414,2287L6600,1715L6058,1830C6027.84,1836.29 5997.15,1820.31 5985,1792L5880,1545L5457,1999C5444.73,2011.94 5427.66,2019.28 5409.83,2019.28C5374.17,2019.28 5344.83,1989.94 5344.83,1954.28C5344.83,1950.16 5345.22,1946.05 5346,1942L5550,890L5223,1079C5213.03,1084.84 5201.69,1087.92 5190.13,1087.92C5165.56,1087.92 5142.99,1073.98 5132,1052L4800,400L4468,1052C4457.01,1073.98 4434.44,1087.92 4409.87,1087.92C4398.31,1087.92 4386.97,1084.84 4377,1079L4050,890L4254,1942C4254.78,1946.05 4255.17,1950.16 4255.17,1954.28C4255.17,1989.94 4225.83,2019.28 4190.17,2019.28C4172.34,2019.28 4155.27,2011.94 4143,1999L3720,1545L3615,1792C3602.85,1820.31 3572.16,1836.29 3542,1830L3000,1715L3186,2287C3196.15,2317.99 3181.49,2352.07 3152,2366L2940,2465L3881,3227C3902.55,3244.5 3910.62,3273.96 3901,3300L3785,3620L4644,3469C4649.32,3468.09 4654.7,3467.63 4660.1,3467.63C4712.22,3467.63 4755.1,3510.51 4755.1,3562.63C4755.1,3564.08 4755.07,3565.54 4755,3567L4710,4430L4890,4430Z" style="fill:white;fill-rule:nonzero;"/>
    </g>
</svg>
