<?xml version="1.0" encoding="UTF-8" standalone="no"?>
<!DOCTYPE svg PUBLIC "-//W3C//DTD SVG 1.1//EN" "http://www.w3.org/Graphics/SVG/1.1/DTD/svg11.dtd">
<svg width="100%" height="100%" viewBox="0 0 712 762" version="1.1" xmlns="http://www.w3.org/2000/svg" xmlns:xlink="http://www.w3.org/1999/xlink" xml:space="preserve" xmlns:serif="http://www.serif.com/" style="fill-rule:evenodd;clip-rule:evenodd;stroke-linejoin:round;stroke-miterlimit:2;">
    <g transform="matrix(0.16129,0,0,0.16129,355.912,378.493)">
        <path d="M-90,2030L-45,1167C-44.933,1165.54 -44.899,1164.08 -44.899,1162.63C-44.899,1110.51 -87.784,1067.63 -139.899,1067.63C-145.295,1067.63 -150.682,1068.09 -156,1069L-1015,1220L-899,900C-889.375,873.96 -897.447,844.498 -919,827L-1860,65L-1648,-34C-1618.52,-47.933 -1603.85,-82.008 -1614,-113L-1800,-685L-1258,-570C-1227.84,-563.712 -1197.15,-579.688 -1185,-608L-1080,-855L-657,-401C-644.731,-388.059 -627.662,-380.721 -609.83,-380.721C-574.172,-380.721 -544.83,-410.063 -544.83,-445.721C-544.83,-449.842 -545.222,-453.953 -546,-458L-750,-1510L-423,-1321C-413.033,-1315.16 -401.686,-1312.08 -390.133,-1312.08C-365.555,-1312.08 -342.995,-1326.02 -332,-1348L0,-2000L332,-1348C342.995,-1326.02 365.555,-1312.08 390.133,-1312.08C401.686,-1312.08 413.033,-1315.16 423,-1321L750,-1510L546,-458C545.222,-453.953 544.83,-449.842 544.83,-445.721C544.83,-410.063 574.172,-380.721 609.83,-380.721C627.662,-380.721 644.731,-388.059 657,-401L1080,-855L1185,-608C1197.15,-579.688 1227.84,-563.712 1258,-570L1800,-685L1614,-113C1603.85,-82.008 1618.52,-47.933 1648,-34L1860,65L919,827C897.447,844.498 889.375,873.96 899,900L1015,1220L156,1069C150.682,1068.09 145.295,1067.63 139.899,1067.63C87.784,1067.63 44.899,1110.51 44.899,1162.63C44.899,1164.08 44.933,1165.54 45,1167L90,2030L-90,2030Z" style="fill:rgb(255,0,0);fill-rule:nonzero;"/>
        <clipPath id="_clip1">
            <path d="M-90,2030L-45,1167C-44.933,1165.54 -44.899,1164.08 -44.899,1162.63C-44.899,1110.51 -87.784,1067.63 -139.899,1067.63C-145.295,1067.63 -150.682,1068.09 -156,1069L-1015,1220L-899,900C-889.375,873.96 -897.447,844.498 -919,827L-1860,65L-1648,-34C-1618.52,-47.933 -1603.85,-82.008 -1614,-113L-1800,-685L-1258,-570C-1227.84,-563.712 -1197.15,-579.688 -1185,-608L-1080,-855L-657,-401C-644.731,-388.059 -627.662,-380.721 -609.83,-380.721C-574.172,-380.721 -544.83,-410.063 -544.83,-445.721C-544.83,-449.842 -545.222,-453.953 -546,-458L-750,-1510L-423,-1321C-413.033,-1315.16 -401.686,-1312.08 -390.133,-1312.08C-365.555,-1312.08 -342.995,-1326.02 -332,-1348L0,-2000L332,-1348C342.995,-1326.02 365.555,-1312.08 390.133,-1312.08C401.686,-1312.08 413.033,-1315.16 423,-1321L750,-1510L546,-458C545.222,-453.953 544.83,-449.842 544.83,-445.721C544.83,-410.063 574.172,-380.721 609.83,-380.721C627.662,-380.721 644.731,-388.059 657,-401L1080,-855L1185,-608C1197.15,-579.688 1227.84,-563.712 1258,-570L1800,-685L1614,-113C1603.85,-82.008 1618.52,-47.933 1648,-34L1860,65L919,827C897.447,844.498 889.375,873.96 899,900L1015,1220L156,1069C150.682,1068.09 145.295,1067.63 139.899,1067.63C87.784,1067.63 44.899,1110.51 44.899,1162.63C44.899,1164.08 44.933,1165.54 45,1167L90,2030L-90,2030Z" clip-rule="nonzero"/>
        </clipPath>
        <g clip-path="url(#_clip1)">
            <g transform="matrix(-5.5622,-12.518,9.78393,-4.35521,837.184,10456.8)">
                <ellipse cx="722" cy="319" rx="159" ry="196" style="fill:url(#_Radial2);"/>
            </g>
        </g>
        <path d="M-1753.87,-126.69L-1991.43,-857.266L-1282.88,-706.926L-1120.94,-1087.86L-714.786,-651.931L-930.223,-1762.91L-416.451,-1465.96L0,-2283.81L416.45,-1465.96L930.223,-1762.91L714.787,-651.937L1120.94,-1087.86L1282.88,-706.926L1991.43,-857.266L1753.87,-126.691L2101.11,35.464L1035.41,898.439L1211.93,1385.37L175.846,1203.24L225.671,2158.78L-225.671,2158.78L-218.606,2023.29L-175.843,1203.24L-1211.93,1385.37L-1035.41,898.439L-2101.11,35.464L-1753.87,-126.69ZM-90,2030L90,2030L45,1167C44.933,1165.54 44.899,1164.08 44.899,1162.63C44.899,1110.51 87.784,1067.63 139.899,1067.63C145.295,1067.63 150.682,1068.09 156,1069L1015,1220L899,900C889.375,873.96 897.447,844.498 919,827L1860,65L1648,-34C1618.52,-47.933 1603.85,-82.008 1614,-113L1800,-685L1258,-570C1227.84,-563.712 1197.15,-579.688 1185,-608L1080,-855L657,-401C644.731,-388.059 627.662,-380.721 609.83,-380.721C574.172,-380.721 544.83,-410.063 544.83,-445.721C544.83,-449.842 545.222,-453.953 546,-458L750,-1510L423,-1321C413.033,-1315.16 401.686,-1312.08 390.133,-1312.08C365.555,-1312.08 342.995,-1326.02 332,-1348L0,-2000L-332,-1348C-342.995,-1326.02 -365.555,-1312.08 -390.133,-1312.08C-401.686,-1312.08 -413.033,-1315.16 -423,-1321L-750,-1510L-546,-458C-545.222,-453.953 -544.83,-449.842 -544.83,-445.721C-544.83,-410.063 -574.172,-380.721 -609.83,-380.721C-627.662,-380.721 -644.731,-388.059 -657,-401L-1080,-855L-1185,-608C-1197.15,-579.688 -1227.84,-563.712 -1258,-570L-1800,-685L-1614,-113C-1603.85,-82.008 -1618.52,-47.933 -1648,-34L-1860,65L-919,827C-897.447,844.498 -889.375,873.96 -899,900L-1015,1220L-156,1069C-150.682,1068.09 -145.295,1067.63 -139.899,1067.63C-87.784,1067.63 -44.899,1110.51 -44.899,1162.63C-44.899,1164.08 -44.933,1165.54 -45,1167L-90,2030Z" style="fill:white;"/>
    </g>
    <defs>
        <radialGradient id="_Radial2" cx="0" cy="0" r="1" gradientUnits="userSpaceOnUse" gradientTransform="matrix(318,0,0,392,563,319)"><stop offset="0" style="stop-color:rgb(179,0,0);stop-opacity:1"/><stop offset="0.46" style="stop-color:rgb(200,32,32);stop-opacity:1"/><stop offset="1" style="stop-color:rgb(255,114,114);stop-opacity:1"/></radialGradient>
    </defs>
</svg>
