<?xml version="1.0" encoding="UTF-8" standalone="no"?>
<!DOCTYPE svg PUBLIC "-//W3C//DTD SVG 1.1//EN" "http://www.w3.org/Graphics/SVG/1.1/DTD/svg11.dtd">
<svg width="100%" height="100%" viewBox="0 0 602 915" version="1.1" xmlns="http://www.w3.org/2000/svg" xmlns:xlink="http://www.w3.org/1999/xlink" xml:space="preserve" xmlns:serif="http://www.serif.com/" style="fill-rule:evenodd;clip-rule:evenodd;stroke-linejoin:round;stroke-miterlimit:2;">
    <g transform="matrix(1.42168,0,0,1.42168,0,155.996)">
        <g id="path1" transform="matrix(0.177776,0,0,-0.177776,0,533.331)">
            <path d="M1190.02,724.773C532.789,724.773 0,562.527 0,362.395C0,162.246 532.789,0 1190.02,0C1847.25,0 2380.04,162.246 2380.04,362.395C2380.04,562.539 1847.25,724.773 1190.02,724.773ZM1785.23,258.691C1626.88,210.469 1415.5,183.895 1190.02,183.895C964.547,183.895 753.168,210.461 594.809,258.691C432.355,308.164 374.707,366.223 374.707,400.906C374.707,435.598 432.355,493.652 594.809,543.125C753.168,591.348 964.547,617.898 1190.02,617.898L1190.11,617.898C1415.54,617.898 1626.91,591.348 1785.25,543.125C1947.69,493.652 2005.32,435.598 2005.32,400.906C2005.32,366.223 1947.68,308.164 1785.23,258.691" style="fill-rule:nonzero;"/>
            <clipPath id="_clip1">
                <path d="M1190.02,724.773C532.789,724.773 0,562.527 0,362.395C0,162.246 532.789,0 1190.02,0C1847.25,0 2380.04,162.246 2380.04,362.395C2380.04,562.539 1847.25,724.773 1190.02,724.773ZM1785.23,258.691C1626.88,210.469 1415.5,183.895 1190.02,183.895C964.547,183.895 753.168,210.461 594.809,258.691C432.355,308.164 374.707,366.223 374.707,400.906C374.707,435.598 432.355,493.652 594.809,543.125C753.168,591.348 964.547,617.898 1190.02,617.898L1190.11,617.898C1415.54,617.898 1626.91,591.348 1785.25,543.125C1947.69,493.652 2005.32,435.598 2005.32,400.906C2005.32,366.223 1947.68,308.164 1785.23,258.691" clip-rule="nonzero"/>
            </clipPath>
            <g clip-path="url(#_clip1)">
                <g transform="matrix(-1.39614,4.62228,7.66278,1.92191,-181.4,-3445.84)">
                    <ellipse cx="722" cy="319" rx="159" ry="196" style="fill:url(#_Radial2);"/>
                </g>
            </g>
        </g>
        <g transform="matrix(0.703394,0,0,0.703394,-4.94199,-123.133)">
            <circle cx="307.792" cy="311.17" r="266.792" style="fill:white;"/>
        </g>
        <g id="path2" transform="matrix(0.218837,0,0,-0.218837,-49.0155,546.783)">
            <path d="M1193.73,3000C1705.95,3000 2121.17,2584.79 2121.17,2072.57C2121.17,1984.55 2108.63,1899.51 2085.73,1818.83C2071.61,1769.17 2056.19,1719.84 2031.86,1675.25C1841.67,1327.06 1193.73,327.629 1193.73,327.629C1193.73,327.629 545.816,1327.04 355.625,1675.23C331.281,1719.82 315.844,1769.16 301.75,1818.83C278.828,1899.51 266.293,1984.55 266.293,2072.57C266.293,2584.79 681.535,3000 1193.73,3000ZM1190.72,2842.5C758.832,2842.5 408.197,2491.87 408.197,2059.98C408.197,1628.1 758.832,1277.46 1190.72,1277.46C1622.6,1277.46 1973.24,1628.1 1973.24,2059.98C1973.24,2491.87 1622.6,2842.5 1190.72,2842.5Z"/>
            <clipPath id="_clip3">
                <path d="M1193.73,3000C1705.95,3000 2121.17,2584.79 2121.17,2072.57C2121.17,1984.55 2108.63,1899.51 2085.73,1818.83C2071.61,1769.17 2056.19,1719.84 2031.86,1675.25C1841.67,1327.06 1193.73,327.629 1193.73,327.629C1193.73,327.629 545.816,1327.04 355.625,1675.23C331.281,1719.82 315.844,1769.16 301.75,1818.83C278.828,1899.51 266.293,1984.55 266.293,2072.57C266.293,2584.79 681.535,3000 1193.73,3000ZM1190.72,2842.5C758.832,2842.5 408.197,2491.87 408.197,2059.98C408.197,1628.1 758.832,1277.46 1190.72,1277.46C1622.6,1277.46 1973.24,1628.1 1973.24,2059.98C1973.24,2491.87 1622.6,2842.5 1190.72,2842.5Z"/>
            </clipPath>
            <g clip-path="url(#_clip3)">
                <g transform="matrix(-2.71087,8.85875,5.28344,2.35186,1527.45,-5421.37)">
                    <ellipse cx="722" cy="319" rx="159" ry="196" style="fill:url(#_Radial4);"/>
                </g>
            </g>
        </g>
    </g>
    <g transform="matrix(0.111973,0,0,0.111973,300.766,290.43)">
        <path d="M-90,2030L-45,1167C-44.933,1165.54 -44.899,1164.08 -44.899,1162.63C-44.899,1110.51 -87.784,1067.63 -139.899,1067.63C-145.295,1067.63 -150.682,1068.09 -156,1069L-1015,1220L-899,900C-889.375,873.96 -897.447,844.498 -919,827L-1860,65L-1648,-34C-1618.52,-47.933 -1603.85,-82.008 -1614,-113L-1800,-685L-1258,-570C-1227.84,-563.712 -1197.15,-579.688 -1185,-608L-1080,-855L-657,-401C-644.731,-388.059 -627.662,-380.721 -609.83,-380.721C-574.172,-380.721 -544.83,-410.063 -544.83,-445.721C-544.83,-449.842 -545.222,-453.953 -546,-458L-750,-1510L-423,-1321C-413.033,-1315.16 -401.686,-1312.08 -390.133,-1312.08C-365.555,-1312.08 -342.995,-1326.02 -332,-1348L0,-2000L332,-1348C342.995,-1326.02 365.555,-1312.08 390.133,-1312.08C401.686,-1312.08 413.033,-1315.16 423,-1321L750,-1510L546,-458C545.222,-453.953 544.83,-449.842 544.83,-445.721C544.83,-410.063 574.172,-380.721 609.83,-380.721C627.662,-380.721 644.731,-388.059 657,-401L1080,-855L1185,-608C1197.15,-579.688 1227.84,-563.712 1258,-570L1800,-685L1614,-113C1603.85,-82.008 1618.52,-47.933 1648,-34L1860,65L919,827C897.447,844.498 889.375,873.96 899,900L1015,1220L156,1069C150.682,1068.09 145.295,1067.63 139.899,1067.63C87.784,1067.63 44.899,1110.51 44.899,1162.63C44.899,1164.08 44.933,1165.54 45,1167L90,2030L-90,2030Z" style="fill:rgb(255,0,0);fill-rule:nonzero;"/>
        <clipPath id="_clip5">
            <path d="M-90,2030L-45,1167C-44.933,1165.54 -44.899,1164.08 -44.899,1162.63C-44.899,1110.51 -87.784,1067.63 -139.899,1067.63C-145.295,1067.63 -150.682,1068.09 -156,1069L-1015,1220L-899,900C-889.375,873.96 -897.447,844.498 -919,827L-1860,65L-1648,-34C-1618.52,-47.933 -1603.85,-82.008 -1614,-113L-1800,-685L-1258,-570C-1227.84,-563.712 -1197.15,-579.688 -1185,-608L-1080,-855L-657,-401C-644.731,-388.059 -627.662,-380.721 -609.83,-380.721C-574.172,-380.721 -544.83,-410.063 -544.83,-445.721C-544.83,-449.842 -545.222,-453.953 -546,-458L-750,-1510L-423,-1321C-413.033,-1315.16 -401.686,-1312.08 -390.133,-1312.08C-365.555,-1312.08 -342.995,-1326.02 -332,-1348L0,-2000L332,-1348C342.995,-1326.02 365.555,-1312.08 390.133,-1312.08C401.686,-1312.08 413.033,-1315.16 423,-1321L750,-1510L546,-458C545.222,-453.953 544.83,-449.842 544.83,-445.721C544.83,-410.063 574.172,-380.721 609.83,-380.721C627.662,-380.721 644.731,-388.059 657,-401L1080,-855L1185,-608C1197.15,-579.688 1227.84,-563.712 1258,-570L1800,-685L1614,-113C1603.85,-82.008 1618.52,-47.933 1648,-34L1860,65L919,827C897.447,844.498 889.375,873.96 899,900L1015,1220L156,1069C150.682,1068.09 145.295,1067.63 139.899,1067.63C87.784,1067.63 44.899,1110.51 44.899,1162.63C44.899,1164.08 44.933,1165.54 45,1167L90,2030L-90,2030Z" clip-rule="nonzero"/>
        </clipPath>
        <g clip-path="url(#_clip5)">
            <g transform="matrix(-4.35721,-12.5485,9.70514,-4.32013,76.4808,10408.5)">
                <ellipse cx="722" cy="319" rx="159" ry="196" style="fill:url(#_Radial6);"/>
            </g>
        </g>
    </g>
    <defs>
        <radialGradient id="_Radial2" cx="0" cy="0" r="1" gradientUnits="userSpaceOnUse" gradientTransform="matrix(318,0,0,392,563,319)"><stop offset="0" style="stop-color:rgb(167,0,0);stop-opacity:1"/><stop offset="1" style="stop-color:rgb(255,138,138);stop-opacity:1"/></radialGradient>
        <radialGradient id="_Radial4" cx="0" cy="0" r="1" gradientUnits="userSpaceOnUse" gradientTransform="matrix(318,0,0,392,563,319)"><stop offset="0" style="stop-color:rgb(179,0,0);stop-opacity:1"/><stop offset="0.46" style="stop-color:rgb(200,32,32);stop-opacity:1"/><stop offset="1" style="stop-color:rgb(255,114,114);stop-opacity:1"/></radialGradient>
        <radialGradient id="_Radial6" cx="0" cy="0" r="1" gradientUnits="userSpaceOnUse" gradientTransform="matrix(318,0,0,392,563,319)"><stop offset="0" style="stop-color:rgb(179,0,0);stop-opacity:1"/><stop offset="0.46" style="stop-color:rgb(200,32,32);stop-opacity:1"/><stop offset="1" style="stop-color:rgb(255,114,114);stop-opacity:1"/></radialGradient>
    </defs>
</svg>
