<?xml version="1.0" encoding="UTF-8" standalone="no"?>
<!DOCTYPE svg PUBLIC "-//W3C//DTD SVG 1.1//EN" "http://www.w3.org/Graphics/SVG/1.1/DTD/svg11.dtd">
<svg width="100%" height="100%" viewBox="0 0 600 800" version="1.1" xmlns="http://www.w3.org/2000/svg" xmlns:xlink="http://www.w3.org/1999/xlink" xml:space="preserve" xmlns:serif="http://www.serif.com/" style="fill-rule:evenodd;clip-rule:evenodd;stroke-linejoin:round;stroke-miterlimit:2;">
    <g id="Layer_2" transform="matrix(16.6667,0,0,16.6667,-100,0)">
        <g id="icons_Q2">
            <path d="M40,18L40,17.971C40,9.194 32.777,1.971 24,1.971C15.223,1.971 8,9.194 8,17.971C8,23.263 10.625,28.224 15,31.2L15,43.9C14.999,45.015 15.886,45.947 17,46C17.406,46.021 17.803,45.877 18.1,45.6L24,41L29.9,45.6C30.197,45.877 30.594,46.021 31,46C32.114,45.947 33.001,45.015 33,43.9L33,31.2C37.367,28.229 39.991,23.281 40,18ZM12,18C12,11.417 17.417,6 24,6C30.583,6 36,11.417 36,18C36,24.583 30.583,30 24,30C17.417,30 12,24.583 12,18ZM29,39.8L24.6,36.4C24.26,36.096 23.74,36.096 23.4,36.4L19,39.8L19,33.2C20.617,33.716 22.303,33.986 24,34C25.697,33.986 27.383,33.716 29,33.2L29,39.8Z" style="fill:rgb(64,64,64);fill-rule:nonzero;"/>
            <path d="M20.4,19.7L19.9,22.8C19.898,22.825 19.897,22.851 19.897,22.876C19.897,23.48 20.394,23.976 20.997,23.976C21.135,23.976 21.272,23.95 21.4,23.9L24,22L26.6,23.9C26.728,23.95 26.865,23.976 27.003,23.976C27.606,23.976 28.103,23.48 28.103,22.876C28.103,22.851 28.102,22.825 28.1,22.8L27.6,19.7L29.7,17.7C29.875,17.5 29.972,17.242 29.972,16.976C29.972,16.458 29.606,16.007 29.1,15.9L26.2,15.5L24.9,12.6C24.733,12.256 24.383,12.036 24,12.036C23.617,12.036 23.267,12.256 23.1,12.6L21.8,15.5L18.9,15.9C18.394,16.007 18.028,16.458 18.028,16.976C18.028,17.242 18.125,17.5 18.3,17.7L20.4,19.7Z" style="fill:rgb(64,64,64);fill-rule:nonzero;"/>
        </g>
    </g>
</svg>
