<?xml version="1.0" encoding="UTF-8" standalone="no"?>
<!DOCTYPE svg PUBLIC "-//W3C//DTD SVG 1.1//EN" "http://www.w3.org/Graphics/SVG/1.1/DTD/svg11.dtd">
<svg width="100%" height="100%" viewBox="0 0 800 800" version="1.1" xmlns="http://www.w3.org/2000/svg" xmlns:xlink="http://www.w3.org/1999/xlink" xml:space="preserve" xmlns:serif="http://www.serif.com/" style="fill-rule:evenodd;clip-rule:evenodd;stroke-linejoin:round;stroke-miterlimit:2;">
    <g transform="matrix(16.6667,0,0,16.6667,0,0)">
        <path d="M20,39L6,39L6,9L40,9C41.097,9 42,8.097 42,7C42,5.903 41.097,5 40,5L4,5C2.903,5 2,5.903 2,7L2,41C2,42.097 2.903,43 4,43L20,43C21.097,43 22,42.097 22,41C22,39.903 21.097,39 20,39Z" style="fill-rule:nonzero;"/>
        <path d="M46,24C46,16.868 40.132,11 33,11C29.966,10.984 27.023,12.048 24.7,14L12,14C10.903,14 10,14.903 10,16C10,17.097 10.903,18 12,18L21.5,18C20.816,19.238 20.374,20.596 20.2,22L12,22C10.903,22 10,22.903 10,24C10,25.097 10.903,26 12,26L20.2,26C20.374,27.404 20.816,28.762 21.5,30L12,30C10.903,30 10,30.903 10,32C10,33.097 10.903,34 12,34L24.7,34L26,34.9L26,44.6C25.938,45.793 26.815,46.846 28,47C28.497,46.988 28.968,46.771 29.3,46.4L33,43L36.7,46.4C37.032,46.771 37.503,46.988 38,47C39.185,46.846 40.062,45.793 40,44.6L40,35C43.72,32.579 45.979,28.438 46,24ZM36,32.5L36,40.3L33,37.5L30,40.3L30,32.5C26.426,31.205 24.023,27.801 24,24C24,19.063 28.063,15 33,15C37.937,15 42,19.063 42,24C41.977,27.801 39.574,31.205 36,32.5Z" style="fill-rule:nonzero;"/>
        <circle cx="33" cy="24" r="5"/>
    </g>
</svg>
