<?xml version="1.0" encoding="UTF-8" standalone="no"?>
<!DOCTYPE svg PUBLIC "-//W3C//DTD SVG 1.1//EN" "http://www.w3.org/Graphics/SVG/1.1/DTD/svg11.dtd">
<svg width="100%" height="100%" viewBox="0 0 800 800" version="1.1" xmlns="http://www.w3.org/2000/svg" xmlns:xlink="http://www.w3.org/1999/xlink" xml:space="preserve" xmlns:serif="http://www.serif.com/" style="fill-rule:evenodd;clip-rule:evenodd;stroke-linecap:round;stroke-linejoin:round;">
    <g transform="matrix(41.395,0,0,41.395,-96.7396,-96.7396)">
        <path d="M13.818,4.545L13.628,4.278C12.83,3.162 11.17,3.162 10.373,4.278L10.182,4.545C9.761,5.135 9.054,5.45 8.334,5.37L7.485,5.276C6.211,5.135 5.135,6.211 5.276,7.485L5.37,8.334C5.45,9.054 5.135,9.761 4.545,10.182L4.278,10.373C3.162,11.17 3.162,12.83 4.278,13.628L4.545,13.818C5.135,14.239 5.45,14.946 5.37,15.666L5.276,16.515C5.135,17.789 6.211,18.866 7.485,18.724L8.334,18.63C9.054,18.55 9.761,18.865 10.182,19.455L10.373,19.722C11.17,20.838 12.83,20.838 13.628,19.722L13.818,19.455C14.239,18.865 14.946,18.55 15.666,18.63L16.515,18.724C17.789,18.866 18.866,17.789 18.724,16.515L18.63,15.666C18.55,14.946 18.865,14.239 19.455,13.818L19.722,13.628C20.838,12.83 20.838,11.17 19.722,10.373L19.455,10.182C18.865,9.761 18.55,9.054 18.63,8.334L18.724,7.485C18.866,6.211 17.789,5.135 16.515,5.276L15.666,5.37C14.946,5.45 14.239,5.135 13.818,4.545Z" style="fill:none;fill-rule:nonzero;stroke:white;stroke-width:2px;"/>
    </g>
    <g transform="matrix(41.395,0,0,41.395,-96.7396,-96.7396)">
        <path d="M9,12L10.819,13.819C10.919,13.919 11.081,13.919 11.181,13.819L15,10" style="fill:none;fill-rule:nonzero;stroke:white;stroke-width:2px;"/>
    </g>
</svg>
