<?xml version="1.0" encoding="UTF-8" standalone="no"?>
<!DOCTYPE svg PUBLIC "-//W3C//DTD SVG 1.1//EN" "http://www.w3.org/Graphics/SVG/1.1/DTD/svg11.dtd">
<svg width="100%" height="100%" viewBox="0 0 800 800" version="1.1" xmlns="http://www.w3.org/2000/svg" xmlns:xlink="http://www.w3.org/1999/xlink" xml:space="preserve" xmlns:serif="http://www.serif.com/" style="fill-rule:evenodd;clip-rule:evenodd;stroke-linejoin:round;stroke-miterlimit:2;">
    <g transform="matrix(33.3333,0,0,33.3333,66.6667,66.6667)">
        <path d="M6,3L14,3C15.646,3 17,4.354 17,6L17,14C17,15.646 15.646,17 14,17L6,17C4.354,17 3,15.646 3,14L3,6C3,4.354 4.354,3 6,3ZM6,5C5.451,5 5,5.451 5,6L5,14C5,14.549 5.451,15 6,15L14,15C14.549,15 15,14.549 15,14L15,6C15,5.451 14.549,5 14,5L6,5ZM8,7L12,7C12.549,7 13,7.451 13,8L13,12C13,12.549 12.549,13 12,13L8,13C7.451,13 7,12.549 7,12L7,8C7,7.451 7.451,7 8,7ZM9,9L9,11L11,11L11,9L9,9ZM6,0C6.549,-0 7,0.451 7,1L7,3C7,3.549 6.549,4 6,4C5.451,4 5,3.549 5,3L5,1C5,0.451 5.451,0 6,0ZM1,5L3,5C3.549,5 4,5.451 4,6C4,6.549 3.549,7 3,7L1,7C0.451,7 0,6.549 0,6C-0,5.451 0.451,5 1,5ZM17,5L19,5C19.549,5 20,5.451 20,6C20,6.549 19.549,7 19,7L17,7C16.451,7 16,6.549 16,6C16,5.451 16.451,5 17,5ZM1,9L3,9C3.549,9 4,9.451 4,10C4,10.549 3.549,11 3,11L1,11C0.451,11 0,10.549 0,10C-0,9.451 0.451,9 1,9ZM17,9L19,9C19.549,9 20,9.451 20,10C20,10.549 19.549,11 19,11L17,11C16.451,11 16,10.549 16,10C16,9.451 16.451,9 17,9ZM1,13L3,13C3.549,13 4,13.451 4,14C4,14.549 3.549,15 3,15L1,15C0.451,15 0,14.549 0,14C-0,13.451 0.451,13 1,13ZM17,13L19,13C19.549,13 20,13.451 20,14C20,14.549 19.549,15 19,15L17,15C16.451,15 16,14.549 16,14C16,13.451 16.451,13 17,13ZM6,16C6.549,16 7,16.451 7,17L7,19C7,19.549 6.549,20 6,20C5.451,20 5,19.549 5,19L5,17C5,16.451 5.451,16 6,16ZM14,0C14.549,-0 15,0.451 15,1L15,3C15,3.549 14.549,4 14,4C13.451,4 13,3.549 13,3L13,1C13,0.451 13.451,0 14,0ZM14,16C14.549,16 15,16.451 15,17L15,19C15,19.549 14.549,20 14,20C13.451,20 13,19.549 13,19L13,17C13,16.451 13.451,16 14,16ZM10,0C10.549,-0 11,0.451 11,1L11,3C11,3.549 10.549,4 10,4C9.451,4 9,3.549 9,3L9,1C9,0.451 9.451,0 10,0ZM10,16C10.549,16 11,16.451 11,17L11,19C11,19.549 10.549,20 10,20C9.451,20 9,19.549 9,19L9,17C9,16.451 9.451,16 10,16Z" style="fill-rule:nonzero;"/>
    </g>
</svg>
