<?xml version="1.0" encoding="UTF-8" standalone="no"?>
<!DOCTYPE svg PUBLIC "-//W3C//DTD SVG 1.1//EN" "http://www.w3.org/Graphics/SVG/1.1/DTD/svg11.dtd">
<svg width="100%" height="100%" viewBox="0 0 800 800" version="1.1" xmlns="http://www.w3.org/2000/svg" xmlns:xlink="http://www.w3.org/1999/xlink" xml:space="preserve" xmlns:serif="http://www.serif.com/" style="fill-rule:evenodd;clip-rule:evenodd;stroke-linejoin:round;stroke-miterlimit:2;">
    <g transform="matrix(33.3333,0,0,33.3333,0,0)">
        <path d="M7.999,22L15.999,22C17.102,22 17.999,21.103 17.999,20L17.999,4C17.999,2.897 17.102,2 15.999,2L7.999,2C6.896,2 5.999,2.897 5.999,4L5.999,20C5.999,21.103 6.896,22 7.999,22ZM2.999,7L4.999,7L4.999,5L2.999,5L2.999,5.5L1.999,5.5L1.999,6.5L2.999,6.5L2.999,7ZM20.999,5L18.999,5L18.999,7L20.999,7L20.999,6.5L21.999,6.5L21.999,5.5L20.999,5.5L20.999,5ZM2.999,11L4.999,11L4.999,9L2.999,9L2.999,9.5L1.999,9.5L1.999,10.5L2.999,10.5L2.999,11ZM20.999,9L18.999,9L18.999,11L20.999,11L20.999,10.5L21.999,10.5L21.999,9.5L20.999,9.5L20.999,9ZM2.999,15L4.999,15L4.999,13L2.999,13L2.999,13.5L1.999,13.5L1.999,14.5L2.999,14.5L2.999,15ZM20.999,13L18.999,13L18.999,15L20.999,15L20.999,14.5L21.999,14.5L21.999,13.5L20.999,13.5L20.999,13ZM2.999,19L4.999,19L4.999,17L2.999,17L2.999,17.5L1.999,17.5L1.999,18.5L2.999,18.5L2.999,19ZM20.999,17L18.999,17L18.999,19L20.999,19L20.999,18.5L21.999,18.5L21.999,17.5L20.999,17.5L20.999,17Z" style="fill-rule:nonzero;"/>
    </g>
</svg>
