<?xml version="1.0" encoding="UTF-8" standalone="no"?>
<!DOCTYPE svg PUBLIC "-//W3C//DTD SVG 1.1//EN" "http://www.w3.org/Graphics/SVG/1.1/DTD/svg11.dtd">
<svg width="100%" height="100%" viewBox="0 0 800 800" version="1.1" xmlns="http://www.w3.org/2000/svg" xmlns:xlink="http://www.w3.org/1999/xlink" xml:space="preserve" xmlns:serif="http://www.serif.com/" style="fill-rule:evenodd;clip-rule:evenodd;stroke-linejoin:round;stroke-miterlimit:2;">
    <g transform="matrix(33.3333,0,0,33.3333,66.6667,50)">
        <path d="M11,17.858L11,19.858C11,20.407 10.549,20.858 10,20.858C9.451,20.858 9,20.407 9,19.858L9,17.858L7,17.858L7,19.858C7,20.407 6.549,20.858 6,20.858C5.451,20.858 5,20.407 5,19.858L5,17.858C5,17.801 5.005,17.746 5.014,17.692C4.149,17.39 3.468,16.709 3.166,15.844C3.112,15.854 3.056,15.858 3,15.858L1,15.858C0.451,15.858 0,15.407 0,14.858C-0,14.309 0.451,13.858 1,13.858L3,13.858L3,11.858L1,11.858C0.451,11.858 0,11.407 0,10.858C-0,10.309 0.451,9.858 1,9.858L3,9.858L3,7.858L1,7.858C0.451,7.858 0,7.407 0,6.858C-0,6.309 0.451,5.858 1,5.858L3,5.858C3.057,5.858 3.112,5.863 3.166,5.872C3.466,5.008 4.15,4.324 5.014,4.024C5.005,3.969 5,3.914 5,3.858L5,1.858C5,1.309 5.451,0.858 6,0.858C6.549,0.858 7,1.309 7,1.858L7,3.858L9,3.858L9,1.858C9,1.309 9.451,0.858 10,0.858C10.549,0.858 11,1.309 11,1.858L11,3.858L13,3.858L13,1.858C13,1.309 13.451,0.858 14,0.858C14.549,0.858 15,1.309 15,1.858L15,3.858C15,3.914 14.995,3.97 14.986,4.024C15.85,4.324 16.534,5.008 16.834,5.872C16.888,5.862 16.944,5.858 17,5.858L19,5.858C19.549,5.858 20,6.309 20,6.858C20,7.407 19.549,7.858 19,7.858L17,7.858L17,9.858L19,9.858C19.549,9.858 20,10.309 20,10.858C20,11.407 19.549,11.858 19,11.858L17,11.858L17,13.858L19,13.858C19.549,13.858 20,14.309 20,14.858C20,15.407 19.549,15.858 19,15.858L17,15.858C16.943,15.858 16.888,15.853 16.834,15.844C16.532,16.709 15.851,17.39 14.986,17.692C14.996,17.746 15,17.802 15,17.858L15,19.858C15,20.407 14.549,20.858 14,20.858C13.451,20.858 13,20.407 13,19.858L13,17.858L11,17.858ZM8,7.858C7.451,7.858 7,8.309 7,8.858L7,12.858C7,13.407 7.451,13.858 8,13.858L12,13.858C12.549,13.858 13,13.407 13,12.858L13,8.858C13,8.309 12.549,7.858 12,7.858L8,7.858Z" style="fill-rule:nonzero;"/>
    </g>
</svg>
