<?xml version="1.0" encoding="UTF-8" standalone="no"?>
<!DOCTYPE svg PUBLIC "-//W3C//DTD SVG 1.1//EN" "http://www.w3.org/Graphics/SVG/1.1/DTD/svg11.dtd">
<svg width="100%" height="100%" viewBox="0 0 800 800" version="1.1" xmlns="http://www.w3.org/2000/svg" xmlns:xlink="http://www.w3.org/1999/xlink" xml:space="preserve" xmlns:serif="http://www.serif.com/" style="fill-rule:evenodd;clip-rule:evenodd;stroke-linejoin:round;stroke-miterlimit:2;">
    <g transform="matrix(4.46491,0,0,4.46491,0,0)">
        <path d="M179.175,179.175L95.875,179.175L95.875,157.856L145.821,107.909L145.821,72.811C148.361,70.899 150.011,67.868 150.011,64.443C150.011,58.655 145.321,53.965 139.534,53.965C133.746,53.965 129.055,58.655 129.055,64.443C129.055,67.868 130.705,70.899 133.246,72.811L133.246,102.7L83.3,152.647L83.3,179.175L45.58,179.175L45.58,147.9C48.12,145.989 49.77,142.958 49.77,139.533C49.77,133.745 45.08,129.054 39.292,129.054C33.504,129.054 28.814,133.744 28.814,139.533C28.814,142.958 30.464,145.989 33.005,147.9L33.005,179.174L0,179.174L0,90.287L36.688,90.287L50.584,104.182C50.516,104.664 50.469,105.154 50.469,105.655C50.469,111.442 55.159,116.134 60.948,116.134C66.735,116.134 71.426,111.443 71.426,105.655C71.426,99.868 66.736,95.178 60.948,95.178C60.447,95.178 59.959,95.225 59.476,95.293L41.898,77.713L0,77.713L0,48.725L66.438,48.725L80.394,36.613C81.106,36.765 81.844,36.85 82.602,36.85C88.39,36.85 93.081,32.159 93.081,26.371C93.081,20.584 88.391,15.894 82.602,15.894C76.815,15.894 72.124,20.584 72.124,26.371C72.124,26.62 72.145,26.863 72.161,27.107L61.742,36.15L0,36.15L0,0L152.865,0C161.634,8.771 170.405,17.54 179.175,26.31L179.175,139.533L153.139,139.533C151.228,136.993 148.196,135.342 144.771,135.342C138.984,135.342 134.293,140.033 134.293,145.82C134.293,151.608 138.983,156.299 144.771,156.299C148.197,156.299 151.228,154.649 153.14,152.108L179.175,152.108L179.175,179.175Z" style="fill-rule:nonzero;"/>
    </g>
</svg>
