<?xml version="1.0" encoding="UTF-8" standalone="no"?>
<!DOCTYPE svg PUBLIC "-//W3C//DTD SVG 1.1//EN" "http://www.w3.org/Graphics/SVG/1.1/DTD/svg11.dtd">
<svg width="100%" height="100%" viewBox="0 0 320 320" version="1.1" xmlns="http://www.w3.org/2000/svg" xmlns:xlink="http://www.w3.org/1999/xlink" xml:space="preserve" xmlns:serif="http://www.serif.com/" style="fill-rule:evenodd;clip-rule:evenodd;stroke-linejoin:round;stroke-miterlimit:2;">
    <path d="M160,0C71.82,0 0,71.82 0,160C0,248.18 71.82,320 160,320C248.18,320 320,248.18 320,160C320,71.82 248.18,0 160,0ZM160,32C230.219,32 288,89.781 288,160C288,230.219 230.219,288 160,288C89.781,288 32,230.219 32,160C32,159.92 32,159.84 32,159.76C32,89.673 89.673,32 159.76,32C159.84,32 159.92,32 160,32ZM144,64L144,166.62L212.69,235.31L235.31,212.69L176,153.38L176,64L144,64Z" style="fill:rgb(255,0,0);fill-rule:nonzero;stroke:rgb(255,0,0);stroke-width:1px;"/>
</svg>
