<?xml version="1.0" encoding="UTF-8" standalone="no"?>
<!DOCTYPE svg PUBLIC "-//W3C//DTD SVG 1.1//EN" "http://www.w3.org/Graphics/SVG/1.1/DTD/svg11.dtd">
<svg width="100%" height="100%" viewBox="0 0 898 1159" version="1.1" xmlns="http://www.w3.org/2000/svg" xmlns:xlink="http://www.w3.org/1999/xlink" xml:space="preserve" xmlns:serif="http://www.serif.com/" style="fill-rule:evenodd;clip-rule:evenodd;stroke-linejoin:round;stroke-miterlimit:2;">
    <g transform="matrix(1,0,0,1,23.892,1.86038)">
        <path d="M430.25,800.66C344.52,800.96 259,796.84 173.79,787.48C146.55,784.49 118.84,783.11 92.94,772.79C45.64,753.94 12.54,721.73 2.69,670.44C-6.91,620.43 9.75,577.9 44.54,541.86C57.46,528.48 72.21,517.39 88.54,508.43C90.32,507.46 91.82,506.12 93.8,508.2C115.61,531.18 143.91,543.61 172.2,555.87C257.13,592.67 345.63,612.15 438.48,608.89C513.04,606.27 583.86,589.4 648.32,550.35C677.09,532.92 702.22,511.27 722.04,483.85C723.62,481.66 725.12,481.21 727.49,482.29C788.8,510.21 832.48,553.9 847.4,621.23C859.29,674.9 832.58,730.52 783.69,760.81C759.46,775.82 732.55,781.01 705.02,784.64C608.21,797.41 513.2,800.43 430.25,800.66Z" style="fill:rgb(112,112,112);fill-rule:nonzero;stroke:rgb(112,112,112);stroke-width:1px;"/>
        <path d="M591.83,258.48C616.56,266.75 639.22,277.35 659.91,291.89C685.74,310.05 707.2,331.98 717.57,362.7C729.91,399.24 721.04,432.42 700.08,463.05C673.72,501.58 636.42,526.49 594.38,544.73C518.23,577.77 438.55,584.65 356.89,575.31C283.65,566.94 214.46,545.05 148.92,511.65C121.44,497.65 101.17,476.9 93.19,445.98C84.33,411.62 97.39,381.07 129.38,361.9C145.22,352.41 162.47,346.37 180.13,341.38C182.06,340.83 183.58,340.68 184.77,342.79C204.25,377.23 236.65,392.83 273.09,400.39C356.94,417.78 436.4,405.82 509.45,359.86C542.55,339.03 568.78,311.15 587.55,276.54C590.54,271.05 592.85,265.55 591.83,258.48Z" style="fill:rgb(112,112,112);fill-rule:nonzero;stroke:rgb(112,112,112);stroke-width:1px;"/>
        <path d="M522.14,1132.6C514.82,1132.93 507.49,1133.15 500.18,1133.65C496.72,1133.89 495.52,1133.01 495.78,1129.26C501.81,1044.37 507.65,959.47 513.71,874.59C515.68,846.98 536.62,825.25 563.11,822.62C588.48,820.1 611.68,836.4 619.32,861.85C622.69,873.07 620.31,883.91 618.17,894.88C603.25,971.32 588.37,1047.78 573.59,1124.25C572.96,1127.52 571.61,1128.66 568.44,1128.91C553,1130.12 537.57,1131.51 522.14,1132.84C522.15,1132.75 522.14,1132.67 522.14,1132.6Z" style="fill:rgb(112,112,112);fill-rule:nonzero;stroke:rgb(112,112,112);stroke-width:1px;"/>
        <path d="M398.4,256.09L416.14,256.09C416.14,265.37 416.31,274.46 416.06,283.54C415.96,287.16 416.59,288.39 420.65,288.08C468.01,284.5 515.14,279.47 561.34,267.82C561.94,267.67 562.59,267.69 563.82,267.58C555.04,286.8 542.69,302.71 527.62,316.55C482.25,358.2 427.74,378.5 367.23,383.78C327.86,387.21 289.13,383.71 251.9,369.09C226.5,359.11 215.56,346.33 215.76,326.19C215.97,304.12 230.88,284.21 253.33,275.66C267.63,270.21 281.99,270.95 296.56,274.32C328.27,281.65 360.39,286.07 392.89,287.93C397.4,288.19 398.67,286.93 398.51,282.52C398.18,273.9 398.4,265.25 398.4,256.09Z" style="fill:rgb(112,112,112);fill-rule:nonzero;stroke:rgb(112,112,112);stroke-width:1px;"/>
        <path d="M419.19,1134.93C408.7,1134.93 398.21,1134.88 387.72,1134.96C384.59,1134.99 383.38,1133.79 383.15,1130.58C377.16,1048.37 370.82,966.19 365.15,883.96C363.04,853.43 382.2,828.51 409.77,823.65C441.47,818.06 472.03,842.2 472.99,874.55C473.69,898.37 470.31,922.07 468.66,945.82C464.38,1007.12 459.85,1068.4 455.6,1129.7C455.3,1134.01 453.95,1135.38 449.68,1135.26C439.53,1134.99 429.36,1135.17 419.21,1135.17C419.19,1135.1 419.19,1135.02 419.19,1134.93Z" style="fill:rgb(112,112,112);fill-rule:nonzero;stroke:rgb(112,112,112);stroke-width:1px;"/>
        <path d="M342.53,1133.26C317.96,1132.17 293.94,1130.29 269.99,1127.32C266.93,1126.94 266.85,1124.66 266.43,1122.68C257.3,1078.85 248.23,1035.01 239.13,991.18C231.96,956.64 224.84,922.08 217.57,887.56C211.61,859.23 228.68,831.51 256.77,824.19C284.33,817.01 313.1,833.02 321.32,860.65C326.59,878.39 325.66,896.97 327.05,915.18C332.49,986.59 337.41,1058.04 342.52,1129.48C342.59,1130.45 342.53,1131.45 342.53,1133.26Z" style="fill:rgb(112,112,112);fill-rule:nonzero;stroke:rgb(112,112,112);stroke-width:1px;"/>
        <path d="M614.36,1123.36C618.54,1101.28 622.42,1080.52 626.4,1059.78C637.75,1000.76 649.24,941.77 660.45,882.73C664.2,862.96 668.61,843.69 681.75,827.49C694.16,812.2 710.57,805.22 729.37,801.85C743.27,799.36 756.97,795.77 770.87,792.65C772.31,795.86 770.42,798.43 769.72,800.95C747.17,882.09 724.49,963.19 701.85,1044.3C697.6,1059.53 693.28,1074.75 689.24,1090.04C687.93,1095 685.46,1098.94 681.31,1101.73C661.4,1115.08 638.44,1118.84 614.36,1123.36Z" style="fill:rgb(112,112,112);fill-rule:nonzero;stroke:rgb(112,112,112);stroke-width:1px;"/>
        <path d="M224.68,1121.33C205.24,1117.35 186.71,1113.44 170.39,1102.93C165.3,1099.65 162.25,1095.1 160.57,1089.08C135.96,1000.92 111.15,912.81 86.42,824.68C83.74,815.14 81.21,805.56 78.31,794.92C95.78,800.52 113.77,800.19 129.75,807.71C155.44,819.81 167.19,842.34 172.8,868.58C184.86,924.91 196.45,981.33 208.12,1037.74C213.65,1064.48 218.91,1091.27 224.28,1118.04C224.44,1118.8 224.48,1119.6 224.68,1121.33Z" style="fill:rgb(112,112,112);fill-rule:nonzero;stroke:rgb(112,112,112);stroke-width:1px;"/>
        <path d="M468.14,180.46C470.51,219.61 433.51,246.13 393.6,238.47C357.17,231.48 338.93,204.12 344.38,167.05C351.82,116.48 372.4,71.26 399.46,28.56C406.72,17.1 407.23,17.13 414.33,28.85C436.94,66.18 456.17,104.93 464.44,148.27C466.48,158.89 468.13,169.58 468.14,180.46Z" style="fill:rgb(112,112,112);fill-rule:nonzero;stroke:rgb(112,112,112);stroke-width:1px;"/>
    </g>
</svg>
