<?xml version="1.0" encoding="UTF-8" standalone="no"?>
<!DOCTYPE svg PUBLIC "-//W3C//DTD SVG 1.1//EN" "http://www.w3.org/Graphics/SVG/1.1/DTD/svg11.dtd">
<svg width="100%" height="100%" viewBox="0 0 3500 3500" version="1.1" xmlns="http://www.w3.org/2000/svg" xmlns:xlink="http://www.w3.org/1999/xlink" xml:space="preserve" xmlns:serif="http://www.serif.com/" style="fill-rule:evenodd;clip-rule:evenodd;stroke-linejoin:round;stroke-miterlimit:2;">
    <g transform="matrix(1.10801,0,0,1.10801,0.000221601,282.214)">
        <g transform="matrix(1,0,0,1,2202.06,759.424)">
            <path d="M0,1890C-2.67,1889.61 -5.334,1888.94 -8.011,1888.88C-20.753,1888.58 -33.523,1888.89 -46.237,1888.17C-70.171,1886.81 -94.096,1885.16 -117.98,1883.13C-140.375,1881.22 -162.761,1879.03 -185.062,1876.25C-201.398,1874.22 -217.636,1871.28 -233.843,1868.33C-281.285,1859.71 -328.025,1847.9 -374.395,1834.91C-413.088,1824.07 -450.729,1809.74 -488.131,1794.99C-540.914,1774.17 -592.142,1750.08 -641.918,1722.77C-699.234,1691.33 -753.373,1655.19 -804.852,1615.01C-826.511,1598.1 -848.299,1581.31 -869.172,1563.46C-886.43,1548.7 -902.498,1532.55 -918.972,1516.88C-963.784,1474.28 -1004.55,1427.93 -1043.1,1379.72C-1062.25,1355.76 -1079.02,1329.89 -1096.63,1304.72C-1127.47,1260.65 -1154.74,1214.38 -1179.45,1166.68C-1191.84,1142.77 -1201.83,1117.63 -1213.08,1093.14C-1237.34,1040.38 -1255.72,985.431 -1272.45,930.005C-1282.38,897.088 -1289.35,863.246 -1296.92,829.655C-1306.11,788.928 -1310.96,747.516 -1315.42,706.035C-1320.82,655.791 -1323.31,605.391 -1323.23,554.924C-1323.18,525.484 -1320.95,496.018 -1318.9,466.62C-1317.35,444.46 -1315.04,422.324 -1312.15,400.297C-1308.39,371.593 -1304.55,342.853 -1299.27,314.403C-1286.81,247.283 -1268.89,181.503 -1245.31,117.477C-1231.17,79.088 -1214.16,41.758 -1198.42,3.96C-1197.95,2.829 -1197.28,1.783 -1196.33,0C-1186.79,0.908 -1177.1,1.437 -1167.53,2.808C-1120.86,9.493 -1075.78,21.849 -1032.23,40.102C-990.374,57.645 -950.503,78.704 -913.43,104.859C-894.228,118.405 -876.369,133.66 -859.688,150.279C-850.487,159.445 -840.361,167.725 -831.585,177.263C-820.609,189.191 -810.406,201.85 -800.199,214.461C-777.479,242.533 -758.583,273.175 -742.173,305.209C-732.181,324.716 -724.337,345.329 -715.685,365.513C-702.024,397.38 -694.66,430.938 -688.226,464.87C-680.879,503.611 -678.868,542.719 -678.304,581.929C-677.789,617.796 -673.16,653.112 -666.844,688.297C-660.66,722.749 -652.048,756.642 -640.996,789.8C-634.777,808.458 -626.367,826.407 -618.549,844.505C-601.846,883.166 -580.219,919.142 -556.828,953.998C-542.082,975.973 -525.258,996.458 -507.475,1016.16C-473.353,1053.95 -435.646,1087.81 -394.68,1117.87C-366.881,1138.27 -336.816,1155.23 -306.225,1171.22C-269.13,1190.61 -230.473,1206.2 -190.373,1217.81C-167.657,1224.39 -144.208,1228.57 -120.945,1233.09C-84.836,1240.11 -48.253,1243.62 -11.534,1244.69C8.4,1245.27 28.415,1243.88 48.367,1242.87C61.327,1242.2 74.379,1241.43 87.146,1239.26C116.67,1234.25 146.321,1229.51 175.391,1222.46C196.893,1217.25 217.572,1208.64 238.594,1201.46C275.847,1188.76 310.593,1170.53 345.127,1152.03C359.601,1144.28 373.274,1134.79 386.479,1124.96C409.118,1108.12 431.773,1091.18 453.148,1072.8C469.767,1058.51 484.578,1042.1 499.958,1026.4C528.938,996.813 553.019,963.346 575.73,928.916C597.38,896.096 614.879,861.003 629.484,824.528C636.621,806.704 642.788,788.491 649.4,770.457C650.316,767.959 651.271,765.475 652.206,762.984C652.744,762.986 653.283,762.988 653.821,762.99C754.743,1137.86 855.665,1512.73 956.771,1888.28C954.254,1888.62 952.407,1889 950.547,1889.09C948.054,1889.22 945.55,1889.13 943.051,1889.13C632.904,1889.13 322.759,1889.12 12.612,1889.16C8.908,1889.16 5.204,1889.71 1.499,1890L0,1890Z" style="fill:white;fill-rule:nonzero;"/>
        </g>
        <g transform="matrix(1,0,0,1,954.352,1520.22)">
            <path d="M0,1129.19C-3.449,1128.9 -6.898,1128.36 -10.347,1128.36C-320.989,1128.32 -631.631,1128.32 -942.273,1128.32L-954.352,1128.32C-853.303,751.424 -752.588,375.772 -651.873,0.12L-650.446,0C-649.642,1.65 -648.577,3.225 -648.069,4.963C-632.907,56.839 -608.869,104.83 -582.681,151.728C-572.612,169.759 -559.995,186.407 -548.075,203.359C-518.314,245.685 -483.191,283.226 -444.035,316.893C-415.592,341.349 -384.749,362.613 -353.064,382.74C-319.178,404.264 -283.191,421.218 -246.034,436.173C-205.991,452.289 -164.631,463.151 -122.3,471.026C-87.355,477.526 -52.148,481.239 -16.064,482.865C107.554,711.106 280.17,893.258 502.331,1030.08C499.037,1031.5 496.639,1032.59 494.204,1033.58C436.508,1057.08 376.954,1074.88 316.582,1089.77C282.446,1098.19 247.834,1104.93 213.175,1110.91C185.404,1115.7 157.259,1118.38 129.243,1121.69C89.988,1126.32 50.522,1127.3 11.046,1128.01C7.858,1128.07 4.681,1128.79 1.5,1129.19L0,1129.19Z" style="fill:white;fill-rule:nonzero;"/>
        </g>
        <g transform="matrix(1,0,0,1,2153.48,0.2991)">
            <path d="M0,1890.69C-8.985,1889.84 -17.694,1889.33 -26.308,1888.13C-70.485,1881.98 -113.349,1871 -154.865,1854.41C-188.367,1841.03 -220.625,1825.22 -251.47,1806.69C-280.21,1789.43 -307.082,1769.48 -331.1,1745.88C-340.724,1736.43 -350.542,1727.17 -360.44,1718.01C-373.528,1705.88 -384.062,1691.57 -395.195,1677.79C-418.358,1649.11 -437.409,1617.74 -454.694,1585.29C-459.729,1575.84 -463.703,1565.81 -468.044,1556C-479.157,1530.87 -489.702,1505.46 -497.055,1478.98C-501.585,1462.67 -504.726,1445.9 -507.505,1429.18C-510.982,1408.26 -513.938,1387.23 -516.178,1366.14C-517.651,1352.26 -517.976,1338.19 -517.93,1324.22C-517.741,1267.4 -526.451,1211.81 -539.608,1156.72C-550.098,1112.81 -565.71,1070.85 -585.437,1030.3C-608.144,983.615 -635.093,939.544 -667.757,899.246C-693.904,866.99 -723.426,837.856 -754.713,810.465C-796.708,773.699 -843.119,743.787 -892.625,718.271C-928.942,699.552 -966.659,684.334 -1005.77,672.948C-1028.24,666.408 -1051.44,662.234 -1074.45,657.748C-1109.32,650.95 -1144.63,647.097 -1180.11,646.229C-1203.04,645.668 -1226.04,647.18 -1249,648.067C-1275.02,649.071 -1300.53,654.125 -1326.17,658.248C-1365.85,664.63 -1403.55,677.604 -1441.13,691.252C-1470.8,702.028 -1498.81,716.307 -1526.8,730.66C-1564.13,749.806 -1596.98,775.523 -1629.93,801.134C-1658.49,823.33 -1683.2,849.435 -1707.42,876.051C-1741.88,913.93 -1770.89,955.86 -1795.44,1000.63C-1808.73,1024.86 -1819.33,1050.62 -1830.24,1076.07C-1836.62,1090.95 -1841.22,1106.59 -1846.63,1121.87C-1847.42,1124.11 -1848.31,1126.31 -1849.16,1128.52C-1849.69,1128.5 -1850.23,1128.49 -1850.76,1128.47C-1951.48,752.853 -2052.21,377.239 -2153.09,1.03C-2151.11,0.671 -2149.53,0.196 -2147.93,0.131C-2144.68,0 -2141.43,0.091 -2138.18,0.091L-1211.47,0.091C-1177.17,3.555 -1142.61,1.159 -1108.3,4.953C-1075.28,8.604 -1042.13,11.026 -1009.12,14.65C-993.753,16.336 -978.524,19.377 -963.302,22.172C-915.141,31.015 -867.551,42.571 -820.615,56.268C-769.806,71.096 -720.38,90.147 -671.611,110.835C-609.392,137.229 -549.906,168.775 -492.544,204.418C-456.001,227.125 -421.373,252.552 -387.451,278.941C-367.144,294.739 -346.989,310.754 -327.239,327.239C-315.941,336.669 -305.42,347.059 -294.854,357.331C-275.503,376.142 -255.737,394.585 -237.328,414.287C-215.682,437.454 -195.325,461.823 -174.355,485.624C-148.36,515.131 -126.384,547.63 -104.003,579.834C-71.886,626.049 -42.802,674.137 -17.115,724.168C-4.247,749.233 6.32,775.475 18.052,801.128C41.781,853.02 59.574,907.121 76.151,961.544C85.661,992.764 92.096,1024.94 99.407,1056.81C108.41,1096.04 113.457,1135.91 117.854,1175.9C123.625,1228.36 126.878,1280.97 126.472,1333.72C126.247,1362.92 123.991,1392.11 122.42,1421.29C120.552,1455.99 116.267,1490.46 111.285,1524.81C106.521,1557.65 100.626,1590.31 92.932,1622.66C81.078,1672.49 67.595,1721.86 49.846,1769.88C37.649,1802.88 23.403,1835.13 10.003,1867.68C6.881,1875.26 3.473,1882.73 0,1890.69" style="fill:white;fill-rule:nonzero;"/>
        </g>
        <g transform="matrix(1,0,0,1,2855.56,-1.5757)">
            <path d="M0,1129.02C-46.279,990.345 -123.982,874.683 -240.731,786.43C-357.332,698.289 -489.089,652.856 -635.41,647.683C-676.578,573.702 -721.323,502.187 -774.37,436.231C-827.55,370.11 -885.253,308.258 -949.199,252.29C-1012.78,196.64 -1079.66,145.526 -1154.03,102.315C-1150.75,100.623 -1149.11,99.61 -1147.36,98.901C-1084.25,73.424 -1019.21,54.002 -953.093,38.344C-919.844,30.469 -886.123,24.351 -852.386,18.845C-825.3,14.424 -797.937,11.27 -770.573,9.099C-738.218,6.533 -705.713,5.904 -673.302,3.943C-608.152,0 -542.949,2.187 -477.777,2.108C-220.844,1.796 36.09,1.979 293.023,1.979L301.417,1.979C302.076,2.789 302.254,2.966 302.38,3.174C302.502,3.374 302.695,3.64 302.646,3.82C201.776,378.89 100.889,753.956 0,1129.02" style="fill:white;fill-rule:nonzero;"/>
        </g>
    </g>
</svg>
