<?xml version="1.0" encoding="UTF-8" standalone="no"?>
<!DOCTYPE svg PUBLIC "-//W3C//DTD SVG 1.1//EN" "http://www.w3.org/Graphics/SVG/1.1/DTD/svg11.dtd">
<svg width="100%" height="100%" viewBox="0 0 800 800" version="1.1" xmlns="http://www.w3.org/2000/svg" xmlns:xlink="http://www.w3.org/1999/xlink" xml:space="preserve" xmlns:serif="http://www.serif.com/" style="fill-rule:evenodd;clip-rule:evenodd;stroke-linejoin:round;stroke-miterlimit:2;">
    <g transform="matrix(3.125,0,0,3.125,0,0)">
        <path d="M108,136C108,144.777 100.777,152 92,152C83.223,152 76,144.777 76,136C76,127.223 83.223,120 92,120C100.777,120 108,127.223 108,136ZM164,120C155.223,120 148,127.223 148,136C148,144.777 155.223,152 164,152C172.777,152 180,144.777 180,136C180,127.223 172.777,120 164,120ZM234.378,147.602C231.74,148.81 228.875,149.439 225.974,149.448C223.945,149.446 221.93,149.127 220,148.501L220,184C219.973,208.127 200.127,227.973 176,228L80,228C55.873,227.973 36.027,208.127 36,184L36,148.501C34.07,149.127 32.055,149.446 30.026,149.448C27.125,149.439 24.26,148.81 21.622,147.602C13.185,143.894 8.42,134.739 10.222,125.701L26.64,38.135C28.407,28.713 36.712,21.821 46.298,21.821C47.933,21.821 49.563,22.021 51.149,22.418L105.477,36L150.523,36L204.852,22.418C206.438,22.021 208.067,21.821 209.703,21.821C219.288,21.821 227.592,28.712 229.359,38.133L245.778,125.701C247.58,134.739 242.815,143.894 234.378,147.602ZM172.879,55.149L219.181,114.08L206.554,46.731L172.879,55.149ZM36.819,114.08L83.121,55.149L49.446,46.731L36.819,114.08ZM196,184L196,123.422L146.168,60L109.832,60L60,123.423L60,184C60.012,194.967 69.033,203.988 80,204L116,204L116,196.971L103.515,184.485C101.269,182.236 100.006,179.184 100.006,176.006C100.006,169.423 105.423,164.006 112.006,164.006C115.184,164.006 118.236,165.269 120.485,167.515L128,175.029L135.515,167.515C137.764,165.269 140.816,164.006 143.994,164.006C150.577,164.006 155.994,169.423 155.994,176.006C155.994,179.184 154.731,182.236 152.485,184.485L140,196.971L140,204L176,204C186.967,203.988 195.988,194.967 196,184Z" style="fill:rgb(64,64,64);fill-rule:nonzero;"/>
    </g>
</svg>
