<?xml version="1.0" encoding="UTF-8" standalone="no"?>
<!DOCTYPE svg PUBLIC "-//W3C//DTD SVG 1.1//EN" "http://www.w3.org/Graphics/SVG/1.1/DTD/svg11.dtd">
<svg width="100%" height="100%" viewBox="0 0 800 800" version="1.1" xmlns="http://www.w3.org/2000/svg" xmlns:xlink="http://www.w3.org/1999/xlink" xml:space="preserve" xmlns:serif="http://www.serif.com/" style="fill-rule:evenodd;clip-rule:evenodd;stroke-linejoin:round;stroke-miterlimit:2;">
    <g transform="matrix(1.56247,0,0,1.56247,0,0)">
        <path d="M454.892,397.749L454.892,397.728L372.844,200.8C372.481,199.947 372.076,199.093 371.585,198.283C358.806,176.31 331.286,166.923 296.876,170.614L431.084,36.405C439.425,28.085 439.425,14.581 431.084,6.24C422.764,-2.08 409.26,-2.08 400.919,6.24L245.335,161.824L89.751,6.24C81.431,-2.08 67.927,-2.08 59.586,6.24C51.266,14.581 51.266,28.085 59.586,36.405L194.22,171.04C135.276,173.045 96.001,197.963 96.001,234.656L96.001,447.989C96.001,460.661 101.164,484.192 135.766,499.424C154.177,507.531 178.283,511.989 203.67,511.989C230.977,511.989 254.059,506.976 271.851,498.421C283.286,507.85 298.987,512.01 316.608,512.01C337.237,512.01 360.363,506.463 381.973,497.461C440.321,473.163 469.633,433.099 454.892,397.749ZM224.001,426.656L181.334,426.656C169.537,426.656 160.001,417.12 160.001,405.323C160.001,393.547 169.537,383.99 181.334,383.99L224.001,383.99C235.798,383.99 245.334,393.547 245.334,405.323C245.335,417.12 235.799,426.656 224.001,426.656ZM224.001,362.656L181.334,362.656C169.537,362.656 160.001,353.12 160.001,341.323C160.001,329.547 169.537,319.99 181.334,319.99L224.001,319.99C235.798,319.99 245.334,329.547 245.334,341.323C245.335,353.12 235.799,362.656 224.001,362.656ZM224.001,298.656L181.334,298.656C169.537,298.656 160.001,289.12 160.001,277.323C160.001,265.547 169.537,255.99 181.334,255.99L224.001,255.99C235.798,255.99 245.334,265.547 245.334,277.323C245.335,289.12 235.799,298.656 224.001,298.656ZM365.548,458.08C339.287,469.003 316.887,470.944 305.068,467.573C305.473,466.677 305.559,465.888 305.9,464.992C306.604,463.136 307.265,461.259 307.735,459.317C308.759,455.178 309.335,451.296 309.335,447.989L309.335,234.656C309.335,232.8 309.164,230.645 308.844,228.405C308.716,227.232 308.524,226.08 308.311,224.97C308.226,224.629 308.14,224.287 308.055,223.946C307.18,219.957 305.922,216.138 304.108,212.618C319.169,211.338 330.305,213.813 334.167,218.954L415.532,414.133C418.945,422.368 401.58,443.061 365.548,458.08Z" style="fill:rgb(64,64,64);fill-rule:nonzero;"/>
    </g>
</svg>
