<?xml version="1.0" encoding="UTF-8" standalone="no"?>
<!DOCTYPE svg PUBLIC "-//W3C//DTD SVG 1.1//EN" "http://www.w3.org/Graphics/SVG/1.1/DTD/svg11.dtd">
<svg width="100%" height="100%" viewBox="0 0 800 800" version="1.1" xmlns="http://www.w3.org/2000/svg" xmlns:xlink="http://www.w3.org/1999/xlink" xml:space="preserve" xmlns:serif="http://www.serif.com/" style="fill-rule:evenodd;clip-rule:evenodd;stroke-linejoin:round;stroke-miterlimit:2;">
    <g transform="matrix(1.56151,0,0,1.56151,0,0)">
        <path d="M224.033,255.998L181.366,255.998C169.584,255.998 160.033,265.549 160.033,277.331C160.033,289.113 169.584,298.664 181.366,298.664L224.033,298.664C235.815,298.664 245.366,289.113 245.366,277.331C245.367,265.549 235.815,255.998 224.033,255.998Z" style="fill:rgb(64,64,64);fill-rule:nonzero;"/>
        <path d="M224.033,319.998L181.366,319.998C169.584,319.998 160.033,329.549 160.033,341.331C160.033,353.113 169.584,362.664 181.366,362.664L224.033,362.664C235.815,362.664 245.366,353.113 245.366,341.331C245.367,329.549 235.815,319.998 224.033,319.998Z" style="fill:rgb(64,64,64);fill-rule:nonzero;"/>
        <path d="M224.033,383.998L181.366,383.998C169.584,383.998 160.033,393.549 160.033,405.331C160.033,417.113 169.584,426.664 181.366,426.664L224.033,426.664C235.815,426.664 245.366,417.113 245.366,405.331C245.367,393.549 235.815,383.998 224.033,383.998Z" style="fill:rgb(64,64,64);fill-rule:nonzero;"/>
        <path d="M454.925,397.736L372.878,200.811L371.613,198.267C357.887,174.733 330.032,166.583 297.333,170.203L431.118,36.418C439.449,28.087 439.449,14.579 431.118,6.248C422.787,-2.083 409.279,-2.083 400.948,6.248L245.367,161.83L89.785,6.248C81.454,-2.083 67.946,-2.083 59.615,6.248C51.284,14.579 51.284,28.087 59.615,36.418L193.987,170.79C139.435,172.581 96.033,193.859 96.033,234.664L96.033,447.997C96.033,490.18 144.25,511.691 202.589,511.994C229.16,512.132 253.58,507.827 272.341,499.077C296.019,518.249 338.114,515.481 380.978,497.883C435.211,475.618 471.463,437.416 454.925,397.736ZM138.7,447.998L138.7,234.665C138.7,224.765 164.963,213.139 202.589,213.334C220.825,213.429 236.504,216.311 247.798,220.306C248.652,220.796 249.548,221.249 250.507,221.641C261.384,226.082 266.063,230.547 266.636,233.95C266.671,234.19 266.7,234.429 266.7,234.665L266.7,447.992C266.7,448.009 266.697,448.026 266.696,448.043C266.694,448.257 266.669,448.472 266.643,448.687C266.407,450.213 265.349,451.898 262.732,454.272C261.898,455.029 261.134,455.842 260.443,456.701C250.526,463.638 229.541,469.468 202.809,469.329C165.401,469.135 138.7,457.222 138.7,447.998ZM364.774,458.414C339.329,468.861 316.796,471.23 305.232,468.37C307.922,462.228 309.367,455.438 309.367,447.998L309.367,234.649C309.367,233.705 309.334,232.774 309.286,231.851C309.28,231.737 309.274,231.623 309.268,231.51C308.863,224.611 307.131,218.293 304.247,212.56C319.179,211.279 330.258,213.703 334.212,218.946L415.542,414.15C419.352,423.291 399.583,444.123 364.774,458.414Z" style="fill:rgb(64,64,64);fill-rule:nonzero;"/>
    </g>
</svg>
