<?xml version="1.0" encoding="UTF-8" standalone="no"?>
<!DOCTYPE svg PUBLIC "-//W3C//DTD SVG 1.1//EN" "http://www.w3.org/Graphics/SVG/1.1/DTD/svg11.dtd">
<svg width="100%" height="100%" viewBox="0 0 800 800" version="1.1" xmlns="http://www.w3.org/2000/svg" xmlns:xlink="http://www.w3.org/1999/xlink" xml:space="preserve" xmlns:serif="http://www.serif.com/" style="fill-rule:evenodd;clip-rule:evenodd;stroke-linejoin:round;stroke-miterlimit:2;">
    <g transform="matrix(3.61158e-15,58.9816,-58.9816,3.61158e-15,964.136,-42.2965)">
        <path d="M13.842,11.52L9.453,15.908C9.022,16.336 8.317,16.336 7.886,15.908L1.606,9.628C1.138,9.106 0.865,8.437 0.835,7.736L0.878,4.055C0.889,3.444 1.389,2.945 2,2.935L5.67,2.9C6.371,2.932 7.04,3.205 7.562,3.673L13.842,9.953C14.27,10.384 14.27,11.089 13.842,11.52ZM3.826,5.133C3.826,4.699 3.468,4.341 3.034,4.341C2.6,4.341 2.242,4.699 2.242,5.133C2.242,5.567 2.6,5.925 3.034,5.925C3.468,5.925 3.826,5.567 3.826,5.133ZM10.42,12.481C10.524,12.377 10.583,12.236 10.583,12.089C10.583,11.942 10.524,11.801 10.42,11.697L10.019,11.296C10.184,11.043 10.303,10.761 10.369,10.466C10.512,9.931 10.361,9.358 9.972,8.963C9.7,8.692 9.338,8.528 8.955,8.503C8.702,8.487 8.448,8.515 8.205,8.588L8.203,8.588C7.995,8.654 7.796,8.747 7.613,8.865L7.61,8.865C7.452,8.968 7.305,9.088 7.172,9.222C7.092,9.302 7.005,9.376 6.913,9.442C6.812,9.514 6.701,9.571 6.584,9.612L6.582,9.612C6.473,9.648 6.358,9.661 6.244,9.65L6.242,9.65C6.125,9.641 6.015,9.593 5.928,9.514C5.799,9.368 5.758,9.164 5.822,8.98C5.892,8.711 6.034,8.465 6.232,8.27C6.304,8.208 6.381,8.153 6.462,8.105L6.492,8.086C6.594,8.024 6.702,7.972 6.814,7.931C6.918,7.892 7.028,7.872 7.139,7.871C7.443,7.871 7.693,7.621 7.693,7.317C7.693,7.013 7.443,6.763 7.139,6.763L7.138,6.763C6.893,6.764 6.65,6.809 6.421,6.895C6.236,6.963 6.059,7.05 5.892,7.155L5.882,7.161L5.484,6.761C5.38,6.657 5.239,6.599 5.092,6.599C4.788,6.599 4.537,6.849 4.537,7.153C4.537,7.301 4.596,7.442 4.7,7.546L5.088,7.933C4.926,8.178 4.809,8.45 4.741,8.736C4.594,9.291 4.747,9.883 5.145,10.297C5.411,10.557 5.758,10.718 6.128,10.753C6.4,10.781 6.674,10.751 6.933,10.664C7.156,10.589 7.366,10.482 7.557,10.345C7.699,10.243 7.832,10.13 7.955,10.006C8.033,9.928 8.119,9.858 8.211,9.798C8.311,9.734 8.418,9.683 8.531,9.647C8.644,9.614 8.762,9.602 8.879,9.609C8.995,9.617 9.104,9.666 9.187,9.748C9.237,9.797 9.352,9.913 9.284,10.236C9.215,10.512 9.073,10.764 8.871,10.965C8.783,11.045 8.689,11.118 8.591,11.184C8.494,11.246 8.392,11.299 8.285,11.341C8.183,11.38 8.073,11.395 7.965,11.383C7.952,11.382 7.938,11.382 7.925,11.382C7.621,11.382 7.371,11.632 7.371,11.936C7.371,12.225 7.597,12.468 7.885,12.489C7.937,12.493 7.988,12.494 8.037,12.494C8.272,12.497 8.505,12.451 8.722,12.36C8.9,12.288 9.07,12.198 9.229,12.09L9.239,12.083L9.636,12.481C9.851,12.695 10.204,12.695 10.419,12.481L10.42,12.481Z" style="fill-rule:nonzero;"/>
    </g>
</svg>
