<?xml version="1.0" encoding="UTF-8" standalone="no"?>
<!DOCTYPE svg PUBLIC "-//W3C//DTD SVG 1.1//EN" "http://www.w3.org/Graphics/SVG/1.1/DTD/svg11.dtd">
<svg width="100%" height="100%" viewBox="0 0 670 670" version="1.1" xmlns="http://www.w3.org/2000/svg" xmlns:xlink="http://www.w3.org/1999/xlink" xml:space="preserve" xmlns:serif="http://www.serif.com/" style="fill-rule:evenodd;clip-rule:evenodd;stroke-linecap:round;stroke-linejoin:round;">
    <g transform="matrix(33.3333,0,0,33.3333,-64.6667,-64.6667)">
        <path d="M21,13.8L21,16.2C21,17.88 21,18.72 20.673,19.362C20.385,19.927 19.927,20.385 19.362,20.673C18.72,21 17.88,21 16.2,21L7.8,21C6.12,21 5.28,21 4.638,20.673C4.074,20.385 3.615,19.927 3.327,19.362C3,18.72 3,17.88 3,16.2L3,13.8" style="fill:none;fill-rule:nonzero;stroke:white;stroke-width:2px;"/>
    </g>
    <g transform="matrix(-33.3333,4.08216e-15,-4.08216e-15,-33.3333,735.333,535.333)">
        <path d="M16,7L12,3M12,3L8,7M12,3L12,15" style="fill:none;fill-rule:nonzero;stroke:white;stroke-width:2px;"/>
    </g>
</svg>
