<?xml version="1.0" encoding="UTF-8" standalone="no"?>
<!DOCTYPE svg PUBLIC "-//W3C//DTD SVG 1.1//EN" "http://www.w3.org/Graphics/SVG/1.1/DTD/svg11.dtd">
<svg width="100%" height="100%" viewBox="0 0 800 800" version="1.1" xmlns="http://www.w3.org/2000/svg" xmlns:xlink="http://www.w3.org/1999/xlink" xml:space="preserve" xmlns:serif="http://www.serif.com/" style="fill-rule:evenodd;clip-rule:evenodd;stroke-linejoin:round;stroke-miterlimit:2;">
    <g transform="matrix(1.5748,0,0,1.5748,0,0)">
        <circle cx="254" cy="254" r="254" style="fill:rgb(50,74,94);"/>
        <clipPath id="_clip1">
            <circle cx="254" cy="254" r="254"/>
        </clipPath>
        <g clip-path="url(#_clip1)">
            <g transform="matrix(-0.716648,1.24127,-1.24127,-0.716648,826.559,44.453)">
                <circle cx="254" cy="254" r="254" style="fill:url(#_Radial2);"/>
            </g>
        </g>
    </g>
    <g transform="matrix(1.5748,0,0,1.5748,0,0)">
        <path d="M423,372.4L85,372.4C83.2,372.4 81.7,370.9 81.7,369.1L81.7,138.9C81.7,137.1 83.2,135.6 85,135.6L423,135.6C424.8,135.6 426.3,137.1 426.3,138.9L426.3,369.1C426.3,370.9 424.8,372.4 423,372.4Z" style="fill:rgb(230,233,238);fill-rule:nonzero;"/>
    </g>
    <g transform="matrix(1.5748,0,0,1.5748,0,0)">
        <path d="M86.1,369C88.4,371.1 91.5,372.4 94.9,372.4L413.1,372.4C416.5,372.4 419.6,371.1 421.9,369L254,236.4L86.1,369Z" style="fill:rgb(206,213,224);fill-rule:nonzero;"/>
    </g>
    <g transform="matrix(1.5748,0,0,1.5748,0,0)">
        <path d="M270.4,269.1L422.1,139.1C419.7,136.9 416.6,135.5 413.1,135.5L94.9,135.5C91.4,135.5 88.3,136.9 85.9,139.1L237.6,269.1C247,277.2 261,277.2 270.4,269.1Z" style="fill:white;fill-rule:nonzero;"/>
    </g>
    <defs>
        <radialGradient id="_Radial2" cx="0" cy="0" r="1" gradientUnits="userSpaceOnUse" gradientTransform="matrix(508,0,0,508,0,254)"><stop offset="0" style="stop-color:rgb(123,157,185);stop-opacity:1"/><stop offset="0.46" style="stop-color:rgb(103,134,160);stop-opacity:1"/><stop offset="1" style="stop-color:rgb(50,74,94);stop-opacity:1"/></radialGradient>
    </defs>
</svg>
