<?xml version="1.0" encoding="UTF-8" standalone="no"?>
<!DOCTYPE svg PUBLIC "-//W3C//DTD SVG 1.1//EN" "http://www.w3.org/Graphics/SVG/1.1/DTD/svg11.dtd">
<svg width="100%" height="100%" viewBox="0 0 800 800" version="1.1" xmlns="http://www.w3.org/2000/svg" xmlns:xlink="http://www.w3.org/1999/xlink" xml:space="preserve" xmlns:serif="http://www.serif.com/" style="fill-rule:evenodd;clip-rule:evenodd;stroke-linecap:round;stroke-linejoin:round;">
    <g>
        <g transform="matrix(33.3333,0,0,33.3333,0,0)">
            <path d="M4,9L10.2,13.65C11.267,14.45 12.733,14.45 13.8,13.65L20,9" style="fill:none;fill-rule:nonzero;stroke:black;stroke-width:2px;"/>
        </g>
        <g transform="matrix(33.3333,0,0,33.3333,0,0)">
            <path d="M3,9.177C3,8.45 3.394,7.781 4.029,7.428L11.029,3.54C11.633,3.204 12.367,3.204 12.971,3.54L19.971,7.428C20.606,7.781 21,8.45 21,9.177L21,17C21,18.105 20.105,19 19,19L5,19C3.895,19 3,18.105 3,17L3,9.177Z" style="fill:none;fill-rule:nonzero;stroke:black;stroke-width:2px;stroke-linejoin:miter;"/>
        </g>
    </g>
</svg>
