<?xml version="1.0" encoding="UTF-8" standalone="no"?>
<!DOCTYPE svg PUBLIC "-//W3C//DTD SVG 1.1//EN" "http://www.w3.org/Graphics/SVG/1.1/DTD/svg11.dtd">
<svg width="100%" height="100%" viewBox="0 0 800 800" version="1.1" xmlns="http://www.w3.org/2000/svg" xmlns:xlink="http://www.w3.org/1999/xlink" xml:space="preserve" xmlns:serif="http://www.serif.com/" style="fill-rule:evenodd;clip-rule:evenodd;stroke-linejoin:round;stroke-miterlimit:2;">
    <g transform="matrix(28.5714,0,0,28.5714,-57.1429,-57.1429)">
        <circle cx="16" cy="16" r="14" style="fill:url(#_Linear1);"/>
    </g>
    <g transform="matrix(28.5714,0,0,28.5714,-57.1429,-57.1429)">
        <path d="M21.214,20.282L21.836,16.33L17.945,16.33L17.945,13.767C17.945,12.686 18.488,11.631 20.23,11.631L22,11.631L22,8.267C22,8.267 20.395,8 18.86,8C15.655,8 13.562,9.893 13.562,13.318L13.562,16.33L10,16.33L10,20.282L13.562,20.282L13.562,29.799C14.277,29.909 15.008,30 15.753,30C16.499,30 17.23,29.979 17.945,29.869L17.945,20.282L21.214,20.282Z" style="fill:white;fill-rule:nonzero;"/>
    </g>
    <defs>
        <linearGradient id="_Linear1" x1="0" y1="0" x2="1" y2="0" gradientUnits="userSpaceOnUse" gradientTransform="matrix(1.70942e-15,27.917,-27.917,1.70942e-15,16,2)"><stop offset="0" style="stop-color:rgb(24,172,254);stop-opacity:1"/><stop offset="1" style="stop-color:rgb(1,99,224);stop-opacity:1"/></linearGradient>
    </defs>
</svg>
