<?xml version="1.0" encoding="UTF-8" standalone="no"?>
<!DOCTYPE svg PUBLIC "-//W3C//DTD SVG 1.1//EN" "http://www.w3.org/Graphics/SVG/1.1/DTD/svg11.dtd">
<svg width="100%" height="100%" viewBox="0 0 800 800" version="1.1" xmlns="http://www.w3.org/2000/svg" xmlns:xlink="http://www.w3.org/1999/xlink" xml:space="preserve" xmlns:serif="http://www.serif.com/" style="fill-rule:evenodd;clip-rule:evenodd;stroke-linejoin:round;stroke-miterlimit:2;">
    <g transform="matrix(1.20043,0,0,1.20043,-81.0708,-76.1876)">
        <g transform="matrix(33.3333,0,0,33.3333,0,0)">
            <path d="M11,20.846C11,21.438 10.487,21.904 9.909,21.781C5.707,20.887 2.481,17.354 2.049,12.999C1.995,12.449 2.448,12 3,12L6,12C6.552,12 7,12.448 7,13C7,14.657 8.343,16 10,16C10.552,16 11,16.448 11,17L11,20.846Z" style="fill:rgb(64,64,64);fill-rule:nonzero;stroke:rgb(50,50,50);stroke-width:0.02px;"/>
        </g>
        <g transform="matrix(33.3333,0,0,33.3333,0,0)">
            <path d="M17,18.928C17,19.699 17.828,20.163 18.418,19.669C19.209,19.006 19.896,18.223 20.451,17.348C20.837,16.739 20.361,16 19.64,16L18,16C17.448,16 17,16.448 17,17L17,18.928Z" style="fill:rgb(64,64,64);fill-rule:nonzero;stroke:rgb(50,50,50);stroke-width:0.02px;"/>
        </g>
        <g transform="matrix(33.3333,0,0,33.3333,0,0)">
            <path d="M12,2C14.552,2 16.881,2.956 18.648,4.529C19.263,5.077 18.823,6 17.999,6L17.854,6C16.278,6 15,7.278 15,8.854C15,9.178 14.817,9.473 14.528,9.618L14.447,9.658C14.166,9.799 13.834,9.799 13.553,9.658L13.472,9.618C13.183,9.473 13,9.178 13,8.854C13,7.278 11.722,6 10.146,6L10,6C9.448,6 9,5.552 9,5L9,3.192C9,2.755 9.283,2.364 9.708,2.264C10.444,2.091 11.211,2 12,2Z" style="fill:rgb(64,64,64);fill-rule:nonzero;stroke:rgb(50,50,50);stroke-width:0.02px;"/>
        </g>
        <g transform="matrix(33.3333,0,0,33.3333,0,0)">
            <path d="M3.424,10C2.791,10 2.316,9.418 2.517,8.819C3.117,7.028 4.211,5.463 5.637,4.285C6.206,3.815 7,4.262 7,5C7,6.657 8.343,8 10,8L10.146,8C10.618,8 11,8.382 11,8.854C11,9.935 11.611,10.923 12.578,11.407L12.659,11.447C13.503,11.87 14.497,11.87 15.342,11.447L15.423,11.407C16.389,10.923 17,9.935 17,8.854C17,8.382 17.383,8 17.854,8L20.514,8C20.911,8 21.275,8.234 21.41,8.608C21.792,9.667 22,10.809 22,12C22,12.404 21.976,12.802 21.93,13.193C21.874,13.665 21.458,14 20.983,14L18,14C16.343,14 15,15.343 15,17L15,20.808C15,21.245 14.718,21.636 14.292,21.736C14.225,21.752 14.158,21.767 14.091,21.781C13.512,21.904 13,21.438 13,20.846L13,17C13,15.343 11.657,14 10,14C9.448,14 9,13.552 9,13C9,11.343 7.657,10 6,10L3.424,10Z" style="fill:rgb(64,64,64);fill-rule:nonzero;stroke:rgb(50,50,50);stroke-width:0.02px;"/>
        </g>
    </g>
</svg>
