<?xml version="1.0" encoding="UTF-8" standalone="no"?>
<!DOCTYPE svg PUBLIC "-//W3C//DTD SVG 1.1//EN" "http://www.w3.org/Graphics/SVG/1.1/DTD/svg11.dtd">
<svg width="100%" height="100%" viewBox="0 0 800 800" version="1.1" xmlns="http://www.w3.org/2000/svg" xmlns:xlink="http://www.w3.org/1999/xlink" xml:space="preserve" xmlns:serif="http://www.serif.com/" style="fill-rule:evenodd;clip-rule:evenodd;stroke-linejoin:round;stroke-miterlimit:2;">
    <g transform="matrix(1.19971,0,0,1.19971,-79.7854,-79.8786)">
        <g transform="matrix(33.3333,0,0,33.3333,0,0)">
            <path d="M22,7.81L22,12.5L17.92,12.5C17.8,12.49 17.54,12.34 17.48,12.23L16.44,10.26C16.03,9.48 15.32,9.04 14.56,9.08C13.8,9.12 13.15,9.63 12.82,10.46L11.44,13.92L11.24,13.4C10.75,12.13 9.35,11.17 7.97,11.17L2,11.2L2,7.81C2,4.17 4.17,2 7.81,2L16.19,2C19.83,2 22,4.17 22,7.81Z" style="fill-rule:nonzero;"/>
        </g>
        <g transform="matrix(33.3333,0,0,33.3333,0,0)">
            <path d="M22,16.189L22,13.999L17.92,13.999C17.25,13.999 16.46,13.519 16.15,12.929L15.11,10.959C14.83,10.429 14.43,10.459 14.21,11.009L11.91,16.819C11.66,17.469 11.24,17.469 10.98,16.819L9.84,13.939C9.57,13.239 8.73,12.669 7.98,12.669L2,12.699L2,16.189C2,19.769 4.1,21.929 7.63,21.989C7.74,21.999 7.86,21.999 7.97,21.999L15.97,21.999C16.12,21.999 16.27,21.999 16.41,21.989C19.92,21.909 22,19.759 22,16.189Z" style="fill-rule:nonzero;"/>
        </g>
        <g transform="matrix(33.3333,0,0,33.3333,0,0)">
            <path d="M2.001,12.699L2.001,16.009C1.981,15.689 1.971,15.349 1.971,14.999L1.971,12.699L2.001,12.699Z" style="fill-rule:nonzero;"/>
        </g>
    </g>
</svg>
