<?xml version="1.0" encoding="UTF-8" standalone="no"?>
<!DOCTYPE svg PUBLIC "-//W3C//DTD SVG 1.1//EN" "http://www.w3.org/Graphics/SVG/1.1/DTD/svg11.dtd">
<svg width="100%" height="100%" viewBox="0 0 1886 2077" version="1.1" xmlns="http://www.w3.org/2000/svg" xmlns:xlink="http://www.w3.org/1999/xlink" xml:space="preserve" xmlns:serif="http://www.serif.com/" style="fill-rule:evenodd;clip-rule:evenodd;stroke-linejoin:round;stroke-miterlimit:2;">
    <g transform="matrix(61.8414,0,0,61.8414,-45.2461,21.1586)">
        <path d="M29.9,17.5C29.7,17.2 29.4,17 29,17C26.8,17 24.7,18 23.4,19.8L22.5,21C21.4,22.3 19.7,23 18,23L15,23C14.4,23 14,22.6 14,22C14,21.4 14.4,21 15,21L16.9,21C18.5,21 20,19.7 20,18.1L20,18C20,17.5 19.5,17 19,17L12.9,17C9.3,17 6.4,18.6 4.8,21.2L2.1,25.4C1.9,25.7 1.9,26.1 2.1,26.4L5.1,31.4C5.2,31.6 5.5,31.8 5.7,31.9L5.9,31.9C6.1,31.9 6.3,31.8 6.5,31.7C10.3,29.2 14.7,27.9 19.2,27.9C22.5,27.9 25.5,26.1 27.1,23.2L29.8,18.4C30,18.2 30,17.8 29.9,17.5Z" style="fill:rgb(64,64,64);fill-rule:nonzero;"/>
        <path d="M12.9,15L19,15C20.6,15 22,16.3 22,17.9L22,18.1L28.2,11.7C30.6,9.2 30.6,5.3 28.2,2.8C27,1.7 25.5,1 23.9,1C22.3,1 20.7,1.7 19.5,2.9L19,3.4L18.5,2.9C17.3,1.7 15.8,1 14.1,1C12.5,1 11,1.7 9.8,2.9C7.4,5.4 7.4,9.3 9.8,11.8L12.9,15ZM14,9L15.6,9L17.3,7.3C17.5,7.1 17.8,7 18.2,7C18.5,7.1 18.8,7.3 18.9,7.5L19.9,9.5L21.1,6.6C21.2,6.3 21.5,6 21.9,6C22.3,6 22.6,6.1 22.8,6.4L24.8,9.4C25.1,9.9 25,10.5 24.5,10.8C24,11.1 23.4,11 23.1,10.5L22.2,9.1L20.9,12.3C20.8,12.7 20.4,13 20,13C19.6,13 19.3,12.8 19.1,12.4L17.7,9.6L16.7,10.6C16.5,10.9 16.3,11 16,11L14,11C13.4,11 13,10.6 13,10C13,9.4 13.4,9 14,9Z" style="fill:rgb(64,64,64);fill-rule:nonzero;"/>
    </g>
</svg>
