<?xml version="1.0" encoding="UTF-8" standalone="no"?>
<!DOCTYPE svg PUBLIC "-//W3C//DTD SVG 1.1//EN" "http://www.w3.org/Graphics/SVG/1.1/DTD/svg11.dtd">
<svg width="100%" height="100%" viewBox="0 0 800 800" version="1.1" xmlns="http://www.w3.org/2000/svg" xmlns:xlink="http://www.w3.org/1999/xlink" xml:space="preserve" xmlns:serif="http://www.serif.com/" style="fill-rule:evenodd;clip-rule:evenodd;stroke-miterlimit:10;">
    <g id="heart_healt" transform="matrix(33.3333,0,0,33.3333,0,0)">
        <g>
            <path d="M3.41,13L3.08,12.67C2.061,11.655 1.487,10.274 1.487,8.835C1.487,5.866 3.931,3.422 6.9,3.422C8.331,3.422 9.706,3.99 10.72,5L12,6.3L13.28,5C14.298,3.936 15.709,3.333 17.182,3.333C20.144,3.333 22.582,5.771 22.582,8.733C22.582,10.204 21.981,11.612 20.92,12.63L20.59,12.96L12,21.57L6.07,15.64L3.41,13Z" style="fill:none;fill-rule:nonzero;stroke:black;stroke-width:1.91px;"/>
            <path d="M9.14,12.02L14.86,12.02" style="fill:none;fill-rule:nonzero;stroke:black;stroke-width:1.91px;"/>
            <path d="M12,9.16L12,14.89" style="fill:none;fill-rule:nonzero;stroke:black;stroke-width:1.91px;"/>
        </g>
    </g>
</svg>
