<?xml version="1.0" encoding="UTF-8" standalone="no"?>
<!DOCTYPE svg PUBLIC "-//W3C//DTD SVG 1.1//EN" "http://www.w3.org/Graphics/SVG/1.1/DTD/svg11.dtd">
<svg width="100%" height="100%" viewBox="0 0 800 800" version="1.1" xmlns="http://www.w3.org/2000/svg" xmlns:xlink="http://www.w3.org/1999/xlink" xml:space="preserve" xmlns:serif="http://www.serif.com/" style="fill-rule:evenodd;clip-rule:evenodd;stroke-linejoin:round;stroke-miterlimit:2;">
    <g id="Layer_2" transform="matrix(16.6667,0,0,16.6667,0,0)">
        <g id="icons_Q2">
            <path d="M34,4C30.1,4 26,7.1 24,10.5C22,7.1 17.9,4 14,4C10.801,4.019 7.739,5.316 5.5,7.6C3.243,9.849 1.981,12.914 2,16.1C2,20.2 4.7,23.7 7,26.3L23.3,43.7C23.686,44.079 24.314,44.079 24.7,43.7L41,26.3C43.3,23.7 46,20.2 46,16.1C46,9.5 40.6,4.055 34,4Z" style="fill-rule:nonzero;"/>
        </g>
    </g>
</svg>
