<?xml version="1.0" encoding="UTF-8" standalone="no"?>
<!DOCTYPE svg PUBLIC "-//W3C//DTD SVG 1.1//EN" "http://www.w3.org/Graphics/SVG/1.1/DTD/svg11.dtd">
<svg width="100%" height="100%" viewBox="0 0 800 800" version="1.1" xmlns="http://www.w3.org/2000/svg" xmlns:xlink="http://www.w3.org/1999/xlink" xml:space="preserve" xmlns:serif="http://www.serif.com/" style="fill-rule:evenodd;clip-rule:evenodd;stroke-linejoin:round;stroke-miterlimit:2;">
    <g transform="matrix(40,0,0,40,-80,-80)">
        <path d="M12,3.538C7.327,3.538 3.538,7.327 3.538,12C3.538,16.673 7.327,20.462 12,20.462C16.673,20.462 20.462,16.673 20.462,12C20.462,7.327 16.673,3.538 12,3.538ZM2,12C2,6.477 6.477,2 12,2C17.523,2 22,6.477 22,12C22,17.523 17.523,22 12,22C6.477,22 2,17.523 2,12Z" style="fill:rgb(110,185,0);stroke:rgb(110,185,0);stroke-width:0.03px;"/>
    </g>
    <g transform="matrix(40,0,0,40,-80,-80)">
        <path d="M12,16.359C12.425,16.359 12.769,16.015 12.769,15.59L12.769,11.487C12.769,11.062 12.425,10.718 12,10.718C11.575,10.718 11.231,11.062 11.231,11.487L11.231,15.59C11.231,16.015 11.575,16.359 12,16.359Z" style="fill:rgb(110,185,0);stroke:rgb(110,185,0);stroke-width:0.03px;"/>
    </g>
    <g transform="matrix(40,0,0,40,-80,-80)">
        <path d="M13.026,8.41C13.026,7.844 12.566,7.385 12,7.385C11.434,7.385 10.974,7.844 10.974,8.41C10.974,8.977 11.434,9.436 12,9.436C12.566,9.436 13.026,8.977 13.026,8.41Z" style="fill:rgb(110,185,0);fill-rule:nonzero;stroke:rgb(110,185,0);stroke-width:0.03px;"/>
    </g>
</svg>
