<?xml version="1.0" encoding="UTF-8" standalone="no"?>
<!DOCTYPE svg PUBLIC "-//W3C//DTD SVG 1.1//EN" "http://www.w3.org/Graphics/SVG/1.1/DTD/svg11.dtd">
<svg width="100%" height="100%" viewBox="0 0 2560 3000" version="1.1" xmlns="http://www.w3.org/2000/svg" xmlns:xlink="http://www.w3.org/1999/xlink" xml:space="preserve" xmlns:serif="http://www.serif.com/" style="fill-rule:evenodd;clip-rule:evenodd;stroke-linejoin:round;stroke-miterlimit:2;">
    <g transform="matrix(10.357,0,0,10.357,0,0)">
        <path d="M67.64,84.64C82,86.52 96.17,85.78 110,80.8C120.12,77.14 128.85,71.03 137.79,65.27C150.36,57.17 162.97,49.12 175.51,40.95C193.57,29.18 212.89,29.74 232.67,35.04C236.67,36.12 240.53,37.71 244.45,39.04C244.854,39.222 245.234,39.453 245.58,39.73C245.886,39.701 246.189,39.807 246.41,40.02L246.41,40.61L244.66,40.91C242.34,41.91 239.77,40.6 237.46,41.7C222.46,44.18 207.57,47.11 194.16,54.45C184.16,59.94 174.77,66.67 165.16,72.85C157.6,77.7 150.16,82.79 142.45,87.34C127.013,96.612 108.725,99.974 91,96.8C81.72,95.24 73.31,91.21 65.65,85.71C65.5,83.85 66.6,84.3 67.64,84.64Z" style="fill:rgb(32,40,88);fill-rule:nonzero;"/>
    </g>
    <g transform="matrix(10.357,0,0,10.357,0,0)">
        <path d="M145.5,113.88C159.24,111.79 170.76,105.19 181.35,96.52C186.35,92.44 191.67,88.8 196.84,84.96L198.05,85.57C196.51,91.06 195.5,96.78 193.33,102.01C182.84,127.31 163.97,143.25 137.33,149.1C108,155.56 82.14,148 60.57,126.75C59.799,125.883 59.087,124.964 58.44,124C58.286,123.477 57.924,123.04 57.44,122.79L57.44,122.85C57.196,122.408 56.854,122.029 56.44,121.74C56.124,121.412 55.836,121.057 55.58,120.68L55.52,120.58C54.84,120.18 55.08,119.11 54.25,118.83L54.3,118.9C53.82,114.79 56.3,116.73 57.38,117.65C60.588,120.299 64.068,122.602 67.76,124.52C86.55,134.33 105.39,135.21 124.76,125.77C130.99,122.77 136.16,118.35 141.86,114.67C143,114 144.41,114.65 145.5,113.88Z" style="fill:rgb(240,139,34);fill-rule:nonzero;"/>
    </g>
    <g transform="matrix(10.357,0,0,10.357,0,0)">
        <path d="M121.44,65.72C107.26,75.37 92,79.9 75.12,76.91C66.34,75.36 59.6,70.45 53.78,64C41.33,50.2 26.78,39.45 8.78,32.63C11.78,31.73 14.71,30.5 17.78,29.99C22.53,29.2 27.34,28.75 32.15,28.42C40.31,27.85 47.61,30.49 54.05,35.29C61.37,40.75 68.91,46.05 75.53,52.29C85.53,61.68 97.3,65.29 110.53,65.7C114.12,65.82 117.78,65.72 121.44,65.72Z" style="fill:rgb(32,40,88);fill-rule:nonzero;"/>
    </g>
    <g transform="matrix(10.357,0,0,10.357,0,0)">
        <path d="M89.53,5.87C100.21,1 111.55,-0.51 123.08,0.14C141.71,1.2 158.42,7.58 172.58,20C175.2,22.29 177.52,24.92 179.99,27.39C181.21,28.62 181.15,29.39 179.49,30.32C172.07,34.41 164.73,38.62 157.36,42.79C155.2,44.06 154.36,42.2 153.46,40.98C151.78,38.72 150.1,36.46 148.46,34.14C136.57,16.94 120,8.54 99.23,8.12C97.23,8.12 95.23,8.26 93.23,8.04C91.77,7.87 89.72,8.37 89.53,5.87Z" style="fill:rgb(240,139,34);fill-rule:nonzero;"/>
    </g>
    <g transform="matrix(10.357,0,0,10.357,0,0)">
        <path d="M124.52,102.86C142.52,97.97 158.52,89.09 173.98,78.86C179.36,75.28 184.98,72.05 190.57,68.79C199.94,63.32 210.4,61.57 221.22,60.51C218.22,62.35 215.11,64.05 212.22,66.04C199.91,74.5 187.69,83.04 175.38,91.55C170.47,94.93 165.66,98.55 160.38,101.34C148.32,107.76 135.49,107.53 122.52,104.7C122,102.76 124.05,103.67 124.52,102.86Z" style="fill:rgb(32,41,88);fill-rule:nonzero;"/>
    </g>
    <g transform="matrix(10.357,0,0,10.357,0,0)">
        <path d="M142.52,114.87C138.52,118 134.76,121.5 130.52,124.17C122.413,129.343 113.214,132.561 103.65,133.57C93.56,134.572 83.378,132.999 74.06,129C67.67,126.32 61.34,123.4 56.44,118.23C55.08,116.79 54.59,117.46 54.38,119C53.05,117.06 51.73,115.12 50.38,113.19C50.255,112.724 50.084,112.272 49.87,111.84C49.41,110.84 48.35,109.84 49.65,108.9C50.55,108.25 51.46,109.03 52.23,109.59C52.991,110.182 53.709,110.827 54.38,111.52C54.71,111.82 55.03,112.14 55.38,112.52C56.52,113.81 57.78,115 58.92,116.29C59.425,116.888 60.023,117.401 60.69,117.81C61.036,117.974 61.37,118.161 61.69,118.37C61.993,118.567 62.277,118.792 62.54,119.04L62.91,119.4C63.16,119.62 63.39,119.87 63.63,120.11C63.63,120.11 63.98,120.45 63.99,120.43C64.364,120.725 64.77,120.977 65.2,121.18C65.492,121.303 65.773,121.45 66.04,121.62C66.46,121.85 66.89,122.05 67.32,122.26C67.616,122.386 67.893,122.554 68.14,122.76C68.4,122.94 68.65,123.14 68.91,123.33C68.91,123.33 69.31,123.58 69.32,123.57C69.764,123.764 70.222,123.925 70.69,124.05C71.032,124.132 71.366,124.242 71.69,124.38C72.15,124.59 72.6,124.82 73.06,125.04C73.52,125.26 73.68,125.32 73.99,125.48L75.41,126.15L76.41,126.58C77.13,126.85 77.88,127.01 78.61,127.23C79.008,127.361 79.399,127.514 79.78,127.69C81.63,128.69 83.66,128.64 85.68,128.69C103.56,131.61 120.04,128.57 134.57,117.22C135.775,116.072 137.178,115.15 138.71,114.5C139.93,114.38 141.31,113.86 142.52,114.87Z" style="fill:rgb(241,144,42);fill-rule:nonzero;"/>
    </g>
    <g transform="matrix(10.357,0,0,10.357,0,0)">
        <path d="M141.67,52L139.67,52.85C138.713,53.312 137.617,53.397 136.6,53.09C134.6,51.71 133.78,49.43 132.51,47.52C120.236,29.044 95.294,23.375 76.24,34.73C74.24,35.9 72.42,38.23 69.54,36.8C69.202,36.429 68.803,36.117 68.36,35.88L67.25,35C74.57,27.37 83.91,24.26 94,23.59C116.33,22.12 131.62,32.77 141.67,52Z" style="fill:rgb(245,173,103);fill-rule:nonzero;"/>
    </g>
    <g transform="matrix(10.357,0,0,10.357,0,0)">
        <path d="M72.53,14.83L80.53,9.9C87.134,8.141 93.976,7.442 100.8,7.83C120.35,9 136.12,17.2 147.84,33C150.51,36.6 152.84,40.48 155.71,43.91L154.47,44.8C153.96,45.42 152.97,45.17 152.52,45.89C152.116,46.235 151.526,46.264 151.09,45.96C147.71,42.09 145.67,37.3 142.31,33.39C132.5,21.9 120,15.51 105.2,13C94.97,11.27 85.44,13.62 75.88,16.53C74.873,16.81 73.796,16.684 72.88,16.18C72.465,15.867 72.319,15.305 72.53,14.83Z" style="fill:rgb(242,147,47);fill-rule:nonzero;"/>
    </g>
    <g transform="matrix(10.357,0,0,10.357,0,0)">
        <path d="M155.71,43.91C154.405,43.069 153.191,42.094 152.09,41C147.88,35.91 144.09,30.38 139.61,25.6C131.5,17 121.08,12.37 109.73,9.91C101.293,8.028 92.525,8.203 84.17,10.42C83.09,10.71 81.77,10.1 80.56,9.9L80.62,9.9C81.08,9.23 82.03,9.45 82.52,8.85C83.28,7.93 84.87,8.92 85.43,7.57L89.53,5.89C91.705,6.37 93.916,6.671 96.14,6.79C105.81,6.59 115.29,7.79 124.01,11.95C133.1,16.28 141.53,21.75 147.45,30.27C149.89,33.79 152.34,37.27 154.88,40.73C155.621,41.513 156.454,42.205 157.36,42.79L155.71,43.91Z" style="fill:rgb(241,141,36);fill-rule:nonzero;"/>
    </g>
    <g transform="matrix(10.357,0,0,10.357,0,0)">
        <path d="M60.29,29.91C60.003,29.941 59.721,29.81 59.56,29.57C59.297,29.2 59.297,28.7 59.56,28.33C62.51,25.59 65.56,22.97 69.26,21.33C70,21.05 70.77,20.88 71.51,20.63C71.83,20.48 72.17,20.36 72.51,20.23C72.85,20.1 73.51,19.83 73.93,19.59C74.225,19.414 74.529,19.254 74.84,19.11L76.26,18.41C76.581,18.245 76.916,18.108 77.26,18C77.79,17.81 78.32,17.63 78.85,17.41C79.22,17.22 79.59,17.06 79.96,16.89C80.744,16.489 81.56,16.154 82.4,15.89C82.865,15.756 83.34,15.655 83.82,15.59C91.37,14.28 98.92,13.27 106.56,14.66C107.034,14.715 107.503,14.812 107.96,14.95C109.252,15.419 110.585,15.77 111.94,16C112.369,16.1 112.79,16.23 113.2,16.39C114.63,16.91 116.08,17.39 117.46,18.04C118.23,18.38 119.02,18.69 119.82,18.96C121.357,19.548 122.856,20.23 124.31,21C124.661,21.193 124.995,21.413 125.31,21.66L125.77,22C126.09,22.21 126.39,22.44 126.7,22.65C127.01,22.86 127.34,23.03 127.7,23.23L129.13,24.06C129.77,24.411 130.37,24.83 130.92,25.31C131.198,25.541 131.461,25.788 131.71,26.05L132.09,26.42C132.36,26.66 132.61,26.91 132.87,27.15C133.13,27.39 133.14,27.37 133.28,27.48C133.59,27.66 133.88,27.86 134.18,28.06C134.803,28.426 135.392,28.848 135.94,29.32C136.22,29.55 136.49,29.81 136.75,30.07C137.01,30.33 137,30.33 137.14,30.45C137.28,30.57 137.66,30.97 137.92,31.23L138.31,31.62C138.579,31.879 138.832,32.152 139.07,32.44C139.545,33.009 139.97,33.618 140.34,34.26C140.56,34.56 140.77,34.87 140.98,35.17C141.11,35.3 141.22,35.45 141.35,35.59C141.63,35.86 141.89,36.13 142.15,36.41C142.41,36.69 142.42,36.68 142.57,36.82C142.849,37.096 143.113,37.386 143.36,37.69C144.075,38.645 144.685,39.674 145.18,40.76C145.37,41.1 145.54,41.45 145.72,41.81C145.9,42.17 146.08,42.5 146.25,42.81C146.6,43.512 147.012,44.181 147.48,44.81C148.118,45.621 148.594,46.548 148.88,47.54C148.959,47.955 148.819,48.382 148.51,48.67C145.96,50.15 145.04,48.41 144.01,46.53C136.7,33.27 126.08,23.63 111.22,20.27C96.59,16.95 82.22,18.27 69.22,27.13C67.511,28.452 65.679,29.607 63.75,30.58L63.02,30.85C62.58,31.15 61.984,31.1 61.6,30.73C61.239,30.351 60.788,30.07 60.29,29.91Z" style="fill:rgb(243,155,67);fill-rule:nonzero;"/>
    </g>
    <g transform="matrix(10.357,0,0,10.357,0,0)">
        <path d="M66.53,95.77C73.89,98.52 81.14,101.63 88.65,103.89C92.98,105.2 97.71,105.4 102.28,105.62C105.28,105.76 107.79,106.29 109.78,108.62C108.71,111.29 106.12,111.42 103.95,111.71C90.5,113.49 78.68,109.88 68.81,100.43C67.54,99.19 66,98 66.53,95.77Z" style="fill:rgb(246,184,122);fill-rule:nonzero;"/>
    </g>
    <g transform="matrix(10.357,0,0,10.357,0,0)">
        <path d="M141.67,52C140.481,50.978 139.405,49.831 138.46,48.58C131.1,36.58 121.18,28.19 107.04,25.58C94.4,23.006 81.242,25.745 70.68,33.15C69.572,33.83 68.427,34.448 67.25,35L64.45,32.93C64.63,32.76 64.8,32.58 64.98,32.39C65.419,32.143 65.89,31.958 66.38,31.84C72.75,28.34 78.81,24.43 86.01,22.42C106.46,16.73 131.59,28.42 140.43,46C141.36,47.85 142.94,49.68 141.61,52L141.67,52Z" style="fill:rgb(245,167,91);fill-rule:nonzero;"/>
    </g>
    <g transform="matrix(10.357,0,0,10.357,0,0)">
        <path d="M136.58,53.88L133.58,54.83C132.954,55.287 132.128,55.375 131.42,55.06C130.228,54.451 129.299,53.426 128.81,52.18C121,36.9 96.43,28.31 78.56,39.92C77.752,40.506 76.833,40.921 75.86,41.14C75.368,41.274 74.84,41.166 74.44,40.85L72.26,39C76.64,33.12 83.26,31 89.85,29.94C100.7,28.27 111.36,29.35 120.6,36.33C123.71,40.33 127.71,43.44 130.87,47.33C132.13,49.01 132.43,51.33 134.52,52.46C134.919,52.602 135.303,52.779 135.67,52.99C136.019,53.236 136.326,53.537 136.58,53.88Z" style="fill:rgb(246,184,121);fill-rule:nonzero;"/>
    </g>
    <g transform="matrix(10.357,0,0,10.357,0,0)">
        <path d="M62.52,30.78C71.32,22.69 81.67,18.17 93.61,17.89C100.51,17.73 107.52,16.95 114.23,19.76C120.45,22.38 126.84,24.67 131.74,29.58C137.1,35 143,39.94 145.65,47.44C145.89,48.12 147.45,48.33 148.4,48.76L146.61,49.85C144.54,50.96 143.7,49.38 142.82,48.06C141.12,45.52 139.64,42.84 138.06,40.23C137.83,39.88 137.61,39.51 137.4,39.15C137.29,38.98 137.18,38.8 137.07,38.64C136.82,38.33 136.59,38.01 136.35,37.71C136.22,37.57 136.1,37.41 135.97,37.27C135.84,37.13 135.45,36.73 135.2,36.45L134.06,35.24C133.79,35 133.54,34.73 133.29,34.47L132.9,34.08C132.63,33.83 132.37,33.57 132.11,33.3L131.69,32.92L130.79,32.2C130.62,32.1 130.47,31.98 130.3,31.87C129.94,31.67 129.59,31.45 129.25,31.23C127.2,29.703 125.066,28.291 122.86,27C122.38,26.66 121.92,26.29 121.42,26C121.1,25.83 120.78,25.63 120.42,25.44C120.06,25.25 119.47,24.9 118.97,24.67C118.47,24.44 118.28,24.39 117.97,24.24C117.43,24.05 116.89,23.87 116.34,23.7C115.379,23.405 114.441,23.045 113.53,22.62C112.97,22.369 112.392,22.162 111.8,22C110.97,21.84 110.13,21.69 109.3,21.48C108.439,21.241 107.553,21.107 106.66,21.08C105.213,21.077 103.769,20.933 102.35,20.65C99.469,19.87 96.431,19.87 93.55,20.65C91.856,20.968 90.134,21.112 88.41,21.08C87.492,21.1 86.581,21.241 85.7,21.5C84.22,21.9 82.7,22.36 81.29,22.86C80.67,23.1 80.05,23.34 79.45,23.6C77.373,24.391 75.366,25.354 73.45,26.48C72.89,26.82 72.31,27.13 71.73,27.43C70.62,28.02 69.57,28.72 68.5,29.43C68.18,29.66 67.83,29.88 67.5,30.1L67.02,30.46C66.73,30.72 66.42,30.97 66.11,31.22C65.644,31.592 65.12,31.886 64.56,32.09C64.167,32.137 63.769,32.103 63.39,31.99L63.46,31.99C63.24,31.51 62.61,31.34 62.52,30.78Z" style="fill:rgb(244,161,80);fill-rule:nonzero;"/>
    </g>
    <g transform="matrix(10.357,0,0,10.357,0,0)">
        <path d="M118.56,111.75L122.56,112.75L122.03,113.36C116.62,115.28 111.45,117.76 105.65,118.71C94.48,120.53 84.08,118.9 74.33,113.13C73.07,112.4 71.95,111.44 70.69,110.69C70.289,110.443 69.908,110.165 69.55,109.86C65.9,106.33 62.29,102.75 58.77,99.09C58.464,98.75 58.187,98.385 57.94,98C57.37,97 56.76,96.11 56.13,95.2C55.885,94.816 55.667,94.415 55.48,94C54.75,91.21 51.42,89.07 53.39,85.62C53.792,85.364 54.308,85.364 54.71,85.62L54.63,85.62C54.818,86.098 55.174,86.493 55.63,86.73C56.13,87.33 55.92,88.32 56.75,88.73L56.75,88.67C59.66,92.67 62.29,96.98 65.75,100.54C78.01,113.22 92.82,117.19 109.87,112.81C111.782,112.257 113.721,111.803 115.68,111.45C116.6,111.31 117.63,111.06 118.56,111.75Z" style="fill:rgb(245,170,97);fill-rule:nonzero;"/>
    </g>
    <g transform="matrix(10.357,0,0,10.357,0,0)">
        <path d="M66.53,95.77C75.9,109.06 96.87,114.37 109.78,108.59C110.047,108.608 110.304,108.702 110.52,108.86C110.867,109.244 111.319,109.519 111.82,109.65L114.6,110.65C102.25,117.24 90,115.37 77.88,110.02C71.66,107.28 66.88,102.69 62.74,97.4C61.66,96.02 60.06,94.65 61.58,92.6L65.58,94.93C65.936,95.171 66.27,95.442 66.58,95.74L66.53,95.77Z" style="fill:rgb(246,178,111);fill-rule:nonzero;"/>
    </g>
    <g transform="matrix(10.357,0,0,10.357,0,0)">
        <path d="M141.61,52C137.664,40.223 128.475,30.916 116.75,26.82C111.57,24.89 106.22,23.01 100.75,22.27C96.48,21.69 91.87,22.45 87.59,23.42C81.18,24.84 75,27.12 69.8,31.59C68.8,32.46 66.96,32.41 65.51,32.79C66.87,29.3 70.35,28.3 73.04,26.36C99.51,11.6 132,23 144.52,50.82L141.61,52Z" style="fill:rgb(244,167,90);fill-rule:nonzero;"/>
    </g>
    <g transform="matrix(10.357,0,0,10.357,0,0)">
        <path d="M61.58,92.64C62.74,98.8 67.81,102.07 72.12,105.37C80.84,112.03 91.21,114.49 102.12,113.65C106.33,113.33 110.45,111.71 114.61,110.65C114.86,111.08 115.47,111.2 115.61,111.76C102.84,118.02 90.15,116.7 77.61,111.1C68.71,107.1 62.83,99.82 57.71,91.85C57.229,90.821 56.893,89.731 56.71,88.61L61.58,92.64Z" style="fill:rgb(245,174,104);fill-rule:nonzero;"/>
    </g>
    <g transform="matrix(10.357,0,0,10.357,0,0)">
        <path d="M40.43,69.53C40.249,69.329 40.249,69.021 40.43,68.82C42.25,67.58 39.43,64.35 42.6,63.7C42.85,64.141 43.061,64.602 43.23,65.08C44.6,70.73 43.29,76.57 44.73,82.29C47.956,95.949 56.285,107.871 68,115.6C68.416,115.836 68.814,116.104 69.19,116.4L69.73,116.84C70.472,117.389 71.108,118.066 71.61,118.84C71.699,119.292 71.552,119.76 71.22,120.08C70.621,120.443 69.913,120.584 69.22,120.48C66.46,119.8 64.39,117.93 62.12,116.39C60.39,114.9 58.37,113.77 56.74,112.14C50,105.74 44.86,98.34 42.34,89.26C42.18,88.68 41.99,90.04 41.44,90L40.44,83C39.79,78.534 39.787,73.997 40.43,69.53Z" style="fill:rgb(243,153,63);fill-rule:nonzero;"/>
    </g>
    <g transform="matrix(10.357,0,0,10.357,0,0)">
        <path d="M75.52,40.79C88.03,30.13 107.71,31.54 120.08,40.7C125.024,44.346 128.958,49.193 131.51,54.78C131.281,55.188 130.932,55.516 130.51,55.72L129.51,55.83C128.639,55.345 127.94,54.6 127.51,53.7C122.16,44.62 114.1,39.64 104,37.07C96,35.07 89,37.57 82,40.41C79.94,41.24 78.16,43.23 75.61,41.8C75.35,41.58 75.26,41.36 75.34,41.14C75.35,40.9 75.43,40.79 75.52,40.79Z" style="fill:rgb(247,188,128);fill-rule:nonzero;"/>
    </g>
    <g transform="matrix(10.357,0,0,10.357,0,0)">
        <path d="M144.52,50.82C143.508,49.789 142.61,48.652 141.84,47.43C138.08,39.79 132.24,33.97 125.41,29.26C114.5,21.74 102.41,18.97 89.28,21.79C84.87,22.74 80.64,24.52 76.28,25.88C75.04,26.27 73.76,26.51 72.49,26.82L72.12,26.32L72.49,25.82L79.49,22.82C79.82,22.48 80.19,22.19 80.49,21.82L85.49,20.82C86.01,20.2 86.98,20.46 87.49,19.82L93.49,19.82C96.44,19.05 99.54,19.05 102.49,19.82L107.49,19.82C108,20.46 108.96,20.2 109.49,20.82L112.49,20.82C112.78,21.19 113.16,21.48 113.49,21.82L117.49,22.82C117.79,23.18 118.16,23.48 118.49,23.82L119.49,23.82C119.79,24.18 120.16,24.48 120.49,24.82L121.49,24.82C121.79,25.18 122.16,25.48 122.49,25.82L130.49,30.82C130.803,31.173 131.137,31.507 131.49,31.82C131.81,32.17 132.14,32.5 132.49,32.82C132.84,33.14 133.14,33.5 133.49,33.82C133.84,34.14 134.17,34.47 134.49,34.82L135.49,35.82C135.84,36.14 136.14,36.51 136.49,36.82C136.84,37.13 137.15,37.5 137.49,37.82C137.83,38.14 138.13,38.52 138.49,38.82C140.35,41.82 142.14,44.96 144.12,47.92C144.839,48.698 145.68,49.353 146.61,49.86L144.52,50.82Z" style="fill:rgb(244,162,81);fill-rule:nonzero;"/>
    </g>
    <g transform="matrix(10.357,0,0,10.357,0,0)">
        <path d="M136.58,53.88L135.48,53.75C135.253,53.505 134.956,53.334 134.63,53.26C134.311,53.151 134.052,52.911 133.92,52.6C133.68,52.17 133.47,51.72 133.23,51.29C133.052,51.009 132.895,50.715 132.76,50.41C132.53,49.97 132.31,49.52 132.05,49.09C131.863,48.803 131.693,48.506 131.54,48.2C131.321,47.726 131.027,47.291 130.67,46.91C130.42,46.66 130.18,46.4 129.94,46.13C129.7,45.86 129.44,45.6 129.19,45.33L128.8,44.92C128.517,44.628 128.249,44.321 128,44C127.745,43.68 127.508,43.346 127.29,43C126.68,42.143 125.913,41.41 125.03,40.84C124.652,40.617 124.291,40.366 123.95,40.09C123.6,39.81 123.27,39.5 122.95,39.2L122.46,38.72C122.125,38.408 121.811,38.074 121.52,37.72C121.37,37.53 121.23,37.33 121.09,37.14C105.47,27.37 89.85,27 74.23,37.14C73.525,37.568 72.777,37.924 72,38.2C71.499,38.334 70.964,38.166 70.63,37.77L69.53,36.77C74.41,34.43 79.08,31.44 84.19,29.87C101.33,24.6 116.61,28.31 129.19,41.18C132.31,44.38 134.09,48.87 136.49,52.77C136.84,53 136.96,53.23 136.86,53.48C136.76,53.73 136.65,53.85 136.54,53.85L136.58,53.88Z" style="fill:rgb(246,178,113);fill-rule:nonzero;"/>
    </g>
    <g transform="matrix(10.357,0,0,10.357,0,0)">
        <path d="M45.57,66.73L46.57,67.73C47.02,68.57 47.49,69.4 47.97,70.22C47.97,70.71 48.04,71.22 48.07,71.69C48.07,83.51 53.37,93.38 59.56,102.92C60.84,107.79 65.48,109.32 68.76,112.21C70.29,113.55 72.82,114.05 72.68,116.82C72.311,117.142 71.848,117.338 71.36,117.38C59.44,112.01 52.25,102.38 47.44,90.67C46,85.35 44.23,80.12 43.9,74.56C43.731,74.056 43.63,73.531 43.6,73C43.84,70.8 42.6,68.11 45.57,66.73Z" style="fill:rgb(243,160,78);fill-rule:nonzero;"/>
    </g>
    <g transform="matrix(10.357,0,0,10.357,0,0)">
        <path d="M71.52,116.77L72.52,116.77C72.68,116.458 73.024,116.284 73.37,116.34C73.865,116.488 74.347,116.679 74.81,116.91C75.13,117.03 75.43,117.18 75.73,117.32C76.173,117.535 76.635,117.709 77.11,117.84C77.6,117.941 78.078,118.088 78.54,118.28C79,118.48 79.44,118.71 79.9,118.92C80.208,119.051 80.508,119.197 80.8,119.36C81.26,119.58 81.7,119.81 82.15,120.06C82.44,120.23 82.703,120.442 82.93,120.69C83.52,121.39 83.39,120.13 83.81,120.37C84.177,120.305 84.553,120.305 84.92,120.37C85.682,120.544 86.454,120.677 87.23,120.77C87.866,120.854 88.497,120.974 89.12,121.13C90.261,121.388 91.433,121.482 92.6,121.41L102.72,121.41C103.977,121.454 105.233,121.296 106.44,120.94C113.7,120.2 119.9,116.6 126.3,113.55C126.763,113.367 127.285,113.412 127.71,113.67L145.5,113.88L142.5,114.88L138.5,114.88C137.331,115.526 136.04,115.921 134.71,116.04C133.42,116.09 132.13,116.04 130.84,116.17C128.55,116.3 126.84,117.77 125.01,118.84C119.723,122.05 113.836,124.146 107.71,125C105.976,124.934 104.242,125.136 102.57,125.6C101.836,125.791 101.086,125.918 100.33,125.98C98.567,126.083 96.799,126.057 95.04,125.9C94.557,125.845 94.079,125.755 93.61,125.63C91.806,125.123 89.943,124.858 88.07,124.84C87.62,124.785 87.176,124.694 86.74,124.57C85.506,124.15 84.228,123.878 82.93,123.76C82.511,123.697 82.099,123.593 81.7,123.45C80.93,123.15 80.2,122.75 79.46,122.45C78.56,122.04 77.6,121.76 76.67,121.45C75.93,121.16 75.23,120.8 74.52,120.45C73.783,120.129 73.076,119.741 72.41,119.29C72.14,118.98 71.87,118.68 71.58,118.39L71.18,117.92C71.026,117.505 71.165,117.035 71.52,116.77Z" style="fill:rgb(244,158,73);fill-rule:nonzero;"/>
    </g>
    <g transform="matrix(10.357,0,0,10.357,0,0)">
        <path d="M75.54,41.8C80.91,39.8 86.32,37.89 91.65,35.8C98.07,33.24 104.28,35.54 110.03,37.44C117.386,39.782 123.618,44.773 127.51,51.44C128.258,52.892 128.925,54.385 129.51,55.91C128.793,56.492 127.73,56.403 127.12,55.71C126.652,54.995 126.238,54.246 125.88,53.47C125.44,52.77 125,52.06 124.55,51.36C124.178,50.844 123.778,50.35 123.35,49.88C120.018,45.887 115.737,42.792 110.9,40.88C110.48,40.7 110.07,40.49 109.67,40.27C107.841,39.263 105.743,38.854 103.67,39.1C95.67,38.24 87.89,39.1 80.75,43.26C79.869,43.743 78.826,43.84 77.87,43.53C77.367,43.383 76.898,43.138 76.49,42.81L75.54,41.8Z" style="fill:rgb(248,192,134);fill-rule:nonzero;"/>
    </g>
    <g transform="matrix(10.357,0,0,10.357,0,0)">
        <path d="M58.53,103.78C57.857,102.115 57.033,100.515 56.07,99C49.68,91.064 46.616,80.948 47.53,70.8C47.87,70.34 48.22,70.34 48.53,70.8C48.674,71.054 48.674,71.366 48.53,71.62C49.45,72.87 48.33,74.62 49.53,75.79C50.05,76.36 49.89,77.21 50.38,77.79C50.579,77.997 50.661,78.29 50.6,78.57C50.898,79.24 51.049,79.967 51.04,80.7C52.62,85.5 53.37,90.61 56.5,94.8C57.22,95.8 57.74,96.87 58.5,97.8C61.976,102.292 66.008,106.324 70.5,109.8C71.21,110.37 72.07,110.8 72.07,111.92L71.89,112.6C71.626,112.981 71.231,113.251 70.78,113.36C65.88,111.377 61.635,108.057 58.53,103.78Z" style="fill:rgb(244,165,87);fill-rule:nonzero;"/>
    </g>
    <g transform="matrix(10.357,0,0,10.357,0,0)">
        <path d="M70.52,21.82L59.57,28.82C59.456,28.983 59.269,29.081 59.07,29.081C58.871,29.081 58.684,28.983 58.57,28.82C58.343,28.607 58.228,28.3 58.26,27.99C58.26,27.69 58.31,27.54 58.41,27.54C58.372,27.233 58.551,26.938 58.84,26.83C58.969,26.479 59.242,26.199 59.59,26.06L59.7,25.94C60.803,25.085 61.776,24.074 62.59,22.94L62.64,22.89C62.857,22.585 63.206,22.399 63.58,22.39C64.114,22.204 64.599,21.899 65,21.5C65.31,21.258 65.645,21.05 66,20.88C67.33,20.25 68.61,19.55 69.91,18.88L71.61,17.77C73.07,16.77 74.94,16.9 76.46,16.03C81.66,14.283 87.019,13.05 92.46,12.35C101.76,11.27 110.6,13.03 119.21,16.35C120.152,16.699 120.984,17.293 121.62,18.07C121.73,19.2 120.98,19.33 120.13,19.34C119.619,19.338 119.109,19.281 118.61,19.17C116.81,17.75 114.61,17.49 112.48,16.83C111.34,15.71 109.63,16.89 108.48,15.83C99.72,13.77 91.08,14.58 82.48,16.83L81.48,16.83C80.95,17.43 80,17.21 79.48,17.83C78.66,18.71 77.28,17.89 76.48,18.83C75.93,19.4 75.01,19.22 74.48,19.83C73.95,20.44 73.01,20.22 72.48,20.83C72,21.4 71,21.19 70.52,21.82Z" style="fill:rgb(243,153,60);fill-rule:nonzero;"/>
    </g>
    <g transform="matrix(10.357,0,0,10.357,0,0)">
        <path d="M80.43,45.85L79.43,44.95L79.73,44.18C89.22,37.47 99.47,37.29 110.13,40.64C118.04,43.52 124.52,47.86 126.53,56.74C126.251,56.852 125.95,56.9 125.65,56.88C124.982,57.295 124.151,57.355 123.43,57.04C120.43,54.39 118.8,50.64 115.49,48.27C106.49,41.77 96.89,40.27 86.49,44.61C84.58,45.39 82.78,47.17 80.43,45.85Z" style="fill:rgb(250,200,149);fill-rule:nonzero;"/>
    </g>
    <g transform="matrix(10.357,0,0,10.357,0,0)">
        <path d="M82.54,47.8L81.49,46.8C94.32,38.56 109.43,40.49 119.37,51.8C120.59,53.18 122.59,54.42 121.75,56.86C119.4,57.86 118.05,56.38 116.69,54.86C109.11,46.46 99.85,44.25 89.2,47.56C86.93,48.26 84.81,49.09 82.54,47.8Z" style="fill:rgb(249,206,161);fill-rule:nonzero;"/>
    </g>
    <g transform="matrix(10.357,0,0,10.357,0,0)">
        <path d="M121.5,56.8C116.92,48.28 109.68,43.85 100.16,42.8C93.46,42.05 87.48,44.38 81.49,46.8L80.43,45.8C86.28,43.2 92.12,40.27 98.73,40.8C109.73,41.7 118.73,46.09 123.5,56.73C123.238,57.026 122.862,57.195 122.467,57.195C122.105,57.195 121.758,57.053 121.5,56.8Z" style="fill:rgb(250,202,153);fill-rule:nonzero;"/>
    </g>
    <g transform="matrix(10.357,0,0,10.357,0,0)">
        <path d="M122.55,112.72L124.55,112.94C124.84,113.436 124.77,114.068 124.38,114.49C108.38,123.95 91.96,124.22 75.18,116.89C73.44,116.12 71.49,115.27 71.57,112.78C73.15,111.65 74.45,112.78 75.69,113.43C89.36,120.43 103.2,120.78 117.23,114.62C118.9,113.88 120.73,113.62 122.42,112.9L122.55,112.72Z" style="fill:rgb(244,165,87);fill-rule:nonzero;"/>
    </g>
    <g transform="matrix(10.357,0,0,10.357,0,0)">
        <path d="M121.5,56.8L123.5,56.8L125.61,56.89L118.52,57.89L117.79,57.72C116.314,56.956 115.019,55.885 113.99,54.58C107.28,47.41 99.05,46.94 90.22,49.13C88.64,49.52 87.22,50.49 85.44,49.9L82.54,47.84C84.314,47.614 86.065,47.229 87.77,46.69C98.08,42.44 111.09,45.41 117.95,54.52C118.75,55.54 120.3,56 121.5,56.8Z" style="fill:rgb(250,209,167);fill-rule:nonzero;"/>
    </g>
    <g transform="matrix(10.357,0,0,10.357,0,0)">
        <path d="M71.55,37.82C76.91,35.3 82.06,32 87.69,30.43C99.79,27.14 111.2,29.86 121.69,36.59C122.07,36.84 122.25,37.4 122.52,37.81C122.266,38.095 121.902,38.258 121.52,38.258C121.138,38.258 120.774,38.095 120.52,37.81C108.35,28.15 87.65,28.35 75.75,37.03C74.627,37.756 73.462,38.413 72.26,39C71.986,38.954 71.736,38.816 71.55,38.61C71.3,38.44 71.22,38.26 71.3,38.09C71.38,37.92 71.47,37.82 71.55,37.82Z" style="fill:rgb(246,179,114);fill-rule:nonzero;"/>
    </g>
    <g transform="matrix(10.357,0,0,10.357,0,0)">
        <path d="M41.44,90L41.72,86.59C45.201,95.984 50.584,104.56 57.53,111.78C57.825,112.025 57.996,112.389 57.996,112.772C57.996,113.093 57.876,113.403 57.66,113.64C56.32,114.41 55.52,113.27 54.53,112.78C52.19,109.1 47.91,106.95 46.47,102.51C46.3,101.99 45.84,102.99 45.41,103.06L43.52,97.82C42.66,96.98 43.45,95.64 42.6,94.82C42.393,94.634 42.325,94.337 42.43,94.08C42.06,93.36 42.15,92.51 41.69,91.83L41.44,90Z" style="fill:rgb(243,149,54);fill-rule:nonzero;"/>
    </g>
    <g transform="matrix(10.357,0,0,10.357,0,0)">
        <path d="M111.51,57.82C105.66,57 99.8,56.4 94,55.39C92.39,55.1 91,53.73 89.44,52.85C96.66,49.37 105.54,50.67 110.99,56.02C111.488,56.473 111.689,57.171 111.51,57.82Z" style="fill:rgb(253,224,196);fill-rule:nonzero;"/>
    </g>
    <g transform="matrix(10.357,0,0,10.357,0,0)">
        <path d="M118.52,57.85L113.52,57.85C111.586,56.319 109.533,54.944 107.38,53.74C103,51.15 98.43,50 93.25,51.6C91.61,52.12 89.48,52.69 87.56,51.79L86.56,50.79C93.67,45.2 105.8,46.1 112.99,52.79C114.82,54.48 116.35,56.5 118.53,57.79L118.52,57.85Z" style="fill:rgb(251,215,178);fill-rule:nonzero;"/>
    </g>
    <g transform="matrix(10.357,0,0,10.357,0,0)">
        <path d="M119.5,18.82L121.5,18.82C125.35,18.14 127.78,20.98 130.5,22.7C139.5,28.3 145.63,36.4 150.24,45.79C150.457,46.21 150.615,46.657 150.71,47.12L149.61,47.88C149.463,48.022 149.266,48.102 149.061,48.102C148.819,48.102 148.59,47.99 148.44,47.8L146.44,44.8C145.84,44.27 146.06,43.32 145.44,42.8C145.127,42.447 144.793,42.113 144.44,41.8C143.77,40.47 143.11,39.13 142.44,37.8C142.11,37.46 141.79,37.12 141.44,36.8C141.09,36.48 140.79,36.12 140.44,35.8C140.124,35.449 139.791,35.116 139.44,34.8L138.44,32.8C138.09,32.49 137.8,32.12 137.44,31.8C137.12,31.46 136.79,31.13 136.44,30.8C136.13,30.45 135.76,30.15 135.44,29.8L133.44,28.8C133.14,28.44 132.77,28.14 132.44,27.8C132.11,27.46 131.78,27.13 131.44,26.8C131.1,26.47 130.78,26.12 130.44,25.8L128.44,24.8C128.15,24.42 127.75,24.16 127.44,23.8L126.44,23.8C126.124,23.449 125.791,23.116 125.44,22.8C125.12,22.45 124.78,22.12 124.44,21.8L119.44,19.8C119.12,19.58 119.01,19.35 119.12,19.13C119.23,18.91 119.39,18.82 119.5,18.82Z" style="fill:rgb(243,154,65);fill-rule:nonzero;"/>
    </g>
    <g transform="matrix(10.357,0,0,10.357,0,0)">
        <path d="M87.56,51.79C90.362,50.977 93.215,50.352 96.1,49.92C103.31,49.27 109.1,52.21 113.51,57.82L111.51,57.82C107.58,55.82 103.82,53.26 99.67,52.2C96.52,51.39 92.86,52.56 89.43,52.85L87.56,51.79Z" style="fill:rgb(252,218,185);fill-rule:nonzero;"/>
    </g>
    <g transform="matrix(10.357,0,0,10.357,0,0)">
        <path d="M118.48,57.76C117.13,56.92 115.48,56.33 114.48,55.19C107.32,47.05 95.01,45.51 86.48,50.81L85.41,49.81C96,44.09 110.17,45.33 118.48,57.76Z" style="fill:rgb(251,212,173);fill-rule:nonzero;"/>
    </g>
    <g transform="matrix(10.357,0,0,10.357,0,0)">
        <path d="M126.49,56.74C122.97,49.83 118.32,44.13 110.49,41.8C110.216,41.54 110.061,41.178 110.061,40.8C110.061,40.422 110.216,40.06 110.49,39.8C116.49,41.3 120.96,44.8 124.49,49.8C124.85,50.11 125.11,50.52 125.49,50.8L126.49,52.8C127.1,53.33 126.84,54.29 127.49,54.8L129.49,55.8L126.49,56.74Z" style="fill:rgb(248,193,138);fill-rule:nonzero;"/>
    </g>
    <g transform="matrix(10.357,0,0,10.357,0,0)">
        <path d="M45.41,103.06L45.77,100.67C46.1,100.87 46.54,101 46.77,101.29C49.39,105.097 51.99,108.927 54.57,112.78L49.77,109L50.4,113.14L47.54,107.75C46.92,107.24 47.15,106.3 46.54,105.75C45.94,105.23 46.15,104.33 45.61,103.75C45.401,103.588 45.32,103.308 45.41,103.06Z" style="fill:rgb(242,147,47);fill-rule:nonzero;"/>
    </g>
    <g transform="matrix(10.357,0,0,10.357,0,0)">
        <path d="M56.53,94.78C52.37,91.05 51.65,85.78 50.53,80.78C50.89,80.23 51.27,80.21 51.68,80.72L52.68,82.56C52.91,83.65 54.18,84.45 53.58,85.78C54.11,87.45 54.58,89.12 55.18,90.78C55.58,92.13 56.06,93.46 56.53,94.78Z" style="fill:rgb(245,168,92);fill-rule:nonzero;"/>
    </g>
    <g transform="matrix(10.357,0,0,10.357,0,0)">
        <path d="M40.43,69.53L40.43,82.98L40.43,69.53Z" style="fill:rgb(243,159,74);fill-rule:nonzero;"/>
    </g>
    <g transform="matrix(10.357,0,0,10.357,0,0)">
        <path d="M45.57,66.73C45.22,69.08 44.88,71.44 44.57,73.79C41.57,71.47 43.14,68.79 43.91,66.11L44.64,65.74L45.57,66.73Z" style="fill:rgb(243,159,74);fill-rule:nonzero;"/>
    </g>
    <g transform="matrix(10.357,0,0,10.357,0,0)">
        <path d="M237.43,41.73L244.63,40.94L237.43,41.73Z" style="fill:rgb(81,85,122);fill-rule:nonzero;"/>
    </g>
    <g transform="matrix(10.357,0,0,10.357,0,0)">
        <path d="M42.61,63.7C41.89,65.41 41.17,67.11 40.44,68.82C40.51,67.19 40.52,65.56 40.72,63.95C40.74,63.79 42,63.78 42.61,63.7Z" style="fill:rgb(243,159,74);fill-rule:nonzero;"/>
    </g>
    <g transform="matrix(10.357,0,0,10.357,0,0)">
        <path d="M62.58,22.92L59.69,25.92L62.58,22.92Z" style="fill:rgb(243,155,67);fill-rule:nonzero;"/>
    </g>
    <g transform="matrix(10.357,0,0,10.357,0,0)">
        <path d="M124.52,102.86L122.52,104.68L120.78,104.23C121.08,103.92 121.34,103.42 121.7,103.32C122.63,103.109 123.571,102.955 124.52,102.86Z" style="fill:rgb(72,78,117);fill-rule:nonzero;"/>
    </g>
    <g transform="matrix(10.357,0,0,10.357,0,0)">
        <path d="M53.53,85.79L52.63,82.57L54.71,85.63L53.53,85.79Z" style="fill:rgb(245,173,103);fill-rule:nonzero;"/>
    </g>
    <g transform="matrix(10.357,0,0,10.357,0,0)">
        <path d="M115.51,111.79L114.51,110.68L118.51,111.75L115.51,111.79Z" style="fill:rgb(246,178,111);fill-rule:nonzero;"/>
    </g>
    <g transform="matrix(10.357,0,0,10.357,0,0)">
        <path d="M63.58,21.87L66.29,19.59L66.78,20.13C66.654,20.861 66.185,21.49 65.52,21.82C65.12,22.226 64.534,22.393 63.98,22.26L63.58,21.87Z" style="fill:rgb(243,155,67);fill-rule:nonzero;"/>
    </g>
    <g transform="matrix(10.357,0,0,10.357,0,0)">
        <path d="M49.57,75.78L48.57,71.61L49.57,75.78Z" style="fill:rgb(244,168,94);fill-rule:nonzero;"/>
    </g>
    <g transform="matrix(10.357,0,0,10.357,0,0)">
        <path d="M124.5,113.78L124.5,112.94L127.71,113.67L126.5,113.87C125.918,114.371 125.035,114.331 124.5,113.78Z" style="fill:rgb(244,165,87);fill-rule:nonzero;"/>
    </g>
    <g transform="matrix(10.357,0,0,10.357,0,0)">
        <path d="M85.43,7.55L82.52,8.83L85.43,7.55Z" style="fill:rgb(242,147,47);fill-rule:nonzero;"/>
    </g>
    <g transform="matrix(10.357,0,0,10.357,0,0)">
        <path d="M136.54,53.88L136.54,52.8L139.69,52.88L136.54,53.88Z" style="fill:rgb(246,182,119);fill-rule:nonzero;"/>
    </g>
    <g transform="matrix(10.357,0,0,10.357,0,0)">
        <path d="M130.5,55.72L131.5,54.78L133.5,54.78L130.5,55.72Z" style="fill:rgb(248,193,137);fill-rule:nonzero;"/>
    </g>
    <g transform="matrix(10.357,0,0,10.357,0,0)">
        <path d="M42.6,94.8C42.91,95.8 43.21,96.8 43.52,97.8C43.21,96.81 42.91,95.8 42.6,94.8Z" style="fill:rgb(243,153,63);fill-rule:nonzero;"/>
    </g>
    <g transform="matrix(10.357,0,0,10.357,0,0)">
        <path d="M82.52,8.83L80.62,9.88L82.52,8.83Z" style="fill:rgb(242,147,47);fill-rule:nonzero;"/>
    </g>
    <g transform="matrix(10.357,0,0,10.357,0,0)">
        <path d="M69.57,16.87L71.33,15.62L71.87,16.01C71.914,16.449 71.733,16.882 71.39,17.16C70.98,17.322 70.53,17.357 70.1,17.26L69.57,16.87Z" style="fill:rgb(243,153,60);fill-rule:nonzero;"/>
    </g>
    <g transform="matrix(10.357,0,0,10.357,0,0)">
        <path d="M46.55,105.77L47.55,107.77L46.55,105.77Z" style="fill:rgb(243,149,54);fill-rule:nonzero;"/>
    </g>
    <g transform="matrix(10.357,0,0,10.357,0,0)">
        <path d="M45.62,103.79L46.55,105.79L45.62,103.79Z" style="fill:rgb(243,149,54);fill-rule:nonzero;"/>
    </g>
    <g transform="matrix(10.357,0,0,10.357,0,0)">
        <path d="M41.69,91.81C41.94,92.56 42.18,93.31 42.43,94.06L41.69,91.81Z" style="fill:rgb(243,153,63);fill-rule:nonzero;"/>
    </g>
    <g transform="matrix(10.357,0,0,10.357,0,0)">
        <path d="M56.7,88.7L55.58,86.7L56.7,88.7Z" style="fill:rgb(245,173,103);fill-rule:nonzero;"/>
    </g>
    <g transform="matrix(10.357,0,0,10.357,0,0)">
        <path d="M152.52,45.89L154.47,44.8L152.52,45.89Z" style="fill:rgb(243,154,65);fill-rule:nonzero;"/>
    </g>
    <g transform="matrix(10.357,0,0,10.357,0,0)">
        <path d="M79.39,45L77.56,43.82L78.09,43.44C78.99,43.44 79.93,43.44 79.54,44.81L79.39,45Z" style="fill:rgb(250,200,149);fill-rule:nonzero;"/>
    </g>
    <g transform="matrix(10.357,0,0,10.357,0,0)">
        <path d="M151.5,45.77L152.56,45.86L150.75,47.12L150.45,46.74C150.33,45.91 150.55,45.45 151.5,45.77Z" style="fill:rgb(243,154,65);fill-rule:nonzero;"/>
    </g>
    <g transform="matrix(10.357,0,0,10.357,0,0)">
        <path d="M47.51,69.81L46.57,67.71L47.57,68.71C47.84,68.96 47.92,69.2 47.82,69.44C47.72,69.68 47.61,69.81 47.51,69.81Z" style="fill:rgb(244,165,87);fill-rule:nonzero;"/>
    </g>
    <g transform="matrix(10.357,0,0,10.357,0,0)">
        <path d="M47.51,69.81C47.51,69.46 47.51,69.1 47.56,68.74L48.56,70.79L47.56,70.79C47.53,70.47 47.53,70.14 47.51,69.81Z" style="fill:rgb(244,168,94);fill-rule:nonzero;"/>
    </g>
    <g transform="matrix(10.357,0,0,10.357,0,0)">
        <path d="M50.41,77.77L49.56,75.77L50.41,77.77Z" style="fill:rgb(244,168,94);fill-rule:nonzero;"/>
    </g>
    <g transform="matrix(10.357,0,0,10.357,0,0)">
        <path d="M51.68,80.73L50.53,80.79C50.53,80.05 50.6,79.3 50.63,78.56L51.68,80.73Z" style="fill:rgb(244,168,94);fill-rule:nonzero;"/>
    </g>
    <g transform="matrix(10.357,0,0,10.357,0,0)">
        <path d="M54.33,118.88C54.75,119.46 55.17,120.05 55.6,120.63L54.33,118.88Z" style="fill:rgb(241,144,42);fill-rule:nonzero;"/>
    </g>
    <g transform="matrix(10.357,0,0,10.357,0,0)">
        <path d="M72.53,14.83L72.53,15.83L72.11,16.17L71.62,15.93L71.33,15.64L72.53,14.83Z" style="fill:rgb(243,153,60);fill-rule:nonzero;"/>
    </g>
    <g transform="matrix(10.357,0,0,10.357,0,0)">
        <path d="M68.47,17.76L69.57,16.87L69.57,16.94C69.615,17.352 69.399,17.752 69.03,17.94L68.47,17.76Z" style="fill:rgb(243,153,60);fill-rule:nonzero;"/>
    </g>
    <g transform="matrix(10.357,0,0,10.357,0,0)">
        <path d="M67.36,18.68L68.47,17.76L68.59,17.88C68.684,18.344 68.436,18.815 68,19L67.36,18.68Z" style="fill:rgb(243,153,60);fill-rule:nonzero;"/>
    </g>
    <g transform="matrix(10.357,0,0,10.357,0,0)">
        <path d="M66.29,19.59L67.36,18.68L67.6,18.87C67.75,19.69 67.44,20.06 66.6,19.87L66.29,19.59Z" style="fill:rgb(243,154,65);fill-rule:nonzero;"/>
    </g>
    <g transform="matrix(10.357,0,0,10.357,0,0)">
        <path d="M63.54,22.83L62.63,22.83L63.58,21.83L63.7,21.96C63.814,22.057 63.88,22.199 63.88,22.349C63.88,22.565 63.743,22.758 63.54,22.83Z" style="fill:rgb(243,155,67);fill-rule:nonzero;"/>
    </g>
    <g transform="matrix(10.357,0,0,10.357,0,0)">
        <path d="M59.58,26L58.83,26.77L59.58,26Z" style="fill:rgb(243,155,67);fill-rule:nonzero;"/>
    </g>
    <g transform="matrix(10.357,0,0,10.357,0,0)">
        <path d="M55.66,120.73L56.52,121.79L55.66,120.73Z" style="fill:rgb(241,144,42);fill-rule:nonzero;"/>
    </g>
    <g transform="matrix(10.357,0,0,10.357,0,0)">
        <path d="M111.82,109.65L110.52,108.86L111.82,109.65Z" style="fill:rgb(246,184,122);fill-rule:nonzero;"/>
    </g>
    <g transform="matrix(10.357,0,0,10.357,0,0)">
        <path d="M56.51,121.78L57.51,122.89L56.51,121.78Z" style="fill:rgb(241,144,42);fill-rule:nonzero;"/>
    </g>
    <g transform="matrix(10.357,0,0,10.357,0,0)">
        <path d="M66.54,95.78L65.54,94.97L66.54,95.78Z" style="fill:rgb(246,184,122);fill-rule:nonzero;"/>
    </g>
    <g transform="matrix(10.357,0,0,10.357,0,0)">
        <path d="M43.63,64.69L44.63,65.69L44.42,65.81C43.966,65.904 43.504,65.67 43.31,65.25L43.63,64.69Z" style="fill:rgb(243,159,74);fill-rule:nonzero;"/>
    </g>
    <g transform="matrix(10.357,0,0,10.357,0,0)">
        <path d="M42.53,64.81L42.61,63.7L43.61,64.7L43.45,64.89C43.12,65.29 42.81,65.26 42.53,64.81Z" style="fill:rgb(243,159,74);fill-rule:nonzero;"/>
    </g>
    <g transform="matrix(10.357,0,0,10.357,0,0)">
        <path d="M148.48,47.8L149.65,47.88L148.45,48.74C148.47,48.43 148.48,48.11 148.48,47.8Z" style="fill:rgb(244,161,80);fill-rule:nonzero;"/>
    </g>
    <g transform="matrix(10.357,0,0,10.357,0,0)">
        <path d="M76.55,42.79L77.55,42.79C77.85,42.97 77.96,43.17 77.88,43.38C77.8,43.59 77.72,43.71 77.63,43.71L77.63,43.76L76.55,42.79Z" style="fill:rgb(250,200,149);fill-rule:nonzero;"/>
    </g>
    <g transform="matrix(10.357,0,0,10.357,0,0)">
        <path d="M75.52,40.79L75.52,41.79L74.43,40.85L75.52,40.79Z" style="fill:rgb(248,192,134);fill-rule:nonzero;"/>
    </g>
    <g transform="matrix(10.357,0,0,10.357,0,0)">
        <path d="M57.42,122.83L58.42,124.04L57.42,122.83Z" style="fill:rgb(241,144,42);fill-rule:nonzero;"/>
    </g>
    <g transform="matrix(10.357,0,0,10.357,0,0)">
        <path d="M246.38,40.64C246.281,40.456 246.281,40.234 246.38,40.05L247.13,40.37L246.38,40.64Z" style="fill:rgb(81,85,122);fill-rule:nonzero;"/>
    </g>
    <g transform="matrix(10.357,0,0,10.357,0,0)">
        <path d="M245.53,39.76L244.4,39.07L245.53,39.76Z" style="fill:rgb(81,85,122);fill-rule:nonzero;"/>
    </g>
    <g transform="matrix(10.357,0,0,10.357,0,0)">
        <path d="M71.55,37.82L71.55,38.59L70.64,37.77L71.55,37.82Z" style="fill:rgb(246,184,121);fill-rule:nonzero;"/>
    </g>
    <g transform="matrix(10.357,0,0,10.357,0,0)">
        <path d="M55.61,86.75L54.61,85.64L55.61,86.75Z" style="fill:rgb(245,173,103);fill-rule:nonzero;"/>
    </g>
    <g transform="matrix(10.357,0,0,10.357,0,0)">
        <path d="M68.35,35.87L69.53,36.79L68.35,35.87Z" style="fill:rgb(246,178,113);fill-rule:nonzero;"/>
    </g>
    <g transform="matrix(10.357,0,0,10.357,0,0)">
        <path d="M63.35,32L64.53,31.8C64.8,31.97 64.91,32.15 64.85,32.36C64.79,32.57 64.72,32.69 64.64,32.69L64.45,32.87L63.35,32Z" style="fill:rgb(245,167,91);fill-rule:nonzero;"/>
    </g>
    <g transform="matrix(10.357,0,0,10.357,0,0)">
        <path d="M62.52,30.78L63.42,32.01C63.084,32.058 62.746,31.92 62.54,31.65C62.3,31.47 62.22,31.28 62.29,31.09C62.36,30.9 62.44,30.8 62.51,30.8L62.52,30.78Z" style="fill:rgb(244,162,81);fill-rule:nonzero;"/>
    </g>
    <g transform="matrix(10.357,0,0,10.357,0,0)">
        <path d="M62.51,30.8L62.51,31.65L61.51,30.82C61.842,30.788 62.177,30.781 62.51,30.8Z" style="fill:rgb(245,167,91);fill-rule:nonzero;"/>
    </g>
    <g transform="matrix(10.357,0,0,10.357,0,0)">
        <path d="M60.29,29.91L61.53,30.8L60.29,29.91Z" style="fill:rgb(244,162,81);fill-rule:nonzero;"/>
    </g>
    <g transform="matrix(10.357,0,0,10.357,0,0)">
        <path d="M58.55,28.8L59.55,28.8L59.55,29.56L58.55,28.8Z" style="fill:rgb(244,162,81);fill-rule:nonzero;"/>
    </g>
    <g transform="matrix(10.357,0,0,10.357,0,0)">
        <path d="M58.4,27.48L58.56,28.76L58.4,27.48Z" style="fill:rgb(243,155,67);fill-rule:nonzero;"/>
    </g>
    <g transform="matrix(10.357,0,0,10.357,0,0)">
        <path d="M134.52,114.87L138.52,114.87C130.96,122.73 121.58,127.27 111.11,129.63C102.3,131.63 93.41,131.13 84.55,129.73C82.55,128.92 80.41,128.82 78.55,127.73C77.75,126.79 76.37,127.61 75.55,126.73C75.03,126.11 74.08,126.33 73.55,125.73L72.55,125.73C72.27,125.35 71.86,125.09 71.55,124.73L70.55,124.73C70.04,124.1 69.1,124.31 68.55,123.73C68.22,123.39 67.89,123.06 67.55,122.73C67.02,122.12 66.09,122.3 65.55,121.73C65.02,121.12 64.1,121.3 63.55,120.73L62.55,119.73C62.21,119.4 61.92,119.03 61.55,118.73C61.324,118.543 61.214,118.25 61.26,117.96C61.32,117.68 61.38,117.54 61.45,117.54C61.823,117.296 62.255,117.155 62.7,117.13C65.31,117.67 67.02,119.92 69.5,120.7C69.896,120.797 70.279,120.941 70.64,121.13C71.17,121.41 71.7,121.7 72.24,121.96C72.61,122.12 72.98,122.3 73.34,122.49L75.12,123.23C75.56,123.38 75.98,123.56 76.41,123.75C94,130 111.07,129.4 127.32,119.5C129.358,117.455 131.814,115.876 134.52,114.87Z" style="fill:rgb(242,148,50);fill-rule:nonzero;"/>
    </g>
    <g transform="matrix(10.357,0,0,10.357,0,0)">
        <path d="M54.53,112.78L57.53,113.78L58.14,113.91C58.514,114.101 58.852,114.355 59.14,114.66L59.51,115.17C59.869,115.704 59.9,116.396 59.59,116.96C59.462,117.056 59.306,117.109 59.145,117.109C58.898,117.109 58.667,116.985 58.53,116.78L54.53,112.78Z" style="fill:rgb(242,147,47);fill-rule:nonzero;"/>
    </g>
    <g transform="matrix(10.357,0,0,10.357,0,0)">
        <path d="M78.52,127.77L84.52,129.77L78.52,127.77Z" style="fill:rgb(242,146,46);fill-rule:nonzero;"/>
    </g>
    <g transform="matrix(10.357,0,0,10.357,0,0)">
        <path d="M58.53,116.77L59.53,116.77C60.63,116.25 61.14,116.88 61.53,117.77L61.53,118.77C60.08,118.78 58.53,118.94 58.53,116.77Z" style="fill:rgb(242,146,46);fill-rule:nonzero;"/>
    </g>
    <g transform="matrix(10.357,0,0,10.357,0,0)">
        <path d="M75.52,126.77L78.52,127.77L75.52,126.77Z" style="fill:rgb(242,146,46);fill-rule:nonzero;"/>
    </g>
    <g transform="matrix(10.357,0,0,10.357,0,0)">
        <path d="M68.53,123.77L70.53,124.77L68.53,123.77Z" style="fill:rgb(242,146,46);fill-rule:nonzero;"/>
    </g>
    <g transform="matrix(10.357,0,0,10.357,0,0)">
        <path d="M73.52,125.77L75.52,126.77L73.52,125.77Z" style="fill:rgb(242,146,46);fill-rule:nonzero;"/>
    </g>
    <g transform="matrix(10.357,0,0,10.357,0,0)">
        <path d="M65.53,121.77L67.53,122.77C66.86,122.44 66.19,122.11 65.53,121.77Z" style="fill:rgb(242,146,46);fill-rule:nonzero;"/>
    </g>
    <g transform="matrix(10.357,0,0,10.357,0,0)">
        <path d="M63.53,120.77C64.19,121.11 64.86,121.44 65.53,121.77C64.86,121.44 64.19,121.11 63.53,120.77Z" style="fill:rgb(242,146,46);fill-rule:nonzero;"/>
    </g>
    <g transform="matrix(10.357,0,0,10.357,0,0)">
        <path d="M62.53,119.77L63.53,120.77L62.53,119.77Z" style="fill:rgb(242,146,46);fill-rule:nonzero;"/>
    </g>
    <g transform="matrix(10.357,0,0,10.357,0,0)">
        <path d="M61.53,118.77L62.53,119.77L61.53,118.77Z" style="fill:rgb(242,146,46);fill-rule:nonzero;"/>
    </g>
    <g transform="matrix(10.357,0,0,10.357,0,0)">
        <path d="M71.52,124.77L72.52,125.77L71.52,124.77Z" style="fill:rgb(242,146,46);fill-rule:nonzero;"/>
    </g>
    <g transform="matrix(10.357,0,0,10.357,0,0)">
        <path d="M67.53,122.77L68.53,123.77L67.53,122.77Z" style="fill:rgb(242,146,46);fill-rule:nonzero;"/>
    </g>
    <g transform="matrix(10.357,0,0,10.357,0,0)">
        <path d="M151.5,45.77L150.45,46.77C147.28,42.39 144.18,37.96 140.92,33.66C135.83,26.9 129,22.38 121.5,18.82C117.34,15.07 111.94,14.95 106.89,13.82C97,11.62 87.39,13.28 78,16.55C77.2,16.737 76.381,16.828 75.56,16.82C75.31,16.6 75.22,16.38 75.31,16.15C75.4,15.92 75.48,15.82 75.56,15.82C92.83,8.52 109.45,10 126,18.65C135.44,23.57 142.3,30.74 148.2,39.16C149.63,41.15 150.43,43.55 151.5,45.77Z" style="fill:rgb(243,150,56);fill-rule:nonzero;"/>
    </g>
    <g transform="matrix(10.357,0,0,10.357,0,0)">
        <path d="M75.52,15.82L75.52,16.82L71.52,18.82L70.52,19.82L65.52,21.82L66.59,19.87L68.59,17.87L69.59,16.93L71.51,16.81C71.796,16.432 72.132,16.096 72.51,15.81L75.51,15.81L75.52,15.82Z" style="fill:rgb(243,149,54);fill-rule:nonzero;"/>
    </g>
    <g transform="matrix(10.357,0,0,10.357,0,0)">
        <path d="M82.52,16.82C90.778,13.351 100.02,12.995 108.52,15.82C99.79,14.79 91.15,15.62 82.52,16.82Z" style="fill:rgb(243,154,65);fill-rule:nonzero;"/>
    </g>
    <g transform="matrix(10.357,0,0,10.357,0,0)">
        <path d="M112.51,16.82L118.51,18.82C118.406,18.997 118.215,19.106 118.01,19.106C117.805,19.106 117.614,18.997 117.51,18.82L112.51,16.82Z" style="fill:rgb(243,154,65);fill-rule:nonzero;"/>
    </g>
    <g transform="matrix(10.357,0,0,10.357,0,0)">
        <path d="M108.51,15.82L112.51,16.82L108.51,15.82Z" style="fill:rgb(243,154,65);fill-rule:nonzero;"/>
    </g>
    <g transform="matrix(10.357,0,0,10.357,0,0)">
        <path d="M76.52,18.82L79.52,17.82L76.52,18.82Z" style="fill:rgb(243,154,65);fill-rule:nonzero;"/>
    </g>
    <g transform="matrix(10.357,0,0,10.357,0,0)">
        <path d="M79.52,17.82L81.52,16.82L79.52,17.82Z" style="fill:rgb(243,154,65);fill-rule:nonzero;"/>
    </g>
    <g transform="matrix(10.357,0,0,10.357,0,0)">
        <path d="M74.52,19.82L76.52,18.82L74.52,19.82Z" style="fill:rgb(243,154,65);fill-rule:nonzero;"/>
    </g>
    <g transform="matrix(10.357,0,0,10.357,0,0)">
        <path d="M117.5,18.82L119.5,18.82L119.5,19.82L117.5,18.82Z" style="fill:rgb(243,155,66);fill-rule:nonzero;"/>
    </g>
    <g transform="matrix(10.357,0,0,10.357,0,0)">
        <path d="M72.52,20.82L74.52,19.82L72.52,20.82Z" style="fill:rgb(243,154,65);fill-rule:nonzero;"/>
    </g>
    <g transform="matrix(10.357,0,0,10.357,0,0)">
        <path d="M70.52,21.82L72.52,20.82L70.52,21.82Z" style="fill:rgb(243,154,65);fill-rule:nonzero;"/>
    </g>
    <g transform="matrix(10.357,0,0,10.357,0,0)">
        <path d="M145.49,42.81L146.49,44.81L145.49,42.81Z" style="fill:rgb(243,155,66);fill-rule:nonzero;"/>
    </g>
    <g transform="matrix(10.357,0,0,10.357,0,0)">
        <path d="M124.5,21.82L125.5,22.82L124.5,21.82Z" style="fill:rgb(243,155,66);fill-rule:nonzero;"/>
    </g>
    <g transform="matrix(10.357,0,0,10.357,0,0)">
        <path d="M125.5,22.82L126.5,23.82L125.5,22.82Z" style="fill:rgb(243,155,66);fill-rule:nonzero;"/>
    </g>
    <g transform="matrix(10.357,0,0,10.357,0,0)">
        <path d="M127.5,23.82L128.5,24.82L127.5,23.82Z" style="fill:rgb(243,155,66);fill-rule:nonzero;"/>
    </g>
    <g transform="matrix(10.357,0,0,10.357,0,0)">
        <path d="M132.5,27.81L133.5,28.81L132.5,27.81Z" style="fill:rgb(243,155,66);fill-rule:nonzero;"/>
    </g>
    <g transform="matrix(10.357,0,0,10.357,0,0)">
        <path d="M144.49,41.81L145.49,42.81L144.49,41.81Z" style="fill:rgb(243,155,66);fill-rule:nonzero;"/>
    </g>
    <g transform="matrix(10.357,0,0,10.357,0,0)">
        <path d="M141.49,36.81L142.49,37.81L141.49,36.81Z" style="fill:rgb(243,155,66);fill-rule:nonzero;"/>
    </g>
    <g transform="matrix(10.357,0,0,10.357,0,0)">
        <path d="M140.49,35.81L141.49,36.81L140.49,35.81Z" style="fill:rgb(243,155,66);fill-rule:nonzero;"/>
    </g>
    <g transform="matrix(10.357,0,0,10.357,0,0)">
        <path d="M139.49,34.81L140.49,35.81L139.49,34.81Z" style="fill:rgb(243,155,66);fill-rule:nonzero;"/>
    </g>
    <g transform="matrix(10.357,0,0,10.357,0,0)">
        <path d="M137.49,31.81L138.49,32.81L137.49,31.81Z" style="fill:rgb(243,155,66);fill-rule:nonzero;"/>
    </g>
    <g transform="matrix(10.357,0,0,10.357,0,0)">
        <path d="M136.49,30.81L137.49,31.81L136.49,30.81Z" style="fill:rgb(243,155,66);fill-rule:nonzero;"/>
    </g>
    <g transform="matrix(10.357,0,0,10.357,0,0)">
        <path d="M135.49,29.81L136.49,30.81L135.49,29.81Z" style="fill:rgb(243,155,66);fill-rule:nonzero;"/>
    </g>
    <g transform="matrix(10.357,0,0,10.357,0,0)">
        <path d="M131.5,26.82L132.5,27.82L131.5,26.82Z" style="fill:rgb(243,155,66);fill-rule:nonzero;"/>
    </g>
    <g transform="matrix(10.357,0,0,10.357,0,0)">
        <path d="M130.5,25.82L131.5,26.82L130.5,25.82Z" style="fill:rgb(243,155,66);fill-rule:nonzero;"/>
    </g>
    <g transform="matrix(10.357,0,0,10.357,0,0)">
        <path d="M64.64,32.7C64.568,32.409 64.531,32.11 64.53,31.81L65.53,30.81C65.87,30.49 66.2,30.16 66.53,29.81C66.881,29.494 67.214,29.161 67.53,28.81L71.53,26.81C71.647,26.651 71.833,26.557 72.03,26.557C72.227,26.557 72.413,26.651 72.53,26.81L65.53,32.81C65.23,32.805 64.932,32.768 64.64,32.7Z" style="fill:rgb(244,162,81);fill-rule:nonzero;"/>
    </g>
    <g transform="matrix(10.357,0,0,10.357,0,0)">
        <path d="M120.5,37.81L122.5,37.81C122.816,38.161 123.149,38.494 123.5,38.81C123.82,39.15 124.16,39.49 124.5,39.81C126.112,40.832 127.478,42.198 128.5,43.81C128.82,44.15 129.16,44.48 129.5,44.81C129.82,45.15 130.15,45.48 130.5,45.81C130.92,46.223 131.081,46.834 130.92,47.4L130.5,47.81L120.5,37.81Z" style="fill:rgb(246,182,119);fill-rule:nonzero;"/>
    </g>
    <g transform="matrix(10.357,0,0,10.357,0,0)">
        <path d="M134.5,53.79C131.34,53.02 131.33,50.14 130.5,47.79C131.64,47.16 131.94,48.23 132.5,48.79C133.07,49.33 132.89,50.26 133.5,50.79C134.07,51.34 133.87,52.27 134.5,52.79C134.699,52.946 134.786,53.206 134.72,53.45C134.65,53.68 134.58,53.79 134.5,53.79Z" style="fill:rgb(246,182,119);fill-rule:nonzero;"/>
    </g>
    <g transform="matrix(10.357,0,0,10.357,0,0)">
        <path d="M134.5,53.79L134.5,52.79L135.5,53.79C135.16,53.78 134.83,53.79 134.5,53.79Z" style="fill:rgb(246,179,114);fill-rule:nonzero;"/>
    </g>
    <g transform="matrix(10.357,0,0,10.357,0,0)">
        <path d="M87.52,19.82L85.52,20.82L87.52,19.82Z" style="fill:rgb(243,161,81);fill-rule:nonzero;"/>
    </g>
    <g transform="matrix(10.357,0,0,10.357,0,0)">
        <path d="M109.51,20.82L107.51,19.82L109.51,20.82Z" style="fill:rgb(243,161,81);fill-rule:nonzero;"/>
    </g>
    <g transform="matrix(10.357,0,0,10.357,0,0)">
        <path d="M113.5,21.82L112.5,20.82L113.5,21.82Z" style="fill:rgb(243,161,81);fill-rule:nonzero;"/>
    </g>
    <g transform="matrix(10.357,0,0,10.357,0,0)">
        <path d="M80.52,21.82L79.52,22.82L80.52,21.82Z" style="fill:rgb(243,161,81);fill-rule:nonzero;"/>
    </g>
    <g transform="matrix(10.357,0,0,10.357,0,0)">
        <path d="M118.5,23.82L117.5,22.82L118.5,23.82Z" style="fill:rgb(243,161,81);fill-rule:nonzero;"/>
    </g>
    <g transform="matrix(10.357,0,0,10.357,0,0)">
        <path d="M120.5,24.82L119.5,23.82L120.5,24.82Z" style="fill:rgb(243,161,81);fill-rule:nonzero;"/>
    </g>
    <g transform="matrix(10.357,0,0,10.357,0,0)">
        <path d="M122.5,25.82L121.5,24.82L122.5,25.82Z" style="fill:rgb(243,161,81);fill-rule:nonzero;"/>
    </g>
    <g transform="matrix(10.357,0,0,10.357,0,0)">
        <path d="M138.49,38.81L137.49,37.81L138.49,38.81Z" style="fill:rgb(243,161,81);fill-rule:nonzero;"/>
    </g>
    <g transform="matrix(10.357,0,0,10.357,0,0)">
        <path d="M137.49,37.81L136.49,36.81L137.49,37.81Z" style="fill:rgb(243,161,81);fill-rule:nonzero;"/>
    </g>
    <g transform="matrix(10.357,0,0,10.357,0,0)">
        <path d="M136.49,36.81L135.49,35.81L136.49,36.81Z" style="fill:rgb(243,161,81);fill-rule:nonzero;"/>
    </g>
    <g transform="matrix(10.357,0,0,10.357,0,0)">
        <path d="M134.5,34.81L133.5,33.81L134.5,34.81Z" style="fill:rgb(243,161,81);fill-rule:nonzero;"/>
    </g>
    <g transform="matrix(10.357,0,0,10.357,0,0)">
        <path d="M133.5,33.81L132.5,32.81L133.5,33.81Z" style="fill:rgb(243,161,81);fill-rule:nonzero;"/>
    </g>
    <g transform="matrix(10.357,0,0,10.357,0,0)">
        <path d="M132.5,32.81L131.5,31.81L132.5,32.81Z" style="fill:rgb(243,161,81);fill-rule:nonzero;"/>
    </g>
    <g transform="matrix(10.357,0,0,10.357,0,0)">
        <path d="M131.5,31.81L130.5,30.81L131.5,31.81Z" style="fill:rgb(243,161,81);fill-rule:nonzero;"/>
    </g>
    <g transform="matrix(10.357,0,0,10.357,0,0)">
        <path d="M66.53,29.81L65.53,30.81L66.53,29.81Z" style="fill:rgb(243,161,81);fill-rule:nonzero;"/>
    </g>
    <g transform="matrix(10.357,0,0,10.357,0,0)">
        <path d="M67.53,28.81L66.53,29.81L67.53,28.81Z" style="fill:rgb(243,161,81);fill-rule:nonzero;"/>
    </g>
    <g transform="matrix(10.357,0,0,10.357,0,0)">
        <path d="M72.52,26.81L71.52,26.81L72.52,25.81L72.52,26.81Z" style="fill:rgb(243,161,81);fill-rule:nonzero;"/>
    </g>
    <g transform="matrix(10.357,0,0,10.357,0,0)">
        <path d="M122.37,112.9C116.86,114.9 111.46,117.32 105.81,118.67C94.18,121.45 83.31,118.53 72.98,113.03C72.51,112.868 72.017,112.783 71.52,112.78L71.52,111.78C71.776,111.498 72.139,111.337 72.52,111.337C72.901,111.337 73.264,111.498 73.52,111.78C74.01,111.85 74.63,111.78 74.97,112.03C81.25,116.92 89.08,116.74 96.3,118.51C97.75,118.86 99.46,117.97 101.07,117.85C106.47,117.585 111.765,116.256 116.65,113.94C118.31,113.1 120.45,113.22 122.37,112.9Z" style="fill:rgb(244,165,87);fill-rule:nonzero;"/>
    </g>
    <g transform="matrix(10.357,0,0,10.357,0,0)">
        <path d="M70.52,109.78C65.22,107.337 60.963,103.08 58.52,97.78L70.52,109.78Z" style="fill:rgb(245,168,92);fill-rule:nonzero;"/>
    </g>
    <g transform="matrix(10.357,0,0,10.357,0,0)">
        <path d="M73.52,111.78L71.52,111.78L70.52,109.78L73.52,111.78Z" style="fill:rgb(245,168,92);fill-rule:nonzero;"/>
    </g>
    <g transform="matrix(10.357,0,0,10.357,0,0)">
        <path d="M58.53,97.78L56.53,94.78L58.53,97.78Z" style="fill:rgb(245,168,92);fill-rule:nonzero;"/>
    </g>
    <g transform="matrix(10.357,0,0,10.357,0,0)">
        <path d="M42.53,64.81C42.845,64.808 43.159,64.831 43.47,64.88L44.4,65.88L44.54,73.81C45.12,79.65 45.97,85.43 48.54,90.81C53.23,102.1 60.39,111.21 71.54,116.81L71.54,117.81C71.28,118.084 70.918,118.239 70.54,118.239C70.162,118.239 69.8,118.084 69.54,117.81C69.22,117.47 68.88,117.14 68.54,116.81C67.31,116.36 65.84,116.19 64.89,115.39C54.33,106.51 46,96.06 43.64,82.12C42.66,76.45 42.87,70.58 42.53,64.81Z" style="fill:rgb(243,156,68);fill-rule:nonzero;"/>
    </g>
    <g transform="matrix(10.357,0,0,10.357,0,0)">
        <path d="M69.52,119.77L73.03,119.77C73.538,119.808 74.039,119.912 74.52,120.08C74.85,120.17 75.18,120.26 75.52,120.37C75.925,120.686 76.364,120.954 76.83,121.17C77.171,121.237 77.506,121.334 77.83,121.46C78.33,121.67 78.83,121.86 79.31,122.12C79.79,122.38 80,122.46 80.31,122.64C81.238,123.111 82.27,123.339 83.31,123.3L84.63,123.68C87.89,125.17 91.47,124.45 94.83,125.22L100.35,125.22C108.35,125.48 115.5,122.37 122.91,120.17C123.465,120.325 123.803,120.899 123.67,121.46C113.83,128.33 102.67,128.73 91.33,127.88C85.56,127.294 79.902,125.886 74.53,123.7C74,123.09 73.08,123.27 72.53,122.7C72.01,122.09 71.08,122.27 70.53,121.7C69.98,121.13 68.89,120.93 69.52,119.77Z" style="fill:rgb(243,153,61);fill-rule:nonzero;"/>
    </g>
    <g transform="matrix(10.357,0,0,10.357,0,0)">
        <path d="M69.52,119.77L70.52,121.77L62.52,117.77C62.035,117.408 61.864,116.753 62.11,116.2L62.52,115.77L69.52,119.77Z" style="fill:rgb(243,151,57);fill-rule:nonzero;"/>
    </g>
    <g transform="matrix(10.357,0,0,10.357,0,0)">
        <path d="M57.53,113.77L57.53,111.77L62.53,115.77C60.78,117.1 59.81,115.31 58.53,114.77C58.217,114.417 57.883,114.083 57.53,113.77Z" style="fill:rgb(243,151,57);fill-rule:nonzero;"/>
    </g>
    <g transform="matrix(10.357,0,0,10.357,0,0)">
        <path d="M72.52,118.77L74.52,119.77L74.15,120.18C73.603,120.255 73.051,120.275 72.5,120.24C72.129,120.18 71.783,120.017 71.5,119.77L71.5,118.77L72,118.36L72.52,118.77Z" style="fill:rgb(243,156,68);fill-rule:nonzero;"/>
    </g>
    <g transform="matrix(10.357,0,0,10.357,0,0)">
        <path d="M69.52,117.77L71.52,117.77C71.724,117.926 71.815,118.191 71.75,118.44C71.67,118.66 71.6,118.77 71.52,118.77L69.52,117.77Z" style="fill:rgb(243,156,68);fill-rule:nonzero;"/>
    </g>
    <g transform="matrix(10.357,0,0,10.357,0,0)">
        <path d="M68.52,116.77L69.52,117.77L68.52,116.77Z" style="fill:rgb(243,156,68);fill-rule:nonzero;"/>
    </g>
    <g transform="matrix(10.357,0,0,10.357,0,0)">
        <path d="M128.5,43.81C127.17,42.47 125.83,41.14 124.5,39.81C126.676,39.857 128.453,41.634 128.5,43.81Z" style="fill:rgb(246,179,114);fill-rule:nonzero;"/>
    </g>
    <g transform="matrix(10.357,0,0,10.357,0,0)">
        <path d="M132.5,48.81L130.5,47.81L130.5,45.81L132.5,48.81Z" style="fill:rgb(246,179,114);fill-rule:nonzero;"/>
    </g>
    <g transform="matrix(10.357,0,0,10.357,0,0)">
        <path d="M133.5,50.8L132.5,48.8C132.83,49.47 133.16,50.14 133.5,50.8Z" style="fill:rgb(246,179,114);fill-rule:nonzero;"/>
    </g>
    <g transform="matrix(10.357,0,0,10.357,0,0)">
        <path d="M134.5,52.8L133.5,50.8L134.5,52.8Z" style="fill:rgb(246,179,114);fill-rule:nonzero;"/>
    </g>
    <g transform="matrix(10.357,0,0,10.357,0,0)">
        <path d="M130.5,45.81L129.5,44.81L130.5,45.81Z" style="fill:rgb(246,179,114);fill-rule:nonzero;"/>
    </g>
    <g transform="matrix(10.357,0,0,10.357,0,0)">
        <path d="M129.5,44.81L128.5,43.81L129.5,44.81Z" style="fill:rgb(246,179,114);fill-rule:nonzero;"/>
    </g>
    <g transform="matrix(10.357,0,0,10.357,0,0)">
        <path d="M124.5,39.81L123.5,38.81L124.5,39.81Z" style="fill:rgb(246,179,114);fill-rule:nonzero;"/>
    </g>
    <g transform="matrix(10.357,0,0,10.357,0,0)">
        <path d="M123.5,38.81L122.5,37.81L123.5,38.81Z" style="fill:rgb(246,179,114);fill-rule:nonzero;"/>
    </g>
    <g transform="matrix(10.357,0,0,10.357,0,0)">
        <path d="M124.5,113.78L126.5,113.87C120.63,118.51 114.08,121.45 106.5,121.77C105.69,122.68 104.29,121.77 103.5,122.77L91.5,122.77C90.71,121.77 89.31,122.68 88.5,121.77L86.5,121.77C85.99,121.13 85.02,121.38 84.5,120.77L83.5,120.77C83.377,120.919 83.193,121.005 83,121.005C82.807,121.005 82.623,120.919 82.5,120.77C81.98,120.15 81.03,120.38 80.5,119.77L79.5,119.77C79.19,119.42 78.83,119.11 78.5,118.77L76.5,118.77C76.19,118.42 75.84,118.11 75.5,117.77L74.5,117.77C74.2,117.41 73.83,117.11 73.5,116.77L72.5,116.77C69.43,114.41 66.22,112.2 63.34,109.63C61.47,107.96 60.1,105.75 58.51,103.78C61.26,106.03 63.93,108.38 66.79,110.48C68.287,111.387 69.864,112.157 71.5,112.78C75.06,117.56 80.6,118.57 85.8,119.67C98.977,122.65 112.806,120.545 124.5,113.78Z" style="fill:rgb(243,160,79);fill-rule:nonzero;"/>
    </g>
    <g transform="matrix(10.357,0,0,10.357,0,0)">
        <path d="M48.53,90.79C44.92,85.66 44.41,79.79 44.53,73.79L48.53,90.79Z" style="fill:rgb(243,159,74);fill-rule:nonzero;"/>
    </g>
    <g transform="matrix(10.357,0,0,10.357,0,0)">
        <path d="M123.5,120.77C120.84,121.6 118.13,122.29 115.5,123.29C110.77,125.303 105.626,126.153 100.5,125.77C100.17,125.55 100.07,125.33 100.17,125.1C100.27,124.87 100.39,124.77 100.5,124.77L102.5,124.77C104,123.59 106.01,125.01 107.5,123.77C114.14,123.07 120,120.31 125.7,117.04C127.23,116.17 128.89,115.53 130.49,114.78C129.84,118.74 126.42,119.46 123.5,120.77Z" style="fill:rgb(243,155,66);fill-rule:nonzero;"/>
    </g>
    <g transform="matrix(10.357,0,0,10.357,0,0)">
        <path d="M123.5,120.77L130.5,114.77L134.5,114.86L128.5,119.76C126.89,120.4 125.5,122.03 123.5,120.76L123.5,120.77Z" style="fill:rgb(243,153,61);fill-rule:nonzero;"/>
    </g>
    <g transform="matrix(10.357,0,0,10.357,0,0)">
        <path d="M94.51,125.77C90.75,125.62 86.81,126.52 83.51,123.77C84.392,123.092 85.628,123.092 86.51,123.77L87.51,123.77C89.34,125.08 91.66,123.52 93.51,124.77L94.51,124.77C94.84,124.99 94.95,125.21 94.84,125.44C94.73,125.67 94.62,125.77 94.51,125.77Z" style="fill:rgb(243,155,66);fill-rule:nonzero;"/>
    </g>
    <g transform="matrix(10.357,0,0,10.357,0,0)">
        <ellipse cx="97.51" cy="125.27" rx="4.24" ry="0.71" style="fill:rgb(243,156,68);"/>
    </g>
    <g transform="matrix(10.357,0,0,10.357,0,0)">
        <path d="M93.51,124.77L87.51,123.77L93.51,124.77Z" style="fill:rgb(243,156,68);fill-rule:nonzero;"/>
    </g>
    <g transform="matrix(10.357,0,0,10.357,0,0)">
        <path d="M107.51,123.77L102.51,124.77L107.51,123.77Z" style="fill:rgb(243,156,68);fill-rule:nonzero;"/>
    </g>
    <g transform="matrix(10.357,0,0,10.357,0,0)">
        <path d="M86.52,123.77L82.52,123.77C82.19,123.55 82.08,123.33 82.19,123.1C82.3,122.87 82.41,122.77 82.52,122.77L86.52,123.77Z" style="fill:rgb(243,156,68);fill-rule:nonzero;"/>
    </g>
    <g transform="matrix(10.357,0,0,10.357,0,0)">
        <path d="M77.52,121.77L76.52,121.77L76.14,121.27C76.27,121.11 76.39,120.94 76.52,120.77L79.52,121.77L79.12,122.18C78.552,122.327 77.947,122.172 77.52,121.77Z" style="fill:rgb(243,156,68);fill-rule:nonzero;"/>
    </g>
    <g transform="matrix(10.357,0,0,10.357,0,0)">
        <path d="M82.52,122.77L82.52,123.77L79.52,122.77C79.78,122.496 80.142,122.341 80.52,122.341C80.898,122.341 81.26,122.496 81.52,122.77L82.52,122.77Z" style="fill:rgb(243,155,66);fill-rule:nonzero;"/>
    </g>
    <g transform="matrix(10.357,0,0,10.357,0,0)">
        <path d="M103.51,122.77L106.51,121.77L103.51,122.77Z" style="fill:rgb(243,160,78);fill-rule:nonzero;"/>
    </g>
    <g transform="matrix(10.357,0,0,10.357,0,0)">
        <path d="M88.52,121.77L91.52,122.77L88.52,121.77Z" style="fill:rgb(243,160,78);fill-rule:nonzero;"/>
    </g>
    <g transform="matrix(10.357,0,0,10.357,0,0)">
        <path d="M81.52,122.77L79.52,122.77C79.19,122.55 79.09,122.33 79.19,122.11C79.29,121.89 79.41,121.77 79.52,121.77L81.52,122.77Z" style="fill:rgb(243,156,68);fill-rule:nonzero;"/>
    </g>
    <g transform="matrix(10.357,0,0,10.357,0,0)">
        <path d="M84.52,120.77C85.18,121.11 85.85,121.44 86.52,121.77C85.85,121.44 85.18,121.11 84.52,120.77Z" style="fill:rgb(243,160,78);fill-rule:nonzero;"/>
    </g>
    <g transform="matrix(10.357,0,0,10.357,0,0)">
        <path d="M80.52,119.77L82.52,120.77L80.52,119.77Z" style="fill:rgb(243,160,78);fill-rule:nonzero;"/>
    </g>
    <g transform="matrix(10.357,0,0,10.357,0,0)">
        <path d="M75.52,120.77L74.52,120.77C74.2,120.55 74.09,120.33 74.2,120.11C74.31,119.89 74.41,119.77 74.52,119.77L76.52,120.77C76.406,120.933 76.219,121.031 76.02,121.031C75.821,121.031 75.634,120.933 75.52,120.77Z" style="fill:rgb(243,156,68);fill-rule:nonzero;"/>
    </g>
    <g transform="matrix(10.357,0,0,10.357,0,0)">
        <path d="M78.52,118.77C78.85,119.11 79.19,119.44 79.52,119.77L78.52,118.77Z" style="fill:rgb(243,160,78);fill-rule:nonzero;"/>
    </g>
    <g transform="matrix(10.357,0,0,10.357,0,0)">
        <path d="M71.52,118.77L71.52,117.77L72.52,118.77L71.52,118.77Z" style="fill:rgb(243,156,68);fill-rule:nonzero;"/>
    </g>
    <g transform="matrix(10.357,0,0,10.357,0,0)">
        <path d="M73.52,116.77L74.52,117.77L73.52,116.77Z" style="fill:rgb(243,160,78);fill-rule:nonzero;"/>
    </g>
    <g transform="matrix(10.357,0,0,10.357,0,0)">
        <path d="M75.52,117.77L76.52,118.77L75.52,117.77Z" style="fill:rgb(243,160,78);fill-rule:nonzero;"/>
    </g>
    <g transform="matrix(10.357,0,0,10.357,0,0)">
        <path d="M77.61,43.72C77.553,43.417 77.526,43.109 77.53,42.8C78.505,42.785 79.47,42.599 80.38,42.25C86.494,38.338 93.815,36.751 101,37.78C102.159,37.86 103.321,37.86 104.48,37.78C106.43,38.59 108.62,38.69 110.48,39.78L110.48,41.78C100.23,38.056 88.826,39.16 79.48,44.78L77.61,43.72Z" style="fill:rgb(249,196,143);fill-rule:nonzero;"/>
    </g>
    <g transform="matrix(10.357,0,0,10.357,0,0)">
        <path d="M110.51,39.81L104.51,37.81L110.51,39.81Z" style="fill:rgb(248,193,138);fill-rule:nonzero;"/>
    </g>
    <g transform="matrix(10.357,0,0,10.357,0,0)">
        <path d="M127.5,54.8L126.5,52.8L127.5,54.8Z" style="fill:rgb(248,193,137);fill-rule:nonzero;"/>
    </g>
    <g transform="matrix(10.357,0,0,10.357,0,0)">
        <path d="M125.5,50.8L124.5,49.8L125.5,50.8Z" style="fill:rgb(248,193,137);fill-rule:nonzero;"/>
    </g>
    <g transform="matrix(10.357,0,0,10.357,0,0)">
        <path d="M63.54,22.83C63.543,22.546 63.597,22.265 63.7,22L65.53,21.81L63.54,22.83Z" style="fill:rgb(243,149,54);fill-rule:nonzero;"/>
    </g>
    <g transform="matrix(10.357,0,0,10.357,0,0)">
        <path d="M70.53,19.81L71.53,18.81L70.53,19.81Z" style="fill:rgb(242,147,47);fill-rule:nonzero;"/>
    </g>
    <g transform="matrix(10.357,0,0,10.357,0,0)">
        <path d="M72.52,15.83L71.52,16.83C71.52,16.528 71.55,16.226 71.61,15.93C71.909,15.866 72.214,15.833 72.52,15.83Z" style="fill:rgb(242,147,47);fill-rule:nonzero;"/>
    </g>
    <g transform="matrix(10.357,0,0,10.357,0,0)">
        <path d="M123.5,120.77L128.5,119.77C124.1,124.11 118.44,125.77 112.68,127.2C101.349,130.142 89.396,129.658 78.34,125.81C77.016,125.244 75.739,124.575 74.52,123.81C77.88,124.53 81.31,125.01 84.58,126.01C95.48,129.31 106.17,127.59 116.75,124.7C119.17,124 121.26,122.1 123.5,120.77Z" style="fill:rgb(243,151,57);fill-rule:nonzero;"/>
    </g>
    <g transform="matrix(10.357,0,0,10.357,0,0)">
        <path d="M58.53,114.77L62.53,115.77L62.53,117.77L61.53,117.77L59.53,116.77L58.53,114.77Z" style="fill:rgb(243,149,54);fill-rule:nonzero;"/>
    </g>
    <g transform="matrix(10.357,0,0,10.357,0,0)">
        <path d="M72.52,122.77L74.52,123.77L72.52,122.77Z" style="fill:rgb(243,151,57);fill-rule:nonzero;"/>
    </g>
    <g transform="matrix(10.357,0,0,10.357,0,0)">
        <path d="M70.52,121.77L72.52,122.77L70.52,121.77Z" style="fill:rgb(243,151,57);fill-rule:nonzero;"/>
    </g>
    <g transform="matrix(10.357,0,0,10.357,0,0)">
        <path d="M57.53,113.78L58.53,114.78L57.53,113.78Z" style="fill:rgb(243,149,54);fill-rule:nonzero;"/>
    </g>
    <g transform="matrix(10.357,0,0,10.357,0,0)">
        <path d="M79.52,121.77L79.52,122.77L77.52,121.77L79.52,121.77Z" style="fill:rgb(243,155,66);fill-rule:nonzero;"/>
    </g>
    <g transform="matrix(10.357,0,0,10.357,0,0)">
        <path d="M74.52,119.77L74.52,120.77L72.52,120.77C72.321,120.614 72.234,120.354 72.3,120.11C72.38,119.88 72.45,119.77 72.52,119.77L74.52,119.77Z" style="fill:rgb(243,155,66);fill-rule:nonzero;"/>
    </g>
    <g transform="matrix(10.357,0,0,10.357,0,0)">
        <path d="M72.52,119.77L72.52,120.77L71.52,119.77L72.52,119.77Z" style="fill:rgb(243,153,63);fill-rule:nonzero;"/>
    </g>
    <g transform="matrix(10.357,0,0,10.357,0,0)">
        <path d="M75.52,120.77L76.52,120.77L76.52,121.77L75.52,120.77Z" style="fill:rgb(243,155,66);fill-rule:nonzero;"/>
    </g>
    <g transform="matrix(10.357,0,0,10.357,0,0)">
        <path d="M32.21,169.76C34.31,171.36 34.27,173.29 33.74,175.76C31.83,184.58 30.24,193.48 28.48,202.33C27.57,206.86 26.71,211.41 25.53,215.87C24.867,218.258 23.878,220.543 22.59,222.66C20.11,226.8 16.04,228.66 11.46,229.44C9.14,229.75 6.8,229.89 4.46,229.86C3.567,229.863 2.687,229.643 1.9,229.22C-0.57,227.86 -0.64,224.67 1.9,223.44C3.326,222.769 4.896,222.46 6.47,222.54C9.366,222.828 12.164,221.33 13.53,218.76C15.394,215.426 16.631,211.779 17.18,208C19.28,197.1 21.31,186.19 23.18,175.25C23.62,172.72 24.59,170.9 26.82,169.73L32.21,169.76Z" style="fill:rgb(32,40,88);fill-rule:nonzero;"/>
    </g>
    <g transform="matrix(10.357,0,0,10.357,0,0)">
        <path d="M144,289.66C143.019,289.273 142.017,288.939 141,288.66C132.816,286.664 124.492,285.297 116.1,284.57C105.215,283.755 94.28,283.845 83.41,284.84C76.82,285.49 70.27,286.47 63.7,287.34C62.53,287.5 61.49,287.34 61.27,286.1C61.05,284.86 62.03,284.37 63.2,284.24C70.94,283.33 78.66,282.24 86.42,281.51C98.126,280.485 109.905,280.635 121.58,281.96C129.12,282.78 136.65,283.96 143.69,287.01C145.15,287.65 146.88,288.01 147.69,289.68L144,289.66Z" style="fill:rgb(240,141,36);fill-rule:nonzero;"/>
    </g>
    <g transform="matrix(10.357,0,0,10.357,0,0)">
        <path d="M218.06,230.1C216.06,229.91 214.06,229.76 212.13,229.49C211.383,229.367 210.667,229.103 210.02,228.71C208.17,227.61 207.31,225.13 208.14,223.53C208.97,221.93 211.14,221.44 213.14,222.08C214.606,222.667 216.118,223.132 217.66,223.47C221,223.96 224.29,223.83 227.13,221.62C230.84,218.73 230.79,214.21 226.92,211.62C224.92,210.22 222.64,209.1 220.54,207.78C219.053,206.893 217.639,205.889 216.31,204.78C213.036,202.22 211.865,197.757 213.46,193.92C215.143,189.073 218.932,185.239 223.76,183.5C228.503,181.71 233.647,181.257 238.63,182.19C239.106,182.274 239.572,182.408 240.02,182.59C241.731,183.13 242.743,184.927 242.32,186.67C241.762,188.379 240.008,189.423 238.24,189.1C237.37,188.893 236.517,188.619 235.69,188.28C232.15,187.07 228.75,187.16 225.69,189.49C221.63,192.55 221.69,197.49 225.82,200.44C228.31,202.17 230.96,203.67 233.58,205.2C240.05,208.98 240.7,214.52 237.53,220.42C234.72,225.63 230.06,228.42 224.34,229.42C222.25,229.82 220.17,229.89 218.06,230.1Z" style="fill:rgb(32,40,88);fill-rule:nonzero;"/>
    </g>
    <g transform="matrix(10.357,0,0,10.357,0,0)">
        <path d="M206.06,181.77C206.947,181.644 207.849,181.664 208.73,181.83C209.662,182.14 210.465,182.752 211.01,183.57C211.17,183.864 211.254,184.193 211.254,184.528C211.254,185.339 210.761,186.074 210.01,186.38C208.79,186.972 207.484,187.367 206.14,187.55C204.59,187.77 202.53,187.08 201.54,187.86C200.55,188.64 200.62,190.73 200.32,192.27C198.82,199.99 197.32,207.71 195.91,215.44C195.677,216.803 195.603,218.189 195.69,219.57C195.83,222.03 197.27,223.3 199.69,223.28C200.45,223.28 201.2,223.11 201.96,223.09C204.33,223.01 205.38,224.71 204.24,226.76C203.265,228.659 201.273,229.83 199.14,229.76C196.595,229.768 194.057,229.476 191.58,228.89C187.58,227.89 185.42,224.61 185.96,220.42C186.55,215.91 187.47,211.42 188.31,206.97C189.44,200.97 190.64,195.06 191.78,189.1C191.93,188.34 192.31,187.48 191.01,187.16C189.862,186.971 189.049,185.907 189.17,184.75C189.151,183.444 190.078,182.3 191.36,182.05C193.1,181.79 193.59,180.89 193.59,179.31C193.657,178.209 193.794,177.114 194,176.03C194.542,172.488 197.722,169.905 201.3,170.1C203.72,170.31 204.67,171.69 204.1,174.05C203.6,176.13 203.18,178.22 202.67,180.3C202.37,181.48 202.67,181.93 203.95,181.78C204.639,181.735 205.331,181.735 206.02,181.78L206.06,181.77Z" style="fill:rgb(32,40,88);fill-rule:nonzero;"/>
    </g>
    <g transform="matrix(10.357,0,0,10.357,0,0)">
        <path d="M92.42,181.73L97.81,181.73C99.71,181.73 100.93,182.48 101.18,183.82C101.404,185.33 100.381,186.768 98.88,187.05C97.002,187.456 95.079,187.617 93.16,187.53C91.74,187.53 91.16,187.77 90.87,189.29C89.28,197.96 87.53,206.6 85.87,215.29C85.637,216.721 85.573,218.174 85.68,219.62C85.81,222.06 87.25,223.33 89.74,223.31C90.49,223.31 91.25,223.11 92,223.1C94.35,223.05 95.39,224.75 94.25,226.78C93.214,228.723 91.139,229.895 88.94,229.78C86.398,229.77 83.867,229.454 81.4,228.84C77.611,227.878 75.198,224.078 75.94,220.24C76.62,215.68 77.5,211.15 78.36,206.61C79.48,200.72 80.67,194.85 81.81,188.96C81.95,188.25 82.28,187.48 81.1,187.2C79.934,187.056 79.06,186.034 79.1,184.86C79.054,183.478 80.062,182.266 81.43,182.06C83.34,181.84 83.43,180.61 83.59,179.23C83.71,178.13 83.85,177.04 83.99,175.94C84.595,172.329 87.936,169.771 91.58,170.13C93.75,170.44 94.58,171.78 94.13,173.92C93.6,176.46 93,179 92.42,181.73Z" style="fill:rgb(32,40,88);fill-rule:nonzero;"/>
    </g>
    <g transform="matrix(10.357,0,0,10.357,0,0)">
        <path d="M28.92,264.2C30.78,262.46 32.46,261.67 34.55,262.2C36.27,262.62 37.11,263.6 36.87,265.31C36.43,268.45 35.87,271.56 35.34,274.69C35.264,275.476 34.596,276.083 33.807,276.083C33.649,276.083 33.491,276.058 33.34,276.01C32.19,275.84 32.27,274.94 32.41,274.08C32.84,271.64 33.34,269.2 33.63,266.74C33.73,265.97 33.37,264.52 33.01,264.45C32.12,264.28 30.71,264.4 30.24,264.99C29.219,266.343 28.431,267.857 27.91,269.47C27.504,271.002 27.2,272.558 27,274.13C26.9,274.59 26.81,275.26 26.51,275.43C25.867,275.745 25.156,275.896 24.44,275.87C24.29,275.87 23.97,274.87 24.06,274.34C24.76,270.2 25.55,266.06 26.3,261.93C26.42,261.25 26.46,260.56 26.55,259.88C26.55,259.879 26.55,259.879 26.55,259.878C26.55,258.962 27.304,258.208 28.22,258.208C28.372,258.208 28.524,258.229 28.67,258.27C30,258.45 29.85,259.27 29.6,260.27C29.35,261.27 29.21,262.54 28.92,264.2Z" style="fill:rgb(32,40,88);fill-rule:nonzero;"/>
    </g>
    <g transform="matrix(10.357,0,0,10.357,0,0)">
        <path d="M94.87,273.76C95.39,271.05 95.81,268.81 96.24,266.58C96.33,266.11 96.69,265.53 96.53,265.19C95.64,263.28 96.85,261.83 97.53,260.3C97.807,259.626 98.304,259.066 98.94,258.71C99.112,258.6 99.313,258.541 99.517,258.541C100.104,258.541 100.587,259.024 100.587,259.611C100.587,259.748 100.561,259.883 100.51,260.01C100.2,261.21 100.32,261.87 101.7,262.01C101.98,262.01 102.47,262.66 102.42,262.76C102.19,263.19 101.77,263.85 101.42,263.83C99.67,263.71 99.42,264.83 99.21,266.15C98.9,268.15 98.51,270.09 98.21,272.06C97.99,273.3 98.21,274.26 99.76,274.36C100.08,274.36 100.66,274.82 100.63,274.97C100.56,275.38 100.22,276.05 99.97,276.05C98.63,276.192 97.275,276.094 95.97,275.76C95.36,275.53 95.12,274.25 94.87,273.76Z" style="fill:rgb(240,141,36);fill-rule:nonzero;"/>
    </g>
    <g transform="matrix(10.357,0,0,10.357,0,0)">
        <path d="M130,272.73L133.87,264.36C134.1,263.87 134.23,263.14 134.61,262.96C135.288,262.761 135.994,262.67 136.7,262.69C136.767,263.255 136.729,263.828 136.59,264.38C134.93,267.7 133.16,270.98 131.49,274.3C131.016,275.5 129.765,276.217 128.49,276.02C127.07,275.87 126.92,274.72 126.73,273.59C126.23,270.53 125.73,267.48 125.14,264.44C124.98,263.57 124.77,262.79 126.02,262.59C127.27,262.39 128.13,262.77 128.3,263.96C128.6,266.07 128.82,268.2 129.11,270.31C129.22,271.09 129.43,271.86 129.59,272.64L130,272.73Z" style="fill:rgb(240,141,36);fill-rule:nonzero;"/>
    </g>
    <g transform="matrix(10.357,0,0,10.357,0,0)">
        <path d="M20.52,276.42C17.67,276.36 16.67,275.15 17.13,272.55C17.54,270.31 18.01,268.09 18.45,265.86C18.61,265.01 19.11,264.13 18.16,263.4C18.054,263.237 18.024,263.036 18.08,262.85C19.44,262.07 19.15,260.41 19.96,259.4C20.34,258.94 21.27,258.93 21.96,258.71C22.1,259.32 22.47,259.99 22.32,260.52C21.97,261.71 22.17,262.19 23.49,262.13C23.83,262.13 24.2,262.59 24.55,262.83C24.18,263.18 23.77,263.83 23.45,263.83C21.51,263.58 21.4,264.83 21.19,266.2C20.85,268.31 20.36,270.39 20.03,272.49C19.88,273.4 19.92,274.38 21.27,274.38C21.89,274.38 22.71,274.26 22.55,275.17C22.47,275.63 21.8,276.04 21.32,276.35C21.05,276.5 20.63,276.41 20.52,276.42Z" style="fill:rgb(32,40,88);fill-rule:nonzero;"/>
    </g>
    <g transform="matrix(10.357,0,0,10.357,0,0)">
        <path d="M219.24,276.24C216.51,276.29 215.44,275.02 215.84,272.48C216.38,269.08 217,265.7 217.56,262.3C217.69,261.49 217.71,260.66 217.81,259.84C217.922,258.904 218.724,258.192 219.667,258.192C219.775,258.192 219.883,258.201 219.99,258.22C220.99,258.45 221.1,259.12 220.91,260.11C220.16,263.96 219.54,267.84 218.91,271.7C218.838,272.03 218.785,272.364 218.75,272.7C218.66,273.87 218.97,274.59 220.37,274.37C220.74,274.32 221.16,274.63 221.55,274.78C221.29,275.15 221.1,275.67 220.74,275.86C220.261,276.059 219.756,276.187 219.24,276.24Z" style="fill:rgb(32,40,88);fill-rule:nonzero;"/>
    </g>
    <g transform="matrix(10.357,0,0,10.357,0,0)">
        <path d="M105.79,262.47C105.92,262.47 106.37,262.47 106.54,262.72C107.37,263.72 108.08,263.22 108.84,262.66C109.096,262.427 109.411,262.269 109.75,262.2C110.17,262.2 110.75,262.27 110.95,262.53C111.103,262.96 111.059,263.436 110.83,263.83C110.586,264.168 110.232,264.411 109.83,264.52C107.02,265.4 106.24,267.71 105.76,270.23C105.51,271.58 105.34,272.95 105.19,274.32C105.07,275.47 104.5,276.12 103.34,276.11C102.18,276.1 101.66,275.76 101.93,274.46C102.48,271.83 102.93,269.18 103.39,266.53C103.52,265.79 103.52,265.03 103.58,264.27C103.68,263 104.3,262.44 105.79,262.47Z" style="fill:rgb(240,141,36);fill-rule:nonzero;"/>
    </g>
    <g transform="matrix(10.357,0,0,10.357,0,0)">
        <path d="M81.91,273.71C82.5,270.59 83.01,267.95 83.47,265.3C83.56,264.79 83.68,264.1 83.47,263.76C82.94,263.06 83.16,262.76 83.68,262.23C84.2,261.7 84.04,261.1 84.36,260.63C84.75,259.885 85.312,259.244 86,258.76C86.71,258.39 87.64,258.76 87.37,259.85C87.05,261.15 87.14,261.98 88.69,262.16C88.93,262.16 89.34,262.68 89.29,262.84C89.19,263.17 88.83,263.67 88.58,263.67C86.15,263.67 86.24,265.52 85.95,267.1C85.66,268.68 85.34,270.49 85.01,272.19C84.76,273.47 84.91,274.39 86.55,274.38C86.87,274.38 87.48,274.82 87.46,274.96C87.37,275.38 87.04,276.07 86.8,276.07C85.536,276.199 84.259,276.081 83.04,275.72C82.4,275.46 82.17,274.21 81.91,273.71Z" style="fill:rgb(240,141,36);fill-rule:nonzero;"/>
    </g>
    <g transform="matrix(10.357,0,0,10.357,0,0)">
        <path d="M149.68,272.07C149.95,270.37 150.35,268 150.68,265.62C150.95,263.85 151.23,262.08 151.42,260.3C151.52,259.38 151.79,258.72 152.75,258.46C154.22,258.07 154.89,258.63 154.64,260.12C153.973,264.047 153.27,267.977 152.53,271.91C152.17,273.86 152.21,273.91 154.11,274.33C154.44,274.41 154.72,274.74 155.03,274.95C154.74,275.29 154.51,275.81 154.14,275.95C151.41,277.05 149.52,275.69 149.68,272.07Z" style="fill:rgb(240,141,36);fill-rule:nonzero;"/>
    </g>
    <g transform="matrix(10.357,0,0,10.357,0,0)">
        <path d="M229.51,262.11C224.68,262.87 221.56,268.23 222.94,273.38C223.7,276.2 229.03,277.7 231.14,275.78C231.43,275.51 231.47,274.95 231.62,274.53C231.255,274.43 230.879,274.372 230.5,274.36C229.632,274.527 228.753,274.63 227.87,274.67C226.49,274.57 225.66,273.22 225.7,271.67C225.74,270.12 226.94,270.74 227.7,270.67C230.7,270.26 233.27,269.21 234.43,266.09L234.43,264.85C234.45,264.163 234.098,263.516 233.51,263.16C232.362,262.309 230.928,261.933 229.51,262.11ZM231,266.69C229.93,268.5 228.22,269.4 226,269.99C226.26,267.63 226.66,265.77 228.25,264.44C228.98,263.82 229.85,263.16 230.83,263.9C231.81,264.64 231.54,265.77 231,266.69Z" style="fill:rgb(32,40,88);fill-rule:nonzero;"/>
    </g>
    <g transform="matrix(10.357,0,0,10.357,0,0)">
        <path d="M142.39,192.88C142.12,187.78 139.56,183.65 134.22,182.36C127.95,180.84 122.43,182.45 118.22,187.54C116.84,189.21 115.72,191.09 114.4,192.98C114.8,191.04 115.21,189.23 115.55,187.4C115.96,185.16 115.1,183.74 112.85,183.34C111.626,183.217 110.391,183.265 109.18,183.48C106.27,183.78 105.05,184.94 105.04,187.85C105.04,194.11 103.6,200.18 102.46,206.26C99.96,219.61 97.15,232.9 94.46,246.26C94.118,247.42 94.558,248.677 95.55,249.37C97.352,250.609 99.66,250.864 101.69,250.05C103.69,249.38 104.56,247.71 104.87,245.61C105.64,240.5 106.58,235.41 107.4,230.3C107.59,229.14 108.16,228.83 109.22,229.14C109.549,229.224 109.883,229.284 110.22,229.32C117.22,230.32 123.85,229.15 129.36,224.59C139.27,216.37 143.06,205.41 142.39,192.88ZM127.68,216.56C124.41,222.21 119.31,224.72 113.3,223.68C112.963,223.625 112.629,223.552 112.3,223.46C108.9,222.46 108.78,222.36 109.5,218.99C110.5,214.14 111.5,209.27 112.79,204.48C113.809,200.09 115.949,196.037 119,192.72C120.248,191.443 121.719,190.406 123.34,189.66C124.131,189.256 125.006,189.045 125.894,189.045C128.355,189.045 130.543,190.665 131.26,193.02C131.737,194.655 132.072,196.328 132.26,198.02C131.9,205.24 130.81,211.17 127.68,216.56Z" style="fill:rgb(32,40,88);fill-rule:nonzero;"/>
    </g>
    <g transform="matrix(10.357,0,0,10.357,0,0)">
        <path d="M176.51,182.21C168.677,180.334 160.409,182.689 154.74,188.41C146.9,195.9 143.82,205.31 145.16,216.07C146.01,222.87 149.48,227.64 156.42,229.27C158.62,229.79 160.91,229.93 162.85,230.2C165.38,229.93 167.59,229.77 169.77,229.43C172.236,229.201 174.375,227.607 175.3,225.31C175.452,225.028 175.532,224.713 175.532,224.393C175.532,223.335 174.66,222.463 173.602,222.463C173.408,222.463 173.215,222.493 173.03,222.55C172.42,222.66 171.88,223.05 171.27,223.17C168.804,223.76 166.297,224.164 163.77,224.38C160.782,224.578 157.949,222.969 156.59,220.3C155.257,217.626 154.772,214.607 155.2,211.65C155.28,210.86 155.61,210.4 156.51,210.44C157.477,210.463 158.445,210.437 159.41,210.36C164.25,210.03 169.04,209.42 173.41,207.13C178.49,204.48 182.47,200.86 184.04,195.13C185.76,188.82 182.85,183.58 176.51,182.21ZM171.68,199.61C167.962,203.736 163.12,206.691 157.75,208.11C155.75,208.63 155.45,208.43 155.95,206.47C156.95,202.75 157.95,199.02 159.13,195.38C160.2,192.19 162.57,189.94 165.34,188.12C165.919,187.748 166.535,187.44 167.18,187.2C171.51,185.6 174.67,187.86 174.55,193.11C174.421,195.554 173.4,197.868 171.68,199.61Z" style="fill:rgb(32,40,88);fill-rule:nonzero;"/>
    </g>
    <g transform="matrix(10.357,0,0,10.357,0,0)">
        <path d="M65.82,182.19C58.406,180.397 50.566,182.464 45,187.68C35.74,196.11 32.42,206.75 35.21,219.03C36.222,223.983 40.066,227.898 45,229C47.44,229.65 50,229.85 52.43,230.25C55.17,229.86 57.79,229.6 60.35,229.09C62.372,228.721 64.037,227.272 64.68,225.32C64.926,224.665 64.875,223.934 64.54,223.32C63.895,222.87 63.126,222.632 62.34,222.64C61.91,222.64 61.45,223.01 60.99,223.1C58.46,223.744 55.881,224.176 53.28,224.39C48.96,224.45 46.14,222.06 45.12,217.86C44.773,216.247 44.605,214.6 44.62,212.95C44.62,210.51 44.62,210.52 47.11,210.43C52.23,210.24 57.33,209.79 62.03,207.53C67.44,204.92 71.8,201.33 73.45,195.2C75.16,188.75 72.29,183.58 65.82,182.19ZM61.33,199.32C57.572,203.609 52.621,206.684 47.11,208.15C45.11,208.66 45.05,208.52 45.4,206.45C45.973,202.293 47.174,198.247 48.96,194.45C50.534,191.175 53.278,188.605 56.65,187.25C60.65,185.64 63.98,187.86 64.04,192.4C63.967,194.951 63.008,197.398 61.33,199.32Z" style="fill:rgb(32,40,88);fill-rule:nonzero;"/>
    </g>
    <g transform="matrix(10.357,0,0,10.357,0,0)">
        <path d="M68.55,264.64C68.322,263.292 67.176,262.275 65.81,262.21C63.97,262.01 62.41,262.57 60.92,264.6C60.83,262.93 60.2,262.46 59,262.6C58.222,262.639 57.59,263.262 57.54,264.04C56.54,269.53 55.45,275.04 54.45,280.49C54.3,281.36 54.26,282.38 55.58,282.49C56.64,282.59 57.52,282.38 57.68,281.08C57.77,280.33 57.89,279.58 58.02,278.83C58.41,276.63 58.41,276.64 60.73,276.47C61.138,276.427 61.543,276.353 61.94,276.25C67,275.12 69.38,269.1 68.55,264.64ZM65.62,268.07C64.9,269.82 64.68,271.19 63.81,272.86C63.359,273.544 62.683,274.05 61.9,274.29C59.71,275.04 58.78,274.19 59.28,271.97C59.653,270.368 60.117,268.789 60.67,267.24C60.892,266.515 61.32,265.869 61.9,265.38C62.543,264.824 63.382,264.547 64.23,264.61C64.85,264.83 65.23,265.92 65.59,266.67C65.69,266.928 65.727,267.205 65.7,267.48C65.69,267.68 65.65,267.84 65.62,268.07Z" style="fill:rgb(240,141,36);fill-rule:nonzero;"/>
    </g>
    <g transform="matrix(10.357,0,0,10.357,0,0)">
        <path d="M174.57,264.41C174.259,263.158 173.149,262.257 171.86,262.21C169.983,261.969 168.117,262.772 167,264.3C167,263.24 166.73,262.49 165.47,262.54C164.21,262.59 163.82,263.04 163.62,264.24C162.74,269.61 161.76,274.97 160.76,280.32C160.59,281.25 160.27,282.12 161.52,282.48C162.58,282.79 163.41,282.21 163.7,280.9C163.925,279.963 164.082,279.01 164.17,278.05C164.27,276.74 164.67,276.05 166.17,276.33C166.993,276.395 167.82,276.289 168.6,276.02C173.55,274.69 175.59,268.07 174.57,264.41ZM170.5,272.12C170.002,273.364 168.912,274.278 167.6,274.55C165.71,274.99 164.81,274.2 165.2,272.36C165.53,270.81 165.95,269.28 166.42,267.77C166.658,267.116 166.995,266.502 167.42,265.95C168.13,264.95 168.98,264.04 170.34,264.45C171.7,264.86 171.74,266.16 172,267.45C171.49,269 171.11,270.6 170.5,272.12Z" style="fill:rgb(32,40,88);fill-rule:nonzero;"/>
    </g>
    <g transform="matrix(10.357,0,0,10.357,0,0)">
        <path d="M214.38,264.47C214.057,263.143 212.866,262.196 211.5,262.18C209.5,261.98 208.03,262.81 206.62,264.62C206.77,263.12 206.37,262.47 205.09,262.55C203.81,262.63 203.41,263.23 203.38,264.4C203.343,265.294 203.236,266.183 203.06,267.06C202.187,271.587 201.303,276.117 200.41,280.65C200.25,281.48 200.24,282.22 201.24,282.45C202.24,282.68 203.07,282.45 203.33,281.36C203.56,280.42 203.64,279.45 203.81,278.5C204.2,276.39 204.21,276.41 206.28,276.36C206.897,276.325 207.509,276.234 208.11,276.09C213.15,275 215.37,268.28 214.38,264.47ZM210.09,272.47C209.538,273.693 208.367,274.528 207.03,274.65C205.34,274.91 204.64,274.19 204.98,272.52C205.271,271.042 205.638,269.58 206.08,268.14C206.334,267.357 206.709,266.618 207.19,265.95C207.88,264.95 208.77,264.06 210.1,264.48C211.43,264.9 211.51,266.18 211.81,267.48C211.25,269.1 210.78,270.82 210.09,272.44L210.09,272.47Z" style="fill:rgb(32,40,88);fill-rule:nonzero;"/>
    </g>
    <g transform="matrix(10.357,0,0,10.357,0,0)">
        <path d="M122.1,262.44C120.95,262.28 119.79,262.16 118.51,262.01C116.602,262.053 114.783,262.835 113.44,264.19C111.537,266.214 110.362,268.815 110.1,271.58C109.84,273.31 110.18,274.91 111.86,275.87C113.357,276.839 115.335,276.674 116.65,275.47C117.43,274.82 117.91,274.78 118.71,275.55C119.91,276.7 121.22,276.11 121.44,274.46C121.59,273.37 121.64,272.26 121.83,271.18C122.22,268.94 122.7,266.72 123.1,264.49C123.26,263.6 123.44,262.62 122.1,262.44ZM119.61,266.44C119.489,267.531 119.282,268.611 118.99,269.67C118.75,270.535 118.415,271.37 117.99,272.16C117.21,273.65 115.86,274.36 114.67,273.98C113.09,273.48 113.36,272.1 113.21,270.35C113.511,269.059 113.926,267.798 114.45,266.58C114.964,265.615 115.75,264.822 116.71,264.3C117.592,263.966 118.562,263.942 119.46,264.23C119.72,264.25 119.69,265.64 119.61,266.4L119.61,266.44Z" style="fill:rgb(240,141,36);fill-rule:nonzero;"/>
    </g>
    <g transform="matrix(10.357,0,0,10.357,0,0)">
        <path d="M195.92,262.06C190.57,261.98 186.13,268.24 187.92,273.32C188.453,274.931 189.867,276.1 191.55,276.32C193.825,276.807 196.199,276.11 197.85,274.47C199.779,272.561 200.86,269.954 200.85,267.24C201,263.89 199.28,262.11 195.92,262.06ZM196.03,273.06C195.793,273.4 195.51,273.706 195.19,273.97C194.359,274.747 193.136,274.949 192.1,274.48C191.1,274.06 190.75,273.06 190.5,270.95C190.935,269.241 191.503,267.57 192.2,265.95C192.758,265.018 193.625,264.311 194.65,263.95C194.93,263.832 195.23,263.772 195.534,263.772C196.784,263.772 197.814,264.801 197.814,266.052C197.814,266.095 197.812,266.137 197.81,266.18C197.962,268.62 197.327,271.046 196,273.1L196.03,273.06Z" style="fill:rgb(32,40,88);fill-rule:nonzero;"/>
    </g>
    <g transform="matrix(10.357,0,0,10.357,0,0)">
        <path d="M148.71,264.06C148.12,262.64 146.8,261.95 144.79,262C140.47,262.11 137.24,265.66 137,270.56C136.76,275.46 140.88,278.12 145.21,276.14C145.63,275.94 145.88,275.36 146.21,274.96C145.792,274.728 145.353,274.534 144.9,274.38C144.403,274.361 143.906,274.405 143.42,274.51C143.16,274.528 142.9,274.528 142.64,274.51C141.359,274.483 140.319,273.422 140.319,272.141C140.319,272.124 140.32,272.107 140.32,272.09C140.25,270.51 141.39,270.59 142.44,270.56C144.404,270.556 146.271,269.689 147.54,268.19C148.51,267 149.4,265.74 148.71,264.06ZM145.56,266.18C144.93,268.31 142.93,269.02 141.16,269.9C141.02,269.97 140.62,269.5 140.43,269.36C140.97,267.16 141.21,265.15 143.19,264.19C143.78,263.91 144.93,263.71 145.19,264.01C145.622,264.645 145.757,265.438 145.56,266.18Z" style="fill:rgb(240,141,36);fill-rule:nonzero;"/>
    </g>
    <g transform="matrix(10.357,0,0,10.357,0,0)">
        <path d="M49.75,263.83C49.18,262.53 47.26,261.83 45.24,262.12C41.001,262.872 37.949,266.7 38.16,271C38.16,274.72 39.93,276.48 44.09,276.48C44.747,276.476 45.399,276.365 46.02,276.15C46.54,275.92 46.85,275.21 47.26,274.71C46.728,274.612 46.19,274.549 45.65,274.52C44.774,274.623 43.89,274.646 43.01,274.59C41.9,274.38 41.18,272.95 41.26,271.59C41.36,270.06 42.59,270.85 43.31,270.59C44.993,270.07 46.626,269.401 48.19,268.59C49.715,267.537 50.356,265.582 49.75,263.83ZM46.64,266.4C45.72,268.48 43.83,269.4 41.45,270.05C41.88,267.64 42.12,265.43 44.21,264.16C44.79,263.81 46.15,263.7 46.35,264C46.794,264.718 46.9,265.597 46.64,266.4Z" style="fill:rgb(32,40,88);fill-rule:nonzero;"/>
    </g>
    <g transform="matrix(10.357,0,0,10.357,0,0)">
        <path d="M180.87,270.6C182.885,270.435 184.779,269.567 186.22,268.15C188.22,266.03 187.86,263.15 185.48,262.35C184.623,262.085 183.72,262.003 182.83,262.11C178.7,262.61 175.45,266.7 175.61,271.11C175.74,274.72 177.47,276.43 181.06,276.59C182.003,276.455 182.933,276.241 183.84,275.95C184.24,275.8 184.42,275.14 184.71,274.71C184.255,274.568 183.785,274.478 183.31,274.44C182.56,274.44 181.8,274.73 181.07,274.68C179.6,274.56 178.81,273.38 178.8,271.74C178.79,270.1 180.1,270.71 180.87,270.6ZM180.13,265.93C180.538,265.153 181.154,264.505 181.91,264.06C182.538,263.74 183.282,263.74 183.91,264.06C184.351,264.626 184.493,265.372 184.29,266.06C183.49,268.45 181.42,269.29 179.29,270L178.85,269.6C179.192,268.349 179.619,267.122 180.13,265.93Z" style="fill:rgb(32,40,88);fill-rule:nonzero;"/>
    </g>
    <g transform="matrix(10.357,0,0,10.357,0,0)">
        <path d="M81.13,263.84C80.44,262.49 78.44,261.78 76.65,262.05C72.18,262.73 69.52,267.21 69.65,270.98C69.72,275.23 73.09,277.65 77.11,276.25C77.69,276.05 78.11,275.25 78.54,274.79C77.94,274.71 77.34,274.59 76.73,274.57C76.33,274.57 75.92,274.71 75.51,274.71C74.215,274.802 73.045,273.896 72.81,272.62C72.46,271.17 72.81,270.69 74.37,270.62C76.382,270.545 78.311,269.791 79.84,268.48C81.16,267.38 81.77,265.08 81.13,263.84ZM78,266.59C77.07,268.46 75.25,269.33 73,270C73.16,267.64 73.59,265.68 75.36,264.3C76.09,263.73 77.1,263.18 77.72,264.01C78.199,264.783 78.303,265.733 78,266.59Z" style="fill:rgb(240,141,36);fill-rule:nonzero;"/>
    </g>
</svg>
