<?xml version="1.0" encoding="UTF-8" standalone="no"?>
<!DOCTYPE svg PUBLIC "-//W3C//DTD SVG 1.1//EN" "http://www.w3.org/Graphics/SVG/1.1/DTD/svg11.dtd">
<svg width="100%" height="100%" viewBox="0 0 800 800" version="1.1" xmlns="http://www.w3.org/2000/svg" xmlns:xlink="http://www.w3.org/1999/xlink" xml:space="preserve" xmlns:serif="http://www.serif.com/" style="fill-rule:evenodd;clip-rule:evenodd;stroke-linejoin:round;stroke-miterlimit:2;">
    <g>
        <g transform="matrix(50,0,0,50,0,0)">
            <path d="M7.05,1.536C8.033,0.552 9.367,0 10.757,0C13.653,0 16,2.347 16,5.243C16,6.633 15.448,7.967 14.464,8.95L12.414,11L11,9.586L13.05,7.536C13.658,6.927 14,6.103 14,5.243C14,3.452 12.548,2 10.757,2C9.897,2 9.073,2.342 8.464,2.95L6.414,5L5,3.586L7.05,1.536Z" style="fill-rule:nonzero;"/>
        </g>
        <g transform="matrix(50,0,0,50,0,0)">
            <path d="M7.536,13.05L9.586,11L11,12.414L8.95,14.464C7.967,15.448 6.633,16 5.243,16C2.347,16 0,13.653 0,10.757C0,9.367 0.552,8.033 1.536,7.05L3.586,5L5,6.414L2.95,8.464C2.342,9.073 2,9.897 2,10.757C2,12.548 3.452,14 5.243,14C6.103,14 6.927,13.658 7.536,13.05Z" style="fill-rule:nonzero;"/>
        </g>
        <g transform="matrix(50,0,0,50,0,0)">
            <path d="M5.707,11.707L11.707,5.707L10.293,4.293L4.293,10.293L5.707,11.707Z" style="fill-rule:nonzero;"/>
        </g>
    </g>
</svg>
