<?xml version="1.0" encoding="UTF-8" standalone="no"?>
<!DOCTYPE svg PUBLIC "-//W3C//DTD SVG 1.1//EN" "http://www.w3.org/Graphics/SVG/1.1/DTD/svg11.dtd">
<svg width="100%" height="100%" viewBox="0 0 662 800" version="1.1" xmlns="http://www.w3.org/2000/svg" xmlns:xlink="http://www.w3.org/1999/xlink" xml:space="preserve" xmlns:serif="http://www.serif.com/" style="fill-rule:evenodd;clip-rule:evenodd;stroke-linejoin:round;stroke-miterlimit:2;">
    <g transform="matrix(1.5625,0,0,1.5625,-69.0003,-0.000631216)">
        <path d="M443.259,100.336C438.775,76.914 427.29,54.383 409.212,36.289C397.18,24.258 383.133,15.133 368.18,9.086C345.742,0.008 321.321,-2.258 297.883,2.242C274.445,6.773 251.945,18.226 233.852,36.289L139.696,130.461C127.665,142.508 118.508,156.57 112.462,171.477C103.368,193.93 101.087,218.383 105.634,241.774C106.634,246.805 107.931,251.79 109.509,256.618L166.04,200.134C168.962,190.15 174.243,180.853 182.165,172.9L276.274,78.759C282.618,72.478 289.758,67.821 297.43,64.743C308.93,60.055 321.68,58.852 333.774,61.196C345.868,63.555 357.321,69.352 366.743,78.759C373.056,85.072 377.681,92.243 380.821,99.931C385.462,111.415 386.665,124.134 384.29,136.244C381.946,148.369 376.165,159.807 366.743,169.228L272.634,263.4C266.29,269.634 259.15,274.291 251.478,277.416C249.462,278.244 247.478,278.869 245.431,279.51L188.884,336.057C209.009,342.588 230.4,343.885 251.056,339.885C274.447,335.369 296.994,323.916 315.04,305.807L409.212,211.698C421.243,199.635 430.4,185.589 436.447,170.635C445.556,148.195 447.821,123.773 443.259,100.336Z" style="fill-rule:nonzero;"/>
        <path d="M402.493,255.336L345.962,311.883C343.04,321.805 337.743,331.149 329.837,339.071L235.681,433.196C229.4,439.524 222.243,444.149 214.54,447.274C203.024,451.899 190.337,453.087 178.227,450.774C166.102,448.399 154.696,442.618 145.243,433.196C138.962,426.915 134.305,419.758 131.196,412.071C126.508,400.54 125.352,387.837 127.665,375.727C130.071,363.586 135.821,352.211 145.243,342.758L239.368,248.617C245.712,242.32 252.837,237.695 260.524,234.539C262.477,233.758 264.54,233.117 266.571,232.492L323.118,175.945C302.977,169.367 281.587,168.101 260.946,172.086C237.54,176.617 214.993,188.008 196.946,206.164L102.805,300.289C90.711,312.32 81.602,326.367 75.555,341.367C66.43,363.758 64.196,388.242 68.727,411.648C73.258,435.054 84.665,457.57 102.805,475.664C114.821,487.727 128.852,496.867 143.821,502.93C166.259,511.993 190.68,514.258 214.118,509.758C237.54,505.18 260.071,493.774 278.149,475.664L372.305,381.555C384.321,369.492 393.477,355.43 399.524,340.477C408.602,318.055 410.868,293.602 406.337,270.164C405.383,265.18 404.071,260.227 402.493,255.336Z" style="fill-rule:nonzero;"/>
    </g>
</svg>
