<?xml version="1.0" encoding="UTF-8" standalone="no"?>
<!DOCTYPE svg PUBLIC "-//W3C//DTD SVG 1.1//EN" "http://www.w3.org/Graphics/SVG/1.1/DTD/svg11.dtd">
<svg width="100%" height="100%" viewBox="0 0 800 800" version="1.1" xmlns="http://www.w3.org/2000/svg" xmlns:xlink="http://www.w3.org/1999/xlink" xml:space="preserve" xmlns:serif="http://www.serif.com/" style="fill-rule:evenodd;clip-rule:evenodd;stroke-linejoin:round;stroke-miterlimit:2;">
    <g transform="matrix(1.5625,0,0,1.5625,0,0)">
        <g>
            <g>
                <path d="M255.991,213.339C291.346,213.339 319.991,184.694 319.991,149.339C319.991,113.984 291.346,85.339 255.991,85.339C220.636,85.339 191.991,113.984 191.991,149.339C191.991,184.694 220.636,213.339 255.991,213.339ZM255.991,128.006C267.782,128.006 277.324,137.548 277.324,149.339C277.324,161.13 267.782,170.672 255.991,170.672C244.2,170.672 234.658,161.13 234.658,149.339C234.658,137.548 244.2,128.006 255.991,128.006Z" style="fill:rgb(64,64,64);fill-rule:nonzero;"/>
                <path d="M228.229,397.518L236.91,414.88C244.773,430.606 267.215,430.603 275.074,414.876L293.463,378.076C311.929,341.174 329.402,312.055 369.226,249.457L370.262,247.828C376.114,238.629 378.943,234.177 382.304,228.867C397.26,205.244 405.324,177.875 405.324,149.34C405.324,60.308 327.974,-9.181 238.538,0.997C171.99,8.588 117.35,61.832 108.14,128.122C102.629,167.805 112.744,206.516 135.666,237.639C166.5,279.435 190.243,321.574 228.229,397.518ZM150.402,133.992C156.93,87.003 196.162,48.774 243.369,43.389C307.424,36.099 362.658,85.719 362.658,149.34C362.658,169.73 356.923,189.195 346.255,206.046C342.915,211.322 340.1,215.754 334.264,224.926L333.228,226.555C293.08,289.664 275.044,319.677 255.948,357.707C222.752,292.344 199.677,252.538 170.013,212.324C153.636,190.087 146.437,162.538 150.402,133.992Z" style="fill:rgb(64,64,64);fill-rule:nonzero;"/>
                <path d="M388.88,313.04C377.416,310.321 365.919,317.411 363.2,328.875C360.481,340.339 367.571,351.837 379.035,354.555C436.247,368.122 469.333,389.829 469.333,405.328C469.333,434.806 374.384,469.328 256,469.328C137.602,469.328 42.667,434.81 42.667,405.328C42.667,389.82 75.72,368.119 132.903,354.555C144.367,351.836 151.456,340.338 148.737,328.874C146.018,317.41 134.52,310.321 123.056,313.041C48.205,330.796 0,362.445 0,405.329C0,470.133 115.134,511.996 256,511.996C396.853,511.996 512,470.131 512,405.329C512,362.444 463.765,330.798 388.88,313.04Z" style="fill:rgb(64,64,64);fill-rule:nonzero;"/>
            </g>
        </g>
    </g>
</svg>
