<?xml version="1.0" encoding="UTF-8" standalone="no"?>
<!DOCTYPE svg PUBLIC "-//W3C//DTD SVG 1.1//EN" "http://www.w3.org/Graphics/SVG/1.1/DTD/svg11.dtd">
<svg width="100%" height="100%" viewBox="0 0 800 800" version="1.1" xmlns="http://www.w3.org/2000/svg" xmlns:xlink="http://www.w3.org/1999/xlink" xml:space="preserve" xmlns:serif="http://www.serif.com/" style="fill-rule:evenodd;clip-rule:evenodd;stroke-linejoin:round;stroke-miterlimit:2;">
    <g transform="matrix(1.56247,0,0,1.56247,0,-1.56247)">
        <g>
            <g>
                <path d="M388.89,314.055C377.455,311.282 365.935,318.428 363.226,329.884C360.495,341.34 367.599,352.839 379.055,355.548C445.316,371.271 469.338,394.524 469.338,406.343C469.338,431.836 384.261,470.343 256.005,470.343C127.77,470.343 42.672,431.836 42.672,406.343C42.672,394.524 66.715,371.271 132.933,355.548C144.41,352.839 151.493,341.34 148.762,329.884C146.053,318.428 134.533,311.281 123.098,314.055C43.717,332.871 0.005,365.639 0.005,406.343C0.005,476.359 128.816,513.01 256.005,513.01C383.216,513.01 512.005,476.359 512.005,406.343C512.005,365.639 468.293,332.871 388.89,314.055Z" style="fill:rgb(64,64,64);fill-rule:nonzero;"/>
                <path d="M256.015,171.681C267.791,171.681 277.348,162.124 277.348,150.348C277.348,138.572 267.791,129.015 256.015,129.015C244.239,129.015 234.682,138.572 234.682,150.348C234.682,162.124 244.239,171.681 256.015,171.681Z" style="fill:rgb(64,64,64);fill-rule:nonzero;"/>
                <path d="M228.239,398.518L236.922,415.883C240.549,423.115 247.93,427.68 256.015,427.68C264.1,427.68 271.482,423.115 275.108,415.883L293.497,379.104C315.876,334.325 343.481,290.955 370.169,249.013L382.329,229.877C397.39,206.069 405.348,178.57 405.348,150.346C405.348,107.85 387.151,67.231 355.428,38.901C323.727,10.592 281.082,-2.975 238.565,2.017C172.175,9.569 117.349,63.03 108.154,129.121C102.714,168.289 112.506,207.18 135.695,238.668C171.877,287.691 200.122,342.241 228.239,398.518ZM256.015,86.347C291.3,86.347 320.015,115.062 320.015,150.347C320.015,185.632 291.3,214.347 256.015,214.347C220.73,214.347 192.015,185.632 192.015,150.347C192.015,115.062 220.73,86.347 256.015,86.347Z" style="fill:rgb(64,64,64);fill-rule:nonzero;"/>
            </g>
        </g>
    </g>
</svg>
