<svg id="Layer_1" data-name="Layer 1" xmlns="http://www.w3.org/2000/svg" viewBox="0 0 1537.88 212.77"><defs><style>.cls-1,.cls-2{fill:#e0ccbe;}.cls-2{stroke:#e0ccbe;stroke-miterlimit:10;stroke-width:4px;}</style></defs><path class="cls-1" d="M98,93.85c11.37-6.52,23.16-5.57,35.12-2.14a48.18,48.18,0,0,1,18.42,9.89c6.31,5.44,13.25,9,21.89,9a35.94,35.94,0,0,1,10,1.81c16.3,4.79,20.52,24.39,16.76,34.8-5.84,16.18-16.84,25.29-34.12,26.21-13.69.73-24.8,6.29-33.42,16.9-2.07,2.54-4.08,5.14-6.25,7.59-5.67,6.41-12.42,11.28-21.13,12.13a46,46,0,0,1-19.67-2.88c-4.63-1.63-9.34-3.29-13.15-6.5-9.29-7.83-12-15.39-7-26.25,1.72-3.72,3.56-7.38,5.46-11,3.61-6.93,4.84-14.3,4.7-22.06-.17-8.91.5-17.64,3.9-26.17A42.89,42.89,0,0,1,98,93.85Z"/><path class="cls-1" d="M86.1,53.94a44.2,44.2,0,0,1-1.53-33.21c5-14,17.66-19.36,31.47-14,16.44,6.39,27.59,24.05,25.94,41.08C140.29,65.14,124.57,77.57,108.64,74,98.82,71.77,92.21,65.43,86.1,53.94Z"/><path class="cls-1" d="M209.62,52.89c4.59,8.54,7.61,18.35,4,29.29C209.47,95,195.29,105,182.13,104.13c-8.16-.56-14-5-18.13-11.72-9.46-15.22-5.64-40.52,7.77-52.4,8.7-7.7,20.35-7.47,28.9.67C204.09,43.93,206.73,47.8,209.62,52.89Z"/><path class="cls-1" d="M73.15,62.67c7.62,14,6.18,27.08-4.13,36.94-10.11,9.66-21.61,10.08-33.23,1.85S17.85,81.25,17.16,66.82A23.87,23.87,0,0,1,49.92,43C60,47.13,67.93,53.12,73.15,62.67Z"/><path class="cls-1" d="M58.46,141.49c8.77,15.67,1,36.19-16.09,40.44-9.16,2.29-18.29-.24-25.85-6C6.31,168.15.84,157.46.05,144.66-.64,133.59,6.31,125,17.21,122.73,29.59,120.1,51.83,127.46,58.46,141.49Z"/><path class="cls-2" d="M241.64,203.38v-7.76q0-3.76,3.89-3.76h.25q18.66,0,18.66-24.42V54.73q0-24.43-18.66-24.43h-.25q-3.89,0-3.89-3.88V18.78q0-3.88,3.89-3.88h77.89A5.14,5.14,0,0,1,326.74,16a3.44,3.44,0,0,1,1.32,2.82v7.64c0,1.17-.81,2.11-2.44,2.82a11.76,11.76,0,0,1-4.7,1.06H305.39V164.69q0,23.67,17.66,24.29h9.89q5.52,0,9.4-.31a83.1,83.1,0,0,0,9.45-1.44,35.12,35.12,0,0,0,10.27-3.76,94.54,94.54,0,0,0,10.15-6.7,64.09,64.09,0,0,0,11-10.77,132.4,132.4,0,0,0,10.9-15.59l.88-1.38c.91-1.5,2-2.25,3.13-2.25a4,4,0,0,1,2.25.75l8.14,4.76c1.42.92,2.13,2,2.13,3.13a3.74,3.74,0,0,1-.63,2.25l-24,50.85a3.3,3.3,0,0,1-3.13,2.25,3.79,3.79,0,0,1-2.26-1l-1.5-1.25c-1-.84-2.63-1.25-4.88-1.25H245.53Q241.65,207.27,241.64,203.38Z"/><path class="cls-2" d="M422.24,142.45a84.06,84.06,0,0,1,3.57-25.26,58.53,58.53,0,0,1,9.51-18.88,55.63,55.63,0,0,1,14-12.63,59.62,59.62,0,0,1,16.85-7.39A72.22,72.22,0,0,1,484.52,76a50.49,50.49,0,0,1,18.37,3.34A49.55,49.55,0,0,1,517.65,88a59.62,59.62,0,0,1,10.53,11.93,55,55,0,0,1,6.6,13.32A41,41,0,0,1,537,125.89a3.41,3.41,0,0,1-2.12,3.28l-74,32.88A48.48,48.48,0,0,0,475.47,182q9.79,7.89,23.66,7.9a34.59,34.59,0,0,0,17.3-5A45.35,45.35,0,0,0,531.61,170a2.35,2.35,0,0,1,2.11-1.18q1.75,0,10.27,5a2.18,2.18,0,0,1,1,2,11,11,0,0,1-1.62,4.51q-16.12,29.94-51.1,29.93-21,0-37.18-9.31a62.92,62.92,0,0,1-24.51-24.66A69.72,69.72,0,0,1,422.24,142.45Zm39.37-37.61q-6.32,8.4-6.31,21.3t2.37,19.72l41.09-21q0-12.27-5.81-20.36t-14.67-8.09A19.82,19.82,0,0,0,461.61,104.84Z"/><path class="cls-2" d="M540.46,38.32V29.68a2.54,2.54,0,0,1,.81-2.13,9.38,9.38,0,0,1,2.93-1.25q28.42-9.53,48.22-23.8a2.52,2.52,0,0,1,1.14-.5h.5a.33.33,0,0,1,.38.38V88q3.38-5.39,11.94-9a49,49,0,0,1,19.06-3.57,67.18,67.18,0,0,1,17.11,2.22,58.12,58.12,0,0,1,16.67,7.45,57.25,57.25,0,0,1,24.58,32.47,85,85,0,0,1,3.82,26.21q0,29.67-18.18,48t-49.13,18.37a94.36,94.36,0,0,1-19.6-1.92,60.69,60.69,0,0,1-17-6.3,46.87,46.87,0,0,1-13.44-11,48.87,48.87,0,0,1-8.73-16.39,70.42,70.42,0,0,1-3.21-22V71.26a102.66,102.66,0,0,0-.43-10.4,50.34,50.34,0,0,0-1.79-8.76,14.31,14.31,0,0,0-4.57-7.27,15,15,0,0,0-8.15-3.13C541.28,41.45,540.3,40.32,540.46,38.32Zm54,119.75q0,18,8.31,27.41t20.31,9.39a32.21,32.21,0,0,0,12.75-2.41,24.31,24.31,0,0,0,9.06-6.41,34.1,34.1,0,0,0,5.69-9.58A50.21,50.21,0,0,0,653.68,165a87.65,87.65,0,0,0,.88-12.75q0-25.26-10.63-39.65t-30-14.41a32.66,32.66,0,0,0-19.5,6.6Z"/><path class="cls-2" d="M702.77,142.45a83.74,83.74,0,0,1,3.58-25.26,58.52,58.52,0,0,1,9.5-18.88,55.5,55.5,0,0,1,14-12.63,59.57,59.57,0,0,1,16.84-7.39A72.3,72.3,0,0,1,765.06,76a50.53,50.53,0,0,1,18.37,3.34A49.55,49.55,0,0,1,798.19,88a59.57,59.57,0,0,1,10.52,11.93,54.29,54.29,0,0,1,6.6,13.32,41,41,0,0,1,2.18,12.63,3.39,3.39,0,0,1-2.12,3.28l-74,32.88A48.65,48.65,0,0,0,756,182q9.81,7.89,23.67,7.9a34.56,34.56,0,0,0,17.29-5A45.17,45.17,0,0,0,812.14,170a2.37,2.37,0,0,1,2.12-1.18q1.75,0,10.27,5a2.2,2.2,0,0,1,1,2,11,11,0,0,1-1.63,4.51q-16.11,29.94-51.1,29.93-21,0-37.18-9.31a62.92,62.92,0,0,1-24.51-24.66A69.72,69.72,0,0,1,702.77,142.45Zm39.37-37.61q-6.3,8.4-6.3,21.3t2.37,19.72l41.08-21q0-12.27-5.8-20.36t-14.68-8.09A19.82,19.82,0,0,0,742.14,104.84Z"/><path class="cls-2" d="M831,203.26v-7.64q0-3.88,3.75-3.88,9.15-.13,14-6.89,4.63-6.51,4.63-16.53V71.26a102.66,102.66,0,0,0-.43-10.4,49.64,49.64,0,0,0-1.82-8.76,14.27,14.27,0,0,0-4.63-7.27,15.33,15.33,0,0,0-8.27-3.13q-3.25-.37-3-3.38V29.68a2.51,2.51,0,0,1,.81-2.13,9.28,9.28,0,0,1,2.82-1.25q28.55-9.53,48.21-23.8a2.5,2.5,0,0,1,1.13-.5h.63a.72.72,0,0,1,.62.38V167.31q0,10.91,4.89,17.66t13.9,6.77q3.88,0,3.88,3.88v7.64q0,3.88-3.88,3.88H834.77Q831,207.14,831,203.26Z"/><path class="cls-2" d="M919.94,203.26v-7.64q0-3.88,3.75-3.88,9.15-.13,14-6.89,4.63-6.51,4.63-16.53V71.26a102.66,102.66,0,0,0-.43-10.4,49.64,49.64,0,0,0-1.82-8.76,14.27,14.27,0,0,0-4.63-7.27,15.36,15.36,0,0,0-8.27-3.13q-3.26-.37-3-3.38V29.68a2.51,2.51,0,0,1,.81-2.13,9.28,9.28,0,0,1,2.82-1.25Q956.38,16.77,976,2.5a2.46,2.46,0,0,1,1.13-.5h.63a.72.72,0,0,1,.62.38V167.31q0,10.91,4.89,17.66t13.9,6.77q3.88,0,3.88,3.88v7.64q0,3.88-3.88,3.88H923.69Q919.94,207.14,919.94,203.26Z"/><path class="cls-2" d="M1006.73,142.45a84.06,84.06,0,0,1,3.57-25.26,58.33,58.33,0,0,1,9.51-18.88,55.46,55.46,0,0,1,14-12.63,59.62,59.62,0,0,1,16.85-7.39A72.22,72.22,0,0,1,1069,76a50.49,50.49,0,0,1,18.37,3.34A49.55,49.55,0,0,1,1102.14,88a59.62,59.62,0,0,1,10.53,11.93,55,55,0,0,1,6.6,13.32,41,41,0,0,1,2.18,12.63,3.41,3.41,0,0,1-2.12,3.28l-74,32.88A48.48,48.48,0,0,0,1060,182q9.8,7.89,23.66,7.9a34.59,34.59,0,0,0,17.3-5A45.35,45.35,0,0,0,1116.1,170a2.35,2.35,0,0,1,2.11-1.18q1.76,0,10.27,5a2.18,2.18,0,0,1,1,2,10.86,10.86,0,0,1-1.63,4.51q-16.11,29.94-51.09,29.93-21,0-37.18-9.31a62.92,62.92,0,0,1-24.51-24.66A69.72,69.72,0,0,1,1006.73,142.45Zm39.37-37.61q-6.31,8.4-6.31,21.3t2.37,19.72l41.09-21q0-12.27-5.81-20.36t-14.67-8.09A19.82,19.82,0,0,0,1046.1,104.84Z"/><path class="cls-2" d="M1128.08,90.42V82.78q0-3.89,3.89-3.88h18.53V61.74a4.93,4.93,0,0,1,2.38-4.64,185.81,185.81,0,0,0,31.44-21.16,1.7,1.7,0,0,1,1.12-.63h.38c.41,0,.62.13.62.38V78.9h34.32c2.59,0,3.88,1.4,3.88,4.22v12c0,2.82-1.29,4.22-3.88,4.22h-34.19v71.44q0,17,10.64,17,6.51,0,18.29-6.71l.25-.24a4.27,4.27,0,0,1,2.25-.69,3.8,3.8,0,0,1,3,2l4.13,6.52a4,4,0,0,1,.75,2.25,3.78,3.78,0,0,1-2,3l-7.64,4.88q-18.91,11.66-35.94,11.65a31.86,31.86,0,0,1-11.4-2,25.77,25.77,0,0,1-9.39-6.36q-4.26-4.41-6.64-12.33a66.53,66.53,0,0,1-2.38-19V124.47c0-2.76,0-4.86-.06-6.28s-.17-3.39-.38-5.89a26.26,26.26,0,0,0-1-5.83,38.69,38.69,0,0,0-2-4.72,10.51,10.51,0,0,0-3.26-4,20.21,20.21,0,0,0-5-2.39,21.08,21.08,0,0,0-6.88-1Q1128.09,94.3,1128.08,90.42Z"/><path class="cls-2" d="M1231,203.26v-11a3.73,3.73,0,0,1,1-2.76l80.53-94-24.42,1.12q-13.16.63-22.29,5.89t-16.16,16.28l-1.25,1.76a3.37,3.37,0,0,1-3,2.12,3.88,3.88,0,0,1-2.13-.75l-8.76-5a3.67,3.67,0,0,1-2-2.12l-.12-.88a3.8,3.8,0,0,1,.62-2.26l21.17-33.69a4,4,0,0,1,3.38-2.25,2.62,2.62,0,0,1,1.88.88l1.13,1.12q1.13,1.26,4.75,1.26H1360c2.25,0,3.38.75,3.38,2.25a3.84,3.84,0,0,1-1.13,2.54l-90.17,108.05,19.91-.67q19.29-.66,27.8-2.66,20.92-4.78,29.68-20.76l.76-1.46a3.45,3.45,0,0,1,3.13-2.13,3.6,3.6,0,0,1,2.13.72l8,5.38a4,4,0,0,1,2,3.48,3.89,3.89,0,0,1-.63,2.18L1345,208.47a3.64,3.64,0,0,1-3.13,2.05,4,4,0,0,1-2.13-.87l-1.38-1.26a7.41,7.41,0,0,0-4.76-1.25h-98.69Q1231,207.14,1231,203.26Z"/><path class="cls-2" d="M1372.17,90.54V82.78q0-3.77,3.89-3.76l.62-.12h51.6q3.77,0,3.76,3.88v82.66c0,1.33.12,3.19.37,5.57a27.79,27.79,0,0,0,1,5.45,27.38,27.38,0,0,0,2,4.38,10.81,10.81,0,0,0,3.31,3.82,18.81,18.81,0,0,0,4.94,2.26,23.12,23.12,0,0,0,6.87.93q9.24,0,18.48-6.7t12.62-15.09V118.72q0-10.89-4.88-17.66t-13.9-6.76h-.63c-2.5,0-3.76-1.25-3.76-3.76V82.78c0-2.42,1.3-3.72,3.89-3.88h51.47q3.89,0,3.88,3.88v72.39a102.06,102.06,0,0,0,.44,10.39,48.67,48.67,0,0,0,1.82,8.77,14.18,14.18,0,0,0,4.63,7.26,15.14,15.14,0,0,0,8.27,3.13q3.26.38,3,3.38v8.65q0,3.38-3.76,3.38a122,122,0,0,0-21.29,1.69,92,92,0,0,0-13.65,3.19q-4.12,1.5-12.15,5a4.73,4.73,0,0,1-2.13.5h-.62c-.25,0-.38-.29-.38-.87l4-32.32a68.68,68.68,0,0,1-7,11.34,74.91,74.91,0,0,1-9.87,10.58,44.94,44.94,0,0,1-13.37,8.2,42.32,42.32,0,0,1-16,3.07,54.87,54.87,0,0,1-18.65-2.88,35.51,35.51,0,0,1-12.68-7.39A33.05,33.05,0,0,1,1400.8,189a55.86,55.86,0,0,1-3.83-13.33,98.39,98.39,0,0,1-1-14.66V118.72q0-10.89-4.86-17.66t-13.95-6.76H1376Q1372.17,94.3,1372.17,90.54Z"/></svg>