<?xml version="1.0" encoding="UTF-8" standalone="no"?>
<!DOCTYPE svg PUBLIC "-//W3C//DTD SVG 1.1//EN" "http://www.w3.org/Graphics/SVG/1.1/DTD/svg11.dtd">
<svg width="100%" height="100%" viewBox="0 0 3000 3000" version="1.1" xmlns="http://www.w3.org/2000/svg" xmlns:xlink="http://www.w3.org/1999/xlink" xml:space="preserve" xmlns:serif="http://www.serif.com/" style="fill-rule:evenodd;clip-rule:evenodd;stroke-linejoin:round;stroke-miterlimit:2;">
    <g transform="matrix(3.1185,0,0,3.1185,0,0)">
        <circle cx="481" cy="481" r="481" style="fill:rgb(110,25,23);"/>
    </g>
    <g transform="matrix(3.1185,0,0,3.1185,0,0)">
        <path d="M153,481C151.44,300.92 298.16,157.73 470.52,153.13C657.26,148.13 806.22,300.53 806.77,479.13C807.33,659.76 661.41,804.46 488.62,808.65C302.1,813.12 151.26,661.24 153,481Z" style="fill:white;fill-rule:nonzero;"/>
    </g>
    <g transform="matrix(3.1185,0,0,3.1185,0,0)">
        <path d="M360.1,83C357.91,85.08 358.23,87.14 358.26,89C358.41,97.87 356.26,106.54 356.02,115.37C356.02,116.91 355.46,118.59 353.68,118.77C351.1,119.04 349,120.36 346.68,121.3C342.82,122.87 339.68,122.67 336.62,118.96C331.54,112.82 325.81,107.2 320.28,101.43C319.2,100.3 318.43,98.57 316.21,98.62C315.75,101.77 317.77,104.29 318.67,106.92C323,119.54 327.8,132 332.49,144.5C333.37,146.83 332.86,148.38 330.49,149.23C325.84,150.9 321.22,152.67 316.49,154.14C313.63,155.04 311.63,155.02 310.27,151.01C305.01,135.58 298.93,120.43 293.5,105.01C290.21,95.68 286.86,86.37 283.34,77.13C282.12,73.92 282.12,70.87 286.23,69.49C292.16,67.49 298.12,65.58 303.96,63.36C307.01,62.2 308.88,63.27 310.9,65.41C319.71,74.73 328.65,83.93 337.54,93.18C338.1,93.76 338.54,94.55 339.66,94.51C341.52,93.57 340.91,91.7 340.84,90.2C340.18,77.31 343.95,64.74 343.52,51.86C343.37,47.25 348,47.2 350.66,46.2C354.8,44.64 359.08,43.34 363.18,41.6C367.89,39.6 369.63,40.33 371.51,45.02C377.03,58.77 381.79,72.78 386.73,86.73C390.46,97.26 394.57,107.65 398.51,118.1C399.68,121.23 399.72,123.89 395.89,125.25C390.61,127.14 385.4,129.25 380.1,131.04C379.793,131.159 379.466,131.22 379.137,131.22C377.905,131.22 376.826,130.368 376.54,129.17C374.02,122.17 371.44,115.24 368.95,108.26C366.09,100.07 363.23,91.85 360.1,83Z" style="fill:white;fill-rule:nonzero;"/>
    </g>
    <g transform="matrix(3.1185,0,0,3.1185,0,0)">
        <path d="M586.56,79.86C586.74,81.57 588.33,82.16 589.49,82.92C602.93,91.72 600.31,110.26 590.49,118.76C581.4,126.58 570.63,128.3 559.17,125.32C553.56,123.86 547.81,123.07 542.17,122.04C536.01,120.91 530.04,118.86 523.65,118.48C518.1,118.14 517.28,115.66 518.76,110.14C520.64,103.14 521.5,95.86 523.21,88.82C524.74,82.54 524.91,76.02 527.08,69.87C528.68,65.34 529.22,60.42 529.84,55.79C530.69,49.36 533.42,43.31 533.28,36.79C533.355,34.944 533.925,33.151 534.93,31.6C535.51,30.6 536.26,29.68 537.7,29.94C545.5,31.37 553.32,32.71 561.11,34.25C567.26,35.46 573.41,36.73 579.48,38.31C587.85,40.49 595.3,43.9 599.35,52.5C604.02,62.43 597.72,74.8 588.69,78.68C587.9,78.94 587,78.86 586.56,79.86Z" style="fill:white;fill-rule:nonzero;"/>
    </g>
    <g transform="matrix(3.1185,0,0,3.1185,0,0)">
        <path d="M414.34,43C414.06,30.84 414.06,30.89 424.54,30.6C435.02,30.31 445.32,27.6 455.86,28.33C469.38,29.33 482.04,32.55 491.17,43.6C500.17,54.44 502.69,67.01 500.76,80.77C499.02,93.15 492.87,102.77 482.76,109.87C477.32,113.68 471.14,115.45 464.56,116.96C450.89,120.12 436.97,117.85 423.34,120.07C420.5,120.53 419.34,119.26 419.24,116.56C418.94,101.42 416.24,86.43 416.72,71.23C417.07,61.23 414.17,51.44 414.34,43Z" style="fill:white;fill-rule:nonzero;"/>
    </g>
    <g transform="matrix(3.1185,0,0,3.1185,0,0)">
        <path d="M689.22,87.39C686.29,101.78 687.69,116.61 684.53,130.97C684.128,132.943 683.993,134.961 684.13,136.97C684.68,147.68 681.19,158.05 681.46,168.75C681.54,171.69 680.05,172.52 677.23,171.11C672.52,168.75 667.67,166.66 662.93,164.37C660.18,163.05 658.66,161.11 658.93,157.69C659.1,154.038 659.5,150.401 660.13,146.8C660.61,144.38 659.96,142.86 657.45,141.72C649.76,138.25 642.16,134.56 634.65,130.72C632.76,129.72 631.65,129.99 630.34,131.38C627.58,134.25 624.59,136.93 621.93,139.9C619.77,142.32 617.56,142.5 614.84,141.1C610.59,138.91 606.3,136.8 602.01,134.7C597.72,132.6 597.57,131.7 600.9,128.44C610.9,118.7 620.94,108.983 631.02,99.29C641.3,89.36 651.66,79.5 661.87,69.5C664.35,67.06 666.27,65.72 669.87,67.98C674.793,70.997 679.993,73.535 685.4,75.56C688.82,76.86 689.56,78.79 689.24,81.94C689.07,83.72 689.22,85.56 689.22,87.39Z" style="fill:white;fill-rule:nonzero;"/>
    </g>
    <g transform="matrix(3.1185,0,0,3.1185,0,0)">
        <path d="M359.7,856.27C356.84,861.6 354.06,866.75 351.3,871.9C350.67,873.06 350.12,874.26 349.48,875.41C345.67,882.2 342.7,883.04 335.61,879.62C333.27,878.48 332.61,876.7 332.78,874.34C333.78,859.07 332.95,843.75 334.29,828.49C334.38,827.49 334.12,826.31 335.22,825.85C338.91,824.31 341.83,827.38 345.22,827.7C347.4,827.91 347.43,829.88 347.3,831.6C346.77,838.6 346.16,845.52 345.7,852.48C345.58,854.33 344.89,856.43 347.22,858.4L356,841.64C356.07,841.5 356.07,841.31 356.14,841.16C360.02,831.67 363.04,830.57 372.21,835.04C374.11,835.96 373.75,837.29 373.61,838.77C372.943,846.377 372.26,853.99 371.56,861.61C371.45,862.9 370.96,864.25 372.5,865.72C376.14,860.56 378.1,854.63 381.2,849.34C381.79,848.34 382.2,847.24 382.74,846.22C386.96,838.49 390.96,837.77 398.4,843.68L380.29,875.32C378.29,878.9 375.96,882.32 374.2,886.09C372.99,888.62 371.27,888.85 368.95,888.57C366.43,888.26 364.17,887.14 361.78,886.48C358.98,885.7 358.78,884.05 359.06,881.57C359.86,874.81 360.47,868.02 361.06,861.23C361.17,859.68 361.53,857.94 359.7,856.27Z" style="fill:white;fill-rule:nonzero;"/>
    </g>
    <g transform="matrix(3.1185,0,0,3.1185,0,0)">
        <path d="M219.71,806C218.38,793.58 232.47,776.29 248.65,777.38C262.08,778.27 273.65,786.71 273.87,801.76C274.13,815.53 260.97,831.53 244.63,830.94C233.13,830.49 217.55,819 219.71,806Z" style="fill:white;fill-rule:nonzero;"/>
    </g>
    <g transform="matrix(3.1185,0,0,3.1185,0,0)">
        <path d="M179.8,778.13C170.1,773.37 167.55,769.13 168.96,759C169.96,751.83 174.96,747.17 181.05,744.24C185.43,742.12 190.32,741.11 195.56,742.95C200.46,744.67 204.12,747.29 206.09,752.04C206.825,754.235 208.447,756.025 210.56,756.97C212.26,757.74 213.56,759.57 214.84,761.04C216.42,762.81 216.34,764.56 214.5,766.23C206.15,773.82 198.06,781.71 189.44,788.98C181.66,795.54 171.16,794.63 163.69,787.66C160.349,784.412 157.484,780.709 155.18,776.66C152.95,772.94 155.18,771.56 157.77,770.06C162.13,767.49 164.11,767.58 165.77,770.88C166.893,773.101 168.205,775.223 169.69,777.22C172.2,780.74 175.58,781.05 179.8,778.13Z" style="fill:white;fill-rule:nonzero;"/>
    </g>
    <g transform="matrix(3.1185,0,0,3.1185,0,0)">
        <path d="M864,634.2C864.34,645 859.7,653.49 855.16,661.95C853.96,664.18 852.22,665.03 849.05,663.46C836.3,657.15 823.28,651.37 810.32,645.46C808.51,644.64 806.67,643.76 807.32,641.59C811.06,629.89 814.69,617.96 826.38,611.4C836.96,605.45 855.62,611.66 861.08,622.47C863.08,626.45 864.38,630.46 864,634.2Z" style="fill:white;fill-rule:nonzero;"/>
    </g>
    <g transform="matrix(3.1185,0,0,3.1185,0,0)">
        <path d="M609.42,820C621.58,820 627.06,827.38 623.51,836.88C622.13,840.55 624.6,841.02 626.51,841.76C635.68,845.22 636.2,855.3 633.34,861.39C631.34,865.67 627.44,868.24 623.5,870.27C618.216,873.059 612.625,875.224 606.84,876.72C603.84,877.44 602.29,876.47 601.36,873.99C596.207,860.363 591.1,846.717 586.04,833.05C585.36,831.24 585.04,829.13 587.04,828.17C594.87,824.41 602.6,820.57 609.42,820Z" style="fill:white;fill-rule:nonzero;"/>
    </g>
    <g transform="matrix(3.1185,0,0,3.1185,0,0)">
        <path d="M894.2,545.61C895.12,555.8 886.38,563.89 875.46,562.55C868.11,561.65 862.04,559.22 858.09,552.6C854.87,547.21 855.18,541.89 858.02,536.53C859.2,534.32 861.69,532.38 859.37,529.47C859.17,529.22 859.54,528.53 859.62,528.04C860.97,520.17 861.41,520.12 869.29,522.11C876.04,523.81 882.94,525.02 889.82,526.11C893.746,526.769 897.573,527.921 901.21,529.54C907.61,532.33 910.65,537.99 910.98,544.66C911.215,551.018 909.573,557.308 906.26,562.74C904.26,566.19 901.37,564.41 898.84,563.13C896.07,561.71 895.73,560.01 897.4,557.13C899.51,553.49 901.75,549.54 899.4,544.99C898.46,543.2 897.52,540.79 895.32,541.28C892.71,541.86 894.69,544.43 894.2,545.61Z" style="fill:white;fill-rule:nonzero;"/>
    </g>
    <g transform="matrix(3.1185,0,0,3.1185,0,0)">
        <path d="M434.25,874.76C434.4,881.12 431.9,887.84 431.89,894.86C431.89,897.39 430.33,898.37 427.89,898.01C426.07,897.75 424.25,897.53 422.46,897.18C419.95,896.7 418.93,895.31 419.16,892.57C419.57,887.57 420.1,882.65 420.93,877.72C421.323,875.934 421.394,874.091 421.14,872.28C420.61,869.71 419.14,867.73 416.06,867.71C413.3,867.71 411.75,869.12 411.06,871.71C409.56,877.55 409.26,883.55 408.79,889.52C408.35,895.02 407.56,895.71 401.96,894.74C400.49,894.483 399.035,894.149 397.6,893.74C395.95,893.27 395.4,892.42 395.6,890.44C397.27,874.44 399.06,858.44 401.34,842.44C401.67,840.11 402.23,839.12 405.14,839.55C414.67,840.96 414.7,840.77 413.31,850.33C412.15,858.28 412.15,858.28 419.93,857.56C429.14,856.71 435,863.49 434.25,874.76Z" style="fill:white;fill-rule:nonzero;"/>
    </g>
    <g transform="matrix(3.1185,0,0,3.1185,0,0)">
        <path d="M751,723.64C753.553,725.293 755.727,727.467 757.38,730.02C758.83,732.36 756.52,733.95 755.02,735.45C752.79,737.68 750.54,739.9 748.2,742.02C745.64,744.34 745.96,746.15 748.32,748.62C750.68,751.09 752.26,750.84 754.32,748.62C756.69,746.08 759.32,743.73 761.61,741.15C763.8,738.74 765.71,738.69 767.76,741.26C768.59,742.26 769.65,743.13 770.55,744.11C772.26,745.97 772.55,747.67 770.4,749.63C767.81,751.95 765.54,754.63 763.06,757.08C761.17,758.95 761.06,760.66 763.06,762.59C765.93,765.35 768.66,768.28 771.54,771.04C773.9,773.3 774.15,775.2 771.65,777.76C764.65,784.94 764.86,784.89 757.93,777.88C749.17,769.03 740.12,760.44 731.23,751.71C726.36,746.92 726.37,746.86 731.28,741.92C736.67,736.49 742.1,731.1 747.47,725.65C748.34,724.69 749.05,723.52 751,723.64Z" style="fill:white;fill-rule:nonzero;"/>
    </g>
    <g transform="matrix(3.1185,0,0,3.1185,0,0)">
        <path d="M181.45,724.5C181.53,731.03 179.45,734.96 175.76,737.84C170.15,742.24 164.25,746.27 158.55,750.57C155.76,752.67 153.84,751.98 151.89,749.34C146.38,741.88 146.34,741.94 154.13,736.49C157.8,733.92 161.45,731.3 165.01,728.58C167.51,726.67 168.75,724.23 166.65,721.28C164.65,718.52 162.19,718.8 159.65,720.57C154.65,724.12 149.59,727.57 144.7,731.33C142,733.39 140.35,733.22 138.23,730.33C131.56,721.22 132.34,723.25 139.8,717.79C146.62,712.79 153.37,707.72 160.14,702.65C163.78,699.92 165,700.1 167.79,703.84C169.29,705.84 170.95,707.84 170.69,710.54C170.49,712.54 171.92,712.88 173.33,713.54C177.874,715.375 181.018,719.619 181.45,724.5Z" style="fill:white;fill-rule:nonzero;"/>
    </g>
    <g transform="matrix(3.1185,0,0,3.1185,0,0)">
        <path d="M772.07,724.85C771.2,713.68 782.7,702.49 792.78,703.36C802.86,704.23 812.99,714.21 812.55,724.59C812.06,736.35 802.88,746.28 791.47,746.17C781.05,746.08 771.94,736 772.07,724.85Z" style="fill:white;fill-rule:nonzero;"/>
    </g>
    <g transform="matrix(3.1185,0,0,3.1185,0,0)">
        <path d="M91.32,507.5C91.68,510.5 91.86,512.5 92.15,514.5C92.78,518.68 91.53,520.36 87.38,520.8C83.05,521.27 81.81,520.24 81.45,515.8C81.25,513.32 81.01,510.8 80.95,508.35C80.85,504.69 79.51,502.8 75.43,503.35C71.82,503.88 68.14,503.87 64.49,504.11C60.12,504.4 59.43,503.59 58.73,497.11C58.38,493.92 59.13,491.53 62.96,491.2C76.19,490.05 89.41,488.83 102.64,487.64C103.799,487.606 104.955,487.496 106.1,487.31C109.37,486.53 111.1,488.24 111.17,491.11C111.37,499.11 112.83,506.95 113.62,514.87C114.04,519.07 111.43,519.29 108.55,519.87C105.34,520.56 103.18,519.57 102.55,516.39C102.011,513.116 101.658,509.814 101.49,506.5C101.11,501.21 100.73,500.75 96.18,501.03C91.63,501.31 90.84,502.22 91.31,507.5C91.37,507.88 91.48,508.2 91.32,507.5Z" style="fill:white;fill-rule:nonzero;"/>
    </g>
    <g transform="matrix(3.1185,0,0,3.1185,0,0)">
        <path d="M104.15,638C108.53,637.74 111.75,635.38 115.48,634.46C118.48,633.71 121.32,632.17 124.2,630.9C126.92,629.69 128.29,630.4 129.41,633.32C132.78,642.05 132.89,641.92 124.12,645.14C116.81,647.82 109.59,650.74 102.31,653.48C100.55,654.14 98.31,656.39 96.93,654.41C95.24,651.97 92.74,649.06 93.93,645.88C94.66,643.88 94.48,642.94 93.15,641.68C81.93,631.03 86.68,620.46 98.96,615.4C104.63,613.07 110.56,611.4 116.23,609.02C118.85,607.95 119.89,609.02 120.89,611.02C125.13,619.5 125.12,619.46 115.89,622.9C111.7,624.46 107.49,626.02 103.48,627.97C101.21,629.08 98.33,630.51 99.11,633.82C99.569,636.232 101.695,637.995 104.15,638Z" style="fill:white;fill-rule:nonzero;"/>
    </g>
    <g transform="matrix(3.1185,0,0,3.1185,0,0)">
        <path d="M306.09,834.26C306.57,837.96 304.09,841.86 302.17,845.86C300,850.32 297.52,854.62 295.32,859.07C294.05,861.63 292.69,862.34 289.83,860.97C281.97,857.21 281.83,857.34 285.5,849.81C287.5,845.64 289.69,841.54 291.78,837.4C293.71,833.58 293.03,830.45 289.78,828.95C286.23,827.33 284.13,829.57 282.61,832.3C280.043,836.927 277.597,841.627 275.27,846.4C272.82,851.4 271.92,851.76 266.9,849.13C260.9,845.97 260.9,845.94 264.13,839.82C267.9,832.64 271.52,825.38 275.2,818.15C276.29,816 276.69,812.65 279.47,812.68C282.25,812.71 285.57,814.23 286.91,816.87C288.36,819.71 290.2,819.87 292.85,819.98C300.48,820.13 306.25,826 306.09,834.26Z" style="fill:white;fill-rule:nonzero;"/>
    </g>
    <g transform="matrix(3.1185,0,0,3.1185,0,0)">
        <path d="M463.29,872.75C459.56,867.52 455.79,868.49 451.94,870C449.45,871 447.18,871.62 445.67,868.4C443.98,864.78 444.44,862.68 448.22,861.4C454.248,859.311 460.777,859.133 466.91,860.89C472.91,862.65 476.03,867.47 476.27,873.69C476.54,880.85 476.35,888.02 476.43,895.18C476.43,897.72 475.21,898.98 472.83,898.92C470.09,898.86 467.13,900.08 464.66,897.92C463.21,896.66 462.21,898.02 461.06,898.42C453.73,900.91 448.43,899.96 444.54,895.42C439.17,889.18 441.41,879.25 448.86,875.68C453.1,873.71 457.63,873 463.29,872.75Z" style="fill:white;fill-rule:nonzero;"/>
    </g>
    <g transform="matrix(3.1185,0,0,3.1185,0,0)">
        <path d="M884.21,587.83C884.21,599.69 875.88,609.02 865.29,608.42C852.58,607.7 844.15,600.15 844.43,588.55C844.74,576.02 852.11,568 863.73,567.93C874,567.86 885.16,575.19 884.21,587.83Z" style="fill:white;fill-rule:nonzero;"/>
    </g>
    <g transform="matrix(3.1185,0,0,3.1185,0,0)">
        <path d="M65.94,550.75C66,538.47 73.48,531.61 86,531.16C98.52,530.71 106.25,541.78 105.81,553.16C105.4,563.73 97.2,571.37 84.5,571.52C74.46,571.62 65,562.82 65.94,550.75Z" style="fill:white;fill-rule:nonzero;"/>
    </g>
    <g transform="matrix(3.1185,0,0,3.1185,0,0)">
        <path d="M654,841.65C657.54,843.82 660.73,843.31 663.78,841.89C665.733,840.976 667.556,839.805 669.2,838.41C671.78,836.21 673.73,835.75 676.2,838.8C678.67,841.85 678.2,843.9 675.2,846.16C668.7,851.05 662.08,855.16 653.35,853.7C642.6,851.94 637.69,841 637.81,832.7C637.99,820.29 648.07,812.88 659.57,814.57C664.68,815.31 672.9,823.16 673.57,828.17C673.85,830.23 672.23,831.17 670.83,831.92C667.06,834 663.19,835.92 659.35,837.92C657.311,838.749 655.483,840.023 654,841.65Z" style="fill:white;fill-rule:nonzero;"/>
    </g>
    <g transform="matrix(3.1185,0,0,3.1185,0,0)">
        <path d="M726.29,812.35C723.54,812.66 721.29,810.64 719.07,808.59C715.4,805.17 712.77,800.88 709.66,797C708.66,795.71 707.98,794.91 706.08,795.32C701.68,796.32 697.29,791.48 699.02,787.41C699.991,785.645 699.667,783.432 698.23,782.02C696.4,779.95 696.71,778.19 698.58,776.39C699.29,775.71 699.79,774.82 700.44,774.08C705.1,768.76 705.2,768.69 709.44,774.24C711,776.24 712.36,776.84 714.31,775.09C717.17,772.51 719.47,773.53 721.38,776.24C723.05,778.63 725.38,781.06 721.38,783.59C718.89,785.17 718.76,787.11 720.88,789.32C722.325,790.926 723.661,792.626 724.88,794.41C726.97,797.25 729.28,798.86 732.88,796.75C736.48,794.64 737.47,798.23 739.09,799.97C740.71,801.71 741.55,803.58 739.64,805.74C736.26,809.59 732.41,812.54 726.29,812.35Z" style="fill:white;fill-rule:nonzero;"/>
    </g>
    <g transform="matrix(3.1185,0,0,3.1185,0,0)">
        <path d="M119.16,667.62L119.16,666.55C118.99,659.29 121.5,654.55 126.3,653.07C131.78,651.36 138.43,654.26 142.12,659.89C143.639,662.476 144.866,665.223 145.78,668.08C147.08,671.52 145.54,673.32 142.23,674.33C138.92,675.34 136.67,675.07 136.46,670.98C136.432,670.643 136.378,670.309 136.3,669.98C135.81,667.69 135.3,664.64 132.45,665.15C129.6,665.66 131,668.7 131,670.73C131,671.9 131.06,673.06 131.1,674.23C131.26,679.34 129.31,683.42 124.7,685.75C120.09,688.08 114.54,687.03 110.52,682.93C106.604,678.814 104.089,673.562 103.34,667.93C102.72,664.04 104.86,663.1 108.15,662.69C111.44,662.28 112.83,663.01 112.85,666.51C112.964,668.503 113.499,670.449 114.42,672.22C115,673.48 116.07,675.01 117.88,674.39C119.31,673.91 119.56,672.39 119.55,671.05C119.486,669.9 119.356,668.755 119.16,667.62Z" style="fill:white;fill-rule:nonzero;"/>
    </g>
    <g transform="matrix(3.1185,0,0,3.1185,0,0)">
        <path d="M863,499.52C863.26,497.21 863.34,494.86 863.82,492.6C864.82,488.06 866.34,487 870.06,487.93C874.34,489 874.74,489.83 873.34,494.82C873.25,495.14 873.13,495.45 873.02,495.77C872.37,497.77 871.69,500.13 874.02,501.03C876.51,502.03 877.02,499.11 878.1,497.63C879.18,496.15 880.03,494.15 881.1,492.52C884.1,488.13 888.55,487.01 893.41,488.14C897.97,489.21 900.68,492.44 901.72,497.07C903.327,503.394 902.454,510.099 899.28,515.8C896.83,520.19 894,516.37 891.56,515.8C888.85,515.2 890.21,513.07 890.89,511.37C891.762,509.212 892.506,507.005 893.12,504.76C893.52,503.22 893.17,501.76 891.39,501.12C889.82,500.58 888.84,501.45 888.17,502.72C887.368,504.533 886.47,506.302 885.48,508.02C881.91,513.36 875.78,515.57 870.37,513.64C866,512.11 863.07,506.36 863,499.52Z" style="fill:white;fill-rule:nonzero;"/>
    </g>
    <g transform="matrix(3.1185,0,0,3.1185,0,0)">
        <path d="M686,820C681.37,820.68 677.37,818.84 675.1,814C672.65,808.8 674.61,804.21 677.81,800.11C680.81,796.32 685.2,794.48 689.46,792.7C691.89,791.7 693.64,793.17 694.11,795.76C694.52,798.01 696.51,800.76 692.67,801.97C690.94,802.54 689.06,802.65 687.67,804.08C686.87,804.91 685.67,805.6 686.28,806.96C686.763,808.276 688.21,808.994 689.55,808.58C692.293,807.886 695.096,807.451 697.92,807.28C702.98,806.93 706.4,809.64 708.35,813.61C710.335,817.38 709.996,821.971 707.48,825.41C703.816,830.611 698.395,834.319 692.22,835.85C688.65,836.8 687.61,834.85 686.57,831.98C685.4,828.77 686.44,827.69 689.46,826.71C691.89,825.93 694.73,825.54 696.46,823.28C697.06,822.53 697.94,821.71 697.31,820.65C696.68,819.59 695.84,818.75 694.45,819.16C691.692,819.866 688.843,820.15 686,820Z" style="fill:white;fill-rule:nonzero;"/>
    </g>
    <g transform="matrix(3.1185,0,0,3.1185,0,0)">
        <path d="M498.75,848.89C500.75,850.43 500.04,852.59 500.27,854.48C500.62,857.27 501.52,859.25 504.98,858.75C509.09,858.15 509.43,861.22 509.81,864.11C510.24,867.36 508.64,868.79 505.53,868.67C502.42,868.55 501.87,870.23 502.08,872.79C502.36,876.1 502.58,879.41 502.76,882.73C502.91,885.54 504.65,887.34 507.13,887.21C511.76,886.96 511.07,890.64 511.58,892.95C512.21,895.87 510.18,897.34 507.35,897.95C497.55,900.24 490.59,895.06 490.08,884.95C489.94,882.13 489.63,879.31 489.67,876.49C489.67,873.33 489.31,871.05 485.76,869.49C482.42,868.05 482.62,862.31 485.76,860.49C487.3,859.63 488.24,858.82 487.86,857.1C486.86,852.69 489.52,851.1 493.09,850.24C495,849.89 496.9,849.37 498.75,848.89Z" style="fill:white;fill-rule:nonzero;"/>
    </g>
    <g transform="matrix(3.1185,0,0,3.1185,0,0)">
        <path d="M551.77,891.12L548.77,891.12C544.71,890.89 542.03,885.58 544.31,882.19C545.31,880.67 547.05,881.06 548.44,881.38C550.719,881.844 553.076,881.747 555.31,881.1C556.71,880.75 558.01,880.19 557.92,878.59C557.858,877.072 556.592,875.856 555.072,875.856C555.022,875.856 554.971,875.857 554.92,875.86C551.76,875.852 548.65,875.073 545.86,873.59C542.133,871.614 539.794,867.727 539.794,863.509C539.794,860.556 540.941,857.716 542.99,855.59C547.99,850.51 554.27,849.51 560.93,850.24C565.06,850.69 563.53,854.24 563.67,856.59C563.81,858.94 562.43,859.99 559.86,859.75C557.29,859.51 553.15,858.57 552.95,862.26C552.77,865.54 556.87,865.03 559.36,865.35C565.53,866.13 569.97,869.7 570.69,874.72C571.69,881.31 569.05,885.72 562.84,888.58C559.28,890.18 555.72,891.4 551.77,891.12Z" style="fill:white;fill-rule:nonzero;"/>
    </g>
    <g transform="matrix(3.1185,0,0,3.1185,0,0)">
        <path d="M96.77,576.92C108.85,575.34 117.57,589.56 116.93,599.4C116.76,602.1 115.26,602.74 113.02,602.83C110.25,602.95 107.55,603.02 106.9,599.36C106.41,596.58 105.9,593.93 103.5,591.85C100.21,589.03 96.92,589.08 93.38,590.85C89.01,593.08 87.08,596.33 87.79,600.37C88.044,602.014 88.539,603.611 89.26,605.11C90.56,607.6 90.02,608.85 87.44,610.11C81.87,612.89 81.19,612.93 79.04,607.31C77.04,602.02 75.23,596.6 76.78,590.78C79.12,582.08 86.46,577 96.77,576.92Z" style="fill:white;fill-rule:nonzero;"/>
    </g>
    <g transform="matrix(3.1185,0,0,3.1185,0,0)">
        <path d="M806.92,670.22C809.28,670.69 811.01,672.67 813.18,673.84C816.27,675.5 814.18,677.5 813.26,679.64C811.83,683.12 812.11,686.51 815.72,688.86C819.88,691.56 823.9,694.5 828.17,697.02C831.61,699.02 831.79,701.36 829.69,704.35C829.02,705.35 828.39,706.29 827.79,707.28C826.03,710.21 824.11,710.28 821.28,708.34C813.82,703.13 806.16,698.21 798.57,693.19C796.82,692.03 793.5,691.29 793.95,689.31C794.64,686.25 796.48,682.41 799.6,681.7C802.72,680.99 802.82,679.6 802.75,677.35C802.635,675.68 802.945,674.008 803.65,672.49C804.238,671.191 805.497,670.317 806.92,670.22Z" style="fill:white;fill-rule:nonzero;"/>
    </g>
    <g transform="matrix(3.1185,0,0,3.1185,0,0)">
        <path d="M126.84,710.85C123.73,709.03 122.44,705.97 121.07,703.06C120.07,700.93 120.86,699.36 122.95,698.14C131.66,693.08 140.31,687.92 148.95,682.76C151.16,681.44 152.95,681.28 154.23,683.98C154.73,684.838 155.284,685.663 155.89,686.45C158.84,690.97 158.83,691.45 154.08,694.4C145.81,699.54 137.44,704.52 129.08,709.57C128.42,710 127.7,710.36 126.84,710.85Z" style="fill:white;fill-rule:nonzero;"/>
    </g>
    <g transform="matrix(3.1185,0,0,3.1185,0,0)">
        <path d="M528.32,841.46C528.68,848.26 526,854.06 524.32,860.08C523.964,861.187 523.381,862.209 522.61,863.08C521.106,864.936 518.616,865.701 516.33,865.01C513.95,864.26 515.33,861.86 515.46,860.2C515.77,855.41 517.32,850.76 517.24,845.92C517.24,843.92 518.08,842.72 520.07,842.56C522.74,842.34 525.21,841 528.32,841.46Z" style="fill:white;fill-rule:nonzero;"/>
    </g>
    <g transform="matrix(3.1185,0,0,3.1185,0,0)">
        <path d="M163.48,674.68C167.069,674.741 170.059,677.552 170.34,681.13C170.54,684.32 167.53,687.86 164.44,688.07C161.35,688.28 157.19,684.21 157.16,681.07C157.353,677.667 160.08,674.91 163.48,674.68Z" style="fill:white;fill-rule:nonzero;"/>
    </g>
    <g transform="matrix(3.1185,0,0,3.1185,0,0)">
        <path d="M609.91,623.67C609.434,620.075 607.768,616.74 605.18,614.2C598.73,607.61 596.67,598.95 594.09,590.58C593.22,587.76 598.37,578.5 601.09,577C601.95,576.53 603.03,576.42 603.74,575C601.31,571.61 597.23,570.2 593.84,568.07C584.84,562.38 575.78,556.72 568.2,549.22C563.73,544.81 557.63,545.22 554.12,551.32C549.24,559.76 544.77,568.45 540.38,577.16C536.86,584.16 532.46,590.61 528.94,597.53C526.73,601.89 523.71,605.53 520.94,609.38C516.19,616.1 510.46,620.9 501.46,621.38C496.46,621.66 491.78,624.22 486.46,623.91C482.09,623.65 478.4,621.91 474.77,620.04C471.77,618.53 470.91,615.87 472.58,612.42C475.82,605.74 479.79,601.73 488.37,602.42C494.51,602.93 499.97,598.86 503.27,593.07C508.87,583.22 514.86,573.56 519.92,563.44C523.68,555.9 528.06,548.61 530.63,540.44C531.511,537.636 532.73,534.95 534.26,532.44C537.38,527.44 536.65,522.14 536.62,516.91C536.62,511.16 531.39,510.1 527.49,508.25C519.12,504.25 510.83,500.25 503.72,494.2C498.88,490.12 493.72,487.84 487.22,488.83C484.563,489.103 481.891,489.21 479.22,489.15C474.63,489.27 473.46,490.22 473.86,494.87C475.34,511.87 468.05,525.09 455.98,536.06C447,544.4 437.34,552 428,559.8C417.81,568.33 406.55,575.32 396.4,583.8C392.21,587.31 387.28,589.8 384.63,594.99C383.06,598.05 382.52,600.99 384.19,603.99C386.44,608.07 387.34,612.68 389.76,616.75C392.18,620.82 395.18,624.01 399.56,625.52C406.74,628 410.92,634.04 415.95,639C418.177,641.275 418.177,644.965 415.95,647.24C412.771,650.835 408.446,653.224 403.71,654C395.132,655.186 386.427,655.115 377.87,653.79C370.5,652.74 363.13,650.24 358.35,643.47C354.46,637.97 349.8,633.77 342.35,634.19C340.47,634.3 338.5,633.19 336.62,632.6C332.21,631.1 328.62,627.99 324.32,626.19C319.49,624.19 318.55,618.53 321.9,614.35C327.47,607.42 330.51,599.24 333.9,591.23C335.41,587.64 337.62,584.55 340.95,583.16C347.46,580.43 352.21,575.53 357.33,571.16C364.33,565.16 370.97,558.66 377.74,552.36C378.237,551.982 378.53,551.392 378.53,550.768C378.53,550.241 378.321,549.734 377.95,549.36C368.36,555.27 357.95,559.18 347.41,562.73C346.499,563.133 345.551,563.447 344.58,563.67C334.46,564.97 324.58,568.07 314.15,567.13C309.85,566.75 305.49,567 301.15,566.99C292.86,566.99 290.29,570.69 288.08,578.72C285.79,587.01 285.88,595.44 284.08,603.65C283.343,606.55 283.416,609.598 284.29,612.46C286.97,620.96 284.46,628.22 278.48,634.37C276.48,636.37 275.55,638.18 276.73,640.96C277.91,643.74 278.28,646.96 279.73,649.96C282.15,654.72 278.16,657.96 275.73,660.86C273.129,663.992 269.231,665.766 265.16,665.67C256.49,665.48 247.82,665.54 239.16,665.23C232.43,664.99 229.3,661.39 229.08,654.78C228.83,647.07 231.81,640.21 234.28,633.21C235.87,628.7 237.59,624.21 239.11,619.7C242.11,610.65 245.74,601.7 247.83,592.44C250.09,582.44 251.35,572.04 243.42,563.32C239.29,558.77 235.42,553.9 231.78,549.07C229.025,545.567 227.474,541.265 227.36,536.81C227.36,527.31 226.87,517.81 227.47,508.32C227.89,501.75 231.18,495.75 234.23,489.96C237.949,483.031 240.993,475.761 243.32,468.25C247.26,455.39 248.32,441.87 253.26,429.32C253.96,427.54 253.85,425.39 253.9,423.4C253.85,420.726 254.502,418.084 255.79,415.74C256.37,414.74 257.06,413.5 256.89,412.51C255.72,405.96 260,400.41 260.06,394.1C260.06,391.55 262.37,389.84 263.36,387.54C268.44,375.78 275.36,365.08 286.3,358.05C294.74,352.63 303.48,347.49 313.15,344.21C316.389,342.957 319.462,341.311 322.3,339.31C324.55,337.84 325.1,336 323.97,332.93C322.06,327.8 322.33,322.17 322.27,316.69C322.08,301.47 329.62,290.51 341.56,282.15C343.91,280.5 346.98,279.77 349.81,278.91C366.08,273.91 390.59,281.17 400.38,294.91C407.08,304.29 409.63,314.91 404.17,326.33C402.576,329.288 402.699,332.887 404.49,335.73C407.07,339.81 406.36,343.91 402.95,347.34C398.43,351.9 398.81,352.04 402.46,357.2C407.31,364.07 411.83,371.2 413.9,379.59C416.23,389.06 420.35,397.86 424.9,406.47C426.49,409.47 427.9,412.63 429.34,415.71C429.69,416.45 429.79,417.45 430.34,417.92C437.34,423.92 441.04,432.72 447.77,438.92C452.07,442.92 454.05,448.26 456.72,453.2C458,455.58 459.11,457.45 462.15,457.49C466.26,457.49 468.46,460.96 471.2,463.23C474.34,465.83 477.31,467.02 481.2,465C482.378,464.352 483.72,464.064 485.06,464.17C489.9,464.89 494.62,463.58 499.38,463.56C505.24,463.56 510.5,466.22 515.66,468.69C519.09,470.34 522.08,472.91 525.51,474.55C530.38,476.86 532.06,475.55 532.62,470.24C534.34,453.78 533.1,437.24 533.51,420.8C533.62,416.48 533.32,412.17 535.96,408.28C537.09,406.63 536.89,404.43 536.88,402.43C536.88,398.08 536.55,398.78 532.53,399.35C526.64,400.18 521.58,404.16 515.37,403.35C513.543,403.139 511.692,403.365 509.97,404.01C500.46,407.47 493.97,405.42 487.89,397.46C486.19,395.24 486.44,392.77 486.05,390.35C485.66,387.93 482.61,386.43 484.16,383.51C486.1,379.82 488.1,376.13 492.1,374.3C496.88,372.12 501.1,368.59 506.62,368.13C509.39,367.9 510.05,366.2 510.32,363.73C510.78,359.59 512.87,355.98 514.55,352.22C518.64,343.05 526.8,338.6 535.31,335.53C541.9,333.15 548.96,330.41 556.42,332.07C569.59,335 583.29,337.07 591.1,350.15C595.178,357.132 598.779,364.382 601.88,371.85C604.79,378.69 604.18,386.36 608.03,392.85C609.487,395.264 611.266,397.468 613.32,399.4C624.395,410.136 633.721,422.54 640.96,436.16C644.96,443.71 649.39,451.05 652.88,458.92C654.36,462.26 657.03,465.3 659.33,468.27C670.44,482.68 680.04,498.27 692.98,511.27C698.334,516.703 702.679,523.045 705.81,530C708.2,535.29 712.51,539.8 715.13,545.17C718.21,551.52 721.13,557.89 723.75,564.49C727.19,573.16 728.6,582.29 731.62,591C731.98,592.454 732.108,593.956 732,595.45C732,609.78 732.54,624.14 731.83,638.45C731.21,651.07 726.73,662.45 713.98,667.57C709.3,669.45 704.25,671.5 698.79,671.42C690.79,671.31 682.79,671.6 674.79,671.66C672.56,671.66 670.5,671.96 668.79,673.51C668.168,674.068 667.403,674.442 666.58,674.59C659.05,675.64 652.08,679.04 644.68,680.22C638.35,681.22 631.68,680.94 625.25,680.3C621.84,679.97 619.42,676.73 617.42,673.81C616.53,672.5 617.09,671.22 618.07,670.19C623.31,664.62 629.07,660.02 636.39,657.07C651.39,651.07 667.39,649.13 682.86,645.15C683.34,645.02 683.95,645.09 684.3,644.81C685.73,643.7 689.16,644.3 688.43,641.53C687.82,639.21 685.22,640.81 683.57,640.87C678.24,641.06 672.71,640.68 667.65,642C657.85,644.57 647.5,643.79 637.92,647.34C635.035,648.271 631.95,648.396 629,647.7C619.33,645.75 609.73,647.4 600.09,647.7C591.77,647.96 583.42,648.2 575.09,647.8C571.01,647.6 568.53,643.89 566.69,640.61C565.13,637.84 567.61,635.61 569.32,633.61C576.9,624.9 587.32,622.99 598.02,622.2C602.043,621.784 606.109,622.287 609.91,623.67Z" style="fill:rgb(110,25,23);fill-rule:nonzero;"/>
    </g>
    <g transform="matrix(3.1185,0,0,3.1185,0,0)">
        <path d="M562.34,107.19C559,106.93 555.34,106.81 551.73,106.31C546.01,105.52 544.26,102.66 545.87,96.31C546.69,93.1 547.93,90.03 548.06,86.65C548.11,85.31 548.74,83.53 550.43,84.44C555.43,87.12 561.11,86.04 566.27,88.29C572.74,91.1 574.27,92.49 573.37,99.71C572.73,104.95 570.46,106.78 564.13,107.15C563.63,107.22 563.13,107.19 562.34,107.19Z" style="fill:rgb(110,25,23);fill-rule:nonzero;"/>
    </g>
    <g transform="matrix(3.1185,0,0,3.1185,0,0)">
        <path d="M553.1,63.64C552.891,60.345 553.446,57.046 554.72,54C555.56,51.64 556.82,50.54 559.16,51.85C561.3,53.04 563.6,53.17 565.92,53.37C569.986,53.706 573.589,56.159 575.39,59.82C576.93,62.74 575.21,65.64 573,67.9C570,70.96 566.41,71.48 562.42,70.13C560.877,69.525 559.265,69.115 557.62,68.91C553.93,68.61 551,68 553.1,63.64Z" style="fill:rgb(110,25,23);fill-rule:nonzero;"/>
    </g>
    <g transform="matrix(3.1185,0,0,3.1185,0,0)">
        <path d="M439.6,59.87C439.7,46.68 437.6,47.08 450.23,46.81C460.53,46.58 469.11,50.18 473.78,60.12C475.738,64.348 476.762,68.95 476.78,73.61C476.84,83.93 473.68,93.21 463.4,97.71C457.65,100.23 451.21,100.79 444.92,101.3C442.74,101.48 442.02,100.12 442.07,98.15C442.38,84.64 441,71.23 439.6,59.87Z" style="fill:rgb(110,25,23);fill-rule:nonzero;"/>
    </g>
    <g transform="matrix(3.1185,0,0,3.1185,0,0)">
        <path d="M665.4,96.59C667.24,98.1 666.4,100.06 665.91,101.65C664.21,107.3 664.07,113.07 663.91,118.88C663.78,124.2 662.73,124.72 658.09,122.4C655.31,121.01 652.35,119.95 649.55,118.56C646.19,116.89 645.99,115.48 648.72,112.79C654.24,107.36 659.82,102 665.4,96.59Z" style="fill:rgb(110,25,23);fill-rule:nonzero;"/>
    </g>
    <g transform="matrix(3.1185,0,0,3.1185,0,0)">
        <path d="M259.8,799.2C259.54,806.83 251.99,817 244.8,819.46C241.14,820.7 235.17,816.46 233.99,811.82C231.99,803.95 240.26,790.82 248.32,789.14C254.09,787.91 260,793.08 259.8,799.2Z" style="fill:rgb(110,25,23);fill-rule:nonzero;"/>
    </g>
    <g transform="matrix(3.1185,0,0,3.1185,0,0)">
        <path d="M197.14,759.83C197.26,763.16 190.47,770.22 187.14,770.29C183.58,770.36 180.92,766.29 182.45,762.73C184.078,759.22 187.015,756.48 190.63,755.1C193.55,753.84 197,756.52 197.14,759.83Z" style="fill:rgb(110,25,23);fill-rule:nonzero;"/>
    </g>
    <g transform="matrix(3.1185,0,0,3.1185,0,0)">
        <path d="M853.38,639.07C853.23,640.716 852.922,642.343 852.46,643.93C850.73,648.36 848.81,649.04 844.46,647.04C837.55,643.88 830.66,640.67 823.73,637.56C821.57,636.56 820.38,635.15 821.44,632.88C825.11,625.08 829.85,620.7 838.99,622.74C844.91,624.08 854.13,630.63 853.38,639.07Z" style="fill:rgb(110,25,23);fill-rule:nonzero;"/>
    </g>
    <g transform="matrix(3.1185,0,0,3.1185,0,0)">
        <path d="M615.06,850.09C619.28,850.03 621.407,851.953 621.44,855.86C621.44,859.6 617.44,863.54 613.36,863.65C611.66,863.65 608.08,857.65 607.99,854.54C607.91,851.76 610.46,850.15 615.06,850.09Z" style="fill:rgb(110,25,23);fill-rule:nonzero;"/>
    </g>
    <g transform="matrix(3.1185,0,0,3.1185,0,0)">
        <path d="M607.52,830.52C610.74,831 612.58,832.74 612.83,835.69C613.03,838.06 607.59,842.69 605.14,842.56C603.55,842.47 600.35,837.41 600.84,834.86C601.54,831.26 605.17,831.64 607.52,830.52Z" style="fill:rgb(110,25,23);fill-rule:nonzero;"/>
    </g>
    <g transform="matrix(3.1185,0,0,3.1185,0,0)">
        <path d="M876.5,549.3C873.143,549.566 869.883,548.044 867.93,545.3C866.61,543.56 866.07,541.72 867.21,539.74C868.21,538.01 869.29,536.45 871.77,536.49C874.269,536.39 876.768,536.694 879.17,537.39C882.4,538.52 885.6,540.04 885.08,544.23C884.64,547.77 881.73,549.42 876.5,549.3Z" style="fill:rgb(110,25,23);fill-rule:nonzero;"/>
    </g>
    <g transform="matrix(3.1185,0,0,3.1185,0,0)">
        <path d="M795.16,732.53C790.92,732.18 784.16,726.9 783.05,723.28C781.98,719.87 785.84,716.13 789.7,716.94C794.19,717.88 797.43,720.74 799.97,724.33C801.08,725.9 801.97,727.8 800.4,729.85C799.123,731.457 797.211,732.436 795.16,732.53Z" style="fill:rgb(110,25,23);fill-rule:nonzero;"/>
    </g>
    <g transform="matrix(3.1185,0,0,3.1185,0,0)">
        <path d="M459,890.17C455.86,890.33 454.85,888.8 454.66,886.57C454.47,884.18 457.38,881.85 460.52,881.8C462.73,881.8 463.33,883.24 463.27,885.06C463.11,888.15 461.43,889.87 459,890.17Z" style="fill:rgb(110,25,23);fill-rule:nonzero;"/>
    </g>
    <g transform="matrix(3.1185,0,0,3.1185,0,0)">
        <path d="M866.84,595C863.07,595 859.53,594.15 856.76,591.51C855.11,589.94 853.35,588.13 854.29,585.44C855.033,582.779 857.467,580.918 860.23,580.9C863.83,580.9 867.41,581.47 870.59,583.64C873.37,585.53 874.85,587.79 873.98,591.17C873,595 870,595.11 866.84,595Z" style="fill:rgb(110,25,23);fill-rule:nonzero;"/>
    </g>
    <g transform="matrix(3.1185,0,0,3.1185,0,0)">
        <path d="M87.92,544.07C89.98,544.069 91.978,544.776 93.58,546.07C96.89,548.86 96.97,551.79 93.69,554.75C89.87,558.19 83.08,559.33 78.96,557.23C75.01,555.23 74.41,551.03 77.61,547.9C79.58,546 84.5,544.09 87.92,544.07Z" style="fill:rgb(110,25,23);fill-rule:nonzero;"/>
    </g>
    <g transform="matrix(3.1185,0,0,3.1185,0,0)">
        <path d="M658.8,826.27C657.07,829.83 653.57,830.16 651.03,831.81C649.31,832.93 648.38,831.4 648.57,829.57C648.77,827.57 649.31,825.77 651.51,824.88C654.2,823.8 656.56,823.82 658.8,826.27Z" style="fill:rgb(110,25,23);fill-rule:nonzero;"/>
    </g>
    <g transform="matrix(3.1185,0,0,3.1185,0,0)">
        <path d="M386.07,466.74C381.02,467.45 376.99,466.38 373.07,467.59C372.103,467.969 370.992,467.617 370.42,466.75C369.757,465.759 369.843,464.436 370.63,463.54C375.63,456 382.03,449.48 386.56,441.54C387.81,439.35 390.21,437.79 392.2,440.38C395.78,445.06 401.08,447.71 404.89,452.04C405.953,453.091 406.939,454.217 407.84,455.41C410.47,459.41 408.77,462.16 404.24,463.41C397.9,465.29 391.72,467.56 386.07,466.74Z" style="fill:white;fill-rule:nonzero;"/>
    </g>
</svg>
