<?xml version="1.0" encoding="UTF-8" standalone="no"?>
<!DOCTYPE svg PUBLIC "-//W3C//DTD SVG 1.1//EN" "http://www.w3.org/Graphics/SVG/1.1/DTD/svg11.dtd">
<svg width="100%" height="100%" viewBox="0 0 800 800" version="1.1" xmlns="http://www.w3.org/2000/svg" xmlns:xlink="http://www.w3.org/1999/xlink" xml:space="preserve" xmlns:serif="http://www.serif.com/" style="fill-rule:evenodd;clip-rule:evenodd;stroke-linejoin:round;stroke-miterlimit:2;">
    <g transform="matrix(42.2222,0,0,42.2222,-274.694,-275.556)">
        <path d="M18.8,16L24.3,10.5C25.1,9.7 25.1,8.5 24.3,7.7C24,7.3 23.5,7 23,7C22.5,7 22,7.2 21.6,7.6L16,13.2L10.5,7.7C9.7,6.9 8.4,6.9 7.7,7.7C7.3,8 7,8.5 7,9.1C7,9.7 7.2,10.1 7.6,10.5L13.1,16L7.6,21.5C7.3,21.9 7,22.4 7,23C7,23.5 7.2,24 7.6,24.4C8,24.8 8.5,25 9,25C9.5,25 10,24.8 10.4,24.4L15.9,18.9L21.4,24.4C22.2,25.2 23.5,25.2 24.2,24.4C25,23.6 25,22.3 24.2,21.6L18.8,16Z" style="fill:rgb(112,112,112);fill-rule:nonzero;"/>
    </g>
</svg>
