<?xml version="1.0" encoding="UTF-8" standalone="no"?>
<!DOCTYPE svg PUBLIC "-//W3C//DTD SVG 1.1//EN" "http://www.w3.org/Graphics/SVG/1.1/DTD/svg11.dtd">
<svg width="100%" height="100%" viewBox="0 0 897 857" version="1.1" xmlns="http://www.w3.org/2000/svg" xmlns:xlink="http://www.w3.org/1999/xlink" xml:space="preserve" xmlns:serif="http://www.serif.com/" style="fill-rule:evenodd;clip-rule:evenodd;stroke-linejoin:round;stroke-miterlimit:2;">
    <g transform="matrix(3.89719,0,0,3.89719,28.9999,27.688)">
        <g transform="matrix(1,0,0,1,97.9493,199.452)">
            <path d="M0,-110.289C11.375,-116.809 23.165,-115.857 35.12,-112.434C41.984,-110.469 48.143,-107.189 53.537,-102.543C59.852,-97.105 66.794,-93.534 75.433,-93.563C78.765,-93.574 82.183,-92.7 85.421,-91.749C101.725,-86.959 105.941,-67.358 102.184,-56.947C96.342,-40.767 85.345,-31.661 68.059,-30.74C54.366,-30.012 43.262,-24.456 34.636,-13.846C32.568,-11.302 30.559,-8.706 28.39,-6.251C22.721,0.163 15.971,5.032 7.26,5.874C0.579,6.52 -6.059,5.238 -12.407,3.003C-17.04,1.371 -21.745,-0.287 -25.563,-3.505C-34.851,-11.33 -37.51,-18.893 -32.506,-29.747C-30.792,-33.467 -28.946,-37.129 -27.053,-40.762C-23.441,-47.692 -22.205,-55.06 -22.351,-62.82C-22.518,-71.729 -21.851,-80.466 -18.447,-88.988C-14.698,-98.372 -8.438,-105.191 0,-110.289" style="fill:white;fill-rule:nonzero;"/>
        </g>
        <g transform="matrix(1,0,0,1,86.0977,20.3047)">
            <path d="M0,28.946C-4.024,20.139 -5.957,8.06 -1.529,-4.266C3.494,-18.247 16.127,-23.627 29.94,-18.261C46.382,-11.874 57.532,5.782 55.879,22.813C54.196,40.147 38.47,52.573 22.547,48.989C12.723,46.779 6.116,40.439 0,28.946" style="fill:white;fill-rule:nonzero;"/>
        </g>
        <g transform="matrix(1,0,0,1,209.62,79.7663)">
            <path d="M0,-31.562C4.592,-23.024 7.61,-13.215 4.038,-2.281C-0.154,10.553 -14.331,20.588 -27.49,19.678C-35.655,19.113 -41.466,14.633 -45.619,7.952C-55.083,-7.27 -51.26,-32.561 -37.847,-44.446C-29.152,-52.15 -17.501,-51.912 -8.951,-43.776C-5.534,-40.524 -2.893,-36.655 0,-31.562" style="fill:white;fill-rule:nonzero;"/>
        </g>
        <g transform="matrix(1,0,0,1,73.147,79.2418)">
            <path d="M0,-21.264C7.626,-7.299 6.187,5.818 -4.127,15.675C-14.235,25.335 -25.735,25.757 -37.357,17.528C-48.977,9.3 -55.294,-2.678 -55.991,-17.107C-56.941,-36.769 -37.884,-47.021 -23.225,-40.977C-13.106,-36.805 -5.215,-30.814 0,-21.264" style="fill:white;fill-rule:nonzero;"/>
        </g>
        <g transform="matrix(1,0,0,1,58.4624,158.138)">
            <path d="M0,-21.337C8.767,-5.664 0.969,14.854 -16.091,19.105C-25.248,21.388 -34.385,18.859 -41.946,13.101C-52.153,5.325 -57.621,-5.372 -58.416,-18.168C-59.103,-29.242 -52.156,-37.793 -41.253,-40.102C-28.871,-42.725 -6.627,-35.362 0,-21.337" style="fill:white;fill-rule:nonzero;"/>
        </g>
    </g>
</svg>
