<svg id="Layer_1" data-name="Layer 1" xmlns="http://www.w3.org/2000/svg" viewBox="0 0 215.23 205.49"><path d="M98,89.16c11.37-6.52,23.16-5.57,35.12-2.14a48.18,48.18,0,0,1,18.42,9.89c6.31,5.44,13.25,9,21.89,9a35.94,35.94,0,0,1,10,1.81c16.3,4.79,20.52,24.39,16.76,34.8-5.84,16.19-16.84,25.29-34.12,26.21-13.69.73-24.8,6.29-33.42,16.9-2.07,2.54-4.08,5.14-6.25,7.59-5.67,6.42-12.42,11.28-21.13,12.13a46,46,0,0,1-19.67-2.88c-4.63-1.63-9.34-3.28-13.15-6.5-9.29-7.83-12-15.39-7-26.25,1.72-3.71,3.56-7.38,5.46-11,3.61-6.93,4.84-14.3,4.7-22.06-.17-8.91.5-17.64,3.9-26.17A42.89,42.89,0,0,1,98,89.16Z"/><path d="M86.1,49.25A44.2,44.2,0,0,1,84.57,16c5-14,17.66-19.36,31.47-14C132.48,8.43,143.63,26.09,142,43.12c-1.69,17.33-17.41,29.76-33.34,26.17C98.82,67.08,92.21,60.74,86.1,49.25Z"/><path d="M209.62,48.2c4.59,8.54,7.61,18.35,4,29.29-4.19,12.83-18.37,22.86-31.53,22-8.16-.56-14-5-18.13-11.72-9.46-15.22-5.64-40.51,7.77-52.4,8.7-7.7,20.35-7.47,28.9.67C204.09,39.24,206.73,43.11,209.62,48.2Z"/><path d="M73.15,58c7.62,14,6.18,27.08-4.13,36.94C58.91,104.58,47.41,105,35.79,96.77S17.85,76.56,17.16,62.13A23.87,23.87,0,0,1,49.92,38.27C60,42.44,67.93,48.43,73.15,58Z"/><path d="M58.46,136.8c8.77,15.67,1,36.19-16.09,40.44-9.16,2.29-18.29-.24-25.85-6C6.31,163.46.84,152.77.05,140-.64,128.9,6.31,120.35,17.21,118,29.59,115.41,51.83,122.78,58.46,136.8Z"/></svg>