<?xml version="1.0" encoding="UTF-8" standalone="no"?>
<!DOCTYPE svg PUBLIC "-//W3C//DTD SVG 1.1//EN" "http://www.w3.org/Graphics/SVG/1.1/DTD/svg11.dtd">
<svg width="100%" height="100%" viewBox="0 0 800 800" version="1.1" xmlns="http://www.w3.org/2000/svg" xmlns:xlink="http://www.w3.org/1999/xlink" xml:space="preserve" xmlns:serif="http://www.serif.com/" style="fill-rule:evenodd;clip-rule:evenodd;stroke-linecap:round;stroke-linejoin:round;">
    <g id="Communication---Phone" serif:id="Communication / Phone" transform="matrix(33.3333,0,0,33.3333,0,0)">
        <path id="Vector" d="M9.502,4.257C9.199,3.498 8.463,3 7.646,3L4.895,3C3.848,3 3,3.848 3,4.895C3,13.789 10.211,21 19.106,21C20.152,21 21,20.152 21,19.105L21.001,16.354C21.001,15.536 20.503,14.801 19.743,14.497L17.107,13.443C16.425,13.17 15.648,13.293 15.084,13.763L14.403,14.331C13.609,14.993 12.44,14.94 11.708,14.209L9.792,12.291C9.061,11.56 9.007,10.391 9.669,9.597L10.236,8.916C10.707,8.352 10.831,7.575 10.558,6.893L9.502,4.257Z" style="fill:none;fill-rule:nonzero;stroke:black;stroke-width:2px;"/>
    </g>
</svg>
