<?xml version="1.0" encoding="UTF-8" standalone="no"?>
<!DOCTYPE svg PUBLIC "-//W3C//DTD SVG 1.1//EN" "http://www.w3.org/Graphics/SVG/1.1/DTD/svg11.dtd">
<svg width="100%" height="100%" viewBox="0 0 800 800" version="1.1" xmlns="http://www.w3.org/2000/svg" xmlns:xlink="http://www.w3.org/1999/xlink" xml:space="preserve" xmlns:serif="http://www.serif.com/" style="fill-rule:evenodd;clip-rule:evenodd;stroke-linejoin:round;stroke-miterlimit:2;">
    <g>
        <g transform="matrix(22.2222,0,0,22.2222,0,0)">
            <path d="M35.77,8.16C35.613,7.166 34.855,6.367 33.87,6.16L28,4.87C26.727,4.592 25.394,4.881 24.35,5.66L7,18.3L2.14,18.1C2.118,18.099 2.096,18.099 2.073,18.099C1.053,18.099 0.213,18.938 0.213,19.959C0.213,20.523 0.47,21.057 0.91,21.41L5.91,25.34C6.51,26.07 6.91,25.93 16.84,20.52L17.77,29.94C17.802,30.464 18.133,30.924 18.62,31.12C18.792,31.188 18.975,31.222 19.16,31.22C19.532,31.209 19.887,31.063 20.16,30.81L22.55,28.63C22.788,28.41 22.949,28.119 23.01,27.8L25.2,15.9C28.77,13.9 32.15,12.02 34.56,10.65C35.441,10.154 35.925,9.159 35.77,8.16ZM33.57,8.91C31.07,10.33 27.57,12.32 23.81,14.38L23.4,14.61L21.07,27.28L19.6,28.62L18.5,17.32L17.17,18C10,22 7.61,23.16 6.79,23.52L2.49,20.11L7.57,20.33L25.57,7.27C26.142,6.842 26.87,6.679 27.57,6.82L33.42,8.08C33.605,8.113 33.747,8.264 33.77,8.45C33.812,8.63 33.731,8.818 33.57,8.91Z" style="fill:rgb(64,64,64);fill-rule:nonzero;"/>
        </g>
        <g transform="matrix(22.2222,0,0,22.2222,0,0)">
            <path d="M7,12.54L10.56,13.54L12.2,12.35L8.2,11.19L10,10.09L15.47,9.93L17.77,8.26L10,8.5C9.755,8.487 9.512,8.546 9.3,8.67L6.67,10.2C6.281,10.43 6.042,10.85 6.042,11.301C6.042,11.882 6.438,12.394 7,12.54Z" style="fill:rgb(64,64,64);fill-rule:nonzero;"/>
        </g>
    </g>
</svg>
