<?xml version="1.0" encoding="UTF-8" standalone="no"?>
<!DOCTYPE svg PUBLIC "-//W3C//DTD SVG 1.1//EN" "http://www.w3.org/Graphics/SVG/1.1/DTD/svg11.dtd">
<svg width="100%" height="100%" viewBox="0 0 800 800" version="1.1" xmlns="http://www.w3.org/2000/svg" xmlns:xlink="http://www.w3.org/1999/xlink" xml:space="preserve" xmlns:serif="http://www.serif.com/" style="fill-rule:evenodd;clip-rule:evenodd;stroke-linejoin:round;stroke-miterlimit:2;">
    <g transform="matrix(1.68457,0,0,1.68457,0,-910.272)">
        <path d="M269.354,704.56C255.454,697.96 238.754,702.06 229.454,714.26C219.854,726.96 220.854,744.16 231.954,755.36L232.354,755.76C237.654,761.76 237.954,771.06 233.254,778.36C228.154,784.86 219.254,786.76 211.554,782.86C211.454,782.86 211.454,782.76 211.354,782.76C204.054,779.26 200.454,771.16 202.754,763.46C203.954,759.46 201.754,755.26 197.754,754.06C193.754,752.86 189.554,755.06 188.354,759.06C185.954,767.06 186.854,775.26 190.354,782.26L175.254,795.66C172.154,798.36 171.854,803.16 174.654,806.26C177.354,809.36 182.154,809.66 185.254,806.86L200.254,793.56C201.654,794.56 203.254,795.46 204.854,796.26C219.154,803.46 235.754,799.76 245.254,787.16C245.354,787.06 245.454,786.86 245.554,786.76C254.254,773.66 253.354,756.76 243.554,745.66L243.054,745.06C242.954,744.96 242.854,744.86 242.754,744.76C236.854,738.86 236.354,729.96 241.454,723.16C246.454,716.56 255.454,714.46 262.954,717.96C270.354,721.46 274.354,730.26 272.054,737.86C270.854,741.86 273.054,746.06 277.054,747.26C281.054,748.46 285.254,746.26 286.454,742.26C288.854,734.46 287.854,726.16 284.354,719.16L299.554,705.76C302.654,703.06 302.954,698.26 300.154,695.16C297.454,692.06 292.654,691.76 289.554,694.56L274.654,707.76C273.054,706.56 271.254,705.46 269.354,704.56Z" style="fill:rgb(64,64,64);fill-rule:nonzero;"/>
        <path d="M459.954,540.36L273.554,540.36C271.754,540.36 270.054,540.96 268.654,542.16L10.054,764.76C8.454,766.06 7.554,768.06 7.454,770.16C7.354,772.26 8.154,774.26 9.654,775.76L196.054,958.86C197.554,960.26 199.454,960.96 201.354,960.96C203.054,960.96 204.854,960.36 206.254,959.26L464.854,737.36C466.454,735.96 467.454,733.86 467.454,731.66L467.454,547.86C467.454,543.76 464.054,540.36 459.954,540.36ZM452.554,728.16L201.754,943.26L26.054,770.76L276.454,555.26L452.554,555.26L452.554,728.16Z" style="fill:rgb(64,64,64);fill-rule:nonzero;"/>
        <path d="M455.054,780.26L201.754,997.56L20.254,816.26C17.354,813.36 12.554,813.36 9.654,816.26C6.754,819.16 6.754,823.96 9.654,826.86L196.054,1013.06C197.554,1014.56 199.454,1015.26 201.354,1015.26C203.054,1015.26 204.854,1014.66 206.254,1013.56L464.854,791.66C467.954,788.96 468.354,784.16 465.654,781.06C462.954,777.96 458.154,777.56 455.054,780.26Z" style="fill:rgb(64,64,64);fill-rule:nonzero;"/>
        <path d="M382.254,669.26C406.554,669.26 426.254,649.56 426.254,625.26C426.254,600.96 406.554,581.26 382.254,581.26C358.454,581.26 339.054,601.06 339.054,625.26C339.054,649.56 358.454,669.26 382.254,669.26ZM382.254,596.36C398.254,596.36 411.254,609.36 411.254,625.36C411.254,641.36 398.254,654.36 382.254,654.36C366.754,654.36 354.054,641.36 354.054,625.36C354.054,609.36 366.654,596.36 382.254,596.36Z" style="fill:rgb(64,64,64);fill-rule:nonzero;"/>
    </g>
</svg>
