<?xml version="1.0" encoding="UTF-8" standalone="no"?>
<!DOCTYPE svg PUBLIC "-//W3C//DTD SVG 1.1//EN" "http://www.w3.org/Graphics/SVG/1.1/DTD/svg11.dtd">
<svg width="100%" height="100%" viewBox="0 0 524 800" version="1.1" xmlns="http://www.w3.org/2000/svg" xmlns:xlink="http://www.w3.org/1999/xlink" xml:space="preserve" xmlns:serif="http://www.serif.com/" style="fill-rule:evenodd;clip-rule:evenodd;stroke-linejoin:round;stroke-miterlimit:2;">
    <g transform="matrix(40,0,0,40,-138,0)">
        <path d="M12.825,10.653C12.943,10.395 13.27,10.156 13.552,10.124C13.834,10.092 14.091,9.834 14.123,9.552C14.157,9.272 14.395,8.944 14.652,8.825C14.917,8.69 15.066,8.399 15.021,8.105C14.963,7.827 15.089,7.442 15.297,7.251C15.508,7.04 15.56,6.716 15.424,6.45C15.285,6.167 15.285,5.836 15.424,5.553C15.56,5.287 15.508,4.962 15.297,4.752C15.089,4.559 14.964,4.175 15.021,3.898C15.067,3.604 14.917,3.311 14.652,3.176C14.374,3.028 14.179,2.759 14.123,2.449C14.076,2.156 13.845,1.924 13.552,1.877C13.241,1.822 12.973,1.627 12.825,1.349C12.69,1.084 12.397,0.935 12.103,0.983C11.791,1.027 11.476,0.924 11.249,0.705C11.056,0.495 10.696,0.439 10.449,0.578C10.202,0.717 9.797,0.717 9.551,0.578C9.286,0.44 8.96,0.491 8.75,0.703C8.524,0.922 8.208,1.025 7.896,0.981C7.603,0.934 7.31,1.083 7.176,1.348C7.057,1.604 6.73,1.843 6.448,1.875C6.154,1.922 5.923,2.154 5.876,2.448C5.821,2.758 5.626,3.027 5.347,3.174C5.083,3.31 4.934,3.602 4.981,3.896C5.036,4.173 4.911,4.558 4.703,4.75C4.495,4.942 4.437,5.302 4.576,5.551C4.715,5.797 4.715,6.202 4.576,6.448C4.44,6.714 4.492,7.039 4.703,7.25C4.912,7.44 5.036,7.825 4.981,8.104C4.934,8.397 5.083,8.689 5.347,8.824C5.605,8.943 5.842,9.271 5.875,9.551C5.909,9.833 6.165,10.091 6.447,10.123C6.729,10.155 7.056,10.395 7.175,10.652C7.31,10.916 7.602,11.064 7.895,11.018C8.173,10.963 8.558,11.087 8.749,11.296C8.96,11.507 9.284,11.558 9.55,11.423C9.796,11.284 10.201,11.284 10.448,11.423C10.695,11.562 11.055,11.504 11.248,11.296C11.441,11.086 11.824,10.963 12.102,11.018C12.396,11.065 12.689,10.917 12.825,10.653ZM10,9.399C8.135,9.399 6.6,7.864 6.6,5.999C6.6,4.134 8.135,2.599 10,2.599C11.865,2.599 13.4,4.134 13.4,5.999C13.4,7.864 11.865,9.399 10,9.399ZM5.975,11.409L4.732,18.458L7.86,17.994L10.641,19.5L11.879,12.479C9.854,13.071 7.664,12.674 5.975,11.409ZM13.961,11.457C13.649,11.684 13.317,11.884 12.971,12.054L12.223,16.29L15.592,14.462L13.961,11.457Z" style="fill:rgb(255,0,0);fill-rule:nonzero;"/>
    </g>
</svg>
