<?xml version="1.0" encoding="UTF-8" standalone="no"?>
<!DOCTYPE svg PUBLIC "-//W3C//DTD SVG 1.1//EN" "http://www.w3.org/Graphics/SVG/1.1/DTD/svg11.dtd">
<svg width="100%" height="100%" viewBox="0 0 800 800" version="1.1" xmlns="http://www.w3.org/2000/svg" xmlns:xlink="http://www.w3.org/1999/xlink" xml:space="preserve" xmlns:serif="http://www.serif.com/" style="fill-rule:evenodd;clip-rule:evenodd;stroke-linejoin:round;stroke-miterlimit:2;">
    <g transform="matrix(2.6936,0,0,2.6936,0,0)">
        <path d="M187.543,209.524C192.976,209.072 198.107,208.646 201.67,206.584C205.318,204.475 208.258,200.213 211.371,195.701C213.785,192.204 216.281,188.588 219.444,185.424C222.608,182.261 226.224,179.765 229.721,177.351C234.233,174.238 238.494,171.297 240.605,167.65C242.667,164.086 243.092,158.956 243.544,153.523C243.899,149.257 244.265,144.845 245.436,140.462C246.564,136.242 248.419,132.341 250.212,128.568C252.587,123.573 254.83,118.854 254.83,114.479C254.83,110.103 252.587,105.385 250.212,100.39C248.418,96.618 246.564,92.716 245.436,88.497C244.265,84.114 243.899,79.702 243.544,75.437C243.092,70.004 242.666,64.873 240.604,61.31C238.495,57.663 234.234,54.722 229.723,51.609C226.225,49.194 222.608,46.698 219.445,43.534C216.283,40.372 213.787,36.756 211.373,33.259C208.259,28.747 205.317,24.485 201.67,22.376C198.107,20.314 192.977,19.888 187.544,19.436C183.277,19.081 178.865,18.714 174.483,17.543C170.263,16.415 166.362,14.561 162.589,12.767C157.594,10.392 152.876,8.149 148.5,8.149C144.125,8.149 139.407,10.392 134.413,12.767C130.64,14.561 126.738,16.415 122.518,17.543C118.135,18.714 113.723,19.081 109.456,19.436C104.023,19.888 98.893,20.315 95.33,22.376C91.683,24.485 88.742,28.747 85.628,33.258C83.214,36.755 80.719,40.372 77.556,43.535C74.393,46.698 70.776,49.194 67.279,51.607C62.767,54.721 58.506,57.663 56.395,61.31C54.334,64.872 53.908,70.003 53.455,75.435C53.101,79.703 52.733,84.115 51.562,88.498C50.434,92.718 48.58,96.619 46.786,100.393C44.411,105.387 42.168,110.105 42.168,114.48C42.168,118.856 44.411,123.575 46.787,128.57C48.58,132.343 50.435,136.243 51.562,140.463C52.734,144.846 53.1,149.257 53.455,153.524C53.907,158.957 54.333,164.087 56.396,167.651C58.505,171.297 62.766,174.239 67.278,177.352C70.775,179.766 74.392,182.262 77.555,185.425C80.718,188.588 83.214,192.205 85.627,195.702C88.741,200.214 91.683,204.475 95.33,206.586C98.893,208.648 104.024,209.073 109.457,209.525C113.723,209.879 118.135,210.246 122.518,211.417C126.737,212.545 130.638,214.399 134.411,216.193C139.406,218.568 144.124,220.811 148.5,220.811C152.876,220.811 157.595,218.568 162.591,216.193C166.362,214.399 170.264,212.545 174.483,211.417C178.865,210.244 183.277,209.878 187.543,209.524ZM148.5,177.166C113.935,177.166 85.813,149.045 85.813,114.479C85.813,79.913 113.934,51.791 148.5,51.791C183.066,51.791 211.188,79.912 211.188,114.479C211.188,149.046 183.066,177.166 148.5,177.166Z" style="fill-rule:nonzero;"/>
        <path d="M253.976,174.449C250.176,181.014 243.655,185.96 238.242,189.696C235.161,191.823 232.25,193.832 230.051,196.031C227.852,198.229 225.843,201.14 223.716,204.221C219.981,209.634 215.746,215.768 209.181,219.567C202.703,223.315 195.309,223.93 188.785,224.472C185.01,224.786 181.443,225.082 178.355,225.908C175.463,226.68 170.625,228.976 167.318,230.549L221.96,285.192C224.345,287.576 227.54,288.852 230.8,288.852C232.208,288.852 233.629,288.615 235.001,288.125C239.549,286.499 242.755,282.401 243.234,277.594L246.962,240.196L286.133,235.042C290.85,234.421 294.807,231.174 296.336,226.67C297.867,222.163 296.704,217.179 293.34,213.815L253.976,174.449Z" style="fill-rule:nonzero;"/>
        <path d="M148.5,66.791C122.206,66.791 100.813,88.183 100.813,114.479C100.813,140.774 122.206,162.166 148.5,162.166C174.795,162.166 196.188,140.773 196.188,114.479C196.187,88.184 174.795,66.791 148.5,66.791Z" style="fill-rule:nonzero;"/>
        <path d="M129.683,230.549C126.374,228.976 121.537,226.68 118.645,225.907C115.557,225.083 111.991,224.786 108.215,224.472C101.691,223.93 94.296,223.315 87.819,219.568C81.254,215.768 77.019,209.634 73.283,204.221C71.156,201.14 69.147,198.229 66.948,196.031C64.749,193.832 61.839,191.823 58.758,189.696C53.345,185.96 46.824,181.014 43.025,174.449L3.66,213.814C0.296,217.179 -0.867,222.163 0.664,226.669C2.193,231.174 6.15,234.421 10.867,235.041L50.038,240.195L53.766,277.593C54.245,282.4 57.45,286.498 61.999,288.124C63.371,288.614 64.792,288.851 66.2,288.851C69.46,288.851 72.654,287.575 75.04,285.191L129.683,230.549Z" style="fill-rule:nonzero;"/>
    </g>
</svg>
