<?xml version="1.0" encoding="UTF-8" standalone="no"?>
<!DOCTYPE svg PUBLIC "-//W3C//DTD SVG 1.1//EN" "http://www.w3.org/Graphics/SVG/1.1/DTD/svg11.dtd">
<svg width="100%" height="100%" viewBox="0 0 656 800" version="1.1" xmlns="http://www.w3.org/2000/svg" xmlns:xlink="http://www.w3.org/1999/xlink" xml:space="preserve" xmlns:serif="http://www.serif.com/" style="fill-rule:evenodd;clip-rule:evenodd;stroke-linejoin:round;stroke-miterlimit:2;">
    <g>
        <g transform="matrix(25,0,0,25,-72,0)">
            <path d="M25.994,9.026L25.994,4.988C25.994,4.192 25.678,3.429 25.115,2.866C24.553,2.304 23.79,1.988 22.994,1.988L8.994,1.988C8.199,1.988 7.435,2.304 6.873,2.866C6.31,3.429 5.994,4.192 5.994,4.988L5.994,27C5.994,27.796 6.31,28.559 6.873,29.121C7.435,29.684 8.199,30 8.994,30L22.994,30C23.546,30 23.994,29.552 23.994,29C23.994,28.448 23.546,28 22.994,28L8.994,28C8.729,28 8.475,27.895 8.287,27.707C8.1,27.52 7.994,27.265 7.994,27L7.994,4.988C7.994,4.722 8.1,4.468 8.287,4.281C8.475,4.093 8.729,3.988 8.994,3.988L22.994,3.988C23.259,3.988 23.514,4.093 23.701,4.281C23.889,4.468 23.994,4.722 23.994,4.988L23.994,9.026C23.994,9.578 24.442,10.026 24.994,10.026C25.546,10.026 25.994,9.578 25.994,9.026Z"/>
        </g>
        <g transform="matrix(25,0,0,25,-72,0)">
            <path d="M14.996,8.026L14.007,8.026C13.455,8.026 13.007,8.474 13.007,9.026C13.007,9.578 13.455,10.026 14.007,10.026L14.993,10.026L14.991,11.011C14.991,11.563 15.438,12.012 15.99,12.013C16.542,12.014 16.991,11.566 16.991,11.014L16.993,10.026L17.982,10.026C18.534,10.026 18.982,9.578 18.982,9.026C18.982,8.474 18.534,8.026 17.982,8.026L16.996,8.026L16.998,7.04C16.998,6.488 16.551,6.039 15.999,6.039C15.447,6.038 14.998,6.485 14.998,7.037L14.996,8.026Z"/>
        </g>
        <g transform="matrix(25,0,0,25,-72,0)">
            <path d="M28.003,22.013L28.003,14.995C28.003,13.338 26.66,11.995 25.003,11.995L21.002,11.995C19.345,11.995 18.002,13.338 18.002,14.995L18.002,22.013C18.002,22.329 18.151,22.626 18.404,22.815L22.428,25.815C22.785,26.081 23.273,26.079 23.628,25.812L27.606,22.812C27.856,22.623 28.003,22.327 28.003,22.013ZM26.003,14.995L26.003,21.515L23.022,23.763L20.002,21.511L20.002,14.995C20.002,14.443 20.449,13.995 21.002,13.995L25.003,13.995C25.556,13.995 26.003,14.443 26.003,14.995Z"/>
        </g>
        <g transform="matrix(25,0,0,25,-72,0)">
            <path d="M10.993,16.988L14.997,16.991C15.549,16.992 15.997,16.544 15.998,15.992C15.998,15.44 15.551,14.992 14.999,14.991L10.995,14.988C10.443,14.987 9.995,15.435 9.994,15.987C9.994,16.539 10.441,16.987 10.993,16.988Z"/>
        </g>
        <g transform="matrix(25,0,0,25,-72,0)">
            <path d="M11.002,20.988L15.006,20.991C15.558,20.992 16.006,20.544 16.007,19.992C16.007,19.44 15.559,18.992 15.007,18.991L11.004,18.988C10.452,18.987 10.003,19.435 10.003,19.987C10.002,20.539 10.45,20.987 11.002,20.988Z"/>
        </g>
        <g transform="matrix(25,0,0,25,-72,0)">
            <path d="M10.993,24.988L14.997,24.991C15.549,24.992 15.997,24.544 15.998,23.992C15.998,23.44 15.551,22.992 14.999,22.991L10.995,22.988C10.443,22.987 9.995,23.435 9.994,23.987C9.994,24.539 10.441,24.987 10.993,24.988Z"/>
        </g>
    </g>
</svg>
