<?xml version="1.0" encoding="UTF-8" standalone="no"?>
<!DOCTYPE svg PUBLIC "-//W3C//DTD SVG 1.1//EN" "http://www.w3.org/Graphics/SVG/1.1/DTD/svg11.dtd">
<svg width="100%" height="100%" viewBox="0 0 800 800" version="1.1" xmlns="http://www.w3.org/2000/svg" xmlns:xlink="http://www.w3.org/1999/xlink" xml:space="preserve" xmlns:serif="http://www.serif.com/" style="fill-rule:evenodd;clip-rule:evenodd;stroke-linejoin:round;stroke-miterlimit:2;">
    <g id="satellite---1013-" serif:id="satellite-[#1013]" transform="matrix(40,0,0,40,-8160,-140760)">
        <path d="M221.407,3533.35L222.82,3534.76L218.582,3539L217.168,3537.59L221.407,3533.35ZM220.468,3532.41L216.229,3536.65L214.816,3535.24L219.054,3531L220.468,3532.41ZM207.751,3528.18L206.337,3526.77L210.576,3522.53L211.989,3523.94L207.751,3528.18ZM209.652,3521.61L205.414,3525.84L204,3524.43L208.239,3520.19L209.652,3521.61ZM211.283,3533.12L209.87,3531.71L214.109,3527.47C214.977,3528.34 214.654,3528.02 215.522,3528.88L211.283,3533.12ZM218.071,3522.96L220.037,3524.92L217.482,3525.51L218.071,3522.96ZM217.112,3527.65L224,3526.06L216.935,3519L215.345,3525.88L214.109,3524.65L207.044,3531.71L211.283,3535.94L218.348,3528.88L217.112,3527.65Z"/>
    </g>
</svg>
