<?xml version="1.0" encoding="UTF-8" standalone="no"?>
<!DOCTYPE svg PUBLIC "-//W3C//DTD SVG 1.1//EN" "http://www.w3.org/Graphics/SVG/1.1/DTD/svg11.dtd">
<svg width="100%" height="100%" viewBox="0 0 2997 2000" version="1.1" xmlns="http://www.w3.org/2000/svg" xmlns:xlink="http://www.w3.org/1999/xlink" xml:space="preserve" xmlns:serif="http://www.serif.com/" style="fill-rule:evenodd;clip-rule:evenodd;stroke-linejoin:round;stroke-miterlimit:2;">
    <g transform="matrix(1.96307,0,0,2,0,0)">
        <path d="M1526.31,110L1526.31,890C1526.31,950.711 1476.09,1000 1414.24,1000L112.069,1000C50.217,1000 0,950.711 0,890L0,110C0,49.289 50.217,0 112.069,0L1414.24,0C1476.09,0 1526.31,49.289 1526.31,110Z" style="fill:white;"/>
        <clipPath id="_clip1">
            <path d="M1526.31,110L1526.31,890C1526.31,950.711 1476.09,1000 1414.24,1000L112.069,1000C50.217,1000 0,950.711 0,890L0,110C0,49.289 50.217,0 112.069,0L1414.24,0C1476.09,0 1526.31,49.289 1526.31,110Z"/>
        </clipPath>
        <g clip-path="url(#_clip1)">
            <g transform="matrix(1.90788,0,0,1.87266,0,0)">
                <path d="M800,267L800,534L0,534L0,267C2,266.92 4,266.78 6,266.78L794,266.78C796,266.78 798,266.92 800,267Z" style="fill:rgb(254,254,254);fill-rule:nonzero;"/>
            </g>
            <g transform="matrix(1.90788,0,0,1.87266,0,0)">
                <path d="M800,267C798,266.92 796,266.78 794,266.78L6,266.78C4,266.78 2,266.92 0,267L0,0L800,0L800,267ZM242,198L256,188.83L269.39,198.41C268.782,193.892 267.664,189.457 266.06,185.19C265.22,182.83 265.55,181.3 267.8,179.83C271.59,177.35 275.13,174.49 278.8,171.83L278.49,170.83L261.55,170.83L255.72,153.51C253.92,158.99 252.28,163.33 251.1,167.8C250.4,170.46 249.02,171.11 246.5,171.02C241.96,170.85 237.4,170.97 231.58,170.97C236.43,174.53 240.08,177.35 243.9,179.97C245.9,181.32 246.33,182.63 245.53,184.97C244.08,189.18 243.03,193.52 241.81,197.82C241.608,198.01 241.424,198.217 241.26,198.44C241.096,198.663 241.44,198.67 241.53,198.79C241.7,198.52 241.87,198.28 242,198ZM290,135L290.48,135.74L290.74,135.32L290,135C289.38,132.46 288.9,129.88 288.11,127.39C285.48,119.04 285.44,119.06 292.41,113.97L300.52,108.04L282,108.04L276.15,90.67L270.28,108.26L252.25,108.26C256.82,111.6 260.17,114.35 263.83,116.63C266.52,118.3 266.73,120.15 265.75,122.84C264.3,126.84 263.1,130.93 261.75,134.99L262.5,135.54L276.05,126L290,135ZM188.93,228.9C145.64,214.32 118.5,185.73 115.93,139.79C113.03,87.38 140.84,54.44 189.33,37.39C182.601,35.954 175.739,35.23 168.858,35.23C115.042,35.23 70.758,79.514 70.758,133.33C70.758,155.855 78.516,177.708 92.72,195.19C118.88,227.27 159.78,236.52 188.93,228.9ZM222.65,51.74L216.8,69.29L198.63,69.29C203.23,72.64 206.75,75.41 210.49,77.85C212.87,79.41 213.31,80.93 212.25,83.62C210.59,87.83 209.47,92.25 207.8,97.62L220.75,88.29C221.895,87.471 223.445,87.471 224.59,88.29L237.59,97.53C235.85,92.17 234.7,88.04 233.16,84.06C232.248,81.656 233.18,78.918 235.37,77.57C238.94,75.32 242.24,72.57 245.64,70.1L245.28,68.98L228.41,68.98L222.65,51.74ZM154.74,134.74L155.64,135.4L169.18,125.74L184,136.38C182.38,131.26 181.38,127.06 179.72,123.14C178.31,119.81 179.22,118.03 182.07,116.24C185.63,114 188.91,111.31 193.37,108.05L175,108.05L169.14,90.7C167.25,96.3 165.62,100.58 164.4,104.97C163.75,107.34 162.66,108.17 160.24,108.08C155.55,107.92 150.84,108.08 144.9,108.08C149.76,111.63 153.42,114.46 157.26,117.08C159.26,118.43 159.69,119.9 158.92,122.08C157.45,126.24 156.13,130.52 154.74,134.78L154.74,134.74ZM166.84,170.94L166.56,171.83C170.06,174.38 173.46,177.07 177.08,179.44C179.53,181.04 180.4,182.54 179.17,185.53C177.46,189.66 176.37,194.04 174.68,199.4L189.55,188.68L204.39,199.18L199,181.9L213.68,171.08L195.48,171.08L189.59,153.62L183.74,171L166.84,170.94Z" style="fill:rgb(236,41,57);fill-rule:nonzero;"/>
            </g>
            <g transform="matrix(1.90788,0,0,1.87266,0,0)">
                <path d="M188.93,228.9C159.78,236.52 118.88,227.27 92.75,195.19C78.546,177.708 70.788,155.855 70.788,133.33C70.788,79.514 115.072,35.23 168.888,35.23C175.769,35.23 182.631,35.954 189.36,37.39C140.87,54.39 113.06,87.39 115.96,139.79C118.5,185.73 145.64,214.32 188.93,228.9Z" style="fill:rgb(254,254,254);fill-rule:nonzero;"/>
            </g>
            <g transform="matrix(1.90788,0,0,1.87266,0,0)">
                <path d="M222.65,51.74C224.76,58.02 226.54,63.34 228.41,68.92L245.25,68.92L245.8,69.92C242.34,72.47 238.99,75.22 235.36,77.52C232.65,79.22 232,81 233.14,84C234.68,88 235.83,92.12 237.57,97.47L222.67,86.87L207.8,97.58C209.47,92.25 210.59,87.83 212.25,83.58C213.31,80.89 212.87,79.37 210.49,77.81C206.75,75.37 203.23,72.6 198.63,69.25L216.8,69.25C218.72,63.51 220.5,58.17 222.65,51.74Z" style="fill:rgb(254,254,254);fill-rule:nonzero;"/>
            </g>
            <g transform="matrix(1.90788,0,0,1.87266,0,0)">
                <path d="M154.77,134.69C156.15,130.46 157.46,126.21 158.92,122.01C159.69,119.81 159.28,118.34 157.26,117.01C153.42,114.43 149.76,111.6 144.9,108.01C150.84,108.01 155.55,107.9 160.24,108.01C162.66,108.1 163.75,107.27 164.4,104.9C165.62,100.51 167.25,96.23 169.14,90.63C171.36,97.24 173.14,102.5 174.98,107.98L193.37,107.98C188.91,111.24 185.63,113.98 182.07,116.17C179.22,117.96 178.31,119.74 179.72,123.07C181.38,126.99 182.38,131.19 184,136.31L169.18,125.71L155.64,135.36L154.77,134.69Z" style="fill:rgb(254,254,254);fill-rule:nonzero;"/>
            </g>
            <g transform="matrix(1.90788,0,0,1.87266,0,0)">
                <path d="M166.85,171L183.74,171C185.65,165.31 187.47,159.88 189.57,153.64C191.68,159.92 193.57,165.38 195.46,171.1L213.66,171.1L199,181.9L204.41,199.22L189.57,188.72L174.7,199.44C176.39,194.08 177.48,189.7 179.19,185.57C180.42,182.57 179.55,181.08 177.1,179.48C173.5,177.12 170.1,174.48 166.62,171.9L166.85,171Z" style="fill:rgb(254,254,254);fill-rule:nonzero;"/>
            </g>
            <g transform="matrix(1.90788,0,0,1.87266,0,0)">
                <path d="M290,135L276.06,126L262.54,135.56L261.79,135.02C263.1,130.96 264.3,126.86 265.79,122.86C266.79,120.17 266.56,118.32 263.87,116.65C260.21,114.37 256.87,111.65 252.29,108.28L270.36,108.28L276.23,90.69L282,108L300.4,108C297.06,110.49 294.77,112.23 292.4,113.93C285.4,119.02 285.47,119 288.1,127.35C288.89,129.84 289.37,132.42 289.99,134.96L290,135Z" style="fill:rgb(254,254,254);fill-rule:nonzero;"/>
            </g>
            <g transform="matrix(1.90788,0,0,1.87266,0,0)">
                <path d="M241.81,197.79C243.03,193.49 244.08,189.15 245.53,184.94C246.33,182.62 245.9,181.31 243.9,179.94C240.08,177.36 236.43,174.54 231.58,170.94C237.4,170.94 241.96,170.82 246.5,170.99C249.02,171.08 250.4,170.43 251.1,167.77C252.28,163.3 253.92,158.96 255.72,153.48L261.55,170.8L278.46,170.8L278.79,171.8C275.14,174.5 271.59,177.35 267.79,179.8C265.54,181.27 265.21,182.8 266.05,185.16C267.654,189.427 268.772,193.862 269.38,198.38L256,188.86L242,198L241.81,197.79Z" style="fill:rgb(254,254,254);fill-rule:nonzero;"/>
            </g>
            <g transform="matrix(1.90788,0,0,1.87266,0,0)">
                <path d="M290,135L290.7,135.36L290.44,135.78L290,135Z" style="fill:rgb(254,254,254);fill-rule:nonzero;"/>
            </g>
            <g transform="matrix(1.90788,0,0,1.87266,0,0)">
                <path d="M242,198L241.5,198.73C241.41,198.61 241.2,198.41 241.23,198.38C241.394,198.157 241.578,197.95 241.78,197.76L242,198Z" style="fill:rgb(254,254,254);fill-rule:nonzero;"/>
            </g>
        </g>
    </g>
</svg>
