<?xml version="1.0" encoding="UTF-8" standalone="no"?>
<!DOCTYPE svg PUBLIC "-//W3C//DTD SVG 1.1//EN" "http://www.w3.org/Graphics/SVG/1.1/DTD/svg11.dtd">
<svg width="100%" height="100%" viewBox="0 0 800 800" version="1.1" xmlns="http://www.w3.org/2000/svg" xmlns:xlink="http://www.w3.org/1999/xlink" xml:space="preserve" xmlns:serif="http://www.serif.com/" style="fill-rule:evenodd;clip-rule:evenodd;stroke-linecap:round;stroke-linejoin:round;">
    <g transform="matrix(1.17313,0,0,1.17313,-74.1289,-70.1911)">
        <g transform="matrix(33.3333,0,0,33.3333,0,0)">
            <path d="M14.475,11.425C14.614,11.285 14.725,11.12 14.8,10.938C14.876,10.756 14.914,10.561 14.914,10.364C14.914,10.167 14.876,9.972 14.8,9.79C14.725,9.608 14.614,9.443 14.475,9.303C14.336,9.164 14.17,9.054 13.988,8.978C13.806,8.903 13.611,8.864 13.414,8.864C13.217,8.864 13.022,8.903 12.84,8.978C12.658,9.054 12.493,9.164 12.354,9.303L13.414,10.364L14.475,11.425Z" style="fill-rule:nonzero;"/>
        </g>
        <g transform="matrix(33.3333,0,0,33.3333,0,0)">
            <path d="M8.059,15.941C7.406,15.288 6.888,14.513 6.535,13.661C6.182,12.808 6,11.894 6,10.971C6,10.047 6.182,9.133 6.535,8.28C6.888,7.428 7.406,6.653 8.059,6L18,15.941C17.347,16.594 16.572,17.112 15.72,17.465C14.867,17.818 13.953,18 13.029,18C12.106,18 11.192,17.818 10.339,17.465C9.487,17.112 8.712,16.594 8.059,15.941ZM8.059,15.941L5,21L10,21M17.603,9.046C17.106,7.876 16.181,6.938 15.018,6.425M20.69,8.795C20.319,7.5 19.626,6.319 18.677,5.363C17.727,4.407 16.551,3.706 15.259,3.325" style="fill:none;fill-rule:nonzero;stroke:black;stroke-width:2px;"/>
        </g>
    </g>
</svg>
