<?xml version="1.0" encoding="UTF-8" standalone="no"?>
<!DOCTYPE svg PUBLIC "-//W3C//DTD SVG 1.1//EN" "http://www.w3.org/Graphics/SVG/1.1/DTD/svg11.dtd">
<svg width="100%" height="100%" viewBox="0 0 811 774" version="1.1" xmlns="http://www.w3.org/2000/svg" xmlns:xlink="http://www.w3.org/1999/xlink" xml:space="preserve" xmlns:serif="http://www.serif.com/" style="fill-rule:evenodd;clip-rule:evenodd;stroke-linejoin:round;stroke-miterlimit:2;">
    <g transform="matrix(0.527426,0,0,0.527344,-108.68,-127.173)">
        <path d="M973.76,257.767C977.571,261.616 1159.24,738.843 1173.31,776.416C1123.3,811.417 1072.07,849.857 1022.54,885.849L652.252,1154.77C609.281,1120.82 566.303,1085.41 523.662,1050.94C423.344,969.579 319.058,887.444 220.005,805.056C263.187,802.1 308.379,800.368 351.762,798.118L623.483,784.062C673.763,781.465 725.12,779.299 775.267,776.026L973.76,257.767Z" style="fill:rgb(32,73,132);fill-rule:nonzero;"/>
        <clipPath id="_clip1">
            <path d="M973.76,257.767C977.571,261.616 1159.24,738.843 1173.31,776.416C1123.3,811.417 1072.07,849.857 1022.54,885.849L652.252,1154.77C609.281,1120.82 566.303,1085.41 523.662,1050.94C423.344,969.579 319.058,887.444 220.005,805.056C263.187,802.1 308.379,800.368 351.762,798.118L623.483,784.062C673.763,781.465 725.12,779.299 775.267,776.026L973.76,257.767Z" clip-rule="nonzero"/>
        </clipPath>
        <g clip-path="url(#_clip1)">
            <g transform="matrix(3.50268,-1.52292,0.948595,2.18242,-2053.13,1114.57)">
                <ellipse cx="722" cy="319" rx="159" ry="196" style="fill:url(#_Linear2);"/>
            </g>
        </g>
    </g>
    <g transform="matrix(0.527426,0,0,0.527344,-108.68,-127.173)">
        <path d="M648.388,820.727C655.099,830.717 674.439,887.138 680.055,901.981C707.205,902.349 740.233,904.985 767.795,906.431C745.032,924.121 721.913,943.399 699.444,961.605C706.972,989.493 715.129,1018.28 721.958,1046.27C697.541,1030.2 673.027,1014.28 648.416,998.506C624.748,1014.69 599.032,1030.83 574.889,1046.52C582.909,1019.04 590.348,989.557 597.708,961.767C576.132,943.273 551.695,924.305 529.422,906.382L617.204,901.926L648.388,820.727Z" style="fill:white;fill-rule:nonzero;"/>
    </g>
    <g transform="matrix(0.527426,0,0,0.527344,-108.68,-127.173)">
        <path d="M970.581,590.75C974.398,594.729 998.217,660.46 1002.07,671.027C1025.47,673.81 1064.45,674.354 1089.82,675.757C1068.7,693.877 1043.72,713.133 1021.85,730.884C1028.24,757.971 1037.22,788.444 1044.56,815.499C1037.45,811.619 1025.97,803.704 1018.79,799.034L971.497,768.228C967.092,769.179 904.853,810.813 897.24,815.761C904.992,789.308 913.432,757.483 919.983,730.808L852.117,675.829C880.724,673.817 911.563,673.611 939.742,671.013C949.191,644.967 960.304,616.427 970.581,590.75Z" style="fill:white;fill-rule:nonzero;"/>
    </g>
    <g transform="matrix(0.527426,0,0,0.527344,-108.68,-127.173)">
        <path d="M433.377,820.73C436.373,825.02 445.575,850.994 447.774,857.016L487.679,859.125L456.718,884.171L467.039,922.606L434.491,901.52C432.129,901.183 404.674,919.746 400.115,922.694C403.842,910.802 407.34,896.533 410.651,884.352C400.712,875.938 390.015,867.476 379.893,859.182C393.091,858.584 406.282,857.838 419.464,856.942L433.377,820.73Z" style="fill:white;fill-rule:nonzero;"/>
    </g>
    <g transform="matrix(0.527426,0,0,0.527344,-108.68,-127.173)">
        <path d="M841.758,816.688C844.433,819.108 854.15,846.45 856.601,852.68L896.333,854.38L865.163,879.539L875.646,918.056L843.099,896.938C838.024,897.763 814.375,914.352 808.769,918.126C812.331,905.245 815.762,892.328 819.06,879.377C808.624,871.186 798.331,862.815 788.186,854.267C801.129,854.058 814.998,853.205 827.998,852.633C832.379,840.574 836.967,828.59 841.758,816.688Z" style="fill:white;fill-rule:nonzero;"/>
    </g>
    <g transform="matrix(0.527426,0,0,0.527344,-108.68,-127.173)">
        <path d="M970.395,412.502C974.122,415.708 982.992,441.955 985.179,447.918C997.418,448.108 1012.34,448.989 1024.48,450.064C1014.4,458.405 1004.27,466.692 994.1,474.924L1004.22,513.495C994.179,506.337 981.813,498.679 971.361,491.849C966.614,493.861 943.197,509.631 937.625,513.301L947.847,475.04C938.297,466.776 927.16,458.092 917.287,450.036C930.363,448.916 943.531,448.473 956.647,447.902L970.395,412.502Z" style="fill:white;fill-rule:nonzero;"/>
    </g>
    <g transform="matrix(0.527426,0,0,0.527344,-108.68,-127.173)">
        <path d="M1586.37,797.835C1628.9,798.043 1685.38,802.695 1728.72,805.101L1542.29,955.876C1519.47,974.36 1496.31,992.693 1473.7,1011.41C1433.55,1044.65 1391.08,1074.24 1348.91,1104.87L1173.27,1232.49L940.402,1401.71C891.265,1437.41 842.488,1474.28 791.778,1507.63C774.203,1519.18 756.485,1530.57 738.841,1542.03L594.093,1636.15C565.53,1654.97 536.821,1673.57 507.969,1691.94L529.925,1609.99C534.634,1592.43 539.664,1571.77 545.126,1554.65C554.623,1546.62 572.859,1534.21 583.531,1526.46L656.55,1473.41L886.849,1306.11L1586.37,797.835ZM1293.99,782.327L1466.49,791.241C1436.45,813.802 1404.34,836.474 1373.84,858.646L1189.35,992.707L677.413,1364.65C644.011,1389.54 609.571,1413.82 575.944,1438.6C591.221,1383.09 605.356,1326.75 621.04,1271.43C647.361,1250.26 684.323,1225.12 712.302,1204.8L890.114,1075.61L1150.45,886.466C1197.57,852.202 1246.36,815.53 1293.99,782.327ZM1313.95,1223.94C1316.36,1226.23 1341.83,1324.48 1344.85,1335.94C1273.7,1385.62 1202.26,1440.28 1131.23,1490.97L1093.1,1466.12L1033.67,1427.37C1047.37,1417.86 1060.78,1407.68 1074.35,1397.96C1154.52,1340.51 1233.52,1280.98 1313.95,1223.94ZM1365.05,1414.9C1367.7,1416.75 1392.97,1514.94 1396.05,1526.74C1363.69,1550.9 1329.79,1574.95 1297.04,1598.74L1258.56,1573.71L1199.34,1535.15C1254.12,1495.44 1309.88,1453.79 1365.05,1414.9ZM1416.08,1605.78L1416.71,1606.05C1419.11,1608.97 1437.91,1682.42 1440.9,1692.28L1409.54,1671.92C1394.7,1662.14 1379.75,1652.53 1364.7,1643.07L1416.08,1605.78Z" style="fill:rgb(232,6,32);"/>
        <clipPath id="_clip3">
            <path d="M1586.37,797.835C1628.9,798.043 1685.38,802.695 1728.72,805.101L1542.29,955.876C1519.47,974.36 1496.31,992.693 1473.7,1011.41C1433.55,1044.65 1391.08,1074.24 1348.91,1104.87L1173.27,1232.49L940.402,1401.71C891.265,1437.41 842.488,1474.28 791.778,1507.63C774.203,1519.18 756.485,1530.57 738.841,1542.03L594.093,1636.15C565.53,1654.97 536.821,1673.57 507.969,1691.94L529.925,1609.99C534.634,1592.43 539.664,1571.77 545.126,1554.65C554.623,1546.62 572.859,1534.21 583.531,1526.46L656.55,1473.41L886.849,1306.11L1586.37,797.835ZM1293.99,782.327L1466.49,791.241C1436.45,813.802 1404.34,836.474 1373.84,858.646L1189.35,992.707L677.413,1364.65C644.011,1389.54 609.571,1413.82 575.944,1438.6C591.221,1383.09 605.356,1326.75 621.04,1271.43C647.361,1250.26 684.323,1225.12 712.302,1204.8L890.114,1075.61L1150.45,886.466C1197.57,852.202 1246.36,815.53 1293.99,782.327ZM1313.95,1223.94C1316.36,1226.23 1341.83,1324.48 1344.85,1335.94C1273.7,1385.62 1202.26,1440.28 1131.23,1490.97L1093.1,1466.12L1033.67,1427.37C1047.37,1417.86 1060.78,1407.68 1074.35,1397.96C1154.52,1340.51 1233.52,1280.98 1313.95,1223.94ZM1365.05,1414.9C1367.7,1416.75 1392.97,1514.94 1396.05,1526.74C1363.69,1550.9 1329.79,1574.95 1297.04,1598.74L1258.56,1573.71L1199.34,1535.15C1254.12,1495.44 1309.88,1453.79 1365.05,1414.9ZM1416.08,1605.78L1416.71,1606.05C1419.11,1608.97 1437.91,1682.42 1440.9,1692.28L1409.54,1671.92C1394.7,1662.14 1379.75,1652.53 1364.7,1643.07L1416.08,1605.78Z"/>
        </clipPath>
        <g clip-path="url(#_clip3)">
            <g transform="matrix(4.56992,-1.98695,1.23763,2.84739,-2586.93,1778.09)">
                <ellipse cx="722" cy="319" rx="159" ry="196" style="fill:url(#_Linear4);"/>
            </g>
        </g>
    </g>
    <defs>
        <linearGradient id="_Linear2" x1="0" y1="0" x2="1" y2="0" gradientUnits="userSpaceOnUse" gradientTransform="matrix(318,0,0,392,563,319)"><stop offset="0" style="stop-color:rgb(18,67,137);stop-opacity:1"/><stop offset="1" style="stop-color:rgb(104,157,233);stop-opacity:1"/></linearGradient>
        <linearGradient id="_Linear4" x1="0" y1="0" x2="1" y2="0" gradientUnits="userSpaceOnUse" gradientTransform="matrix(318,0,0,392,563,319)"><stop offset="0" style="stop-color:rgb(164,0,0);stop-opacity:1"/><stop offset="1" style="stop-color:rgb(255,100,100);stop-opacity:1"/></linearGradient>
    </defs>
</svg>
