<?xml version="1.0" encoding="UTF-8" standalone="no"?>
<!DOCTYPE svg PUBLIC "-//W3C//DTD SVG 1.1//EN" "http://www.w3.org/Graphics/SVG/1.1/DTD/svg11.dtd">
<svg width="100%" height="100%" viewBox="0 0 800 800" version="1.1" xmlns="http://www.w3.org/2000/svg" xmlns:xlink="http://www.w3.org/1999/xlink" xml:space="preserve" xmlns:serif="http://www.serif.com/" style="fill-rule:evenodd;clip-rule:evenodd;stroke-linejoin:round;stroke-miterlimit:2;">
    <g transform="matrix(44.4444,0,0,44.4444,-133.333,-133.333)">
        <path d="M6,3C4.343,3 3,4.343 3,6L3,18C3,19.657 4.343,21 6,21L18,21C19.657,21 21,19.657 21,18L21,6C21,4.343 19.657,3 18,3L6,3ZM17.8,8.6C18.131,8.158 18.042,7.531 17.6,7.2C17.158,6.869 16.531,6.958 16.2,7.4L10.892,14.478L8.707,12.293C8.317,11.902 7.683,11.902 7.293,12.293C6.902,12.683 6.902,13.317 7.293,13.707L10.293,16.707C10.498,16.912 10.782,17.018 11.071,16.998C11.36,16.977 11.626,16.832 11.8,16.6L17.8,8.6Z"/>
    </g>
</svg>
