<?xml version="1.0" encoding="utf-8"?>
<!-- Generator: Adobe Illustrator 25.0.0, SVG Export Plug-In . SVG Version: 6.00 Build 0)  -->
<svg version="1.1" id="Layer_1" xmlns="http://www.w3.org/2000/svg" xmlns:xlink="http://www.w3.org/1999/xlink" x="0px" y="0px"
	 viewBox="0 0 83.3 83.3" style="enable-background:new 0 0 83.3 83.3;" xml:space="preserve">
<style type="text/css">
	.st0{fill:#00CC00;}
</style>
<path class="st0" d="M41.7,0C18.7,0,0,18.7,0,41.7s18.7,41.7,41.7,41.7s41.7-18.7,41.7-41.7S64.7,0,41.7,0z M65.4,32.1L36.3,61.3
	c-0.8,0.8-1.9,1.2-2.9,1.2s-2.1-0.4-2.9-1.2L17.9,48.8c-1.6-1.6-1.6-4.3,0-5.9s4.3-1.6,5.9,0l9.6,9.6l26.2-26.2
	c1.6-1.6,4.3-1.6,5.9,0C67.1,27.8,67.1,30.5,65.4,32.1z"/>
</svg>
