<?xml version="1.0" encoding="UTF-8" standalone="no"?>
<!DOCTYPE svg PUBLIC "-//W3C//DTD SVG 1.1//EN" "http://www.w3.org/Graphics/SVG/1.1/DTD/svg11.dtd">
<svg width="100%" height="100%" viewBox="0 0 800 800" version="1.1" xmlns="http://www.w3.org/2000/svg" xmlns:xlink="http://www.w3.org/1999/xlink" xml:space="preserve" xmlns:serif="http://www.serif.com/" style="fill-rule:evenodd;clip-rule:evenodd;stroke-linejoin:round;stroke-miterlimit:2;">
    <g transform="matrix(16.6667,0,0,16.6667,0,0)">
        <path d="M37.7,11.1C37.135,10.41 36.292,10.006 35.4,10L34.2,10L34.5,8.3C34.614,7.484 34.397,6.656 33.9,6C33.326,5.392 32.536,5.033 31.7,5L7.9,5C6.884,4.981 5.993,5.703 5.8,6.7C5.785,6.799 5.777,6.9 5.777,7C5.777,8.097 6.68,9 7.777,9L15.1,9C16.724,9.031 18.042,10.376 18.042,11.999C18.042,12.167 18.028,12.335 18,12.5L15.6,26.3C15.361,27.716 14.136,28.772 12.7,28.8L4.8,28.8C3.838,28.781 2.992,29.458 2.8,30.4L2,34.7C1.876,35.532 2.133,36.378 2.7,37C3.222,37.622 3.989,37.987 4.8,38L7.3,38C8.191,40.945 10.924,42.973 14,42.973C17.076,42.973 19.809,40.945 20.7,38L25.3,38C26.191,40.945 28.924,42.973 32,42.973C35.076,42.973 37.809,40.945 38.7,38L40.7,38C42.245,37.971 43.559,36.826 43.8,35.3L46,22.5L37.7,11.1ZM14,39C12.354,39 11,37.646 11,36C11,34.354 12.354,33 14,33C15.646,33 17,34.354 17,36C17,37.646 15.646,39 14,39ZM32,39C30.354,39 29,37.646 29,36C29,34.354 30.354,33 32,33C33.646,33 35,34.354 35,36C35,37.646 33.646,39 32,39ZM32.1,22L33.5,14L34.8,14L40.7,22L32.1,22Z" style="fill:rgb(64,64,64);fill-rule:nonzero;"/>
        <path d="M4,15L14,15C15.097,15 16,14.097 16,13C16,11.903 15.097,11 14,11L4,11C2.903,11 2,11.903 2,13C2,14.097 2.903,15 4,15Z" style="fill:rgb(64,64,64);fill-rule:nonzero;"/>
        <path d="M15,19C15,17.903 14.097,17 13,17L5,17C3.903,17 3,17.903 3,19C3,20.097 3.903,21 5,21L13,21C14.097,21 15,20.097 15,19Z" style="fill:rgb(64,64,64);fill-rule:nonzero;"/>
        <path d="M6,23C4.903,23 4,23.903 4,25C4,26.097 4.903,27 6,27L12,27C13.097,27 14,26.097 14,25C14,23.903 13.097,23 12,23L6,23Z" style="fill:rgb(64,64,64);fill-rule:nonzero;"/>
    </g>
</svg>
