<?xml version="1.0" encoding="UTF-8" standalone="no"?>
<!DOCTYPE svg PUBLIC "-//W3C//DTD SVG 1.1//EN" "http://www.w3.org/Graphics/SVG/1.1/DTD/svg11.dtd">
<svg width="100%" height="100%" viewBox="0 0 800 800" version="1.1" xmlns="http://www.w3.org/2000/svg" xmlns:xlink="http://www.w3.org/1999/xlink" xml:space="preserve" xmlns:serif="http://www.serif.com/" style="fill-rule:evenodd;clip-rule:evenodd;stroke-linejoin:round;stroke-miterlimit:2;">
    <g transform="matrix(16.6667,0,0,16.6667,0.25585,0.227612)">
        <path d="M37.7,11.1C37.135,10.41 36.292,10.006 35.4,10L34.2,10L34.5,8.3C34.614,7.484 34.397,6.656 33.9,6C33.326,5.392 32.536,5.033 31.7,5L7.8,5C6.703,5 5.8,5.903 5.8,7C5.8,8.097 6.703,9 7.8,9L30.3,9L26.3,31.9C25.849,32.537 25.51,33.248 25.3,34L20.7,34C19.809,31.055 17.076,29.027 14,29.027C10.924,29.027 8.191,31.055 7.3,34L6.2,34L6.7,31.1C6.881,30.032 6.164,29.001 5.1,28.8C4.032,28.619 3.001,29.336 2.8,30.4L2,34.7C1.876,35.532 2.133,36.378 2.7,37C3.222,37.622 3.989,37.987 4.8,38L7.3,38C8.191,40.945 10.924,42.973 14,42.973C17.076,42.973 19.809,40.945 20.7,38L25.3,38C26.191,40.945 28.924,42.973 32,42.973C35.076,42.973 37.809,40.945 38.7,38L40.7,38C42.245,37.971 43.559,36.826 43.8,35.3L46,22.5L37.7,11.1ZM14,39C12.354,39 11,37.646 11,36C11,34.354 12.354,33 14,33C15.646,33 17,34.354 17,36C17,37.646 15.646,39 14,39ZM33.5,14L34.8,14L40.7,22L32.1,22L33.5,14ZM32,39C30.354,39 29,37.646 29,36C29,34.354 30.354,33 32,33C33.646,33 35,34.354 35,36C35,37.646 33.646,39 32,39ZM40,34L38.7,34C37.819,31.045 35.084,29.004 32,29L30.9,29L31.4,25.9L41.3,25.9L40,34Z" style="fill-rule:nonzero;"/>
        <path d="M4,15L14,15C15.097,15 16,14.097 16,13C16,11.903 15.097,11 14,11L4,11C2.903,11 2,11.903 2,13C2,14.097 2.903,15 4,15Z" style="fill-rule:nonzero;"/>
        <path d="M15,19C15,17.903 14.097,17 13,17L5,17C3.903,17 3,17.903 3,19C3,20.097 3.903,21 5,21L13,21C14.097,21 15,20.097 15,19Z" style="fill-rule:nonzero;"/>
        <path d="M6,23C4.903,23 4,23.903 4,25C4,26.097 4.903,27 6,27L12,27C13.097,27 14,26.097 14,25C14,23.903 13.097,23 12,23L6,23Z" style="fill-rule:nonzero;"/>
    </g>
</svg>
