<?xml version="1.0" encoding="UTF-8" standalone="no"?>
<!DOCTYPE svg PUBLIC "-//W3C//DTD SVG 1.1//EN" "http://www.w3.org/Graphics/SVG/1.1/DTD/svg11.dtd">
<svg width="100%" height="100%" viewBox="0 0 1766 1100" version="1.1" xmlns="http://www.w3.org/2000/svg" xmlns:xlink="http://www.w3.org/1999/xlink" xml:space="preserve" xmlns:serif="http://www.serif.com/" style="fill-rule:evenodd;clip-rule:evenodd;">
    <g transform="matrix(0.239001,0,0,0.275641,0,0)">
        <path d="M0,0L7410,0L7410,3900L0,3900" style="fill:rgb(179,0,30);fill-rule:nonzero;"/>
    </g>
    <g transform="matrix(0.166667,0,0,0.166667,0,0)">
        <path d="M0,450L7410,450M7410,1050L0,1050M0,1650L7410,1650M7410,2250L0,2250M0,2850L7410,2850M7410,3450L0,3450" style="fill-rule:nonzero;stroke:white;stroke-width:300px;"/>
    </g>
    <g transform="matrix(0.166667,0,0,0.166667,536,0)">
        <path d="M0,450L7410,450M7410,1050L0,1050M0,1650L7410,1650M7410,2250L0,2250M0,2850L7410,2850M7410,3450L0,3450" style="fill-rule:nonzero;stroke:white;stroke-width:300px;"/>
    </g>
    <g transform="matrix(0.166667,0,0,0.166667,0,500)">
        <path d="M0,450L7410,450M7410,1050L0,1050M0,1650L7410,1650M7410,2250L0,2250M0,2850L7410,2850M7410,3450L0,3450" style="fill-rule:nonzero;stroke:white;stroke-width:300px;"/>
    </g>
    <g transform="matrix(0.166667,0,0,0.166667,536,500)">
        <path d="M0,450L7410,450M7410,1050L0,1050M0,1650L7410,1650M7410,2250L0,2250M0,2850L7410,2850M7410,3450L0,3450" style="fill-rule:nonzero;stroke:white;stroke-width:300px;"/>
    </g>
    <g transform="matrix(1.28644,0,0,1.28644,0,0)">
        <g transform="matrix(0.166667,0,0,0.166667,0,0)">
            <path d="M0,0L2964,0L2964,2100L0,2100" style="fill:rgb(10,49,97);fill-rule:nonzero;"/>
        </g>
        <g id="s18" transform="matrix(0.166667,0,0,0.166667,0,0)">
            <g id="s9">
                <g id="s5">
                    <g id="s4">
                        <path id="s" d="M247,90L317.534,307.082L132.873,172.918L361.127,172.918L176.466,307.082L247,90Z" style="fill:white;fill-rule:nonzero;"/>
                        <g id="s1" serif:id="s" transform="matrix(1,0,0,1,0,420)">
                            <path d="M247,90L317.534,307.082L132.873,172.918L361.127,172.918L176.466,307.082L247,90Z" style="fill:white;fill-rule:nonzero;"/>
                        </g>
                        <g id="s2" serif:id="s" transform="matrix(1,0,0,1,0,840)">
                            <path d="M247,90L317.534,307.082L132.873,172.918L361.127,172.918L176.466,307.082L247,90Z" style="fill:white;fill-rule:nonzero;"/>
                        </g>
                        <g id="s3" serif:id="s" transform="matrix(1,0,0,1,0,1260)">
                            <path d="M247,90L317.534,307.082L132.873,172.918L361.127,172.918L176.466,307.082L247,90Z" style="fill:white;fill-rule:nonzero;"/>
                        </g>
                    </g>
                    <g id="s6" serif:id="s" transform="matrix(1,0,0,1,0,1680)">
                        <path d="M247,90L317.534,307.082L132.873,172.918L361.127,172.918L176.466,307.082L247,90Z" style="fill:white;fill-rule:nonzero;"/>
                    </g>
                </g>
                <g id="s41" serif:id="s4" transform="matrix(1,0,0,1,247,210)">
                    <path id="s7" serif:id="s" d="M247,90L317.534,307.082L132.873,172.918L361.127,172.918L176.466,307.082L247,90Z" style="fill:white;fill-rule:nonzero;"/>
                    <g id="s8" serif:id="s" transform="matrix(1,0,0,1,0,420)">
                        <path d="M247,90L317.534,307.082L132.873,172.918L361.127,172.918L176.466,307.082L247,90Z" style="fill:white;fill-rule:nonzero;"/>
                    </g>
                    <g id="s10" serif:id="s" transform="matrix(1,0,0,1,0,840)">
                        <path d="M247,90L317.534,307.082L132.873,172.918L361.127,172.918L176.466,307.082L247,90Z" style="fill:white;fill-rule:nonzero;"/>
                    </g>
                    <g id="s11" serif:id="s" transform="matrix(1,0,0,1,0,1260)">
                        <path d="M247,90L317.534,307.082L132.873,172.918L361.127,172.918L176.466,307.082L247,90Z" style="fill:white;fill-rule:nonzero;"/>
                    </g>
                </g>
            </g>
            <g id="s91" serif:id="s9" transform="matrix(1,0,0,1,494,0)">
                <g id="s51" serif:id="s5">
                    <g id="s42" serif:id="s4">
                        <path id="s12" serif:id="s" d="M247,90L317.534,307.082L132.873,172.918L361.127,172.918L176.466,307.082L247,90Z" style="fill:white;fill-rule:nonzero;"/>
                        <g id="s13" serif:id="s" transform="matrix(1,0,0,1,0,420)">
                            <path d="M247,90L317.534,307.082L132.873,172.918L361.127,172.918L176.466,307.082L247,90Z" style="fill:white;fill-rule:nonzero;"/>
                        </g>
                        <g id="s14" serif:id="s" transform="matrix(1,0,0,1,0,840)">
                            <path d="M247,90L317.534,307.082L132.873,172.918L361.127,172.918L176.466,307.082L247,90Z" style="fill:white;fill-rule:nonzero;"/>
                        </g>
                        <g id="s15" serif:id="s" transform="matrix(1,0,0,1,0,1260)">
                            <path d="M247,90L317.534,307.082L132.873,172.918L361.127,172.918L176.466,307.082L247,90Z" style="fill:white;fill-rule:nonzero;"/>
                        </g>
                    </g>
                    <g id="s16" serif:id="s" transform="matrix(1,0,0,1,0,1680)">
                        <path d="M247,90L317.534,307.082L132.873,172.918L361.127,172.918L176.466,307.082L247,90Z" style="fill:white;fill-rule:nonzero;"/>
                    </g>
                </g>
                <g id="s43" serif:id="s4" transform="matrix(1,0,0,1,247,210)">
                    <path id="s17" serif:id="s" d="M247,90L317.534,307.082L132.873,172.918L361.127,172.918L176.466,307.082L247,90Z" style="fill:white;fill-rule:nonzero;"/>
                    <g id="s19" serif:id="s" transform="matrix(1,0,0,1,0,420)">
                        <path d="M247,90L317.534,307.082L132.873,172.918L361.127,172.918L176.466,307.082L247,90Z" style="fill:white;fill-rule:nonzero;"/>
                    </g>
                    <g id="s20" serif:id="s" transform="matrix(1,0,0,1,0,840)">
                        <path d="M247,90L317.534,307.082L132.873,172.918L361.127,172.918L176.466,307.082L247,90Z" style="fill:white;fill-rule:nonzero;"/>
                    </g>
                    <g id="s21" serif:id="s" transform="matrix(1,0,0,1,0,1260)">
                        <path d="M247,90L317.534,307.082L132.873,172.918L361.127,172.918L176.466,307.082L247,90Z" style="fill:white;fill-rule:nonzero;"/>
                    </g>
                </g>
            </g>
        </g>
        <g id="s181" serif:id="s18" transform="matrix(0.166667,0,0,0.166667,164.667,0)">
            <g id="s92" serif:id="s9">
                <g id="s52" serif:id="s5">
                    <g id="s44" serif:id="s4">
                        <path id="s22" serif:id="s" d="M247,90L317.534,307.082L132.873,172.918L361.127,172.918L176.466,307.082L247,90Z" style="fill:white;fill-rule:nonzero;"/>
                        <g id="s23" serif:id="s" transform="matrix(1,0,0,1,0,420)">
                            <path d="M247,90L317.534,307.082L132.873,172.918L361.127,172.918L176.466,307.082L247,90Z" style="fill:white;fill-rule:nonzero;"/>
                        </g>
                        <g id="s24" serif:id="s" transform="matrix(1,0,0,1,0,840)">
                            <path d="M247,90L317.534,307.082L132.873,172.918L361.127,172.918L176.466,307.082L247,90Z" style="fill:white;fill-rule:nonzero;"/>
                        </g>
                        <g id="s25" serif:id="s" transform="matrix(1,0,0,1,0,1260)">
                            <path d="M247,90L317.534,307.082L132.873,172.918L361.127,172.918L176.466,307.082L247,90Z" style="fill:white;fill-rule:nonzero;"/>
                        </g>
                    </g>
                    <g id="s26" serif:id="s" transform="matrix(1,0,0,1,0,1680)">
                        <path d="M247,90L317.534,307.082L132.873,172.918L361.127,172.918L176.466,307.082L247,90Z" style="fill:white;fill-rule:nonzero;"/>
                    </g>
                </g>
                <g id="s45" serif:id="s4" transform="matrix(1,0,0,1,247,210)">
                    <path id="s27" serif:id="s" d="M247,90L317.534,307.082L132.873,172.918L361.127,172.918L176.466,307.082L247,90Z" style="fill:white;fill-rule:nonzero;"/>
                    <g id="s28" serif:id="s" transform="matrix(1,0,0,1,0,420)">
                        <path d="M247,90L317.534,307.082L132.873,172.918L361.127,172.918L176.466,307.082L247,90Z" style="fill:white;fill-rule:nonzero;"/>
                    </g>
                    <g id="s29" serif:id="s" transform="matrix(1,0,0,1,0,840)">
                        <path d="M247,90L317.534,307.082L132.873,172.918L361.127,172.918L176.466,307.082L247,90Z" style="fill:white;fill-rule:nonzero;"/>
                    </g>
                    <g id="s30" serif:id="s" transform="matrix(1,0,0,1,0,1260)">
                        <path d="M247,90L317.534,307.082L132.873,172.918L361.127,172.918L176.466,307.082L247,90Z" style="fill:white;fill-rule:nonzero;"/>
                    </g>
                </g>
            </g>
            <g id="s93" serif:id="s9" transform="matrix(1,0,0,1,494,0)">
                <g id="s53" serif:id="s5">
                    <g id="s46" serif:id="s4">
                        <path id="s31" serif:id="s" d="M247,90L317.534,307.082L132.873,172.918L361.127,172.918L176.466,307.082L247,90Z" style="fill:white;fill-rule:nonzero;"/>
                        <g id="s32" serif:id="s" transform="matrix(1,0,0,1,0,420)">
                            <path d="M247,90L317.534,307.082L132.873,172.918L361.127,172.918L176.466,307.082L247,90Z" style="fill:white;fill-rule:nonzero;"/>
                        </g>
                        <g id="s33" serif:id="s" transform="matrix(1,0,0,1,0,840)">
                            <path d="M247,90L317.534,307.082L132.873,172.918L361.127,172.918L176.466,307.082L247,90Z" style="fill:white;fill-rule:nonzero;"/>
                        </g>
                        <g id="s34" serif:id="s" transform="matrix(1,0,0,1,0,1260)">
                            <path d="M247,90L317.534,307.082L132.873,172.918L361.127,172.918L176.466,307.082L247,90Z" style="fill:white;fill-rule:nonzero;"/>
                        </g>
                    </g>
                    <g id="s35" serif:id="s" transform="matrix(1,0,0,1,0,1680)">
                        <path d="M247,90L317.534,307.082L132.873,172.918L361.127,172.918L176.466,307.082L247,90Z" style="fill:white;fill-rule:nonzero;"/>
                    </g>
                </g>
                <g id="s47" serif:id="s4" transform="matrix(1,0,0,1,247,210)">
                    <path id="s36" serif:id="s" d="M247,90L317.534,307.082L132.873,172.918L361.127,172.918L176.466,307.082L247,90Z" style="fill:white;fill-rule:nonzero;"/>
                    <g id="s37" serif:id="s" transform="matrix(1,0,0,1,0,420)">
                        <path d="M247,90L317.534,307.082L132.873,172.918L361.127,172.918L176.466,307.082L247,90Z" style="fill:white;fill-rule:nonzero;"/>
                    </g>
                    <g id="s38" serif:id="s" transform="matrix(1,0,0,1,0,840)">
                        <path d="M247,90L317.534,307.082L132.873,172.918L361.127,172.918L176.466,307.082L247,90Z" style="fill:white;fill-rule:nonzero;"/>
                    </g>
                    <g id="s39" serif:id="s" transform="matrix(1,0,0,1,0,1260)">
                        <path d="M247,90L317.534,307.082L132.873,172.918L361.127,172.918L176.466,307.082L247,90Z" style="fill:white;fill-rule:nonzero;"/>
                    </g>
                </g>
            </g>
        </g>
        <g id="s94" serif:id="s9" transform="matrix(0.166667,0,0,0.166667,329.333,0)">
            <g id="s54" serif:id="s5">
                <g id="s48" serif:id="s4">
                    <path id="s40" serif:id="s" d="M247,90L317.534,307.082L132.873,172.918L361.127,172.918L176.466,307.082L247,90Z" style="fill:white;fill-rule:nonzero;"/>
                    <g id="s49" serif:id="s" transform="matrix(1,0,0,1,0,420)">
                        <path d="M247,90L317.534,307.082L132.873,172.918L361.127,172.918L176.466,307.082L247,90Z" style="fill:white;fill-rule:nonzero;"/>
                    </g>
                    <g id="s50" serif:id="s" transform="matrix(1,0,0,1,0,840)">
                        <path d="M247,90L317.534,307.082L132.873,172.918L361.127,172.918L176.466,307.082L247,90Z" style="fill:white;fill-rule:nonzero;"/>
                    </g>
                    <g id="s55" serif:id="s" transform="matrix(1,0,0,1,0,1260)">
                        <path d="M247,90L317.534,307.082L132.873,172.918L361.127,172.918L176.466,307.082L247,90Z" style="fill:white;fill-rule:nonzero;"/>
                    </g>
                </g>
                <g id="s56" serif:id="s" transform="matrix(1,0,0,1,0,1680)">
                    <path d="M247,90L317.534,307.082L132.873,172.918L361.127,172.918L176.466,307.082L247,90Z" style="fill:white;fill-rule:nonzero;"/>
                </g>
            </g>
            <g id="s410" serif:id="s4" transform="matrix(1,0,0,1,247,210)">
                <path id="s57" serif:id="s" d="M247,90L317.534,307.082L132.873,172.918L361.127,172.918L176.466,307.082L247,90Z" style="fill:white;fill-rule:nonzero;"/>
                <g id="s58" serif:id="s" transform="matrix(1,0,0,1,0,420)">
                    <path d="M247,90L317.534,307.082L132.873,172.918L361.127,172.918L176.466,307.082L247,90Z" style="fill:white;fill-rule:nonzero;"/>
                </g>
                <g id="s59" serif:id="s" transform="matrix(1,0,0,1,0,840)">
                    <path d="M247,90L317.534,307.082L132.873,172.918L361.127,172.918L176.466,307.082L247,90Z" style="fill:white;fill-rule:nonzero;"/>
                </g>
                <g id="s60" serif:id="s" transform="matrix(1,0,0,1,0,1260)">
                    <path d="M247,90L317.534,307.082L132.873,172.918L361.127,172.918L176.466,307.082L247,90Z" style="fill:white;fill-rule:nonzero;"/>
                </g>
            </g>
        </g>
        <g id="s510" serif:id="s5" transform="matrix(0.166667,0,0,0.166667,411.667,0)">
            <g id="s411" serif:id="s4">
                <path id="s61" serif:id="s" d="M247,90L317.534,307.082L132.873,172.918L361.127,172.918L176.466,307.082L247,90Z" style="fill:white;fill-rule:nonzero;"/>
                <g id="s62" serif:id="s" transform="matrix(1,0,0,1,0,420)">
                    <path d="M247,90L317.534,307.082L132.873,172.918L361.127,172.918L176.466,307.082L247,90Z" style="fill:white;fill-rule:nonzero;"/>
                </g>
                <g id="s63" serif:id="s" transform="matrix(1,0,0,1,0,840)">
                    <path d="M247,90L317.534,307.082L132.873,172.918L361.127,172.918L176.466,307.082L247,90Z" style="fill:white;fill-rule:nonzero;"/>
                </g>
                <g id="s64" serif:id="s" transform="matrix(1,0,0,1,0,1260)">
                    <path d="M247,90L317.534,307.082L132.873,172.918L361.127,172.918L176.466,307.082L247,90Z" style="fill:white;fill-rule:nonzero;"/>
                </g>
            </g>
            <g id="s65" serif:id="s" transform="matrix(1,0,0,1,0,1680)">
                <path d="M247,90L317.534,307.082L132.873,172.918L361.127,172.918L176.466,307.082L247,90Z" style="fill:white;fill-rule:nonzero;"/>
            </g>
        </g>
    </g>
</svg>
