<svg id="Layer_1" data-name="Layer 1" xmlns="http://www.w3.org/2000/svg" viewBox="0 0 340.79 408.79"><path d="M63,408.79c-4.76-1-9.62-1.72-14.29-3.07C19.72,397.33,1.54,375,.26,344.59-1.06,313,2.4,281.86,14.41,252.28c7.76-19.1,19-35.61,37.88-45.72a74.69,74.69,0,0,1,37.18-8.92c4.11.08,8.45,2.17,12.21,4.21,6.06,3.3,11.67,7.39,17.55,11q51.3,31.68,102.57-.07c4.74-2.94,9.58-5.78,14-9.12,8.18-6.13,17.17-6.89,26.89-5.47,26.51,3.9,45.24,18.42,57.87,41.59C331.87,260.49,337,283,339.2,306.1a327.19,327.19,0,0,1,1.56,35.83c-.42,35.67-24.9,62.2-60.37,66.12a15.58,15.58,0,0,0-2.6.74Zm107.42-24v-.06c33.8,0,67.59.3,101.38-.09,28.08-.33,45.32-18.23,45.09-46.28a313.54,313.54,0,0,0-1.69-31.85c-2.12-19-6-37.51-15.24-54.55-9.54-17.67-23.35-29.11-44.14-30.25a10.5,10.5,0,0,0-5.56,1.36c-5.15,3-10.09,6.42-15.16,9.6-37.78,23.69-76.9,26.69-117.13,6.9-9.37-4.61-17.94-10.87-26.92-16.3-1.32-.79-2.9-1.78-4.31-1.71-12.92.58-24.51,4.63-33.8,14-7.7,7.76-13.09,17.08-17,27.19-10,25.87-12.46,53-11.8,80.35.36,15,6.83,27.22,20.12,35.07,8.86,5.23,18.67,6.65,28.78,6.64Z"/><path d="M266.37,98.36c.17,54.31-43.5,98.1-98.3,98.57-54,.46-98.36-43.68-98.64-98.19a98.47,98.47,0,1,1,196.94-.38ZM167.88,173a74.52,74.52,0,1,0-74.5-74.54A74.29,74.29,0,0,0,167.88,173Z"/></svg>