<?xml version="1.0" encoding="utf-8"?>
<!-- Generator: Adobe Illustrator 25.0.0, SVG Export Plug-In . SVG Version: 6.00 Build 0)  -->
<svg version="1.1" id="Layer_1" xmlns="http://www.w3.org/2000/svg" xmlns:xlink="http://www.w3.org/1999/xlink" x="0px" y="0px"
	 viewBox="0 0 568 568" style="enable-background:new 0 0 568 568;" xml:space="preserve">
<path d="M284,50c31.6,0,62.3,6.2,91.1,18.4c27.9,11.8,52.9,28.7,74.4,50.2c21.5,21.5,38.4,46.5,50.2,74.4
	c12.2,28.8,18.4,59.5,18.4,91.1s-6.2,62.3-18.4,91.1c-11.8,27.9-28.7,52.9-50.2,74.4c-21.5,21.5-46.5,38.4-74.4,50.2
	C346.3,511.8,315.6,518,284,518s-62.3-6.2-91.1-18.4c-27.9-11.8-52.9-28.7-74.4-50.2C97,428,80.2,402.9,68.4,375.1
	C56.2,346.3,50,315.6,50,284s6.2-62.3,18.4-91.1c11.8-27.9,28.7-52.9,50.2-74.4C140,97,165.1,80.2,192.9,68.4
	C221.7,56.2,252.4,50,284,50 M284,0C127.2,0,0,127.2,0,284s127.2,284,284,284s284-127.2,284-284S440.8,0,284,0L284,0z"/>
<path d="M281.3,276.6c-54.8-0.3-98.7-44.5-98.3-98.9c0.3-54.4,44.5-98.2,98.8-98.1c53.4,0,98.6,44.3,98.1,98.8
	C379.4,233.1,335.4,276.9,281.3,276.6z"/>
<g>
	<path d="M137.8,527.5c1.2,0.7,2.4,1.4,3.6,2.1C140.2,528.9,139,528.2,137.8,527.5z"/>
	<path d="M149.9,534.4c1.2,0.7,2.4,1.3,3.7,1.9C152.3,535.7,151.1,535,149.9,534.4z"/>
	<path d="M212.7,559c-2-0.5-3.9-1-5.9-1.6C208.8,557.9,210.8,558.5,212.7,559z"/>
	<path d="M143.1,530.6c1.7,0.9,3.3,1.9,5,2.8C146.4,532.5,144.7,531.6,143.1,530.6z"/>
	<path d="M205.1,556.9c-1.5-0.4-2.9-0.8-4.3-1.3C202.2,556,203.6,556.5,205.1,556.9z"/>
	<path d="M155.5,537.3c1.5,0.8,3.1,1.5,4.6,2.3C158.6,538.9,157.1,538.1,155.5,537.3z"/>
	<path d="M198.8,555c-1.9-0.6-3.8-1.2-5.7-1.9C195,553.8,196.9,554.4,198.8,555z"/>
	<path d="M284,568c-2.2,0-4.4,0-6.6-0.1C279.6,568,281.8,568,284,568z"/>
	<path d="M284,568c2.2,0,4.4,0,6.5-0.1C288.4,568,286.2,568,284,568z"/>
	<path d="M132,523.9c1.3,0.8,2.6,1.6,3.8,2.4C134.6,525.5,133.3,524.7,132,523.9z"/>
	<path d="M390.5,547.3c0.4-0.2,0.8-0.3,1.2-0.5C391.3,547,390.9,547.2,390.5,547.3z"/>
	<path d="M161.6,540.3c1.6,0.7,3.1,1.5,4.7,2.2C164.7,541.8,163.2,541.1,161.6,540.3z"/>
	<path d="M386,549.1c0.2-0.1,0.4-0.2,0.6-0.2C386.4,549,386.2,549,386,549.1z"/>
	<path d="M452.8,385.7c-2.7-23.1-7.5-45.6-18.7-66.3c-12.6-23.2-31.3-37.7-57.9-41.6c-9.7-1.4-18.7-0.6-26.9,5.5
		c-4.4,3.3-9.3,6.2-14,9.1c-34.2,21.2-68.4,21.2-102.6,0.1c-5.9-3.6-11.6-7.5-17.5-11.1c-3.8-2.4-7.7-4.4-12.3-4.3
		c-13.1,0.2-25.5,2.9-37.2,9.1c-18.9,10.1-30.1,26.6-37.9,45.7c-12,29.6-15.5,60.7-14.1,92.3c0.2,5.2,0.9,13.1,2.1,22.6
		c0.9,0.9,1.7,1.8,2.6,2.7c21.5,21.5,46.5,38.4,74.4,50.2c28.8,12.2,59.5,18.4,91.1,18.4c31.6,0,62.3-6.2,91.1-18.4
		c27.9-11.8,52.9-28.7,74.4-50.2c0.8-0.8,1.7-1.7,2.5-2.6c1.5-10.4,2.3-19.2,2.4-25.3C454.7,409.6,454.1,397.6,452.8,385.7z"/>
	<path d="M404,541.4c0.2-0.1,0.4-0.2,0.6-0.3C404.4,541.3,404.2,541.3,404,541.4z"/>
	<path d="M376.8,552.5c0.6-0.2,1.2-0.4,1.8-0.6C378,552,377.4,552.3,376.8,552.5z"/>
	<path d="M174,545.9c1.8,0.8,3.6,1.5,5.4,2.2C177.6,547.4,175.8,546.7,174,545.9z"/>
	<path d="M187.3,551.1c1.6,0.6,3.2,1.1,4.7,1.7C190.4,552.2,188.8,551.7,187.3,551.1z"/>
	<path d="M168.3,543.4c1.3,0.6,2.6,1.2,3.9,1.7C170.9,544.6,169.6,544,168.3,543.4z"/>
	<path d="M181.1,548.8c1.4,0.5,2.8,1.1,4.2,1.6C183.9,549.8,182.5,549.3,181.1,548.8z"/>
	<path d="M239.6,564.5c-1.6-0.2-3.2-0.5-4.8-0.8C236.5,564,238,564.3,239.6,564.5z"/>
	<path d="M328.3,564.6c1.6-0.2,3.1-0.5,4.7-0.8C331.4,564,329.9,564.3,328.3,564.6z"/>
	<path d="M357,558.5c1-0.3,1.9-0.5,2.9-0.8C358.9,558,357.9,558.3,357,558.5z"/>
	<path d="M335.2,563.4c1.7-0.3,3.3-0.6,5-1C338.5,562.8,336.9,563.1,335.2,563.4z"/>
	<path d="M348.9,560.5c1.7-0.4,3.5-0.8,5.2-1.3C352.4,559.7,350.6,560.1,348.9,560.5z"/>
	<path d="M342.7,561.9c1.2-0.3,2.4-0.5,3.6-0.8C345.1,561.4,343.9,561.7,342.7,561.9z"/>
	<path d="M321.4,565.5c1.6-0.2,3.1-0.4,4.7-0.7C324.5,565.1,322.9,565.3,321.4,565.5z"/>
	<path d="M298.9,567.6c2.1-0.1,4.2-0.2,6.3-0.4C303.2,567.4,301.1,567.5,298.9,567.6z"/>
	<path d="M292.3,567.9c1.8-0.1,3.6-0.1,5.3-0.2C295.9,567.8,294.1,567.8,292.3,567.9z"/>
	<path d="M313.7,566.5c2-0.2,4.1-0.4,6.1-0.7C317.8,566,315.8,566.2,313.7,566.5z"/>
	<path d="M307,567.1c1.6-0.1,3.2-0.3,4.9-0.4C310.2,566.8,308.6,566.9,307,567.1z"/>
	<path d="M275.6,567.9c-1.7,0-3.4-0.1-5.1-0.2C272.2,567.8,273.9,567.8,275.6,567.9z"/>
	<path d="M233.1,563.5c-2-0.4-4.1-0.8-6.1-1.2C229.1,562.7,231.1,563.1,233.1,563.5z"/>
	<path d="M254.1,566.4c-1.9-0.2-3.8-0.4-5.7-0.6C250.3,566,252.2,566.2,254.1,566.4z"/>
	<path d="M247.7,565.7c-2.1-0.3-4.2-0.6-6.3-0.9C243.5,565.1,245.6,565.4,247.7,565.7z"/>
	<path d="M225.8,562c-1.7-0.3-3.3-0.7-5-1.1C222.5,561.3,224.1,561.7,225.8,562z"/>
	<path d="M261.1,567.1c-1.7-0.1-3.4-0.3-5.2-0.5C257.7,566.8,259.4,566.9,261.1,567.1z"/>
	<path d="M371.2,554.3c0.7-0.2,1.4-0.5,2.2-0.7C372.6,553.9,371.9,554.1,371.2,554.3z"/>
	<path d="M218.9,560.5c-1.6-0.4-3.3-0.8-4.9-1.2C215.6,559.7,217.3,560.1,218.9,560.5z"/>
	<path d="M268.9,567.6c-2.1-0.1-4.3-0.2-6.4-0.4C264.6,567.4,266.8,567.5,268.9,567.6z"/>
	<path d="M363,556.9c0.9-0.3,1.8-0.5,2.7-0.8C364.8,556.3,363.9,556.6,363,556.9z"/>
</g>
</svg>
