<svg id="Layer_1" data-name="Layer 1" xmlns="http://www.w3.org/2000/svg" viewBox="0 0 340.93 408.86"><path d="M63,408.86c-4.64-1-9.35-1.67-13.91-2.95C20,397.71,1.55,375.24.27,344.66c-1.33-31.59,2.14-62.73,14.14-92.31,7.75-19.1,19-35.62,37.88-45.71,11.64-6.22,24.11-8.91,37.18-9.1,4.53-.07,8.52,1.93,12.27,4.28,5.85,3.67,11.62,7.49,17.5,11.12q51.29,31.68,102.56-.07c4.74-2.94,9.59-5.78,14-9.12,8.18-6.12,17.18-6.89,26.89-5.47,26.52,3.9,45.24,18.43,57.87,41.59,11.27,20.69,16.07,43.18,18.72,66.29A268.23,268.23,0,0,1,340.87,342c-.71,35.65-25,62.2-60.48,66.09-.91.1-1.89,0-2.59.76Z"/><path d="M167.74,197c-54.85-.33-98.72-44.47-98.31-98.93A98.53,98.53,0,0,1,168.25,0c53.41,0,98.62,44.32,98.14,98.78C265.9,153.55,221.87,197.32,167.74,197Z"/></svg>