<?xml version="1.0" encoding="UTF-8" standalone="no"?>
<!DOCTYPE svg PUBLIC "-//W3C//DTD SVG 1.1//EN" "http://www.w3.org/Graphics/SVG/1.1/DTD/svg11.dtd">
<svg width="100%" height="100%" viewBox="0 0 3300 3300" version="1.1" xmlns="http://www.w3.org/2000/svg" xmlns:xlink="http://www.w3.org/1999/xlink" xml:space="preserve" xmlns:serif="http://www.serif.com/" style="fill-rule:evenodd;clip-rule:evenodd;stroke-linejoin:round;stroke-miterlimit:2;">
    <g transform="matrix(7.7627,0,0,7.7627,133.929,64.5672)">
        <g transform="matrix(1,0,0,1,4.7983,9.1869)">
            <path d="M0,19.668C-1.204,18.96 -2.08,18.445 -2.982,17.915L-2.982,12.046C-2.333,10.869 -1.576,9.494 -0.76,8.014C-1.942,6.156 -3.164,4.236 -4.798,1.667C-3.878,1.317 -2.973,0.973 -2.068,0.629C-2.259,0.419 -2.449,0.21 -2.64,0L2.333,0C3.466,1.583 4.803,3.45 6.211,5.418C3.262,9.684 0.41,13.918 0,19.668" style="fill-rule:nonzero;"/>
        </g>
        <g transform="matrix(1,0,0,1,10.6142,25.9942)">
            <path d="M0,11.264C-1.591,10.075 -2.424,9.452 -3.084,8.959L-3.084,1.757C-2.553,1.225 -2.159,0.831 -1.327,0C-1.267,0.802 -1.206,1.611 -1.146,2.419C-0.764,2.118 -0.382,1.815 0,1.514L0,11.264Z" style="fill-rule:nonzero;"/>
        </g>
        <g transform="matrix(1,0,0,1,225.651,77.2531)">
            <path d="M0,-8.886C-0.14,-7.141 0.763,-5.337 -0.779,-4.134C-0.393,-2.865 -0.043,-1.719 0.481,0" style="fill-rule:nonzero;"/>
        </g>
        <g transform="matrix(1,0,0,1,15.2534,30.7186)">
            <path d="M0,-2.247L0,-0.22C-0.578,-0.11 -1.085,-0.013 -1.674,0.1C-2.555,-1.408 -2.537,-2.347 0,-2.247" style="fill-rule:nonzero;"/>
        </g>
        <g transform="matrix(1,0,0,1,158.912,50.9192)">
            <path d="M0,-1.996L1.648,-1.996C1.769,-1.42 1.9,-0.791 2.064,0" style="fill-rule:nonzero;"/>
        </g>
        <g transform="matrix(1,0,0,1,365.547,336.638)">
            <path d="M0,-264.092C0,-261.846 -0.084,-259.852 0.021,-257.867C0.156,-255.327 -0.369,-253.703 -3.449,-253.482C-4.779,-253.385 -6.014,-251.945 -7.291,-251.114C-7.57,-251.404 -7.849,-251.693 -8.127,-251.982C-5.961,-256.147 -4.705,-260.874 0,-264.092M-13.19,-251.446C-13.701,-251.957 -14.221,-252.476 -14.835,-253.09C-13.648,-254.116 -12.472,-255.135 -10.597,-256.758C-10.422,-254.486 -10.312,-253.041 -10.188,-251.446L-13.19,-251.446ZM-16.076,-300.286C-15.231,-301.272 -14.652,-301.947 -14.154,-302.529C-13.603,-302.441 -13.198,-302.483 -12.92,-302.316C-10.699,-300.985 -11.521,-298.933 -11.272,-296.349C-12.96,-296.949 -14.255,-297.088 -15.052,-297.791C-15.73,-298.389 -15.835,-299.638 -16.076,-300.286M-17.896,-252.328L-17.896,-255.878C-17.444,-255.929 -16.992,-255.98 -16.539,-256.03C-16.293,-254.997 -16.047,-253.965 -15.76,-252.761C-16.568,-252.597 -17.077,-252.494 -17.896,-252.328M-21.496,-299.383C-20.119,-300.507 -19.493,-301.018 -18.541,-301.796C-18.32,-300.708 -18.218,-300.202 -18.052,-299.383L-21.496,-299.383ZM-25.275,-297.73C-26.246,-300.723 -26.246,-300.723 -23.195,-302.723C-22.113,-299.927 -23.191,-298.655 -25.275,-297.73M-44.129,-296.396C-44.229,-297.808 -44.302,-298.812 -44.39,-300.035L-41.037,-300.035C-40.68,-297.662 -42.171,-297.188 -44.129,-296.396M-48.248,-296.833L-49.725,-296.833C-50.264,-298.978 -50.506,-300.987 -48.287,-302.461C-47.772,-301.946 -47.254,-301.427 -46.497,-300.671C-47.059,-299.442 -47.667,-298.106 -48.248,-296.833M-51.061,-307.972L-46.838,-307.972C-47.527,-304.879 -47.537,-304.89 -51.061,-305.137L-51.061,-307.972ZM-50.303,-115.939C-49.754,-115.084 -49.195,-114.216 -48.303,-112.825C-50.25,-112.729 -51.633,-112.659 -53.088,-112.587C-53.713,-113.559 -54.271,-114.428 -55.241,-115.939L-50.303,-115.939ZM-33.912,-218.255L-32.033,-218.255L-32.033,-215.049L-33.912,-215.049L-33.912,-218.255ZM-26.445,-210.537L-26.445,-206.988L-28.204,-206.988C-28.289,-207.959 -28.376,-208.964 -28.478,-210.126C-27.773,-210.269 -27.266,-210.372 -26.445,-210.537M-59.959,-228.259C-58.569,-229.69 -57.998,-230.278 -57.152,-231.148C-56.97,-230.189 -56.874,-229.688 -56.731,-228.939C-57.422,-228.794 -58.046,-228.662 -59.959,-228.259M-65.483,-226.623C-65.75,-228.041 -65.869,-228.675 -66.017,-229.462C-65.271,-229.605 -64.762,-229.702 -64.254,-229.799C-64.003,-229.55 -63.752,-229.301 -63.5,-229.051C-64.012,-228.425 -64.523,-227.799 -65.483,-226.623M-83.861,-59.112C-83.895,-59.447 -83.928,-59.782 -83.961,-60.118L-80.942,-60.118L-80.881,-59.541C-81.875,-59.398 -82.868,-59.255 -83.861,-59.112M-87.729,-56.238C-89.113,-56.486 -90.278,-56.781 -91.461,-56.88C-92.729,-56.985 -94.011,-56.904 -95.396,-56.904L-95.396,-61.451L-86.411,-61.451C-85.875,-59.287 -87.596,-57.769 -87.729,-56.238M-97.269,28.38C-99.731,24.923 -99.73,24.916 -96.023,22.506C-95.071,24.721 -95.026,26.597 -97.269,28.38M-95.699,35.095L-97.59,35.095L-97.59,30.745L-95.699,30.745L-95.699,35.095ZM-104.604,42.868C-104.698,42.476 -104.794,42.084 -104.889,41.691C-104.006,40.95 -103.123,40.21 -101.701,39.017C-101.415,40.632 -101.244,41.597 -101.018,42.868L-104.604,42.868ZM-111.238,42.869C-109.777,41.308 -108.902,40.373 -107.426,38.795C-107.1,40.631 -106.929,41.596 -106.637,43.243C-108.298,43.108 -109.308,43.026 -111.238,42.869M-123.8,60.682C-126.047,59.991 -127.52,59.297 -129.046,59.143C-130.295,59.018 -131.608,59.538 -133.295,59.845C-132.268,57.631 -131.332,55.616 -130.245,53.275C-129.185,53.685 -128.104,54.425 -127.015,54.435C-125.861,54.446 -124.701,53.765 -123.357,53.325C-121.521,55.959 -124.99,57.793 -123.8,60.682M-143.166,56.845L-143.166,53.623C-140.857,52.954 -139.335,53.555 -138.491,56.478C-140.119,56.606 -141.575,56.72 -143.166,56.845M-146.49,-47.205L-146.49,-51.292C-145.634,-51.142 -145.002,-51.031 -143.857,-50.831C-144.767,-49.579 -145.405,-48.699 -146.49,-47.205M-146.007,56.699L-149.94,56.699C-149.43,55.552 -148.983,54.549 -148.318,53.056C-146.977,53.6 -145.618,54.152 -144.082,54.775C-144.948,55.641 -145.467,56.16 -146.007,56.699M-163.961,-150.359L-172.581,-150.359C-173.201,-154.251 -174.225,-158.413 -175.362,-162.436C-176.82,-167.592 -177.432,-173.15 -180.549,-177.863C-182.589,-180.947 -183.27,-184.787 -184.021,-188.295C-185.363,-194.553 -187.708,-200.396 -189.685,-206.404C-190.296,-208.266 -190.906,-210.058 -191.817,-211.777C-193.555,-215.052 -194.958,-218.535 -199.19,-219.582C-200.303,-219.858 -201.187,-221.173 -202.111,-222.077C-204.381,-224.301 -206.612,-226.564 -209.119,-229.071C-210.246,-228.036 -211.164,-227.193 -212.177,-226.262C-212.799,-227.139 -213.41,-228.003 -214.47,-229.497C-208.274,-229.651 -202.646,-229.673 -197.964,-233.316C-195.642,-231.26 -192.953,-232.2 -190.791,-232.025C-189.737,-232.568 -188.959,-232.969 -187.951,-233.488C-186.073,-232.322 -184.271,-231.203 -182.238,-229.941C-181.728,-230.663 -181.051,-231.621 -180.025,-233.074C-178.527,-232.676 -176.259,-234.164 -174.431,-232.001C-171.156,-232.419 -167.785,-231.175 -164.537,-232.794C-163.47,-233.325 -161.999,-233.121 -160.712,-233.126C-153.712,-233.152 -146.712,-233.138 -140.054,-233.138C-137.668,-232.138 -135.572,-231.259 -133.254,-230.288L-133.254,-220.701C-136.469,-221.659 -134.596,-224.673 -135.903,-226.697C-146.428,-219.641 -149.287,-209.162 -150.252,-198.272C-156.274,-182.435 -162.544,-167.233 -163.961,-150.359M-154.33,48.031C-152.94,46.601 -152.382,46.026 -151.786,45.413C-151.464,45.762 -151.258,45.882 -151.237,46.028C-151.186,46.384 -151.221,46.753 -151.221,47.377C-151.793,47.497 -152.417,47.629 -154.33,48.031M-155.581,56.513C-154.12,54.952 -153.245,54.016 -151.769,52.439C-151.443,54.275 -151.271,55.241 -150.979,56.887C-152.641,56.752 -153.65,56.67 -155.581,56.513M-157.858,-54.581L-157.858,-58.942C-157.673,-59.08 -157.486,-59.218 -157.301,-59.357C-156.953,-58.576 -156.606,-57.796 -156.394,-57.318C-156.519,-57.084 -156.916,-56.343 -157.858,-54.581M-168.479,-55.221C-169.542,-56.646 -170.184,-57.507 -171.093,-58.724C-169.98,-58.967 -169.355,-59.103 -168.479,-59.294L-168.479,-55.221ZM-178.41,-67.151L-178.41,-69.177C-177.833,-69.288 -177.326,-69.385 -176.737,-69.498C-175.856,-67.989 -175.874,-67.051 -178.41,-67.151M-181.548,-55.618C-182.613,-58.812 -180.882,-60.744 -178.888,-62.792C-177.574,-62.146 -176.328,-61.532 -175.129,-60.943C-174.645,-59.384 -174.179,-57.886 -173.658,-56.212C-176.46,-56.453 -179.021,-58.113 -181.548,-55.618M-179.66,32.822L-181.687,32.822C-181.797,32.245 -181.894,31.737 -182.007,31.148C-180.499,30.267 -179.56,30.285 -179.66,32.822M-186.373,-24.9L-186.373,-28.242C-185.797,-28.354 -185.287,-28.452 -184.409,-28.623C-184.319,-27.498 -184.238,-26.489 -184.146,-25.331C-184.864,-25.192 -185.374,-25.093 -186.373,-24.9M-192.706,32.991C-192.957,32.742 -193.209,32.493 -193.461,32.244C-192.949,31.618 -192.438,30.992 -191.478,29.816C-191.212,31.233 -191.093,31.868 -190.945,32.654C-191.69,32.797 -192.198,32.894 -192.706,32.991M-191.016,56.512L-194.427,56.512L-194.427,55.944L-191.016,55.944L-191.016,56.512ZM-200.979,34.981C-200.481,33.374 -200.075,32.062 -199.669,30.754L-197.058,30.754C-196.888,34.728 -196.978,34.825 -200.979,34.981M-202.48,32.73L-205.701,32.73L-205.701,30.835L-202.48,30.835L-202.48,32.73ZM-209.544,32.677C-211.096,31.712 -212.839,31.066 -214.526,32.983C-215.09,29.521 -215.626,26.228 -216.216,22.607C-213.336,25.485 -210.872,27.949 -208.455,30.365C-208.688,30.859 -209.062,31.652 -209.544,32.677M-229.496,51.144L-229.496,47.993L-224.232,47.993C-226.436,49.312 -227.847,50.157 -229.496,51.144M-234.421,30.634C-231.298,30.762 -228.326,33.972 -225.759,29.309C-225.614,29.883 -225.47,30.456 -225.326,31.03C-226.148,32.696 -226.97,34.361 -227.796,36.035C-228.635,36.431 -229.534,36.857 -230.339,37.238C-231.6,35.197 -232.865,33.152 -234.421,30.634M-238.198,28.381C-238.864,28.587 -239.485,28.931 -240.144,29.166C-240.63,29.34 -241.144,29.44 -242.239,29.73C-241.649,27.163 -241.213,25.269 -240.663,22.879C-239.673,22.821 -238.277,22.74 -237.019,22.667C-234.521,26.217 -234.798,27.326 -238.198,28.381M-243.019,20.03C-244.265,18.615 -245.098,17.67 -245.972,16.677C-243.558,14.915 -242.285,16.15 -241.423,17.178C-241.891,18.013 -242.336,18.808 -243.019,20.03M-246.688,37.353L-253.662,37.353C-253.154,34.792 -252.684,32.42 -252.258,30.272C-254.42,27.78 -256.489,27.617 -258.743,29.445C-260.046,27.654 -259.084,26.376 -257.492,24.95C-254.859,25.075 -251.928,25.095 -249.682,22.798C-248.803,26.568 -248.803,26.568 -250.262,30.039C-248.739,31.122 -247.16,32.244 -245.242,33.608C-245.737,34.888 -246.235,36.179 -246.688,37.353M-258.055,39.927C-257.314,39.832 -256.961,39.786 -256.271,39.698C-255.455,41.506 -255.996,43.39 -255.761,45.448C-258.953,44.067 -257.943,41.874 -258.055,39.927M-259.049,38.056L-259.049,33.974C-258.187,34.133 -257.555,34.248 -256.419,34.457C-257.327,35.7 -257.968,36.576 -259.049,38.056M-256.02,51.211C-256.89,51.037 -257.52,50.91 -258.643,50.685C-257.734,49.456 -257.092,48.587 -256.02,47.136L-256.02,51.211ZM-264.293,29.64C-265.452,28.22 -264.784,26.674 -264.787,25.073L-261.756,25.073C-261.08,27.311 -261.61,28.863 -264.293,29.64M-271.532,-228.414C-270.967,-228.492 -270.611,-228.542 -270.019,-228.624C-268.65,-225.802 -267.252,-222.92 -265.854,-220.038C-266.256,-219.719 -266.659,-219.4 -267.061,-219.081C-268.521,-220.407 -269.982,-221.734 -271.532,-223.141L-271.532,-228.414ZM-274.691,-309.624C-274.958,-311.042 -275.077,-311.676 -275.224,-312.463C-274.479,-312.606 -273.97,-312.703 -273.462,-312.8C-273.211,-312.551 -272.959,-312.302 -272.708,-312.052C-273.22,-311.426 -273.731,-310.8 -274.691,-309.624M-265.292,-305.471C-266.318,-304.198 -266.791,-303.463 -267.416,-302.895C-267.766,-302.577 -268.369,-302.537 -268.875,-302.366C-269.53,-305.828 -269.53,-305.828 -265.292,-305.471M-260.274,-228.358C-259.697,-228.468 -259.19,-228.565 -258.601,-228.678C-257.72,-227.169 -257.738,-226.231 -260.274,-226.33L-260.274,-228.358ZM-260.208,-317.181L-254.987,-317.181C-254.051,-313.459 -254.852,-310.02 -256.694,-306.894C-257.146,-306.126 -258.781,-306.056 -260.208,-305.544L-260.208,-317.181ZM-249.164,-309.638C-245.344,-314.47 -242.702,-316.239 -238.317,-317.392C-237.659,-316.735 -237.125,-316.2 -236.646,-315.721L-236.646,-312.802L-242.277,-312.802C-245.757,-309.145 -247.241,-304.392 -252.651,-301.93C-251.948,-305.349 -250.724,-307.665 -249.164,-309.638M-236.724,-328.464C-236.474,-325.853 -236.243,-323.442 -235.957,-320.453C-236.66,-320.181 -237.937,-319.688 -239.424,-319.113C-239.912,-322.458 -240.336,-325.367 -240.788,-328.464L-236.724,-328.464ZM-239.287,-228.396C-240.8,-227.322 -241.689,-226.691 -242.971,-225.782C-243.146,-226.949 -243.24,-227.581 -243.363,-228.396L-239.287,-228.396ZM-236.318,-230.778L-231.389,-230.778C-230.524,-229.626 -228.452,-229.068 -228.527,-226.563L-236.318,-226.563L-236.318,-230.778ZM-232.387,-274.378C-232.408,-274.655 -232.43,-274.931 -232.451,-275.207L-226.792,-275.207C-226.331,-274.705 -225.83,-274.16 -225.303,-273.586C-225.434,-273.406 -225.604,-272.967 -225.781,-272.964C-228.525,-272.92 -231.271,-272.933 -234.382,-273.656C-233.717,-273.897 -233.052,-274.137 -232.387,-274.378M-219.875,-230.864C-218.918,-229.727 -217.895,-228.511 -216.447,-226.789C-219.925,-225.904 -222.839,-226.563 -225.668,-226.271C-226.077,-228.729 -226.077,-228.729 -224.677,-230.864L-219.875,-230.864ZM-233.942,22.152C-232.242,22.818 -230.974,23.315 -229.937,23.721L-229.937,28.395C-232.429,28.437 -232.984,26.386 -234.304,25.398C-234.187,24.354 -234.092,23.501 -233.942,22.152M-256.477,-22.686C-254.201,-21.496 -254.558,-19.483 -254.752,-18.083C-255.433,-18.763 -256.396,-19.727 -257.462,-20.793C-257.448,-20.82 -256.953,-21.77 -256.477,-22.686M-246.803,-214.764L-242.715,-214.764C-244.209,-213.679 -245.089,-213.04 -246.341,-212.132C-246.542,-213.276 -246.652,-213.907 -246.803,-214.764M-245.789,-85.226L-245.789,-82.093C-247.74,-82.433 -247.74,-82.433 -247.493,-85.226L-245.789,-85.226ZM-222.666,-124.042C-219.855,-123.818 -219.228,-122.248 -219.537,-119.537L-222.666,-119.537L-222.666,-124.042ZM-252.585,-213.348C-252.073,-213.974 -251.562,-214.6 -250.602,-215.777C-250.336,-214.359 -250.217,-213.724 -250.069,-212.938C-250.814,-212.795 -251.322,-212.698 -251.83,-212.601C-252.081,-212.85 -252.333,-213.099 -252.585,-213.348M-269.539,-214.681C-268.793,-214.823 -268.286,-214.921 -267.778,-215.018C-267.527,-214.769 -267.275,-214.52 -267.023,-214.271C-267.535,-213.644 -268.046,-213.018 -269.006,-211.842C-269.272,-213.259 -269.392,-213.895 -269.539,-214.681M-226.365,-12.758L-229.571,-12.758L-229.571,-14.637L-226.365,-14.637L-226.365,-12.758ZM-215.356,-275.373C-215.008,-274.535 -214.675,-273.736 -214.336,-272.921C-214.357,-272.9 -214.893,-272.365 -215.494,-271.764C-215.983,-272.322 -216.473,-272.88 -217.05,-273.539C-216.656,-273.966 -216.184,-274.477 -215.356,-275.373M-118.06,-229.285C-117.93,-229.758 -117.31,-230.096 -116.727,-230.68L-102.557,-230.68C-102.495,-230.047 -102.4,-229.193 -102.332,-228.338C-102.236,-227.119 -102.28,-226.226 -104.027,-226.274C-108.685,-226.4 -113.348,-226.317 -118.299,-226.317C-118.221,-227.534 -118.289,-228.45 -118.06,-229.285M-94.075,-229.727L-92.719,-229.88C-92.473,-228.846 -92.226,-227.814 -91.939,-226.61C-92.747,-226.446 -93.256,-226.343 -94.075,-226.177L-94.075,-229.727ZM-88.496,-229.633L-86.6,-229.633L-86.6,-226.412L-88.496,-226.412L-88.496,-229.633ZM-81.188,-237.38C-80.923,-235.962 -80.804,-235.327 -80.656,-234.541C-81.402,-234.398 -81.91,-234.301 -82.418,-234.203C-82.669,-234.453 -82.921,-234.702 -83.172,-234.951C-82.66,-235.577 -82.149,-236.203 -81.188,-237.38M-77.206,-229.529L-69.466,-229.529L-69.466,-227.653L-77.206,-227.653L-77.206,-229.529ZM-97.592,16.053C-97.357,16.039 -97.123,16.025 -96.889,16.011C-96.794,17.404 -96.699,18.797 -96.604,20.19L-97.592,20.208L-97.592,16.053ZM-98.917,-135.495C-99.202,-134.76 -99.612,-134.039 -99.848,-133.299C-99.612,-134.039 -99.202,-134.76 -98.918,-135.495C-100.213,-137.054 -100.135,-138.793 -100.055,-140.47C-100.134,-138.793 -100.213,-137.054 -98.917,-135.495M-144.398,-153.959C-143.658,-154.995 -142.794,-155.86 -141.854,-156.619C-142.794,-155.86 -143.658,-154.995 -144.398,-153.959M-277.626,-296.918L-279.521,-296.918L-279.521,-306.825C-279.209,-306.842 -279.022,-306.908 -278.954,-306.845C-278.539,-306.468 -278.151,-306.061 -277.626,-305.536L-277.626,-296.918ZM-282.099,-224.394C-285.003,-224.081 -285.623,-221.888 -285.587,-219.494L-288.712,-219.494L-288.712,-228.382L-282.099,-228.382L-282.099,-224.394ZM-290.53,-309.778C-291.802,-310.824 -292.587,-311.471 -293.997,-312.631L-289.825,-312.631C-290.046,-311.736 -290.217,-311.045 -290.53,-309.778M-301.105,-222.985C-300.762,-223.789 -300.321,-224.459 -300.204,-225.183C-300.055,-226.102 -300.167,-227.063 -300.167,-228.491L-292.5,-228.491C-295.29,-224.945 -297.816,-223.299 -301.105,-222.985M-295.791,-78.509L-297.345,-78.509C-297.939,-79.714 -298.543,-80.94 -299.365,-82.606C-298.143,-82.827 -297.177,-83.002 -295.567,-83.293C-295.662,-81.263 -295.727,-79.877 -295.791,-78.509M-305.435,-143.749C-304.137,-144.441 -303.395,-144.836 -302.542,-145.29C-302.226,-144.717 -301.682,-143.735 -300.469,-141.542C-302.683,-142.526 -303.664,-142.962 -305.435,-143.749M-301.399,-117.401C-301.975,-117.289 -302.484,-117.19 -303.363,-117.02C-303.453,-118.144 -303.534,-119.153 -303.626,-120.312C-302.909,-120.45 -302.399,-120.55 -301.399,-120.743L-301.399,-117.401ZM-305.842,-206.977C-305.154,-208.376 -304.654,-209.394 -304.16,-210.399C-301.973,-210.399 -301.353,-209.146 -301.935,-205.458C-303.277,-205.98 -304.542,-206.471 -305.842,-206.977M-310.099,-109.404L-310.099,-112.616L-307.219,-112.616C-307.13,-111.641 -307.039,-110.631 -306.927,-109.404L-310.099,-109.404ZM-310.215,-120.477L-307.175,-120.477L-307.175,-117.352C-307.978,-117.288 -308.994,-117.208 -310.215,-117.112L-310.215,-120.477ZM-295.627,-305.438C-296.587,-304.554 -297.027,-302.89 -299.022,-304.101C-298.062,-304.985 -297.623,-306.649 -295.627,-305.438M-314.718,-310.555C-315.519,-314.121 -313.903,-317.976 -316.203,-321.127C-313.348,-323.958 -310.185,-318.441 -307.551,-321.78C-303.103,-318.964 -298.642,-316.14 -293.788,-313.068C-294.783,-311.954 -295.372,-311.295 -296.034,-310.555L-314.718,-310.555ZM-309.19,-295.879C-309.49,-298.14 -308.134,-298.75 -306.104,-299.354C-305.992,-298.119 -305.902,-297.12 -305.79,-295.879L-309.19,-295.879ZM-312.675,-302.716C-313.652,-302.631 -314.662,-302.543 -315.813,-302.443C-315.956,-303.146 -316.059,-303.655 -316.225,-304.474L-312.675,-304.474L-312.675,-302.716ZM-317.322,-296.999L-326.218,-296.999L-326.218,-298.896L-317.322,-298.896L-317.322,-296.999ZM-331.847,-302.89C-332.049,-303.174 -332.702,-304.091 -333.717,-305.518C-335.194,-299.256 -333.613,-293.898 -332.937,-288.383C-334.325,-287.164 -335.656,-285.995 -337.537,-284.344L-337.537,-281.613C-338.14,-281.01 -338.542,-280.608 -339.169,-279.981L-344.896,-279.981C-342.631,-287.105 -338.415,-293.109 -336.5,-300.123C-338.11,-302.384 -339.76,-304.701 -342.083,-307.965L-338.361,-307.965C-333.262,-313.807 -327.469,-318.327 -319.741,-320.433C-319.393,-316.57 -321.73,-313.779 -324.127,-310.697C-323.348,-309.035 -322.475,-307.174 -321.177,-304.406C-323.536,-305.01 -324.997,-305.384 -326.956,-305.885C-327.877,-304.602 -328.052,-301.509 -331.847,-302.89M-346.695,-298.692C-345.399,-298.459 -344.422,-298 -344.531,-296.151C-344.975,-295.968 -345.561,-295.729 -346.695,-295.263L-346.695,-298.692ZM18.213,-292.165C17.69,-292.553 16.268,-291.732 15.372,-291.497C14.279,-291.812 13.115,-292.147 12.457,-292.336C10.817,-291.219 9.648,-290.423 8.152,-289.404C5.284,-291.809 2.641,-294.006 0.019,-296.23C-2.65,-298.493 -5.411,-300.665 -7.919,-303.097C-9.925,-305.042 -12.42,-306.058 -14.868,-306.94C-17.248,-307.797 -19.299,-306.011 -21.286,-304.78C-21.423,-304.696 -21.658,-304.769 -22.157,-304.769C-23.684,-306.285 -25.369,-307.96 -27.001,-309.581C-28.147,-308.945 -28.912,-308.52 -29.629,-308.123C-30.487,-308.608 -31.248,-309.038 -32.279,-309.621C-33.579,-308.004 -34.802,-306.481 -36.173,-304.775L-37.43,-304.775C-40.271,-307.616 -42.794,-310.14 -45.362,-312.708L-45.362,-315.862C-41.346,-317.172 -38.785,-313.904 -35.57,-312.991C-32.567,-314.125 -32.567,-314.09 -30.469,-312.931C-25.336,-315.749 -23.439,-310.191 -19.335,-308.906C-19.324,-312.026 -19.373,-314.784 -19.316,-317.541C-19.256,-320.491 -19.557,-323.471 -19.182,-326.161L-12.452,-326.161L-12.452,-318.884C-11.726,-318.21 -11.185,-317.708 -10.681,-317.241C-9.253,-317.743 -7.925,-318.211 -6.392,-318.75C-5.053,-317.085 -3.835,-315.569 -2.691,-314.145C-0.221,-315.879 4.239,-314.422 5.695,-318.468C5.133,-320.897 2.951,-320.499 1.241,-321.006L1.241,-324.127C5.741,-323.91 9.966,-324.465 12.701,-328.554C11.979,-331.731 10.578,-334.087 8.059,-335.605C4.816,-334.164 5.062,-330.846 3.826,-328.219C0.207,-331.231 -3.023,-333.918 -6.291,-336.638C-10.469,-336.324 -14.631,-336.605 -18.909,-335.687C-23.437,-334.715 -28.339,-335.393 -33.073,-335.499C-35.557,-335.554 -38.033,-335.926 -40.676,-336.171C-42.006,-333.892 -40.8,-329.819 -45.173,-328.322C-45.355,-330.003 -45.507,-331.404 -45.563,-331.924C-46.764,-333.549 -47.548,-334.611 -48.126,-335.394L-67.984,-335.394C-69.264,-333.985 -71.137,-331.924 -73.178,-329.677C-74.231,-331.589 -75.311,-333.547 -76.288,-335.32L-83.097,-335.32C-84.38,-333.905 -85.767,-332.376 -87.141,-330.861C-89.323,-331.791 -91.416,-332.683 -93.461,-333.554C-94.324,-332.069 -96.09,-330.411 -97.378,-329.768C-98.469,-331.434 -96.677,-334.154 -99.934,-335.359L-106.747,-335.359C-107.908,-333.241 -109.696,-331.189 -110.151,-328.875C-110.875,-325.197 -111.746,-321.558 -112.492,-317.892C-113.254,-314.145 -113.451,-310.283 -113.771,-307.539C-116.137,-301.959 -118.119,-297.284 -120.268,-292.219C-126.192,-292.938 -132.74,-291.023 -139.107,-293.366C-139.774,-293.612 -140.705,-293.629 -141.354,-293.363C-145.648,-291.596 -150.141,-292.538 -154.537,-292.219C-155.916,-292.119 -157.257,-291.507 -157.949,-291.315C-159.681,-291.812 -160.847,-292.146 -161.974,-292.469C-162.487,-291.442 -162.865,-290.686 -163.317,-289.78C-164.169,-290.2 -164.905,-290.562 -165.314,-290.763C-167.375,-290.052 -169.191,-289.425 -170.967,-288.813C-173.247,-289.981 -174.699,-290.224 -177.02,-289.999C-178.975,-289.809 -180.842,-291.013 -182.926,-290.048C-184.969,-289.102 -187.237,-288.642 -189.473,-287.948C-189.856,-288.227 -190.428,-288.642 -190.915,-288.995C-191.922,-288.442 -192.689,-288.02 -193.385,-287.638C-194.894,-288.474 -196.187,-289.949 -197.604,-288.457L-197.604,-285.341L-187.814,-285.341C-187.105,-284.151 -186.484,-283.108 -186.097,-282.458C-183.355,-283.751 -180.531,-282.885 -177.978,-283.204C-176.362,-281.588 -174.888,-280.114 -173.275,-278.502C-172.502,-279.662 -171.75,-280.789 -171.106,-281.754C-170.402,-280.756 -169.658,-279.7 -169.535,-279.527C-167.485,-279.321 -166.44,-279.217 -164.309,-279.003C-163.937,-279.404 -162.841,-280.587 -161.754,-281.761C-160.755,-280.762 -159.683,-279.69 -159.031,-279.038C-157.021,-278.416 -155.518,-277.95 -153.477,-277.318C-153.041,-278.068 -152.501,-278.998 -152.255,-279.422C-150.81,-279.051 -149.978,-278.705 -149.124,-278.64C-144.729,-278.306 -140.223,-279.416 -135.937,-277.52C-135.303,-277.24 -134.178,-277.161 -133.723,-277.533C-130.645,-280.045 -127.938,-278.221 -125.157,-277.073C-125.216,-270.681 -127.825,-264.617 -133.028,-258.72C-133.028,-257.405 -133.546,-255.73 -132.931,-254.82C-131.154,-252.194 -132.283,-250.137 -133.607,-247.888C-137.225,-249.444 -140.885,-249.772 -143.754,-248.318C-148.062,-248.197 -148.566,-251.723 -150.68,-253.627C-151.051,-252.837 -151.412,-252.067 -151.785,-251.274C-154.968,-252.17 -155.679,-248.787 -157.516,-248.043L-161.061,-248.043C-163.155,-251.986 -163.923,-256.135 -163.957,-261.534C-164.754,-259.217 -164.843,-257.728 -165.633,-256.98C-166.581,-256.082 -168.125,-255.816 -169.2,-255.365L-169.2,-251.376C-167.454,-252.188 -166.906,-252.224 -165.132,-251.767C-167.354,-248.075 -171.819,-249.988 -174.872,-248.013C-175.807,-247.408 -177.473,-247.835 -178.786,-247.966C-179.244,-248.011 -179.652,-248.875 -180.08,-248.872C-181.759,-248.859 -183.437,-248.649 -185.317,-248.495C-185.497,-248.613 -185.938,-248.904 -186.547,-249.305C-187.585,-248.415 -188.542,-247.593 -189.171,-247.053L-202.725,-247.053C-202.255,-249.12 -201.862,-250.851 -201.427,-252.767C-207.438,-261.206 -209.094,-272.149 -215.477,-281.14C-217.832,-280.762 -220.248,-280.374 -222.995,-279.933C-222.247,-283.581 -219.384,-284.344 -217.91,-285.025C-214.813,-284.655 -212.737,-284.408 -210.842,-284.182C-210.006,-285.269 -209.47,-285.967 -208.863,-286.756C-211.79,-288.698 -214.417,-290.07 -216.959,-287.797C-218.861,-288.434 -220.312,-288.92 -221.653,-289.369C-221.174,-292.545 -220.717,-295.571 -220.308,-298.286C-221.366,-299.293 -222.009,-299.905 -222.537,-300.407C-223.817,-299.793 -224.744,-299.348 -225.617,-298.928C-226.765,-301.105 -227.752,-302.979 -228.599,-304.584C-229.572,-303.985 -230.343,-303.51 -231.068,-303.063C-230.42,-301.76 -229.954,-300.823 -229.634,-300.18C-230.274,-299.21 -230.746,-298.497 -231.217,-297.783C-231.687,-297.571 -232.156,-297.359 -232.626,-297.147C-232.97,-298.331 -233.314,-299.516 -233.571,-300.4C-235.449,-299.72 -236.77,-299.242 -236.981,-299.166C-238.866,-300.512 -240.077,-301.376 -241.496,-302.389C-237.707,-307.399 -230.791,-308.675 -228.635,-314.469L-228.635,-329.313C-230.341,-331.019 -231.948,-332.627 -233.239,-333.917C-240.303,-336.211 -247.224,-335.279 -254.339,-335.491C-255.441,-334.044 -256.628,-332.486 -257.82,-330.92C-258.16,-330.92 -258.586,-330.805 -258.91,-330.939C-261.83,-332.139 -264.569,-332.637 -267.745,-331.155C-269.381,-330.391 -271.979,-330.597 -273.709,-331.355C-277,-332.798 -280.185,-333.998 -283.831,-334.466C-287.64,-334.954 -291.367,-335.853 -295.482,-335.246C-296.032,-334.305 -296.658,-333.231 -297.308,-332.118C-302.371,-331.943 -307.569,-331.43 -311.151,-335.444C-313.155,-334.785 -314.648,-334.294 -316.697,-333.619C-317.41,-331.384 -318.209,-328.88 -319.055,-326.226C-323.585,-327.721 -328.196,-329.243 -333.117,-330.867C-333.726,-329.296 -334.292,-327.831 -334.861,-326.367C-339.03,-326.367 -343.197,-326.367 -347.364,-326.364C-347.9,-325.825 -348.436,-325.289 -348.761,-324.965C-347.061,-321.378 -348.508,-317.552 -347.596,-313.62C-346.023,-314.318 -344.655,-314.924 -343.188,-315.574C-343.71,-317.636 -344.181,-319.498 -344.722,-321.634L-338.045,-321.634C-336.743,-320.482 -335.92,-319.281 -337.207,-317.076C-339.59,-312.995 -342.93,-310.034 -346.701,-307.494C-347.108,-305.571 -347.281,-303.562 -347.968,-301.746C-349.7,-297.162 -350.37,-292.04 -353.764,-288.269C-355.173,-286.703 -354.322,-285.078 -354.997,-283.314C-356.593,-281.938 -358.382,-280.396 -360.429,-278.632C-360.429,-278.205 -360.833,-276.87 -360.359,-276.377C-358.154,-274.078 -359.632,-271.815 -360.538,-269.915C-361.561,-267.771 -362.112,-265.474 -361.435,-263.558C-360.201,-260.071 -359.776,-256.328 -358.103,-253.01C-356.44,-249.713 -355,-246.205 -352.769,-243.326C-351.259,-241.377 -351.211,-239.809 -351.598,-237.876C-352.385,-237.662 -352.983,-237.5 -353.686,-237.31C-352.605,-235.675 -351.724,-234.342 -350.636,-232.696C-348.271,-233.691 -346.057,-234.622 -343.621,-235.646C-344.054,-233.645 -343.365,-231.158 -341.759,-228.547C-340.052,-229.051 -337.976,-227.708 -336.221,-229.489L-330.8,-230.23C-326.236,-228.517 -321.473,-228.254 -316.703,-228.636C-312.375,-228.982 -309.036,-227.105 -305.462,-224.425C-306.164,-222.731 -306.871,-221.025 -307.72,-218.976C-308.719,-219.706 -309.29,-220.123 -309.558,-220.318C-310.879,-219.937 -312.044,-219.601 -312.087,-219.588C-315.819,-221.384 -318.59,-222.718 -321.113,-223.932C-324.774,-221.491 -321.947,-218.818 -321.742,-216.29C-332.181,-218.535 -341.012,-217.474 -346.731,-213.326C-347.045,-209.671 -346.163,-206.634 -342.218,-205.22L-342.218,-201.483C-340.47,-197.626 -339.021,-194.429 -337.523,-191.124L-328.261,-191.124C-327.383,-190.356 -326.816,-189.86 -325.935,-189.087C-326.482,-187.838 -327.044,-186.555 -327.623,-185.233L-334.997,-185.233C-335.6,-184.63 -336.002,-184.228 -336.711,-183.52C-335.088,-182.392 -333.387,-181.444 -331.976,-180.175C-329.948,-178.352 -328.382,-181.434 -326.45,-180.657C-327.47,-178.081 -328.417,-175.691 -329.729,-172.376L-329.729,-159.234C-327.448,-159.158 -325.668,-158.063 -324.044,-156.394C-324.044,-154.616 -324.694,-152.415 -323.929,-150.956C-321.064,-145.495 -321.562,-139.273 -319.775,-133.482C-321.408,-132.289 -320.358,-130.268 -320.634,-128.534C-319.076,-127.239 -317.518,-125.944 -316.244,-124.884C-316.697,-120.728 -317.111,-116.927 -317.46,-113.724C-315.839,-111.168 -314.606,-109.225 -313.193,-106.997C-312.207,-106.672 -310.876,-106.231 -309.545,-105.795C-307.181,-105.02 -307.037,-104.75 -307.52,-101.112L-311.421,-101.112L-311.421,-96.177C-311.005,-95.56 -310.578,-95.151 -310.42,-94.656C-308.872,-89.803 -307.47,-84.901 -305.827,-80.081C-303.737,-73.951 -301.992,-67.685 -299.018,-61.887C-298.487,-60.852 -297.794,-59.899 -297.197,-58.943C-295.821,-59.603 -294.894,-60.048 -293.904,-60.524C-292.807,-55.618 -290.296,-50.92 -294.53,-47.025C-292.133,-40.306 -289.912,-34.033 -287.656,-27.773C-285.349,-21.368 -283.007,-14.975 -280.492,-8.057C-287.471,-8.045 -294.032,-7.321 -300.557,-10.433C-302.726,-7.887 -305.831,-7.955 -308.964,-7.998C-313.104,-8.055 -317.247,-8.012 -321.307,-8.012C-321.704,-7.083 -322.023,-6.336 -322.404,-5.447C-323.52,-6.057 -324.286,-6.476 -325.29,-7.025C-325.783,-6.661 -326.352,-6.242 -327.357,-5.5C-329.587,-5.807 -332.261,-6.175 -335.101,-6.565C-335.416,-6.343 -335.993,-5.938 -336.475,-5.599C-337.477,-6.166 -338.237,-6.596 -338.681,-6.846C-344.473,-4.757 -349.952,-3.633 -355.691,-5.357C-356.094,-4.957 -356.72,-4.615 -356.848,-4.14C-357.073,-3.301 -356.995,-2.38 -357.056,-1.281L-346.086,-1.281C-345.784,-0.457 -345.544,0.199 -345.129,1.333C-342.594,0.892 -339.966,0.436 -337.303,-0.027C-335.161,1.18 -334.194,4.074 -331.315,4.613C-331.002,3.76 -330.762,3.103 -330.275,1.775C-329.605,2.982 -329.085,3.919 -328.852,4.34L-323.772,4.34C-322.261,3.331 -321.24,2.649 -320.5,2.156C-319.542,3.132 -318.949,3.918 -318.188,4.474C-316.113,5.993 -313.896,6.109 -311.513,5.092C-310.55,4.68 -309.169,4.193 -308.394,4.578C-304.834,6.345 -301.094,5.273 -297.465,5.663C-295.893,5.831 -294.356,6.338 -293.048,6.636C-291.109,5.885 -289.317,5.191 -287.314,4.416C-286.46,5.185 -285.519,6.032 -284.398,7.039C-282.678,6.607 -280.959,6.175 -279.031,5.69C-278.582,6.232 -277.607,6.869 -277.488,7.638C-276.196,15.995 -272.896,23.527 -268.315,30.549C-267.751,31.413 -267.114,32.529 -266.257,32.847C-263.325,33.94 -262.966,36.451 -262.698,38.906C-262.454,41.151 -263.266,43.699 -262.466,45.642C-261.718,47.461 -261.688,49.133 -261.473,50.922C-261.262,52.679 -260.604,54.383 -260.403,56.139C-259.988,59.777 -258.95,63.11 -256.375,66.06L-250.523,66.06C-249.767,67.702 -249.118,69.112 -248.292,70.907C-246.872,69.892 -245.663,69.03 -244.862,68.674C-245.454,67.218 -245.546,66.233 -245.68,64.797C-244.734,64.89 -244.008,64.962 -242.799,65.082C-243.636,66.47 -244.192,67.393 -244.862,68.674C-241.315,68.657 -238.994,66.62 -236.606,65.261C-234.758,64.208 -233.672,65.301 -232.151,65.666C-230.903,64.743 -229.535,63.864 -228.328,62.802C-226.908,61.552 -225.68,60.086 -224.265,58.831C-223.702,58.333 -222.86,58.151 -221.864,57.697C-222.331,60.657 -222.712,63.072 -223.132,65.727L-219.085,65.727C-217.793,64.885 -216.659,64.144 -214.85,62.965L-214.85,71.515L-211.645,71.515C-210.42,70.193 -209.11,68.204 -207.287,66.973C-205.505,65.769 -205.454,62.688 -201.954,62.387C-203.316,65.32 -204.175,67.796 -203.084,70.571C-201.656,69.142 -200.563,67.784 -199.212,66.772C-197.813,65.724 -195.886,63.927 -194.478,64.901C-192.048,66.58 -190.141,65.395 -187.599,64.388L-187.599,71.837C-184.683,71.317 -182.217,70.939 -179.781,70.422C-177.829,70.007 -176.328,71.6 -174.566,71.513C-172.814,71.427 -171.09,70.806 -169.348,70.451C-168.983,70.377 -168.504,70.296 -168.226,70.463C-164.756,72.546 -160.978,71.112 -157.335,71.646C-156.763,70.783 -156.154,70.082 -155.793,69.271C-155.151,67.834 -154.66,66.33 -154.071,64.762C-153.621,64.816 -153.105,64.88 -152.477,64.956C-152.377,66.863 -152.284,68.658 -152.201,70.247L-131.13,70.247C-130.535,69.652 -130.133,69.25 -129.739,68.856C-129.622,66.709 -129.506,64.569 -129.349,61.687C-127.013,63.542 -125.35,64.862 -123.815,66.081C-120.662,63.791 -118.854,60.525 -115.131,58.573C-114.955,60.799 -114.813,62.579 -114.671,64.383C-114.027,64.979 -113.377,65.583 -112.707,66.205C-110.657,64.894 -108.928,63.787 -107.754,63.037C-106.065,63.309 -104.909,63.496 -103.268,63.762C-103.933,62.663 -104.4,62.147 -104.571,61.547C-104.8,60.74 -104.799,59.868 -104.921,58.807C-106.947,59.317 -108.557,59.721 -110.989,60.332C-108.38,55.701 -106.226,51.877 -103.917,47.779C-100.706,46.352 -98.38,50.361 -94.7,49.978C-93.549,48.417 -92.266,46.676 -91.092,45.083C-91.602,44.046 -92.061,43.112 -92.667,41.879C-94.225,42.293 -95.849,42.724 -97.508,43.165L-97.508,38.303C-94.713,39.356 -92.104,41.293 -89.893,38.042C-91.034,35.642 -91.034,35.642 -90.506,30.477C-89.561,30.86 -88.697,31.211 -87.698,31.616C-86.871,27.846 -86.165,24.182 -85.251,20.571C-84.124,16.119 -83.132,11.505 -81.518,7.335C-79.369,1.781 -77.153,-3.748 -75.354,-9.43C-74.024,-13.626 -72.572,-17.817 -71.704,-22.116C-70.605,-27.554 -68.013,-32.343 -66.073,-37.553L-66.073,-41.683C-66.87,-43.247 -67.196,-43.887 -67.626,-44.732C-70.292,-41.617 -72.635,-38.88 -75.061,-36.046C-77.487,-38.002 -78.688,-40.043 -78.477,-42.213C-76.269,-44.074 -74.462,-45.598 -72.561,-47.201L-72.561,-61.327L-69.477,-61.327L-69.477,-49.39C-68.473,-48.72 -67.593,-48.133 -66.417,-47.347C-65.137,-49.661 -63.905,-51.616 -62.95,-53.699C-62.144,-55.459 -62.688,-57.62 -61.438,-59.336C-61.166,-59.707 -61.233,-60.508 -61.427,-61.001C-62.131,-62.791 -62.954,-64.535 -63.726,-66.28C-60.544,-69.706 -57.406,-73.084 -54.575,-76.133C-54.575,-80.374 -54.38,-83.984 -54.63,-87.564C-54.883,-91.187 -55.576,-94.779 -56.035,-98.082C-55.133,-98.983 -54.598,-99.519 -53.824,-100.292C-52.814,-100 -51.648,-99.663 -50.304,-99.275C-48.538,-100.387 -46.441,-101.709 -45.006,-102.613C-41.577,-106.706 -43.99,-109.793 -45.652,-112.733C-39.888,-121.113 -30.946,-138.294 -32.972,-149.717C-34.298,-151.561 -35.032,-152.582 -35.643,-153.432C-36.91,-152.489 -37.91,-151.745 -39.287,-150.721C-39.936,-154.593 -42.469,-157.725 -39.878,-161.41C-39.395,-162.099 -39.619,-163.803 -40.166,-164.586C-41.186,-166.047 -41.092,-167.112 -40.214,-168.551C-39.389,-169.905 -39.266,-171.807 -37.031,-171.756C-36.625,-171.378 -36.216,-170.997 -36.27,-171.047C-35.414,-171.484 -34.566,-171.916 -33.833,-172.29C-34.529,-173.696 -34.994,-174.634 -35.456,-175.566C-34.734,-176.231 -34.18,-176.741 -33.356,-177.498L-28.226,-177.498C-28.622,-179.925 -28.974,-182.079 -29.323,-184.221C-26.115,-184.472 -26.551,-181.406 -25.033,-180.288C-25.011,-175.257 -25.011,-175.257 -23.024,-170.887C-19.641,-178.731 -19.328,-180.09 -19.328,-187.003C-20.558,-188.32 -21.799,-189.651 -23.281,-191.239C-21.111,-193.197 -19.251,-194.878 -17.256,-196.679L-17.256,-199.228C-21.479,-198.011 -25.502,-197.294 -29.922,-198.326C-29.101,-199.978 -28.481,-201.224 -27.729,-202.737C-27.055,-202.321 -26.502,-201.853 -25.864,-201.627C-25.281,-201.42 -24.604,-201.475 -23.733,-201.392L-23.733,-207.698C-23.131,-208.301 -22.729,-208.703 -22.126,-209.306L-13.03,-209.306C-12.428,-209.909 -12.025,-210.311 -11.645,-210.692L-11.645,-216.47C-13.883,-215.406 -15.751,-214.518 -17.606,-213.636C-18.097,-214.679 -18.45,-215.432 -18.802,-216.179C-20.111,-215.668 -21.195,-215.245 -22.335,-214.8C-22.907,-217.048 -22.658,-219.429 -25.877,-219.552C-25.971,-218.84 -25.989,-218.134 -26.172,-217.474C-26.329,-216.911 -26.676,-216.401 -27.154,-215.428C-28.333,-217.071 -29.124,-218.184 -29.928,-219.289C-30.768,-220.445 -31.618,-221.593 -32.758,-223.144C-33.785,-222.757 -35.081,-222.269 -36.636,-221.684L-36.636,-212.947C-43.137,-218.067 -47.538,-224.254 -53.744,-228.384C-54.263,-228.729 -54.468,-229.545 -55.123,-230.663C-52.431,-230.786 -50.259,-230.886 -47.689,-231.004L-47.689,-237.595C-47.322,-237.844 -46.955,-238.093 -46.587,-238.342C-44.279,-234.33 -40.896,-231.483 -37.948,-228.442C-30.16,-230.365 -22.567,-231.369 -14.571,-235.087C-14.122,-235.504 -12.79,-236.743 -11.021,-238.389C-10.235,-237.092 -9.649,-236.123 -9.051,-235.134C-7.052,-237.307 -5.578,-234.313 -3.594,-235.682C-3.074,-237.532 -2.455,-239.734 -1.725,-242.335C-0.237,-241.987 1.402,-241.603 3.191,-241.183L3.191,-244.87C1.908,-244.254 0.995,-243.816 0.296,-243.48C-1.25,-243.851 -2.643,-244.109 -3.982,-244.534C-4.807,-244.797 -5.569,-245.287 -6.316,-245.745C-6.491,-245.853 -6.492,-246.245 -6.599,-246.586C-5.622,-246.702 -4.728,-246.809 -4.488,-246.837C-0.002,-249.306 1.132,-253.537 2.914,-257.213C4.586,-260.661 5.644,-264.424 6.796,-268.103C7.979,-271.881 8.949,-275.725 10.189,-280.175C8.397,-279.602 7.1,-279.187 6.538,-279.007C4.906,-277.088 6.746,-274.939 4.152,-273.695C3.324,-275.682 2.556,-277.528 1.713,-279.551C0.058,-280.538 -2.563,-280.653 -3.487,-283.134C-3.251,-283.592 -3.167,-283.998 -2.917,-284.201C-0.678,-286.025 2.44,-285.954 4.296,-287.69C5.41,-287.461 6.216,-287.027 6.829,-287.216C10.119,-288.226 13.271,-287.92 16.32,-286.508C18.418,-289.009 21.431,-286.79 23.854,-288.143C24.286,-288.774 24.782,-289.5 25.057,-289.902C23.687,-294.346 20.308,-290.607 18.213,-292.165" style="fill-rule:nonzero;"/>
        </g>
    </g>
</svg>
