<?xml version="1.0" encoding="UTF-8" standalone="no"?>
<!DOCTYPE svg PUBLIC "-//W3C//DTD SVG 1.1//EN" "http://www.w3.org/Graphics/SVG/1.1/DTD/svg11.dtd">
<svg width="100%" height="100%" viewBox="0 0 800 800" version="1.1" xmlns="http://www.w3.org/2000/svg" xmlns:xlink="http://www.w3.org/1999/xlink" xml:space="preserve" xmlns:serif="http://www.serif.com/" style="fill-rule:evenodd;clip-rule:evenodd;stroke-linejoin:round;stroke-miterlimit:2;">
    <g id="Layer_12" transform="matrix(25,0,0,25,0,0)">
        <path d="M29.7,12.41L25.34,8.11C25.371,8.096 25.398,8.075 25.42,8.05L26.92,6.43L26.92,6.37L28.25,7.71C28.438,7.899 28.693,8.006 28.96,8.006C29.227,8.006 29.482,7.899 29.67,7.71C29.859,7.522 29.966,7.267 29.966,7C29.966,6.733 29.859,6.478 29.67,6.29L25.67,2.29C25.482,2.102 25.226,1.996 24.96,1.996C24.409,1.996 23.956,2.449 23.956,3C23.956,3.266 24.062,3.522 24.25,3.71L25.57,5C25.528,5.023 25.488,5.05 25.45,5.08L24,6.7L19.45,2.29C19.26,2.072 18.985,1.946 18.695,1.946C18.147,1.946 17.695,2.397 17.695,2.946C17.695,3.24 17.825,3.52 18.05,3.71L20.05,5.71L7.48,18.2C6.042,19.626 5.787,21.879 6.87,23.59L2.28,28.3C2.098,28.487 1.996,28.739 1.996,29C1.996,29.551 2.449,30.004 3,30.004C3.271,30.004 3.531,29.894 3.72,29.7L8.29,25C9.999,26.069 12.24,25.811 13.66,24.38L26.24,11.8L28.3,13.8C28.486,13.985 28.738,14.089 29,14.09C29.267,14.089 29.523,13.981 29.71,13.79C30.073,13.403 30.069,12.791 29.7,12.41ZM12.25,23C11.312,23.884 9.828,23.884 8.89,23C7.976,22.075 7.976,20.565 8.89,19.64L9.89,18.64L11.84,20.78C12.031,20.986 12.299,21.102 12.58,21.1C12.831,21.102 13.074,21.009 13.26,20.84C13.662,20.469 13.689,19.834 13.32,19.43L11.32,17.22L11.6,16.94L12.33,17.64C12.515,17.819 12.763,17.919 13.02,17.92C13.291,17.922 13.551,17.813 13.74,17.62C13.929,17.432 14.036,17.177 14.036,16.91C14.036,16.643 13.929,16.388 13.74,16.2L13.04,15.53L13.36,15.21L14.08,15.9C14.264,16.082 14.511,16.186 14.77,16.19C15.042,16.189 15.302,16.077 15.49,15.88C15.875,15.493 15.875,14.857 15.49,14.47L14.79,13.79L15.12,13.46L17.25,15.78C17.439,15.989 17.708,16.109 17.99,16.11C17.992,16.11 17.995,16.11 17.997,16.11C18.545,16.11 18.997,15.659 18.997,15.11C18.997,14.858 18.901,14.615 18.73,14.43L16.48,12L16.75,11.73L17.65,12.61C17.841,12.787 18.09,12.887 18.35,12.89C18.622,12.889 18.882,12.777 19.07,12.58C19.455,12.193 19.455,11.557 19.07,11.17L18.19,10.32L18.51,10L19.41,10.87C19.598,11.051 19.849,11.152 20.11,11.15C20.377,11.149 20.633,11.041 20.82,10.85C21.009,10.662 21.116,10.407 21.116,10.14C21.116,9.873 21.009,9.618 20.82,9.43L19.95,8.59L21.41,7.13L24.76,10.48L12.25,23Z" style="fill-rule:nonzero;"/>
    </g>
</svg>
