<?xml version="1.0" encoding="UTF-8" standalone="no"?>
<!DOCTYPE svg PUBLIC "-//W3C//DTD SVG 1.1//EN" "http://www.w3.org/Graphics/SVG/1.1/DTD/svg11.dtd">
<svg width="100%" height="100%" viewBox="0 0 800 800" version="1.1" xmlns="http://www.w3.org/2000/svg" xmlns:xlink="http://www.w3.org/1999/xlink" xml:space="preserve" xmlns:serif="http://www.serif.com/" style="fill-rule:evenodd;clip-rule:evenodd;stroke-linejoin:round;stroke-miterlimit:2;">
    <g transform="matrix(3.0888,0,0,3.0888,4.6332,0)">
        <path d="M67.663,221.823L71.848,223.916C89.287,234.379 108.819,239.262 128.351,239.262C189.736,239.262 239.96,189.038 239.96,127.653C239.96,98.356 228.101,69.756 207.175,48.829C186.248,27.902 158.346,16.044 128.351,16.044C66.966,16.044 16.741,66.268 17.439,128.351C17.439,149.277 23.717,169.507 34.18,186.945L36.971,191.131L25.81,232.287L67.663,221.823Z" style="fill:rgb(0,173,90);fill-rule:nonzero;"/>
        <clipPath id="_clip1">
            <path d="M67.663,221.823L71.848,223.916C89.287,234.379 108.819,239.262 128.351,239.262C189.736,239.262 239.96,189.038 239.96,127.653C239.96,98.356 228.101,69.756 207.175,48.829C186.248,27.902 158.346,16.044 128.351,16.044C66.966,16.044 16.741,66.268 17.439,128.351C17.439,149.277 23.717,169.507 34.18,186.945L36.971,191.131L25.81,232.287L67.663,221.823Z" clip-rule="nonzero"/>
        </clipPath>
        <g clip-path="url(#_clip1)">
            <g transform="matrix(0.404508,0,0,0.404508,6.0227,-76.1121)">
                <ellipse cx="426" cy="428.5" rx="451" ry="446.5" style="fill:url(#_Radial2);"/>
            </g>
        </g>
        <path d="M219.033,37.668C195.316,13.254 162.531,0 129.048,0C57.897,0 0.698,57.897 1.395,128.351C1.395,150.672 7.673,172.297 18.137,191.828L0,258.096L67.663,240.657C86.497,251.121 107.424,256.004 128.351,256.004C198.804,256.004 256.004,198.106 256.004,127.653C256.004,93.473 242.75,61.385 219.033,37.668ZM129.048,234.379C110.214,234.379 91.38,229.497 75.336,219.731L71.151,217.638L30.693,228.101L41.156,188.341L38.366,184.155C7.673,134.629 22.322,69.058 72.546,38.366C122.77,7.673 187.643,22.322 218.336,72.546C249.028,122.77 234.379,187.643 184.155,218.336C168.111,228.799 148.58,234.379 129.048,234.379ZM190.433,156.951L182.76,153.463C182.76,153.463 171.599,148.58 164.624,145.092C163.926,145.092 163.229,144.394 162.531,144.394C160.438,144.394 159.043,145.092 157.648,145.79C157.648,145.79 156.951,146.487 147.185,157.648C146.487,159.043 145.092,159.741 143.697,159.741L142.999,159.741C142.302,159.741 140.907,159.043 140.209,158.346L136.721,156.951C129.048,153.463 122.073,149.277 116.492,143.697C115.097,142.302 113.004,140.907 111.609,139.512C106.726,134.629 101.843,129.048 98.356,122.77L97.658,121.375C96.961,120.677 96.961,119.98 96.263,118.585C96.263,117.19 96.263,115.795 96.961,115.097C96.961,115.097 99.751,111.609 101.843,109.517C103.239,108.121 103.936,106.029 105.331,104.634C106.726,102.541 107.424,99.751 106.726,97.658C106.029,94.17 97.658,75.336 95.565,71.151C94.17,69.058 92.775,68.361 90.683,67.663L83.009,67.663C81.614,67.663 80.219,68.361 78.824,68.361L78.126,69.058C76.731,69.756 75.336,71.151 73.941,71.848C72.546,73.244 71.848,74.639 70.453,76.034C65.57,82.312 62.78,89.985 62.78,97.658C62.78,103.239 64.175,108.819 66.268,113.702L66.966,115.795C73.244,129.048 81.614,140.907 92.775,151.37L95.565,154.16C97.658,156.253 99.751,157.648 101.146,159.741C115.795,172.297 132.536,181.365 151.37,186.248C153.463,186.945 156.253,186.945 158.346,187.643L165.321,187.643C168.809,187.643 172.994,186.248 175.785,184.853C177.877,183.458 179.272,183.458 180.667,182.063L182.063,180.667C183.458,179.272 184.853,178.575 186.248,177.18C187.643,175.785 189.038,174.389 189.736,172.994C191.131,170.204 191.828,166.716 192.526,163.229L192.526,158.346C192.526,158.346 191.828,157.648 190.433,156.951Z" style="fill:white;fill-rule:nonzero;"/>
    </g>
    <defs>
        <radialGradient id="_Radial2" cx="0" cy="0" r="1" gradientUnits="userSpaceOnUse" gradientTransform="matrix(451,0,0,446.5,426,428.5)"><stop offset="0" style="stop-color:rgb(141,255,200);stop-opacity:1"/><stop offset="0.48" style="stop-color:rgb(104,233,171);stop-opacity:1"/><stop offset="1" style="stop-color:rgb(0,173,89);stop-opacity:1"/></radialGradient>
    </defs>
</svg>
