<?xml version="1.0" encoding="iso-8859-1"?>
<!-- Uploaded to: SVG Repo, www.svgrepo.com, Generator: SVG Repo Mixer Tools -->
<svg fill="#000000" height="800px" width="800px" version="1.1" id="Layer_1" xmlns="http://www.w3.org/2000/svg" xmlns:xlink="http://www.w3.org/1999/xlink" 
	 viewBox="0 0 512 512" xml:space="preserve">
<g>
	<g>
		<path d="M377.201,115.921H271.671v-18.36c14.396-6.12,24.517-20.403,24.517-37.007c0-9.456-3.393-22.855-8.645-34.135
			C277.375,4.583,264.778,0,256,0c-8.777,0-21.376,4.583-31.544,26.42c-5.253,11.279-8.646,24.678-8.646,34.135
			c0,16.604,10.122,30.887,24.52,37.007v18.359H134.799c-49.767,0-90.257,40.49-90.257,90.259v38.423
			c0,26.674,12.977,50.368,32.941,65.121v112.02c0,49.767,40.49,90.257,90.258,90.257h176.517c49.767,0,90.257-40.489,90.257-90.257
			V309.724c19.965-14.753,32.942-38.447,32.942-65.122v-38.423C467.458,156.411,426.968,115.921,377.201,115.921z M255.999,33.819
			c4.185,6.364,8.846,19.687,8.846,26.736c0,4.878-3.968,8.846-8.846,8.846c-4.879,0-8.848-3.968-8.848-8.846
			C247.152,53.507,251.813,40.183,255.999,33.819z M403.174,421.743L403.174,421.743c-0.001,32.485-26.429,58.914-58.915,58.914
			H167.741c-32.486,0-58.915-26.428-58.915-58.914v-97.935c5.375,1.129,10.943,1.73,16.649,1.73
			c26.762,0,50.521-13.065,65.263-33.143c14.742,20.077,38.5,33.143,65.261,33.143c26.762,0,50.521-13.066,65.263-33.143
			c14.743,20.077,38.502,33.143,65.263,33.143c5.705,0,11.272-0.602,16.647-1.73V421.743z M436.115,244.602
			c0,27.346-22.245,49.593-49.59,49.593s-49.592-22.247-49.592-49.593c0-8.655-7.017-15.671-15.671-15.671
			c-8.655,0-15.671,7.017-15.671,15.671c0,27.346-22.246,49.593-49.592,49.593c-27.344,0-49.59-22.247-49.59-49.593
			c0-8.655-7.017-15.671-15.672-15.671c-8.655,0-15.671,7.017-15.671,15.671c0,27.346-22.247,49.593-49.592,49.593
			s-49.591-22.247-49.591-49.593v-38.423c0-32.486,26.428-58.916,58.914-58.916H377.2c32.486,0,58.915,26.429,58.915,58.916V244.602
			z"/>
	</g>
</g>
</svg>